<svg width="33" height="32" viewBox="0 0 33 32" fill="none" xmlns="http://www.w3.org/2000/svg">
<rect x="0.5" width="32" height="32" rx="16" fill="url(#paint0_linear_7970_40883)"/>
<g clip-path="url(#clip0_7970_40883)">
<mask id="mask0_7970_40883" style="mask-type:alpha" maskUnits="userSpaceOnUse" x="4" y="4" width="25" height="24">
<rect x="4.5" y="4" width="24" height="24" fill="#D9D9D9"/>
</mask>
<g mask="url(#mask0_7970_40883)">
<path d="M7.5 13.0241C7.5 12.8575 7.53333 12.7075 7.6 12.5741C7.66667 12.4408 7.76667 12.3241 7.9 12.2241L10.95 9.99912C11.35 9.71579 11.7917 9.59079 12.275 9.62412C12.7583 9.65746 13.175 9.84912 13.525 10.1991L16.7 13.3741L23.925 8.14912C24.2583 7.91579 24.6042 7.89079 24.9625 8.07412C25.3208 8.25746 25.5 8.55746 25.5 8.97412C25.5 9.14079 25.4625 9.29079 25.3875 9.42412C25.3125 9.55746 25.2083 9.67412 25.075 9.77412L17.875 14.9991C17.475 15.2825 17.0333 15.4075 16.55 15.3741C16.0667 15.3408 15.65 15.1491 15.3 14.7991L12.125 11.6241L9.075 13.8491C8.74167 14.0825 8.39583 14.1075 8.0375 13.9241C7.67917 13.7408 7.5 13.4408 7.5 13.0241Z" fill="white"/>
<path d="M7.5 19.0494C7.5 18.8828 7.5375 18.7286 7.6125 18.5869C7.6875 18.4453 7.79167 18.3328 7.925 18.2494L9.15 17.3744C9.53333 17.0911 9.96667 16.9703 10.45 17.0119C10.9333 17.0536 11.35 17.2411 11.7 17.5744L16.625 22.3494L20.25 19.4494C20.4333 19.3161 20.6292 19.2078 20.8375 19.1244C21.0458 19.0411 21.2667 18.9994 21.5 18.9994H24.5C24.7833 18.9994 25.0208 19.0953 25.2125 19.2869C25.4042 19.4786 25.5 19.7161 25.5 19.9994C25.5 20.2828 25.4042 20.5203 25.2125 20.7119C25.0208 20.9036 24.7833 20.9994 24.5 20.9994H21.5L17.875 23.8994C17.4917 24.2161 17.0458 24.3619 16.5375 24.3369C16.0292 24.3119 15.5917 24.1244 15.225 23.7744L10.3 18.9994L9.075 19.8744C8.74167 20.1078 8.39583 20.1328 8.0375 19.9494C7.67917 19.7661 7.5 19.4661 7.5 19.0494Z" fill="white"/>
</g>
</g>
<defs>
<linearGradient id="paint0_linear_7970_40883" x1="19.0455" y1="-9.6" x2="15.5492" y2="31.7195" gradientUnits="userSpaceOnUse">
<stop stop-color="#4399EB"/>
<stop offset="1" stop-color="#00498E"/>
</linearGradient>
<clipPath id="clip0_7970_40883">
<rect width="24" height="24" fill="white" transform="translate(4.5 4)"/>
</clipPath>
</defs>
</svg>
