<svg width="32" height="32" viewBox="0 0 32 32" fill="none" xmlns="http://www.w3.org/2000/svg">
<rect width="32" height="32" rx="16" fill="url(#paint0_linear_7970_40866)"/>
<g clip-path="url(#clip0_7970_40866)">
<mask id="mask0_7970_40866" style="mask-type:alpha" maskUnits="userSpaceOnUse" x="4" y="4" width="24" height="24">
<rect x="4" y="4" width="24" height="24" fill="#D9D9D9"/>
</mask>
<g mask="url(#mask0_7970_40866)">
<path d="M14.4504 16.975L15.7504 18.275C15.9337 18.4583 16.1671 18.55 16.4504 18.55C16.7337 18.55 16.9671 18.4583 17.1504 18.275L20.0004 15.425V16.025C20.0004 16.3083 20.0962 16.5417 20.2879 16.725C20.4796 16.9083 20.7171 17 21.0004 17C21.2837 17 21.5212 16.9042 21.7129 16.7125C21.9046 16.5208 22.0004 16.2833 22.0004 16V13C22.0004 12.7167 21.9046 12.4792 21.7129 12.2875C21.5212 12.0958 21.2837 12 21.0004 12H17.9754C17.6921 12 17.4587 12.0958 17.2754 12.2875C17.0921 12.4792 17.0004 12.7167 17.0004 13C17.0004 13.2833 17.0962 13.5208 17.2879 13.7125C17.4796 13.9042 17.7171 14 18.0004 14H18.5754L16.4504 16.15L15.1504 14.85C14.9671 14.65 14.7337 14.55 14.4504 14.55C14.1671 14.55 13.9337 14.65 13.7504 14.85L10.7004 17.9C10.5004 18.0833 10.4004 18.3167 10.4004 18.6C10.4004 18.8833 10.5004 19.1167 10.7004 19.3C10.8837 19.5 11.1171 19.6 11.4004 19.6C11.6837 19.6 11.9171 19.5 12.1004 19.3L14.4504 16.975Z" fill="white"/>
<path d="M9 25C8.45 25 7.97917 24.8042 7.5875 24.4125C7.19583 24.0208 7 23.55 7 23V9C7 8.45 7.19583 7.97917 7.5875 7.5875C7.97917 7.19583 8.45 7 9 7H23C23.55 7 24.0208 7.19583 24.4125 7.5875C24.8042 7.97917 25 8.45 25 9V23C25 23.55 24.8042 24.0208 24.4125 24.4125C24.0208 24.8042 23.55 25 23 25H9ZM9 23H23V9H9V23Z" fill="white"/>
</g>
</g>
<defs>
<linearGradient id="paint0_linear_7970_40866" x1="18.5455" y1="-9.6" x2="15.0492" y2="31.7195" gradientUnits="userSpaceOnUse">
<stop stop-color="#4399EB"/>
<stop offset="1" stop-color="#00498E"/>
</linearGradient>
<clipPath id="clip0_7970_40866">
<rect width="24" height="24" fill="white" transform="translate(4 4)"/>
</clipPath>
</defs>
</svg>
