<svg width="40" height="40" viewBox="0 0 40 40" fill="none" xmlns="http://www.w3.org/2000/svg">
<mask id="mask0_15584_77433" style="mask-type:alpha" maskUnits="userSpaceOnUse" x="0" y="0" width="40" height="40">
<rect width="40" height="40" fill="#D9D9D9"/>
</mask>
<g mask="url(#mask0_15584_77433)">
<path d="M16.795 31.1191L9.6925 34.7186C9.19028 34.975 8.69931 34.9595 8.21958 34.672C7.73986 34.3845 7.5 33.9534 7.5 33.3786V13.7153C7.5 12.8842 7.79431 12.1743 8.38292 11.5857C8.97181 10.9968 9.68181 10.7024 10.5129 10.7024H23.0608C23.8919 10.7024 24.6019 10.9968 25.1908 11.5857C25.7794 12.1743 26.0738 12.8842 26.0738 13.7153V33.3786C26.0738 33.9534 25.8339 34.3845 25.3542 34.672C24.8744 34.9595 24.3835 34.975 23.8813 34.7186L16.795 31.1191ZM10 31.9749L15.3717 29.1128C15.8183 28.867 16.29 28.7441 16.7867 28.7441C17.2836 28.7441 17.7554 28.867 18.2021 29.1128L23.5738 31.9749V13.7153C23.5738 13.5659 23.5257 13.443 23.4296 13.3466C23.3335 13.2505 23.2106 13.2024 23.0608 13.2024H10.5129C10.3632 13.2024 10.2403 13.2505 10.1442 13.3466C10.0481 13.443 10 13.5659 10 13.7153V31.9749ZM31.25 29.5328C30.8953 29.5328 30.5983 29.4131 30.3592 29.1736C30.1197 28.9342 30 28.6373 30 28.2828V7.17698C30 7.02726 29.9519 6.90434 29.8558 6.80823C29.7597 6.71212 29.6368 6.66406 29.4871 6.66406H13.5737C13.219 6.66406 12.9221 6.54434 12.6829 6.3049C12.4435 6.06573 12.3237 5.76878 12.3237 5.41406C12.3237 5.05934 12.4435 4.7624 12.6829 4.52323C12.9221 4.28378 13.219 4.16406 13.5737 4.16406H29.4871C30.3182 4.16406 31.0282 4.45837 31.6171 5.04698C32.2057 5.63587 32.5 6.34587 32.5 7.17698V28.2828C32.5 28.6373 32.3803 28.9342 32.1408 29.1736C31.9017 29.4131 31.6047 29.5328 31.25 29.5328Z" fill="#236AD4"/>
<path d="M16.795 31.1276L9.6925 34.7272C9.19028 34.9836 8.69931 34.968 8.21958 34.6805C7.73986 34.393 7.5 33.9619 7.5 33.3872V13.7239C7.5 12.8927 7.79431 12.1829 8.38292 11.5943C8.97181 11.0054 9.68181 10.7109 10.5129 10.7109H23.0608C23.8919 10.7109 24.6019 11.0054 25.1908 11.5943C25.7794 12.1829 26.0738 12.8927 26.0738 13.7239V33.3872C26.0738 33.9619 25.8339 34.393 25.3542 34.6805C24.8744 34.968 24.3835 34.9836 23.8813 34.7272L16.795 31.1276ZM10 31.9834L15.3717 29.1214C15.8183 28.8755 16.29 28.7526 16.7867 28.7526C17.2836 28.7526 17.7554 28.8755 18.2021 29.1214L23.5738 31.9834V13.7239C23.5738 13.5744 23.5257 13.4515 23.4296 13.3551C23.3335 13.259 23.2106 13.2109 23.0608 13.2109H10.5129C10.3632 13.2109 10.2403 13.259 10.1442 13.3551C10.0481 13.4515 10 13.5744 10 13.7239V31.9834Z" fill="#236AD4"/>
</g>
</svg>
