<svg width="32" height="32" viewBox="0 0 32 32" fill="none" xmlns="http://www.w3.org/2000/svg">
<rect width="32" height="32" rx="16" fill="url(#paint0_linear_7970_41018)"/>
<g clip-path="url(#clip0_7970_41018)">
<mask id="mask0_7970_41018" style="mask-type:alpha" maskUnits="userSpaceOnUse" x="4" y="4" width="24" height="24">
<rect x="4" y="4" width="24" height="24" fill="#D9D9D9"/>
</mask>
<g mask="url(#mask0_7970_41018)">
<path d="M8.5 22C8.08333 22 7.72917 21.8542 7.4375 21.5625C7.14583 21.2708 7 20.9167 7 20.5V16.5C7 16.0833 7.14583 15.7292 7.4375 15.4375C7.72917 15.1458 8.08333 15 8.5 15C8.91667 15 9.27083 15.1458 9.5625 15.4375C9.85417 15.7292 10 16.0833 10 16.5V20.5C10 20.9167 9.85417 21.2708 9.5625 21.5625C9.27083 21.8542 8.91667 22 8.5 22ZM13.5 22C13.0833 22 12.7292 21.8542 12.4375 21.5625C12.1458 21.2708 12 20.9167 12 20.5V11.5C12 11.0833 12.1458 10.7292 12.4375 10.4375C12.7292 10.1458 13.0833 10 13.5 10C13.9167 10 14.2708 10.1458 14.5625 10.4375C14.8542 10.7292 15 11.0833 15 11.5V20.5C15 20.9167 14.8542 21.2708 14.5625 21.5625C14.2708 21.8542 13.9167 22 13.5 22ZM18.5 22C18.0833 22 17.7292 21.8542 17.4375 21.5625C17.1458 21.2708 17 20.9167 17 20.5V14.5C17 14.0833 17.1458 13.7292 17.4375 13.4375C17.7292 13.1458 18.0833 13 18.5 13C18.9167 13 19.2708 13.1458 19.5625 13.4375C19.8542 13.7292 20 14.0833 20 14.5V20.5C20 20.9167 19.8542 21.2708 19.5625 21.5625C19.2708 21.8542 18.9167 22 18.5 22ZM23.5 22C23.0833 22 22.7292 21.8542 22.4375 21.5625C22.1458 21.2708 22 20.9167 22 20.5V8.5C22 8.08333 22.1458 7.72917 22.4375 7.4375C22.7292 7.14583 23.0833 7 23.5 7C23.9167 7 24.2708 7.14583 24.5625 7.4375C24.8542 7.72917 25 8.08333 25 8.5V20.5C25 20.9167 24.8542 21.2708 24.5625 21.5625C24.2708 21.8542 23.9167 22 23.5 22Z" fill="white"/>
<path d="M7 25C6.71667 25 6.47917 24.9042 6.2875 24.7125C6.09583 24.5208 6 24.2833 6 24C6 23.7167 6.09583 23.4792 6.2875 23.2875C6.47917 23.0958 6.71667 23 7 23H25C25.2833 23 25.5208 23.0958 25.7125 23.2875C25.9042 23.4792 26 23.7167 26 24C26 24.2833 25.9042 24.5208 25.7125 24.7125C25.5208 24.9042 25.2833 25 25 25H7Z" fill="white"/>
</g>
</g>
<defs>
<linearGradient id="paint0_linear_7970_41018" x1="18.5455" y1="-9.6" x2="15.0492" y2="31.7195" gradientUnits="userSpaceOnUse">
<stop stop-color="#4399EB"/>
<stop offset="1" stop-color="#00498E"/>
</linearGradient>
<clipPath id="clip0_7970_41018">
<rect width="24" height="24" fill="white" transform="translate(4 4)"/>
</clipPath>
</defs>
</svg>
