<svg width="32" height="32" viewBox="0 0 32 32" fill="none" xmlns="http://www.w3.org/2000/svg">
<rect width="32" height="32" rx="16" fill="url(#paint0_linear_17081_88050)"/>
<path d="M16 9.625C16.1483 9.625 16.2933 9.58101 16.4167 9.4986C16.54 9.41619 16.6361 9.29906 16.6929 9.16201C16.7497 9.02497 16.7645 8.87417 16.7356 8.72868C16.7067 8.5832 16.6352 8.44956 16.5303 8.34467C16.4254 8.23978 16.2918 8.16835 16.1463 8.13941C16.0008 8.11047 15.85 8.12532 15.713 8.18209C15.5759 8.23886 15.4588 8.33499 15.3764 8.45832C15.294 8.58166 15.25 8.72666 15.25 8.875C15.25 9.07391 15.329 9.26468 15.4697 9.40533C15.6103 9.54598 15.8011 9.625 16 9.625Z" fill="white"/>
<path d="M5.22011 12.1043C5.24349 12.1847 5.29312 12.255 5.36108 12.3039C5.42905 12.3528 5.51143 12.3776 5.59511 12.3743C5.62994 12.3792 5.66528 12.3792 5.70011 12.3743L8.32511 11.598C8.47341 11.8386 8.69557 12.0246 8.95838 12.1284C9.22119 12.2322 9.51053 12.2482 9.78316 12.1739C10.0558 12.0996 10.2971 11.9391 10.4709 11.7163C10.6447 11.4936 10.7418 11.2205 10.7476 10.938C10.7476 10.9118 10.7476 10.8855 10.7476 10.8555L14.0026 9.89178C14.197 10.2791 14.4991 10.602 14.8726 10.8218V22.3755H13.7476C13.4492 22.3755 13.1631 22.4941 12.9521 22.705C12.7411 22.916 12.6226 23.2022 12.6226 23.5005V23.8755H11.4976C11.1992 23.8755 10.9131 23.9941 10.7021 24.205C10.4911 24.416 10.3726 24.7022 10.3726 25.0005V26.1255H21.6226V25.0005C21.6226 24.7022 21.5041 24.416 21.2931 24.205C21.0821 23.9941 20.796 23.8755 20.4976 23.8755H19.3726V23.5005C19.3726 23.2022 19.2541 22.916 19.0431 22.705C18.8321 22.4941 18.546 22.3755 18.2476 22.3755H17.1226V10.8218C17.5095 10.6064 17.8232 10.2803 18.0236 9.8855C18.2241 9.49066 18.3021 9.04497 18.2476 8.60553L21.8589 7.53303C22.0167 7.75958 22.2421 7.93056 22.5027 8.02164C22.7634 8.11272 23.0462 8.11926 23.3108 8.04033C23.5754 7.96141 23.8084 7.80103 23.9766 7.58203C24.1448 7.36302 24.2396 7.09655 24.2476 6.82053L26.5314 6.14178C26.6268 6.11344 26.7071 6.04832 26.7546 5.96077C26.8021 5.87321 26.8128 5.77038 26.7845 5.67491C26.7561 5.57943 26.691 5.49912 26.6035 5.45165C26.5159 5.40418 26.4131 5.39343 26.3176 5.42178L24.0339 6.10053C23.8795 5.86423 23.653 5.68399 23.3881 5.58657C23.1231 5.48915 22.8339 5.47974 22.5632 5.55973C22.2925 5.63972 22.0548 5.80485 21.8853 6.03062C21.7159 6.25639 21.6238 6.53076 21.6226 6.81303L18.0151 7.88178C17.7778 7.40555 17.3794 7.02884 16.8906 6.81854C16.4018 6.60824 15.8543 6.57796 15.3454 6.73308C14.8364 6.8882 14.3989 7.21868 14.1105 7.66584C13.8221 8.11299 13.7015 8.64789 13.7701 9.17553L10.4776 10.1505C10.3187 9.9339 10.0967 9.77162 9.84206 9.68585C9.58742 9.60007 9.31251 9.59499 9.05488 9.6713C8.79725 9.7476 8.56945 9.90157 8.40259 10.1122C8.23574 10.3228 8.13796 10.5798 8.12261 10.848L5.46386 11.6355C5.3696 11.6657 5.29108 11.7319 5.24542 11.8197C5.19976 11.9075 5.19066 12.0098 5.22011 12.1043ZM22.9351 6.25053C23.0464 6.25053 23.1551 6.28352 23.2476 6.34533C23.3401 6.40714 23.4122 6.49499 23.4548 6.59777C23.4974 6.70055 23.5085 6.81365 23.4868 6.92277C23.4651 7.03188 23.4115 7.13211 23.3329 7.21078C23.2542 7.28944 23.154 7.34302 23.0448 7.36472C22.9357 7.38643 22.8226 7.37529 22.7199 7.33271C22.6171 7.29014 22.5292 7.21804 22.4674 7.12554C22.4056 7.03304 22.3726 6.92428 22.3726 6.81303C22.3726 6.66385 22.4319 6.52077 22.5374 6.41528C22.6429 6.30979 22.7859 6.25053 22.9351 6.25053ZM20.4976 24.6255C20.5971 24.6255 20.6925 24.665 20.7628 24.7354C20.8331 24.8057 20.8726 24.9011 20.8726 25.0005V25.3755H11.1226V25.0005C11.1226 24.9011 11.1621 24.8057 11.2324 24.7354C11.3028 24.665 11.3982 24.6255 11.4976 24.6255H20.4976ZM18.2476 23.1255C18.3471 23.1255 18.4425 23.165 18.5128 23.2354C18.5831 23.3057 18.6226 23.4011 18.6226 23.5005V23.8755H13.3726V23.5005C13.3726 23.4011 13.4121 23.3057 13.4824 23.2354C13.5528 23.165 13.6482 23.1255 13.7476 23.1255H18.2476ZM16.3726 11.1255V22.3755H15.6226V11.1255H16.3726ZM15.9976 7.37553C16.2943 7.37553 16.5843 7.4635 16.831 7.62833C17.0776 7.79315 17.2699 8.02742 17.3834 8.3015C17.497 8.57559 17.5267 8.87719 17.4688 9.16817C17.4109 9.45914 17.268 9.72641 17.0583 9.93619C16.8485 10.146 16.5812 10.2888 16.2902 10.3467C15.9993 10.4046 15.6977 10.3749 15.4236 10.2613C15.1495 10.1478 14.9152 9.95556 14.7504 9.70889C14.5856 9.46221 14.4976 9.1722 14.4976 8.87553C14.4976 8.47771 14.6556 8.09617 14.937 7.81487C15.2183 7.53357 15.5998 7.37553 15.9976 7.37553ZM9.43511 10.3755C9.54636 10.3755 9.65512 10.4085 9.74762 10.4703C9.84012 10.5321 9.91222 10.62 9.95479 10.7228C9.99737 10.8256 10.0085 10.9387 9.9868 11.0478C9.9651 11.1569 9.91153 11.2571 9.83286 11.3358C9.75419 11.4144 9.65396 11.468 9.54485 11.4897C9.43574 11.5114 9.32264 11.5003 9.21985 11.4577C9.11707 11.4151 9.02922 11.343 8.96741 11.2505C8.9056 11.158 8.87261 11.0493 8.87261 10.938C8.87261 10.7888 8.93187 10.6458 9.03736 10.5403C9.14285 10.4348 9.28593 10.3755 9.43511 10.3755Z" fill="white"/>
<path d="M9.25 22.375C10.4435 22.375 11.5881 21.9009 12.432 21.057C13.2759 20.2131 13.75 19.0685 13.75 17.875V17.5H4.75V17.875C4.75 19.0685 5.22411 20.2131 6.06802 21.057C6.91193 21.9009 8.05653 22.375 9.25 22.375ZM13 18.25C13 19.2446 12.6049 20.1984 11.9017 20.9017C11.1984 21.6049 10.2446 22 9.25 22C8.25544 22 7.30161 21.6049 6.59835 20.9017C5.89509 20.1984 5.5 19.2446 5.5 18.25H13Z" fill="white"/>
<path d="M8.875 16.375H5.5V17.125H8.875V16.375Z" fill="white"/>
<path d="M8.875 15.25H5.5V16H8.875V15.25Z" fill="white"/>
<path d="M8.875 14.125H5.5V14.875H8.875V14.125Z" fill="white"/>
<path d="M13 16.375H9.625V17.125H13V16.375Z" fill="white"/>
<path d="M13 15.25H9.625V16H13V15.25Z" fill="white"/>
<path d="M18.25 14.125C18.25 15.3185 18.7241 16.4631 19.568 17.307C20.4119 18.1509 21.5565 18.625 22.75 18.625C23.9435 18.625 25.0881 18.1509 25.932 17.307C26.7759 16.4631 27.25 15.3185 27.25 14.125V13.75H18.25V14.125ZM26.5 14.5C26.5 15.4946 26.1049 16.4484 25.4017 17.1517C24.6984 17.8549 23.7446 18.25 22.75 18.25C21.7554 18.25 20.8016 17.8549 20.0983 17.1517C19.3951 16.4484 19 15.4946 19 14.5H26.5Z" fill="white"/>
<path d="M22.375 12.625H19V13.375H22.375V12.625Z" fill="white"/>
<path d="M26.5 12.625H23.125V13.375H26.5V12.625Z" fill="white"/>
<path d="M26.5 11.5H23.125V12.25H26.5V11.5Z" fill="white"/>
<defs>
<linearGradient id="paint0_linear_17081_88050" x1="18.5455" y1="-9.6" x2="15.0492" y2="31.7195" gradientUnits="userSpaceOnUse">
<stop stop-color="#4399EB"/>
<stop offset="1" stop-color="#00498E"/>
</linearGradient>
</defs>
</svg>
