<svg width="426" height="426" viewBox="0 0 426 426" fill="none" xmlns="http://www.w3.org/2000/svg">
<g clip-path="url(#clip0_8677_11359)">
<path d="M195.71 359.4H22.6399C20.1427 359.399 17.682 358.8 15.4641 357.652C13.2461 356.504 11.3354 354.842 9.89202 352.804C8.4486 350.766 7.51447 348.412 7.16788 345.939C6.82128 343.466 7.07231 340.946 7.89993 338.59L35.1899 260.91C36.2631 257.855 38.2587 255.208 40.901 253.336C43.5433 251.464 46.7017 250.459 49.9399 250.46H168.42C171.658 250.459 174.817 251.464 177.459 253.336C180.101 255.208 182.097 257.855 183.17 260.91L210.46 338.59C211.288 340.947 211.539 343.468 211.192 345.942C210.845 348.416 209.909 350.77 208.465 352.808C207.02 354.846 205.108 356.509 202.889 357.655C200.67 358.802 198.208 359.401 195.71 359.4ZM299.54 249.34H126.46C123.963 249.339 121.502 248.74 119.284 247.592C117.066 246.444 115.155 244.782 113.712 242.744C112.269 240.706 111.334 238.352 110.988 235.879C110.641 233.406 110.892 230.886 111.72 228.53L139 150.84C140.074 147.786 142.07 145.141 144.712 143.271C147.354 141.4 150.513 140.397 153.75 140.4H272.24C275.479 140.395 278.639 141.397 281.284 143.268C283.928 145.138 285.926 147.784 287 150.84L314.29 228.53C315.118 230.887 315.369 233.408 315.022 235.882C314.675 238.356 313.74 240.71 312.295 242.748C310.85 244.786 308.938 246.449 306.719 247.595C304.5 248.742 302.038 249.341 299.54 249.34Z" fill="#FFBC00"/>
<path d="M314.28 228.53L287 150.84C285.927 147.786 283.931 145.141 281.288 143.27C278.646 141.4 275.488 140.397 272.25 140.4H269.17L276.97 162.6C279.502 169.802 280.271 177.505 279.212 185.065C278.153 192.625 275.297 199.821 270.884 206.05C266.471 212.279 260.629 217.359 253.848 220.865C247.067 224.371 239.544 226.201 231.91 226.2H112.54L111.72 228.53C110.893 230.886 110.642 233.406 110.988 235.879C111.335 238.352 112.269 240.706 113.712 242.744C115.156 244.782 117.066 246.444 119.284 247.592C121.502 248.74 123.963 249.339 126.46 249.34H299.54C302.037 249.339 304.498 248.74 306.716 247.592C308.934 246.444 310.845 244.782 312.288 242.744C313.732 240.706 314.666 238.352 315.012 235.879C315.359 233.406 315.108 230.886 314.28 228.53Z" fill="#FFA300"/>
<path d="M403.36 359.4H230.29C227.792 359.4 225.33 358.802 223.111 357.655C220.892 356.508 218.98 354.846 217.535 352.808C216.09 350.77 215.155 348.416 214.808 345.942C214.461 343.468 214.712 340.947 215.54 338.59L242.83 260.91C243.903 257.855 245.899 255.208 248.541 253.336C251.183 251.464 254.342 250.459 257.58 250.46H376.06C379.298 250.459 382.457 251.464 385.099 253.336C387.741 255.208 389.737 257.855 390.81 260.91L418.1 338.59C418.928 340.946 419.179 343.466 418.832 345.939C418.486 348.412 417.551 350.766 416.108 352.804C414.665 354.842 412.754 356.504 410.536 357.652C408.318 358.799 405.857 359.399 403.36 359.4Z" fill="#FFBC00"/>
<path d="M418.1 338.59L390.81 260.91C389.737 257.855 387.741 255.208 385.099 253.336C382.457 251.464 379.298 250.459 376.06 250.46H373L380.81 272.66C383.34 279.862 384.107 287.566 383.046 295.126C381.986 302.686 379.129 309.882 374.715 316.11C370.301 322.338 364.459 327.418 357.678 330.924C350.897 334.43 343.374 336.26 335.74 336.26H216.36L215.54 338.59C214.712 340.947 214.461 343.468 214.808 345.942C215.156 348.416 216.091 350.77 217.535 352.808C218.98 354.846 220.892 356.508 223.111 357.655C225.33 358.802 227.792 359.4 230.29 359.4H403.36C405.857 359.399 408.318 358.799 410.536 357.652C412.754 356.504 414.665 354.842 416.108 352.804C417.551 350.766 418.486 348.412 418.832 345.939C419.179 343.466 418.928 340.946 418.1 338.59ZM210.46 338.59L183.17 260.91C182.097 257.855 180.101 255.208 177.459 253.336C174.817 251.464 171.658 250.459 168.42 250.46H165.34L173.14 272.66C175.672 279.862 176.441 287.565 175.382 295.125C174.323 302.685 171.467 309.881 167.054 316.11C162.641 322.339 156.799 327.419 150.018 330.925C143.237 334.431 135.714 336.26 128.08 336.26H8.72014L7.90014 338.59C7.07013 340.946 6.81731 343.467 7.1629 345.941C7.50848 348.415 8.44239 350.77 9.88627 352.808C11.3302 354.847 13.2419 356.509 15.4611 357.656C17.6802 358.803 20.1421 359.401 22.6401 359.4H195.71C198.208 359.4 200.67 358.802 202.889 357.655C205.109 356.508 207.021 354.846 208.465 352.808C209.91 350.77 210.845 348.416 211.192 345.942C211.539 343.468 211.288 340.947 210.46 338.59Z" fill="#FFA300"/>
<path d="M76 359.4L179.88 255.47C178.416 253.893 176.643 252.635 174.671 251.775C172.699 250.915 170.571 250.47 168.42 250.47H146.42L37.46 359.4H76Z" fill="url(#paint0_linear_8677_11359)"/>
<path d="M78.1199 250.46L17.5999 311L7.89994 338.61C6.88691 341.461 6.72572 344.544 7.43602 347.485C8.14633 350.426 9.69742 353.096 11.8999 355.17L116.62 250.46H78.1199Z" fill="url(#paint1_linear_8677_11359)"/>
<path d="M283.6 359.4L387.52 255.47C386.057 253.892 384.284 252.634 382.312 251.773C380.34 250.913 378.212 250.469 376.06 250.47H354L245.1 359.4H283.6Z" fill="url(#paint2_linear_8677_11359)"/>
<path d="M285.76 250.46L225.24 311L215.54 338.61C214.529 341.461 214.369 344.544 215.08 347.484C215.79 350.424 217.339 353.095 219.54 355.17L324.26 250.46H285.76Z" fill="url(#paint3_linear_8677_11359)"/>
<path d="M179.78 249.34L283.7 145.41C282.238 143.831 280.465 142.572 278.493 141.712C276.52 140.851 274.392 140.408 272.24 140.41H250.24L141.28 249.34H179.78Z" fill="url(#paint4_linear_8677_11359)"/>
<path d="M181.94 140.4L121.42 200.92L111.72 228.53C110.707 231.381 110.546 234.465 111.256 237.405C111.966 240.346 113.517 243.016 115.72 245.09L220.44 140.4H181.94Z" fill="url(#paint5_linear_8677_11359)"/>
<path d="M53.8599 178.55L75.7399 184.43L97.6199 178.55L91.7399 200.43L97.6199 222.31L75.7399 216.43L53.8599 222.31L59.7399 200.43L53.8599 178.55Z" fill="#FFBC00"/>
<path d="M213 66.6L224.31 86.23L243.94 97.54L224.31 108.86L213 128.49L201.69 108.86L182.06 97.54L201.69 86.23L213 66.6Z" fill="#FFBC00"/>
<path d="M369.64 145.49L363.76 167.37L369.64 189.25L347.76 183.37L325.88 189.25L331.76 167.37L325.88 145.49L347.76 151.37L369.64 145.49Z" fill="#FFBC00"/>
</g>
<defs>
<linearGradient id="paint0_linear_8677_11359" x1="142.05" y1="272.29" x2="45.19" y2="374.29" gradientUnits="userSpaceOnUse">
<stop offset="0.29" stop-color="#FFCD52"/>
<stop offset="1" stop-color="#FFBC00" stop-opacity="0"/>
</linearGradient>
<linearGradient id="paint1_linear_8677_11359" x1="106.85" y1="238.87" x2="9.98991" y2="340.87" gradientUnits="userSpaceOnUse">
<stop offset="0.29" stop-color="#FFCD52"/>
<stop offset="1" stop-color="#FFBC00" stop-opacity="0"/>
</linearGradient>
<linearGradient id="paint2_linear_8677_11359" x1="349.69" y1="272.29" x2="252.83" y2="374.29" gradientUnits="userSpaceOnUse">
<stop offset="0.29" stop-color="#FFCD52"/>
<stop offset="1" stop-color="#FFBC00" stop-opacity="0"/>
</linearGradient>
<linearGradient id="paint3_linear_8677_11359" x1="314.49" y1="238.87" x2="217.64" y2="340.87" gradientUnits="userSpaceOnUse">
<stop offset="0.29" stop-color="#FFCD52"/>
<stop offset="1" stop-color="#FFBC00" stop-opacity="0"/>
</linearGradient>
<linearGradient id="paint4_linear_8677_11359" x1="245.87" y1="162.23" x2="149.01" y2="264.23" gradientUnits="userSpaceOnUse">
<stop offset="0.29" stop-color="#FFCD52"/>
<stop offset="1" stop-color="#FFBC00" stop-opacity="0"/>
</linearGradient>
<linearGradient id="paint5_linear_8677_11359" x1="210.67" y1="128.8" x2="113.81" y2="230.8" gradientUnits="userSpaceOnUse">
<stop offset="0.29" stop-color="#FFCD52"/>
<stop offset="1" stop-color="#FFBC00" stop-opacity="0"/>
</linearGradient>
<clipPath id="clip0_8677_11359">
<rect width="426" height="426" fill="white"/>
</clipPath>
</defs>
</svg>
