<svg width="32" height="32" viewBox="0 0 32 32" fill="none" xmlns="http://www.w3.org/2000/svg">
<rect width="32" height="32" rx="16" fill="url(#paint0_linear_7970_41159)"/>
<g clip-path="url(#clip0_7970_41159)">
<mask id="mask0_7970_41159" style="mask-type:alpha" maskUnits="userSpaceOnUse" x="4" y="4" width="24" height="24">
<rect x="4" y="4" width="24" height="24" fill="#D9D9D9"/>
</mask>
<g mask="url(#mask0_7970_41159)">
<path d="M16 28C15.7292 28 15.4688 27.9626 15.2188 27.8878C14.9688 27.813 14.7292 27.7008 14.5 27.5512L7 22.5024C6.6875 22.2967 6.44271 22.035 6.26562 21.7171C6.08854 21.3992 6 21.0626 6 20.7073V7.2439C6 6.62683 6.24479 6.09858 6.73438 5.65915C7.22396 5.21972 7.8125 5 8.5 5H23.5C24.1875 5 24.776 5.21972 25.2656 5.65915C25.7552 6.09858 26 6.62683 26 7.2439V20.7073C26 21.0626 25.9115 21.3992 25.7344 21.7171C25.5573 22.035 25.3125 22.2967 25 22.5024L17.5 27.5512C17.2708 27.7008 17.0312 27.813 16.7812 27.8878C16.5312 27.9626 16.2708 28 16 28ZM16 25.7561L23.5 20.7073V7.2439H8.5V20.7073L16 25.7561Z" fill="white"/>
<path d="M22.6586 14.3296V14.724C22.6586 15.4682 22.5924 16.1366 22.46 16.7293C22.3304 17.3176 22.1459 17.8211 21.9064 18.24C21.667 18.6545 21.3839 18.9731 21.0571 19.1959C20.7303 19.4143 20.3697 19.5234 19.9753 19.5234C19.5781 19.5234 19.2147 19.4143 18.8851 19.1959C18.5583 18.9731 18.2737 18.6545 18.0315 18.24C17.792 17.8211 17.6061 17.3176 17.4737 16.7293C17.3441 16.1366 17.2793 15.4682 17.2793 14.724V14.3296C17.2793 13.5854 17.3441 12.9169 17.4737 12.3242C17.6061 11.7315 17.7906 11.228 18.0272 10.8135C18.2667 10.3946 18.5498 10.076 18.8766 9.85766C19.2062 9.63485 19.5696 9.52344 19.9668 9.52344C20.3612 9.52344 20.7218 9.63485 21.0486 9.85766C21.3782 10.076 21.6628 10.3946 21.9022 10.8135C22.1417 11.228 22.3276 11.7315 22.46 12.3242C22.5924 12.9169 22.6586 13.5854 22.6586 14.3296ZM21.1543 14.724V14.3162C21.1543 13.8349 21.1275 13.4116 21.074 13.0462C21.0233 12.6763 20.9472 12.3666 20.8458 12.117C20.7444 11.8675 20.619 11.6803 20.4697 11.5555C20.3232 11.4263 20.1556 11.3617 19.9668 11.3617C19.7696 11.3617 19.5978 11.4263 19.4513 11.5555C19.3048 11.6803 19.1823 11.8675 19.0837 12.117C18.9851 12.3666 18.9104 12.6763 18.8597 13.0462C18.8118 13.4116 18.7879 13.8349 18.7879 14.3162V14.724C18.7879 15.2008 18.8118 15.6242 18.8597 15.994C18.9104 16.3594 18.9851 16.6692 19.0837 16.9232C19.1851 17.1772 19.309 17.3688 19.4555 17.498C19.6048 17.6273 19.7781 17.6919 19.9753 17.6919C20.164 17.6919 20.3317 17.6273 20.4781 17.498C20.6246 17.3688 20.7472 17.1772 20.8458 16.9232C20.9472 16.6692 21.0233 16.3594 21.074 15.994C21.1275 15.6242 21.1543 15.2008 21.1543 14.724Z" fill="white"/>
<path d="M14.2715 16.0867H12.7418V14.2752H14.2715C14.48 14.2752 14.649 14.2195 14.7786 14.1081C14.9082 13.9967 15.0026 13.843 15.0617 13.6469C15.1237 13.4464 15.1547 13.2213 15.1547 12.9718C15.1547 12.7044 15.1237 12.4571 15.0617 12.2298C15.0026 12.0025 14.9082 11.8198 14.7786 11.6817C14.649 11.539 14.48 11.4677 14.2715 11.4677H13.2996V19.3889H11.8164V9.65625H14.2715C14.7645 9.65625 15.1885 9.79885 15.5435 10.0841C15.9012 10.3693 16.1759 10.7614 16.3675 11.2605C16.559 11.7552 16.6548 12.3211 16.6548 12.9584C16.6548 13.5867 16.559 14.1349 16.3675 14.6028C16.1759 15.0707 15.9012 15.4361 15.5435 15.699C15.1885 15.9575 14.7645 16.0867 14.2715 16.0867Z" fill="white"/>
<path d="M10.772 9.65625V19.3889H9.29297V9.65625H10.772Z" fill="white"/>
</g>
</g>
<defs>
<linearGradient id="paint0_linear_7970_41159" x1="18.5455" y1="-9.6" x2="15.0492" y2="31.7195" gradientUnits="userSpaceOnUse">
<stop stop-color="#4399EB"/>
<stop offset="1" stop-color="#00498E"/>
</linearGradient>
<clipPath id="clip0_7970_41159">
<rect width="24" height="24" fill="white" transform="translate(4 4)"/>
</clipPath>
</defs>
</svg>
