<svg width="33" height="32" viewBox="0 0 33 32" fill="none" xmlns="http://www.w3.org/2000/svg">
<rect x="0.5" width="32" height="32" rx="16" fill="url(#paint0_linear_7970_40695)"/>
<g clip-path="url(#clip0_7970_40695)">
<mask id="mask0_7970_40695" style="mask-type:alpha" maskUnits="userSpaceOnUse" x="4" y="4" width="25" height="24">
<rect x="4.5" y="4" width="24" height="24" fill="#D9D9D9"/>
</mask>
<g mask="url(#mask0_7970_40695)">
<path d="M9 24C8.58333 24 8.22917 23.8542 7.9375 23.5625C7.64583 23.2708 7.5 22.9167 7.5 22.5V18.5C7.5 18.0833 7.64583 17.7292 7.9375 17.4375C8.22917 17.1458 8.58333 17 9 17C9.41667 17 9.77083 17.1458 10.0625 17.4375C10.3542 17.7292 10.5 18.0833 10.5 18.5V22.5C10.5 22.9167 10.3542 23.2708 10.0625 23.5625C9.77083 23.8542 9.41667 24 9 24ZM13 18C12.5833 18 12.2292 17.8542 11.9375 17.5625C11.6458 17.2708 11.5 16.9167 11.5 16.5V15.5C11.5 15.0833 11.6458 14.7292 11.9375 14.4375C12.2292 14.1458 12.5833 14 13 14C13.4167 14 13.7708 14.1458 14.0625 14.4375C14.3542 14.7292 14.5 15.0833 14.5 15.5V16.5C14.5 16.9167 14.3542 17.2708 14.0625 17.5625C13.7708 17.8542 13.4167 18 13 18ZM16 13C15.5833 13 15.2292 12.8542 14.9375 12.5625C14.6458 12.2708 14.5 11.9167 14.5 11.5V10.5C14.5 10.0833 14.6458 9.72917 14.9375 9.4375C15.2292 9.14583 15.5833 9 16 9C16.4167 9 16.7708 9.14583 17.0625 9.4375C17.3542 9.72917 17.5 10.0833 17.5 10.5V11.5C17.5 11.9167 17.3542 12.2708 17.0625 12.5625C16.7708 12.8542 16.4167 13 16 13ZM20 11C19.5833 11 19.2292 10.8542 18.9375 10.5625C18.6458 10.2708 18.5 9.91667 18.5 9.5C18.5 9.08333 18.6458 8.72917 18.9375 8.4375C19.2292 8.14583 19.5833 8 20 8C20.4167 8 20.7708 8.14583 21.0625 8.4375C21.3542 8.72917 21.5 9.08333 21.5 9.5C21.5 9.91667 21.3542 10.2708 21.0625 10.5625C20.7708 10.8542 20.4167 11 20 11ZM24 24C23.5833 24 23.2292 23.8542 22.9375 23.5625C22.6458 23.2708 22.5 22.9167 22.5 22.5V9.5C22.5 9.08333 22.6458 8.72917 22.9375 8.4375C23.2292 8.14583 23.5833 8 24 8C24.4167 8 24.7708 8.14583 25.0625 8.4375C25.3542 8.72917 25.5 9.08333 25.5 9.5V22.5C25.5 22.9167 25.3542 23.2708 25.0625 23.5625C24.7708 23.8542 24.4167 24 24 24Z" fill="white"/>
<path d="M9 24C8.58333 24 8.22917 23.8542 7.9375 23.5625C7.64583 23.2708 7.5 22.9167 7.5 22.5V18.5C7.5 18.0833 7.64583 17.7292 7.9375 17.4375C8.22917 17.1458 8.58333 17 9 17C9.41667 17 9.77083 17.1458 10.0625 17.4375C10.3542 17.7292 10.5 18.0833 10.5 18.5V22.5C10.5 22.9167 10.3542 23.2708 10.0625 23.5625C9.77083 23.8542 9.41667 24 9 24ZM24 24C23.5833 24 23.2292 23.8542 22.9375 23.5625C22.6458 23.2708 22.5 22.9167 22.5 22.5V9.5C22.5 9.08333 22.6458 8.72917 22.9375 8.4375C23.2292 8.14583 23.5833 8 24 8C24.4167 8 24.7708 8.14583 25.0625 8.4375C25.3542 8.72917 25.5 9.08333 25.5 9.5V22.5C25.5 22.9167 25.3542 23.2708 25.0625 23.5625C24.7708 23.8542 24.4167 24 24 24Z" fill="white"/>
</g>
</g>
<defs>
<linearGradient id="paint0_linear_7970_40695" x1="19.0455" y1="-9.6" x2="15.5492" y2="31.7195" gradientUnits="userSpaceOnUse">
<stop stop-color="#4399EB"/>
<stop offset="1" stop-color="#00498E"/>
</linearGradient>
<clipPath id="clip0_7970_40695">
<rect width="24" height="24" fill="white" transform="translate(4.5 4)"/>
</clipPath>
</defs>
</svg>
