<svg width="40" height="40" viewBox="0 0 40 40" fill="none" xmlns="http://www.w3.org/2000/svg">
<mask id="mask0_15584_77437" style="mask-type:alpha" maskUnits="userSpaceOnUse" x="0" y="0" width="40" height="40">
<rect width="40" height="40" fill="#D9D9D9"/>
</mask>
<g mask="url(#mask0_15584_77437)">
<path d="M18.5597 30.5735C18.5061 29.8383 18.272 29.1555 17.8576 28.5252C17.4432 27.8949 16.9933 27.2609 16.508 26.6231C16.023 25.9853 15.5866 25.3251 15.1989 24.6423C14.8111 23.9595 14.6172 23.2122 14.6172 22.4002C14.6172 20.9174 15.1439 19.6494 16.1972 18.596C17.2508 17.5424 18.519 17.0156 20.0018 17.0156C21.4845 17.0156 22.7527 17.5424 23.8064 18.596C24.8597 19.6494 25.3864 20.9174 25.3864 22.4002C25.3864 23.2122 25.1925 23.9569 24.8047 24.6344C24.4169 25.3116 23.9805 25.9719 23.4955 26.6152C23.0102 27.2583 22.5604 27.8949 22.1459 28.5252C21.7315 29.1555 21.4975 29.8383 21.4439 30.5735H18.5597ZM20.0018 34.7402C19.6043 34.7402 19.2698 34.6045 18.9984 34.3331C18.727 34.0617 18.5914 33.7273 18.5914 33.3298V32.5606H21.4122V33.3298C21.4122 33.7273 21.2765 34.0617 21.0051 34.3331C20.7337 34.6045 20.3993 34.7402 20.0018 34.7402Z" fill="#236AD4"/>
<path d="M30.3178 29.7257C30.1214 29.5291 30.0077 29.2871 29.9766 28.9999C29.9457 28.7124 30.0146 28.448 30.1832 28.2066C30.788 27.2685 31.2555 26.2434 31.5857 25.1311C31.9157 24.0189 32.0807 22.8635 32.0807 21.6649C32.0807 20.0838 31.7992 18.5956 31.2361 17.2003C30.6731 15.8048 29.8895 14.558 28.8853 13.4599C28.6545 13.1841 28.5321 12.887 28.5182 12.5686C28.5043 12.2503 28.6267 11.9618 28.8853 11.7032C29.1331 11.4555 29.4317 11.3289 29.7811 11.3236C30.1303 11.3184 30.4203 11.4449 30.6511 11.7032C31.8692 13.0046 32.8286 14.5036 33.5295 16.2003C34.2303 17.8967 34.5807 19.7182 34.5807 21.6649C34.5807 23.133 34.3805 24.5357 33.9799 25.8732C33.5791 27.2107 33.0091 28.4468 32.2699 29.5816C32.0391 29.9255 31.7292 30.1086 31.3403 30.1311C30.9514 30.1536 30.6106 30.0185 30.3178 29.7257ZM7.7249 29.5816C6.98573 28.4468 6.41573 27.2107 6.0149 25.8732C5.61434 24.5357 5.41406 23.133 5.41406 21.6649C5.41406 17.6052 6.82962 14.1596 9.66073 11.3282C12.4921 8.49712 15.9377 7.08156 19.9974 7.08156H21.3403L19.1032 4.86031C18.8724 4.62948 18.757 4.33684 18.757 3.9824C18.757 3.62767 18.8724 3.3349 19.1032 3.10406C19.3341 2.87323 19.6268 2.75781 19.9816 2.75781C20.336 2.75781 20.6286 2.87323 20.8595 3.10406L25.0166 7.27698C25.1727 7.43309 25.2827 7.59767 25.3466 7.77073C25.4107 7.94378 25.4428 8.13073 25.4428 8.33156C25.4428 8.5324 25.4107 8.71934 25.3466 8.8924C25.2827 9.06545 25.1727 9.23004 25.0166 9.38615L20.8595 13.5432C20.6009 13.8016 20.3082 13.9266 19.9816 13.9182C19.6546 13.9096 19.3618 13.776 19.1032 13.5174C18.8446 13.2588 18.7153 12.9618 18.7153 12.6266C18.7153 12.291 18.8446 11.9939 19.1032 11.7353L21.257 9.58156H19.9974C16.6577 9.58156 13.8088 10.7605 11.4507 13.1182C9.09295 15.4763 7.91406 18.3252 7.91406 21.6649C7.91406 22.8635 8.07906 24.0189 8.40906 25.1311C8.73934 26.2434 9.20684 27.2685 9.81156 28.2066C9.98017 28.448 10.0491 28.7124 10.0182 28.9999C9.98712 29.2871 9.87337 29.5291 9.67698 29.7257C9.3842 30.0185 9.04337 30.1536 8.65448 30.1311C8.26559 30.1086 7.95573 29.9255 7.7249 29.5816Z" fill="#236AD4"/>
</g>
</svg>
