<svg width="32" height="32" viewBox="0 0 32 32" fill="none" xmlns="http://www.w3.org/2000/svg">
<rect width="32" height="32" rx="16" fill="url(#paint0_linear_7970_40987)"/>
<g clip-path="url(#clip0_7970_40987)">
<path fill-rule="evenodd" clip-rule="evenodd" d="M21.3914 8.98409C21.0273 8.83332 20.637 8.75577 20.243 8.75586C19.8489 8.75595 19.4587 8.83369 19.0946 8.98462C18.7306 9.13556 18.3999 9.35674 18.1213 9.63553L17.029 10.7279C16.5896 11.1672 15.8773 11.1672 15.438 10.7279C14.9986 10.2886 14.9986 9.57625 15.438 9.13691L16.5296 8.04528C16.5297 8.04521 16.5298 8.04514 16.5298 8.04507C16.5299 8.04502 16.5299 8.04496 16.53 8.04491C17.0173 7.5572 17.596 7.17027 18.2329 6.90619C18.8699 6.64206 19.5528 6.50602 20.2424 6.50586C20.9321 6.5057 21.615 6.64142 22.2522 6.90526C22.8894 7.1691 23.4683 7.5559 23.956 8.04355C24.4436 8.5312 24.8304 9.11016 25.0943 9.74734C25.3581 10.3845 25.4938 11.0674 25.4937 11.7571C25.4935 12.4467 25.3575 13.1296 25.0933 13.7666C24.8292 14.4035 24.4423 14.9822 23.9546 15.4695C23.9545 15.4697 23.9544 15.4698 23.9542 15.4699L21.303 18.1212C20.8154 18.6087 20.2367 18.9954 19.5997 19.2592C18.9628 19.5231 18.2801 19.6589 17.5906 19.6589C16.9012 19.6589 16.2185 19.5231 15.5816 19.2592C14.9446 18.9954 14.3658 18.6087 13.8783 18.1212C13.439 17.6818 13.439 16.9695 13.8783 16.5302C14.3177 16.0908 15.03 16.0908 15.4693 16.5302C15.7479 16.8088 16.0786 17.0297 16.4426 17.1805C16.8066 17.3313 17.1967 17.4089 17.5906 17.4089C17.9846 17.4089 18.3747 17.3313 18.7387 17.1805C19.1027 17.0297 19.4334 16.8088 19.712 16.5302L22.364 13.8782C22.6428 13.5996 22.864 13.2689 23.0149 12.9049C23.1658 12.5408 23.2436 12.1506 23.2437 11.7566C23.2437 11.3625 23.1662 10.9722 23.0154 10.6081C22.8647 10.244 22.6436 9.9132 22.365 9.63454C22.0863 9.35588 21.7555 9.13485 21.3914 8.98409Z" fill="white"/>
<path fill-rule="evenodd" clip-rule="evenodd" d="M14.4089 14.5918C14.0149 14.5918 13.6248 14.6694 13.2608 14.8202C12.8968 14.9709 12.5661 15.1919 12.2875 15.4705L9.63553 18.1225C9.35674 18.401 9.13556 18.7318 8.98462 19.0958C8.83369 19.4598 8.75595 19.85 8.75586 20.2441C8.75577 20.6382 8.83332 21.0284 8.98409 21.3925C9.13485 21.7566 9.35588 22.0875 9.63454 22.3661C9.9132 22.6448 10.244 22.8658 10.6081 23.0166C10.9722 23.1673 11.3625 23.2449 11.7566 23.2448C12.1506 23.2447 12.5408 23.167 12.9049 23.016C13.2689 22.8651 13.5996 22.6439 13.8782 22.3651L14.9704 21.2729C15.4097 20.8336 16.122 20.8336 16.5614 21.2729C17.0007 21.7123 17.0007 22.4246 16.5614 22.8639L15.4699 23.9554C15.4698 23.9555 15.4697 23.9556 15.4695 23.9558C14.9822 24.4435 14.4035 24.8304 13.7666 25.0945C13.1296 25.3586 12.4467 25.4946 11.7571 25.4948C11.0674 25.495 10.3845 25.3592 9.74734 25.0954C9.11016 24.8316 8.5312 24.4448 8.04355 23.9571C7.5559 23.4695 7.1691 22.8905 6.90526 22.2533C6.64142 21.6161 6.5057 20.9332 6.50586 20.2436C6.50602 19.5539 6.64206 18.8711 6.90619 18.234C7.17027 17.5971 7.5572 17.0185 8.04491 16.5311C8.045 16.531 8.04509 16.531 8.04518 16.5309C8.04521 16.5308 8.04524 16.5308 8.04528 16.5308L10.6966 13.8795C11.1841 13.392 11.7628 13.0053 12.3998 12.7414C13.0367 12.4776 13.7194 12.3418 14.4089 12.3418C15.0983 12.3418 15.781 12.4776 16.418 12.7414C17.0549 13.0053 17.6337 13.392 18.1212 13.8795C18.5605 14.3188 18.5605 15.0311 18.1212 15.4705C17.6818 15.9098 16.9695 15.9098 16.5302 15.4705C16.2516 15.1919 15.9209 14.9709 15.5569 14.8202C15.1929 14.6694 14.8028 14.5918 14.4089 14.5918Z" fill="white"/>
</g>
<defs>
<linearGradient id="paint0_linear_7970_40987" x1="18.5455" y1="-9.6" x2="15.0492" y2="31.7195" gradientUnits="userSpaceOnUse">
<stop stop-color="#4399EB"/>
<stop offset="1" stop-color="#00498E"/>
</linearGradient>
<clipPath id="clip0_7970_40987">
<rect width="24" height="24" fill="white" transform="translate(4 4)"/>
</clipPath>
</defs>
</svg>
