<svg width="32" height="32" viewBox="0 0 32 32" fill="none" xmlns="http://www.w3.org/2000/svg">
<rect width="32" height="32" rx="16" fill="url(#paint0_linear_7970_41225)"/>
<g clip-path="url(#clip0_7970_41225)">
<mask id="mask0_7970_41225" style="mask-type:alpha" maskUnits="userSpaceOnUse" x="4" y="4" width="24" height="24">
<rect x="4" y="4" width="24" height="24" fill="#D9D9D9"/>
</mask>
<g mask="url(#mask0_7970_41225)">
<path d="M23 25H15C14.7167 25 14.4792 24.9042 14.2875 24.7125C14.0958 24.5208 14 24.2833 14 24C14 23.7167 14.0958 23.4792 14.2875 23.2875C14.4792 23.0958 14.7167 23 15 23H23V9H9V12C9 12.2833 8.90417 12.5208 8.7125 12.7125C8.52083 12.9042 8.28333 13 8 13C7.71667 13 7.47917 12.9042 7.2875 12.7125C7.09583 12.5208 7 12.2833 7 12V9C7 8.45 7.19583 7.97917 7.5875 7.5875C7.97917 7.19583 8.45 7 9 7H23C23.55 7 24.0208 7.19583 24.4125 7.5875C24.8042 7.97917 25 8.45 25 9V23C25 23.55 24.8042 24.0208 24.4125 24.4125C24.0208 24.8042 23.55 25 23 25Z" fill="white"/>
<path d="M10.625 26C9.30833 26 8.1875 25.5375 7.2625 24.6125C6.3375 23.6875 5.875 22.5667 5.875 21.25C5.875 20.3 6.12083 19.45 6.6125 18.7C7.10417 17.95 7.75 17.3833 8.55 17H7C6.71667 17 6.47917 16.9042 6.2875 16.7125C6.09583 16.5208 6 16.2833 6 16C6 15.7167 6.09583 15.4792 6.2875 15.2875C6.47917 15.0958 6.71667 15 7 15H11C11.2833 15 11.5208 15.0958 11.7125 15.2875C11.9042 15.4792 12 15.7167 12 16V20C12 20.2833 11.9042 20.5208 11.7125 20.7125C11.5208 20.9042 11.2833 21 11 21C10.7167 21 10.4792 20.9042 10.2875 20.7125C10.0958 20.5208 10 20.2833 10 20V18.575C9.38333 18.7083 8.875 19.025 8.475 19.525C8.075 20.025 7.875 20.6 7.875 21.25C7.875 22.0167 8.14583 22.6667 8.6875 23.2C9.22917 23.7333 9.875 24 10.625 24C10.9083 24 11.1458 24.0958 11.3375 24.2875C11.5292 24.4792 11.625 24.7167 11.625 25C11.625 25.2833 11.5292 25.5208 11.3375 25.7125C11.1458 25.9042 10.9083 26 10.625 26ZM15 21H17C17.2833 21 17.5208 20.9042 17.7125 20.7125C17.9042 20.5208 18 20.2833 18 20C18 19.7167 17.9042 19.4792 17.7125 19.2875C17.5208 19.0958 17.2833 19 17 19H15C14.7167 19 14.4792 19.0958 14.2875 19.2875C14.0958 19.4792 14 19.7167 14 20C14 20.2833 14.0958 20.5208 14.2875 20.7125C14.4792 20.9042 14.7167 21 15 21ZM15 17H20C20.2833 17 20.5208 16.9042 20.7125 16.7125C20.9042 16.5208 21 16.2833 21 16C21 15.7167 20.9042 15.4792 20.7125 15.2875C20.5208 15.0958 20.2833 15 20 15H15C14.7167 15 14.4792 15.0958 14.2875 15.2875C14.0958 15.4792 14 15.7167 14 16C14 16.2833 14.0958 16.5208 14.2875 16.7125C14.4792 16.9042 14.7167 17 15 17ZM12 13H20C20.2833 13 20.5208 12.9042 20.7125 12.7125C20.9042 12.5208 21 12.2833 21 12C21 11.7167 20.9042 11.4792 20.7125 11.2875C20.5208 11.0958 20.2833 11 20 11H12C11.7167 11 11.4792 11.0958 11.2875 11.2875C11.0958 11.4792 11 11.7167 11 12C11 12.2833 11.0958 12.5208 11.2875 12.7125C11.4792 12.9042 11.7167 13 12 13Z" fill="white"/>
</g>
</g>
<defs>
<linearGradient id="paint0_linear_7970_41225" x1="18.5455" y1="-9.6" x2="15.0492" y2="31.7195" gradientUnits="userSpaceOnUse">
<stop stop-color="#4399EB"/>
<stop offset="1" stop-color="#00498E"/>
</linearGradient>
<clipPath id="clip0_7970_41225">
<rect width="24" height="24" fill="white" transform="translate(4 4)"/>
</clipPath>
</defs>
</svg>
