<svg width="32" height="32" viewBox="0 0 32 32" fill="none" xmlns="http://www.w3.org/2000/svg">
<rect width="32" height="32" rx="16" fill="url(#paint0_linear_7970_40684)"/>
<g clip-path="url(#clip0_7970_40684)">
<mask id="mask0_7970_40684" style="mask-type:alpha" maskUnits="userSpaceOnUse" x="4" y="4" width="24" height="24">
<rect x="4" y="4" width="24" height="24" fill="#D9D9D9"/>
</mask>
<g mask="url(#mask0_7970_40684)">
<path d="M5.15238 19.7767L8.92738 13.7267C9.11071 13.4433 9.36488 13.2892 9.68988 13.2642C10.0149 13.2392 10.294 13.3517 10.5274 13.6017L12.6524 16.0767L15.8274 10.9017C16.0107 10.585 16.2899 10.4267 16.6649 10.4267C17.0399 10.4267 17.3274 10.5767 17.5274 10.8767L19.3774 13.6517C18.994 13.6683 18.6315 13.7142 18.2899 13.7892C17.9482 13.8642 17.6107 13.9683 17.2774 14.1017L16.7274 13.2767L13.6524 18.2767C13.469 18.56 13.2107 18.7183 12.8774 18.7517C12.544 18.785 12.2607 18.6683 12.0274 18.4017L9.90238 15.9267L6.85238 20.8517C6.70238 21.1017 6.48155 21.2558 6.18988 21.3142C5.89821 21.3725 5.63571 21.31 5.40238 21.1267C5.18571 20.9767 5.05655 20.7725 5.01488 20.5142C4.97321 20.2558 5.01905 20.01 5.15238 19.7767ZM21.9524 14.1517C21.6357 14.0183 21.3065 13.91 20.9649 13.8267C20.6232 13.7433 20.269 13.6933 19.9024 13.6767L24.4524 6.47667C24.6024 6.24333 24.819 6.09333 25.1024 6.02667C25.3857 5.96 25.644 6.01833 25.8774 6.20167C26.094 6.35167 26.2274 6.55583 26.2774 6.81417C26.3274 7.0725 26.2857 7.31833 26.1524 7.55167L21.9524 14.1517Z" fill="white"/>
<path d="M25.5 26.425L22.375 23.3C22.0417 23.5333 21.6708 23.7083 21.2625 23.825C20.8542 23.9417 20.4333 24 20 24C18.75 24 17.6875 23.5625 16.8125 22.6875C15.9375 21.8125 15.5 20.75 15.5 19.5C15.5 18.25 15.9375 17.1875 16.8125 16.3125C17.6875 15.4375 18.75 15 20 15C21.25 15 22.3125 15.4375 23.1875 16.3125C24.0625 17.1875 24.5 18.25 24.5 19.5C24.5 19.9333 24.4417 20.3542 24.325 20.7625C24.2083 21.1708 24.0333 21.55 23.8 21.9L26.925 25L25.5 26.425ZM20 22C20.7 22 21.2917 21.7583 21.775 21.275C22.2583 20.7917 22.5 20.2 22.5 19.5C22.5 18.8 22.2583 18.2083 21.775 17.725C21.2917 17.2417 20.7 17 20 17C19.3 17 18.7083 17.2417 18.225 17.725C17.7417 18.2083 17.5 18.8 17.5 19.5C17.5 20.2 17.7417 20.7917 18.225 21.275C18.7083 21.7583 19.3 22 20 22Z" fill="white"/>
</g>
</g>
<defs>
<linearGradient id="paint0_linear_7970_40684" x1="18.5455" y1="-9.6" x2="15.0492" y2="31.7195" gradientUnits="userSpaceOnUse">
<stop stop-color="#4399EB"/>
<stop offset="1" stop-color="#00498E"/>
</linearGradient>
<clipPath id="clip0_7970_40684">
<rect width="24" height="24" fill="white" transform="translate(4 4)"/>
</clipPath>
</defs>
</svg>
