<svg width="33" height="32" viewBox="0 0 33 32" fill="none" xmlns="http://www.w3.org/2000/svg">
<rect x="0.800781" width="32" height="32" rx="16" fill="url(#paint0_linear_7970_41174)"/>
<g clip-path="url(#clip0_7970_41174)">
<mask id="mask0_7970_41174" style="mask-type:alpha" maskUnits="userSpaceOnUse" x="4" y="4" width="25" height="24">
<rect x="4.80078" y="4" width="24" height="24" fill="#D9D9D9"/>
</mask>
<g mask="url(#mask0_7970_41174)">
<path d="M8.10054 16.7001L13.3755 11.4251C13.7589 11.0418 14.2339 10.8501 14.8005 10.8501C15.3672 10.8501 15.8422 11.0418 16.2255 11.4251L18.8005 14.0001L24.1005 8.70011C24.3005 8.50011 24.538 8.40428 24.813 8.41261C25.088 8.42094 25.3255 8.52511 25.5255 8.72511C25.7089 8.92511 25.7964 9.16261 25.788 9.43761C25.7797 9.71261 25.6839 9.94178 25.5005 10.1251L20.2255 15.4001C19.8422 15.7834 19.3672 15.9751 18.8005 15.9751C18.2339 15.9751 17.7589 15.7834 17.3755 15.4001L14.8005 12.8251L9.50054 18.1251C9.30054 18.3251 9.06304 18.4209 8.78804 18.4126C8.51304 18.4043 8.27554 18.3001 8.07554 18.1001C7.89221 17.9001 7.80471 17.6626 7.81304 17.3876C7.82138 17.1126 7.91721 16.8834 8.10054 16.7001Z" fill="white"/>
<path d="M7.80078 24V23L9.80078 21V24C9.80078 24.2833 9.70495 24.5208 9.51328 24.7125C9.32161 24.9042 9.08411 25 8.80078 25C8.51745 25 8.27995 24.9042 8.08828 24.7125C7.89661 24.5208 7.80078 24.2833 7.80078 24ZM11.8008 24V19L13.8008 17V24C13.8008 24.2833 13.7049 24.5208 13.5133 24.7125C13.3216 24.9042 13.0841 25 12.8008 25C12.5174 25 12.2799 24.9042 12.0883 24.7125C11.8966 24.5208 11.8008 24.2833 11.8008 24ZM15.8008 24V17L17.8008 19.025V24C17.8008 24.2833 17.7049 24.5208 17.5133 24.7125C17.3216 24.9042 17.0841 25 16.8008 25C16.5174 25 16.2799 24.9042 16.0883 24.7125C15.8966 24.5208 15.8008 24.2833 15.8008 24ZM19.8008 24V19.025L21.8008 17.025V24C21.8008 24.2833 21.7049 24.5208 21.5133 24.7125C21.3216 24.9042 21.0841 25 20.8008 25C20.5174 25 20.2799 24.9042 20.0883 24.7125C19.8966 24.5208 19.8008 24.2833 19.8008 24ZM23.8008 24V15L25.8008 13V24C25.8008 24.2833 25.7049 24.5208 25.5133 24.7125C25.3216 24.9042 25.0841 25 24.8008 25C24.5174 25 24.2799 24.9042 24.0883 24.7125C23.8966 24.5208 23.8008 24.2833 23.8008 24Z" fill="white"/>
</g>
</g>
<defs>
<linearGradient id="paint0_linear_7970_41174" x1="19.3462" y1="-9.6" x2="15.85" y2="31.7195" gradientUnits="userSpaceOnUse">
<stop stop-color="#4399EB"/>
<stop offset="1" stop-color="#00498E"/>
</linearGradient>
<clipPath id="clip0_7970_41174">
<rect width="24" height="24" fill="white" transform="translate(4.80078 4)"/>
</clipPath>
</defs>
</svg>
