<svg width="194" height="194" viewBox="0 0 194 194" fill="none" xmlns="http://www.w3.org/2000/svg">
<g clip-path="url(#clip0_17081_87887)">
<path fill-rule="evenodd" clip-rule="evenodd" d="M67.2644 186.538C66.3552 186.538 65.5596 186.425 64.6504 186.084L43.057 178.583C38.852 177.219 36.6926 172.673 38.0564 168.468L41.5795 158.353C38.6247 156.08 35.7834 153.58 33.2831 150.852L23.5092 155.625C19.6452 157.558 14.7582 155.853 12.9398 151.989L2.82501 131.304C1.91581 129.486 1.80216 127.327 2.48406 125.281C3.16596 123.235 4.6434 121.644 6.57545 120.735L16.2357 115.962C15.6674 112.325 15.4401 108.575 15.5538 104.824L5.3253 101.301C3.39325 100.619 1.68851 99.1416 0.779312 97.3232C-0.129885 95.3911 -0.243535 93.2318 0.438363 91.1861L7.93924 69.479C8.62114 67.547 9.98494 65.8422 11.917 64.933C13.849 64.0238 16.0084 63.9102 18.0541 64.5921L28.2825 68.1152C30.4419 65.1603 32.9422 62.3191 35.6698 59.7051L30.8965 50.0449C28.9644 46.0672 30.6692 41.2939 34.5333 39.3618L55.2175 29.3607C57.1496 28.4515 59.3089 28.3378 61.2409 29.0197C63.2866 29.7016 64.8777 31.1791 65.7869 32.9975L70.5602 42.7713C74.197 42.2031 77.9474 41.9758 81.6979 42.0894L85.221 31.861C86.6985 27.7696 91.2445 25.4966 95.3358 26.974L111.133 32.6565C109.542 36.9752 108.633 41.6348 108.406 46.4081C107.951 58.114 112.27 69.7063 120.225 78.3437C124.317 82.776 126.93 88.2312 127.953 94.141C125.68 94.2546 123.748 95.6184 122.839 97.5505C118.748 77.6618 101.018 62.7737 79.9931 62.7737C55.8994 62.7737 36.238 82.4351 36.238 106.529C36.238 130.623 55.8994 150.284 79.9931 150.284C102.496 150.284 121.021 133.236 123.521 111.416C124.43 112.666 125.908 113.575 127.499 113.689V116.303C127.499 119.371 130.113 121.985 133.181 121.985H134.204C136.363 126.758 141.25 130.168 146.819 130.168H156.82L152.161 143.579C151.479 145.511 150.001 147.102 148.069 148.125C146.137 149.034 143.978 149.147 142.046 148.466L131.817 144.942C129.544 147.897 127.044 150.739 124.43 153.352L129.09 163.013C131.022 166.99 129.431 171.764 125.453 173.696L104.882 183.697C102.95 184.606 100.791 184.72 98.7453 184.038C96.6996 183.356 95.1085 181.879 94.1993 180.06L89.4261 170.286C85.7893 170.855 82.0388 171.082 78.2884 170.968L74.7653 181.197C74.0834 183.242 72.7196 184.833 70.7875 185.743C69.651 186.311 68.5145 186.538 67.2644 186.538Z" fill="url(#paint0_linear_17081_87887)"/>
<path d="M102.262 91.1751L99.9101 99.7929H55.7031L58.1016 91.1751H102.262ZM80.2521 142.09L57.067 114.979L57.0199 107.526H68.2128C70.9404 107.526 73.1821 107.029 74.9379 106.035C76.725 105.01 78.0574 103.628 78.9353 101.889C79.8445 100.15 80.2992 98.1935 80.2992 96.0197C80.2992 93.7527 79.8916 91.7496 79.0764 90.0105C78.2612 88.2404 76.9601 86.8584 75.173 85.8647C73.3859 84.8709 71.0188 84.374 68.0717 84.374H55.7502L58.4308 74.2656H68.0717C73.6524 74.2656 78.2926 75.1041 81.9922 76.7811C85.7231 78.427 88.5135 80.8338 90.3633 84.0014C92.2444 87.1379 93.185 90.9267 93.185 95.3675C93.185 99.2494 92.5266 102.681 91.2098 105.662C89.9244 108.613 87.8394 111.019 84.955 112.883C82.0706 114.746 78.2769 115.988 73.574 116.609L94.5959 141.438V142.09H80.2521ZM102.309 74.2656L99.9101 82.8834H63.5569L65.9554 74.2656H102.309Z" fill="#FF9F00"/>
<path fill-rule="evenodd" clip-rule="evenodd" d="M131.72 94.2151C130.697 87.2824 127.742 80.9181 122.969 75.8038C115.696 67.8484 111.831 57.5062 112.286 46.5959C112.627 36.0264 117.059 26.2526 124.674 18.8653C132.288 11.4781 142.29 7.38672 152.745 7.38672H153.086C175.589 7.38672 194 25.6843 194 48.187C194 58.3018 190.25 68.0756 183.431 75.5765C178.544 80.9181 175.475 87.3961 174.452 94.2151H131.72ZM124.219 50.3463C123.31 50.3463 122.401 49.6644 122.287 48.7552C122.06 47.0505 121.946 45.3457 121.946 43.7546C122.287 37.3902 124.901 31.3668 129.561 26.9345C134.107 22.5021 140.13 20.0018 146.495 20.0018H146.608C147.631 20.0018 148.427 20.7974 148.427 21.8202C148.427 22.8431 147.631 23.7523 146.608 23.7523C135.357 23.8659 126.265 32.6169 125.81 43.8683C125.697 45.3457 125.81 46.7095 126.038 48.0733C126.265 49.0962 125.469 50.119 124.447 50.2326C124.333 50.3463 124.219 50.3463 124.219 50.3463Z" fill="#FF9F00"/>
<path fill-rule="evenodd" clip-rule="evenodd" d="M124.399 51.4812C123.425 51.531 122.543 51.0043 122.369 49.9841C121.922 48.4062 121.835 46.6956 121.747 44.9849C121.665 38.5862 124.286 32.5069 128.932 27.8107C133.699 23.1083 140.027 20.27 146.843 19.8079C147.939 19.752 148.96 20.6146 149.013 21.641C149.065 22.6674 148.259 23.6232 147.041 23.6853C135.103 24.2944 125.69 33.693 125.779 45.0079C125.849 46.3764 126.046 47.8527 126.36 49.2088C126.534 50.229 125.855 51.2926 124.765 51.4626C124.643 51.4688 124.521 51.475 124.399 51.4812Z" fill="white"/>
<path fill-rule="evenodd" clip-rule="evenodd" d="M176.382 110.014H128.08C127.058 110.014 126.148 109.218 126.148 108.082V99.8988C126.148 98.876 127.058 97.9668 128.08 97.9668H176.382C177.518 97.9668 178.314 98.876 178.314 99.8988V108.082C178.314 109.218 177.518 110.014 176.382 110.014ZM171.267 118.196H133.195C132.172 118.196 131.376 117.401 131.376 116.378V113.764H173.199V116.378C173.199 117.401 172.29 118.196 171.267 118.196Z" fill="#082655"/>
<path fill-rule="evenodd" clip-rule="evenodd" d="M157.63 126.492H146.834C141.265 126.492 136.719 121.946 136.719 116.377C136.719 115.355 137.628 114.445 138.651 114.445H165.813C166.95 114.445 167.745 115.355 167.745 116.377C167.745 121.946 163.199 126.492 157.63 126.492Z" fill="#082655"/>
</g>
<defs>
<linearGradient id="paint0_linear_17081_87887" x1="90.8845" y1="-21.4835" x2="73.0502" y2="185.075" gradientUnits="userSpaceOnUse">
<stop stop-color="#4399EB"/>
<stop offset="1" stop-color="#00498E"/>
</linearGradient>
<clipPath id="clip0_17081_87887">
<rect width="194" height="194" fill="white"/>
</clipPath>
</defs>
</svg>
