<svg width="24" height="24" viewBox="0 0 24 24" fill="none" xmlns="http://www.w3.org/2000/svg">
<mask id="mask0_17081_88093" style="mask-type:alpha" maskUnits="userSpaceOnUse" x="0" y="0" width="24" height="24">
<rect width="24" height="24" fill="white"/>
</mask>
<g mask="url(#mask0_17081_88093)">
<path d="M10.6131 11.8697L11.6919 8.55237C11.7355 8.43827 11.8051 8.34341 11.9006 8.26777C11.9961 8.19212 12.106 8.1543 12.2304 8.1543H12.7439C12.858 8.1543 12.9586 8.18122 13.0458 8.23507C13.133 8.28892 13.2035 8.36776 13.2573 8.4716L14.6015 11.1543H14.7939C14.9657 11.1543 15.108 11.2107 15.2208 11.3235C15.3336 11.4364 15.39 11.5787 15.39 11.7504C15.39 11.9222 15.3336 12.0645 15.2208 12.1774C15.108 12.2902 14.9657 12.3466 14.7939 12.3466H14.2477C14.14 12.3466 14.0365 12.3171 13.9371 12.2581C13.8378 12.1992 13.7612 12.1158 13.7073 12.0081L12.5689 9.74657L11.3631 13.4389C11.3195 13.5633 11.2474 13.6623 11.1467 13.736C11.0461 13.8097 10.9336 13.8466 10.8092 13.8466H10.4266C10.2958 13.8466 10.1775 13.8072 10.0718 13.7283C9.96599 13.6495 9.89131 13.5479 9.84771 13.4235L8.30731 8.31002L7.02846 11.9524C6.98488 12.0767 6.91501 12.1735 6.81886 12.2427C6.72271 12.312 6.60733 12.3466 6.47271 12.3466H2.69771C2.52591 12.3466 2.3836 12.2902 2.27079 12.1774C2.15797 12.0645 2.10156 11.9222 2.10156 11.7504C2.10156 11.5787 2.15798 11.4364 2.27081 11.3235C2.38361 11.2107 2.52591 11.1543 2.69771 11.1543H6.05349L7.55734 6.812C7.60092 6.68763 7.6756 6.58859 7.78136 6.51487C7.88713 6.44116 8.00539 6.4043 8.13616 6.4043H8.53424C8.67527 6.4043 8.7961 6.44629 8.89674 6.53027C8.99737 6.61424 9.06949 6.72161 9.11309 6.85237L10.6131 11.8697Z" fill="#FE7E36"/>
<path d="M10.9496 17.7499C9.87394 17.7499 8.87394 17.5506 7.94959 17.1519C7.02523 16.7532 6.21625 16.2083 5.52267 15.5173C5.36753 15.3724 5.29349 15.198 5.30054 14.9942C5.30759 14.7903 5.39381 14.616 5.55919 14.4711C5.72458 14.3327 5.91368 14.2708 6.12649 14.2855C6.33931 14.3003 6.52841 14.3801 6.69379 14.525C7.25918 15.0673 7.90084 15.4904 8.61879 15.7942C9.33674 16.0981 10.1137 16.25 10.9496 16.25C12.6804 16.25 14.1547 15.641 15.3727 14.4231C16.5906 13.2051 17.1996 11.7307 17.1996 9.99997C17.1996 8.26921 16.5906 6.79484 15.3727 5.57687C14.1547 4.35893 12.6804 3.74995 10.9496 3.74995C9.45728 3.74995 8.14669 4.2147 7.01784 5.1442C5.88899 6.0737 5.172 7.24102 4.86687 8.64615C4.80277 8.87178 4.69444 9.0705 4.54189 9.2423C4.38933 9.41408 4.20023 9.49997 3.97459 9.49997C3.75536 9.49997 3.58068 9.40671 3.45057 9.22017C3.32043 9.03364 3.28229 8.82756 3.33614 8.60192C3.66819 6.78141 4.54063 5.26763 5.95344 4.06058C7.36626 2.85353 9.03164 2.25 10.9496 2.25C13.1124 2.25 14.9448 3.00096 16.4467 4.50288C17.9486 6.00479 18.6996 7.83716 18.6996 9.99997C18.6996 10.959 18.5448 11.8413 18.2351 12.6471C17.9255 13.4529 17.488 14.2102 16.9226 14.9192L21.365 19.3615C21.5099 19.5064 21.5807 19.682 21.5775 19.8884C21.5743 20.0949 21.5034 20.2705 21.365 20.4154C21.2201 20.5602 21.0429 20.6327 20.8333 20.6327C20.6237 20.6327 20.4464 20.5602 20.3015 20.4154L15.8592 15.973C15.1502 16.5384 14.3945 16.9759 13.5919 17.2855C12.7893 17.5951 11.9086 17.7499 10.9496 17.7499Z" fill="#FE7E36"/>
</g>
</svg>
