<svg width="28" height="20" viewBox="0 0 28 20" fill="none" xmlns="http://www.w3.org/2000/svg">
<rect y="0.5" width="28" height="19" rx="2" fill="#236AD4"/>
<path d="M8.9993 12.17H6.2193L5.7593 13.5H4.2893L6.7993 6.51H8.4293L10.9393 13.5H9.4593L8.9993 12.17ZM8.6193 11.05L7.6093 8.13L6.5993 11.05H8.6193ZM13.2775 6.52V13.5H11.8775V6.52H13.2775Z" fill="white"/>
<path d="M20.4926 1.96402C20.5866 1.70991 20.9461 1.70991 21.0401 1.96402L21.8432 4.13429C21.8727 4.21418 21.9357 4.27717 22.0156 4.30673L24.1859 5.1098C24.44 5.20384 24.44 5.56325 24.1859 5.65728L22.0156 6.46035C21.9357 6.48992 21.8727 6.55291 21.8432 6.6328L21.0401 8.80306C20.9461 9.05718 20.5866 9.05718 20.4926 8.80306L19.6895 6.6328C19.66 6.55291 19.597 6.48992 19.5171 6.46035L17.3468 5.65728C17.0927 5.56325 17.0927 5.20384 17.3468 5.1098L19.5171 4.30673C19.597 4.27717 19.66 4.21418 19.6895 4.13429L20.4926 1.96402Z" fill="url(#paint0_linear_16586_84882)"/>
<path d="M24.8792 1.26444C24.9229 1.15144 25.09 1.15144 25.1337 1.26444L25.507 2.22951C25.5208 2.26504 25.5501 2.29305 25.5872 2.30619L26.5961 2.6633C26.7143 2.70512 26.7143 2.86494 26.5961 2.90675L25.5872 3.26386C25.5501 3.27701 25.5208 3.30502 25.507 3.34055L25.1337 4.30562C25.09 4.41862 24.9229 4.41862 24.8792 4.30562L24.5058 3.34055C24.4921 3.30502 24.4628 3.27701 24.4257 3.26386L23.4167 2.90675C23.2986 2.86494 23.2986 2.70512 23.4167 2.6633L24.4257 2.30619C24.4628 2.29305 24.4921 2.26504 24.5058 2.22951L24.8792 1.26444Z" fill="url(#paint1_linear_16586_84882)"/>
<path d="M17.4861 6.91341C17.5108 6.85178 17.6052 6.85178 17.6299 6.91341L17.8409 7.43982C17.8487 7.4592 17.8653 7.47447 17.8862 7.48164L18.4565 7.67643C18.5233 7.69924 18.5233 7.78642 18.4565 7.80922L17.8862 8.00401C17.8653 8.01118 17.8487 8.02646 17.8409 8.04584L17.6299 8.57224C17.6052 8.63388 17.5108 8.63388 17.4861 8.57224L17.275 8.04584C17.2673 8.02646 17.2507 8.01118 17.2297 8.00401L16.6595 7.80922C16.5927 7.78642 16.5927 7.69924 16.6595 7.67643L17.2297 7.48164C17.2507 7.47447 17.2673 7.4592 17.275 7.43982L17.4861 6.91341Z" fill="url(#paint2_linear_16586_84882)"/>
<defs>
<linearGradient id="paint0_linear_16586_84882" x1="24.1396" y1="8.54941" x2="18.8668" y2="2.26135" gradientUnits="userSpaceOnUse">
<stop stop-color="#0011A5"/>
<stop offset="1" stop-color="#011E49"/>
</linearGradient>
<linearGradient id="paint1_linear_16586_84882" x1="26.5746" y1="4.19282" x2="24.2503" y2="1.29487" gradientUnits="userSpaceOnUse">
<stop stop-color="#0011A5"/>
<stop offset="1" stop-color="#011E49"/>
</linearGradient>
<linearGradient id="paint2_linear_16586_84882" x1="18.4444" y1="8.51072" x2="17.187" y2="6.88632" gradientUnits="userSpaceOnUse">
<stop stop-color="#0011A5"/>
<stop offset="1" stop-color="#011E49"/>
</linearGradient>
</defs>
</svg>
