<svg width="10" height="10" viewBox="0 0 10 10" fill="none" xmlns="http://www.w3.org/2000/svg">
<mask id="mask0_7101_33753" style="mask-type:alpha" maskUnits="userSpaceOnUse" x="0" y="0" width="10" height="10">
<rect x="10" y="10" width="10" height="10" transform="rotate(-180 10 10)" fill="#D9D9D9"/>
</mask>
<g mask="url(#mask0_7101_33753)">
<path d="M5.48926 3.01145L9.00079 6.24877C9.05489 6.29866 9.09546 6.35213 9.12251 6.40917C9.14956 6.46622 9.16309 6.52685 9.16309 6.59106C9.16309 6.71951 9.1138 6.83362 9.01523 6.93338C8.91666 7.03313 8.78808 7.08301 8.6295 7.08301L1.23514 7.08301C1.07655 7.08301 0.947976 7.03313 0.849404 6.93338C0.750833 6.83362 0.701548 6.71951 0.701548 6.59106C0.701548 6.55553 0.755647 6.44143 0.863847 6.24877L4.37537 3.01145C4.4606 2.9329 4.54861 2.87756 4.6394 2.84546C4.7302 2.81335 4.82783 2.79729 4.93232 2.79729C5.0368 2.79729 5.13444 2.81335 5.22523 2.84546C5.31603 2.87756 5.40404 2.9329 5.48926 3.01145Z" fill="#04B800"/>
</g>
</svg>
