<svg width="10" height="6" viewBox="0 0 10 6" fill="none" xmlns="http://www.w3.org/2000/svg">
<path d="M4.51074 4.98855L0.999214 1.75123C0.945114 1.70134 0.904539 1.64787 0.877489 1.59083C0.850439 1.53378 0.836914 1.47315 0.836914 1.40894C0.836914 1.28049 0.886199 1.16638 0.984771 1.06662C1.08334 0.966868 1.21192 0.916992 1.3705 0.916992L8.76486 0.916992C8.92345 0.916992 9.05202 0.966868 9.1506 1.06662C9.24917 1.16638 9.29845 1.28049 9.29845 1.40894C9.29845 1.44447 9.24435 1.55857 9.13615 1.75123L5.62463 4.98855C5.5394 5.0671 5.45139 5.12244 5.3606 5.15454C5.2698 5.18665 5.17217 5.20271 5.06768 5.20271C4.9632 5.20271 4.86556 5.18665 4.77477 5.15454C4.68397 5.12244 4.59596 5.0671 4.51074 4.98855Z" fill="#D80000"/>
</svg>
