<svg width="24" height="24" viewBox="0 0 24 24" fill="none" xmlns="http://www.w3.org/2000/svg">
<mask id="mask0_7491_40324" style="mask-type:alpha" maskUnits="userSpaceOnUse" x="0" y="0" width="24" height="24">
<rect width="24" height="24" fill="#D9D9D9"/>
</mask>
<g mask="url(#mask0_7491_40324)">
<path d="M5.075 11.999H8C8.18333 11.999 8.35833 12.0449 8.525 12.1365C8.69167 12.2282 8.81667 12.3657 8.9 12.549L10 14.749L13.1 8.54902C13.2833 8.16569 13.5833 7.97402 14 7.97402C14.4167 7.97402 14.7167 8.16569 14.9 8.54902L16.625 11.999H18.925C18.675 10.299 17.9 8.87402 16.6 7.72402C15.3 6.57402 13.7667 5.99902 12 5.99902C10.2333 5.99902 8.7 6.57402 7.4 7.72402C6.1 8.87402 5.325 10.299 5.075 11.999ZM12 19.999C13.7667 19.999 15.3 19.424 16.6 18.274C17.9 17.124 18.675 15.699 18.925 13.999H16C15.8167 13.999 15.6417 13.9532 15.475 13.8615C15.3083 13.7699 15.1833 13.6324 15.1 13.449L14 11.249L10.9 17.449C10.7167 17.8324 10.4167 18.024 10 18.024C9.58333 18.024 9.28333 17.8324 9.1 17.449L7.375 13.999H5.075C5.325 15.699 6.1 17.124 7.4 18.274C8.7 19.424 10.2333 19.999 12 19.999ZM12 21.999C10.7667 21.999 9.60417 21.7615 8.5125 21.2865C7.42083 20.8115 6.46667 20.1657 5.65 19.349C4.83333 18.5324 4.1875 17.5782 3.7125 16.4865C3.2375 15.3949 3 14.2324 3 12.999H5C5 14.9324 5.68333 16.5824 7.05 17.949C8.41667 19.3157 10.0667 19.999 12 19.999C13.9333 19.999 15.5833 19.3157 16.95 17.949C18.3167 16.5824 19 14.9324 19 12.999H21C21 14.2324 20.7625 15.3949 20.2875 16.4865C19.8125 17.5782 19.1667 18.5324 18.35 19.349C17.5333 20.1657 16.5792 20.8115 15.4875 21.2865C14.3958 21.7615 13.2333 21.999 12 21.999ZM3 12.999C3 11.7657 3.2375 10.6032 3.7125 9.51152C4.1875 8.41986 4.83333 7.46569 5.65 6.64902C6.46667 5.83236 7.42083 5.18652 8.5125 4.71152C9.60417 4.23652 10.7667 3.99902 12 3.99902C13.0333 3.99902 14.025 4.16569 14.975 4.49902C15.925 4.83236 16.8167 5.31569 17.65 5.94902L18.35 5.24902C18.5333 5.06569 18.7667 4.97402 19.05 4.97402C19.3333 4.97402 19.5667 5.06569 19.75 5.24902C19.9333 5.43236 20.025 5.66569 20.025 5.94902C20.025 6.23236 19.9333 6.46569 19.75 6.64902L19.05 7.34902C19.6833 8.18236 20.1667 9.07402 20.5 10.024C20.8333 10.974 21 11.9657 21 12.999H19C19 11.0657 18.3167 9.41569 16.95 8.04902C15.5833 6.68236 13.9333 5.99902 12 5.99902C10.0667 5.99902 8.41667 6.68236 7.05 8.04902C5.68333 9.41569 5 11.0657 5 12.999H3ZM10 2.99902C9.71667 2.99902 9.47917 2.90319 9.2875 2.71152C9.09583 2.51986 9 2.28236 9 1.99902C9 1.71569 9.09583 1.47819 9.2875 1.28652C9.47917 1.09486 9.71667 0.999023 10 0.999023H14C14.2833 0.999023 14.5208 1.09486 14.7125 1.28652C14.9042 1.47819 15 1.71569 15 1.99902C15 2.28236 14.9042 2.51986 14.7125 2.71152C14.5208 2.90319 14.2833 2.99902 14 2.99902H10ZM12 19.999C10.0667 19.999 8.41667 19.3157 7.05 17.949C5.68333 16.5824 5 14.9324 5 12.999C5 11.0657 5.68333 9.41569 7.05 8.04902C8.41667 6.68236 10.0667 5.99902 12 5.99902C13.9333 5.99902 15.5833 6.68236 16.95 8.04902C18.3167 9.41569 19 11.0657 19 12.999C19 14.9324 18.3167 16.5824 16.95 17.949C15.5833 19.3157 13.9333 19.999 12 19.999Z" fill="#4399EB"/>
</g>
</svg>
