<svg width="20" height="20" viewBox="0 0 20 20" fill="none" xmlns="http://www.w3.org/2000/svg">
<mask id="mask0_7178_40204" style="mask-type:alpha" maskUnits="userSpaceOnUse" x="0" y="0" width="20" height="20">
<rect width="20" height="20" fill="#4399EB"/>
</mask>
<g mask="url(#mask0_7178_40204)">
<path d="M10.0003 15L6.50033 16.5C5.94477 16.7361 5.41699 16.691 4.91699 16.3646C4.41699 16.0382 4.16699 15.5764 4.16699 14.9792V4.16667C4.16699 3.70833 4.33019 3.31597 4.65658 2.98958C4.98296 2.66319 5.37533 2.5 5.83366 2.5H14.167C14.6253 2.5 15.0177 2.66319 15.3441 2.98958C15.6705 3.31597 15.8337 3.70833 15.8337 4.16667V14.9792C15.8337 15.5764 15.5837 16.0382 15.0837 16.3646C14.5837 16.691 14.0559 16.7361 13.5003 16.5L10.0003 15Z" fill="#4399EB"/>
</g>
</svg>
