<svg width="40" height="40" viewBox="0 0 40 40" fill="none" xmlns="http://www.w3.org/2000/svg">
<mask id="mask0_7101_32594" style="mask-type:alpha" maskUnits="userSpaceOnUse" x="4" y="4" width="32" height="32">
<rect x="4" y="4" width="32" height="32" fill="#D9D9D9"/>
</mask>
<g mask="url(#mask0_7101_32594)">
<path d="M19.7177 30.628C19.8492 30.628 19.983 30.5972 20.119 30.5356C20.2548 30.4741 20.362 30.404 20.4407 30.3253L31.1047 19.6613C31.4056 19.3604 31.6321 19.039 31.7844 18.697C31.9364 18.3552 32.0124 17.9963 32.0124 17.6203C32.0124 17.2305 31.9364 16.8553 31.7844 16.4946C31.6321 16.1338 31.4056 15.8098 31.1047 15.5226L25.7714 10.1893C25.4842 9.88842 25.1731 9.66831 24.838 9.52898C24.5031 9.38987 24.1408 9.32031 23.751 9.32031C23.375 9.32031 23.0139 9.38987 22.6677 9.52898C22.3215 9.66831 22.0022 9.88842 21.71 10.1893L20.9457 10.9536L23.4124 13.4406C23.7115 13.7262 23.9325 14.0519 24.0754 14.4176C24.218 14.7834 24.2894 15.1629 24.2894 15.556C24.2894 16.3698 24.0176 17.0484 23.474 17.592C22.9305 18.1355 22.2518 18.4073 21.438 18.4073C21.0449 18.4073 20.6641 18.3423 20.2957 18.2123C19.9275 18.0825 19.6006 17.8749 19.315 17.5893L17.0844 15.3793C17.0075 15.3022 16.9091 15.2636 16.7894 15.2636C16.6698 15.2636 16.5716 15.3022 16.4947 15.3793L10.9947 20.879C10.8938 20.9799 10.8181 21.0928 10.7677 21.2176C10.7172 21.3423 10.692 21.4705 10.692 21.6023C10.692 21.8483 10.7758 22.0585 10.9434 22.233C11.1109 22.4074 11.3177 22.4946 11.5637 22.4946C11.6955 22.4946 11.8292 22.4639 11.965 22.4023C12.101 22.3408 12.2084 22.2706 12.287 22.192L15.9637 18.515C16.1484 18.3303 16.377 18.2324 16.6497 18.2213C16.9224 18.2102 17.1621 18.3081 17.369 18.515C17.5621 18.7081 17.6587 18.9423 17.6587 19.2176C17.6587 19.4928 17.5621 19.7269 17.369 19.92L13.7124 23.597C13.6117 23.6979 13.5361 23.8108 13.4857 23.9356C13.4352 24.0603 13.41 24.1885 13.41 24.3203C13.41 24.5579 13.4959 24.7625 13.6677 24.9343C13.8395 25.1061 14.0441 25.192 14.2817 25.192C14.4135 25.192 14.5472 25.1612 14.683 25.0996C14.819 25.0381 14.9262 24.968 15.0047 24.8893L18.8357 21.079C19.0204 20.8945 19.2489 20.7968 19.5214 20.7856C19.794 20.7745 20.0338 20.8723 20.2407 21.079C20.4338 21.2723 20.5304 21.5065 20.5304 21.7816C20.5304 22.0568 20.4338 22.291 20.2407 22.4843L16.4304 26.315C16.3381 26.3936 16.2647 26.5009 16.21 26.6366C16.1554 26.7726 16.128 26.9064 16.128 27.038C16.128 27.2758 16.2139 27.4805 16.3857 27.6523C16.5575 27.8241 16.7621 27.91 16.9997 27.91C17.1312 27.91 17.2595 27.8848 17.3844 27.8343C17.509 27.7839 17.6218 27.7082 17.7227 27.6073L21.5537 23.797C21.7381 23.6123 21.9667 23.5144 22.2394 23.5033C22.512 23.4922 22.7518 23.5901 22.9587 23.797C23.1518 23.9901 23.2484 24.2243 23.2484 24.4996C23.2484 24.7748 23.1518 25.009 22.9587 25.2023L19.128 29.033C19.0271 29.1339 18.9515 29.251 18.901 29.3843C18.8506 29.5176 18.8254 29.6459 18.8254 29.769C18.8254 30.015 18.9168 30.2196 19.0997 30.383C19.2826 30.5463 19.4886 30.628 19.7177 30.628ZM19.697 32.6276C18.9432 32.6276 18.286 32.3662 17.7254 31.8433C17.1647 31.3202 16.8716 30.6689 16.846 29.8893C16.0905 29.838 15.4592 29.5696 14.9524 29.0843C14.4455 28.5988 14.1707 27.9611 14.128 27.1713C13.3382 27.1202 12.6998 26.8442 12.2127 26.3433C11.7254 25.8424 11.4646 25.2124 11.4304 24.4533C10.6372 24.4022 9.98258 24.1146 9.46636 23.5906C8.95013 23.0666 8.69202 22.4039 8.69202 21.6023C8.69202 21.2092 8.7668 20.8241 8.91636 20.447C9.06591 20.0701 9.28347 19.739 9.56902 19.4536L15.0817 13.9406C15.5415 13.4809 16.1072 13.251 16.779 13.251C17.451 13.251 18.0169 13.4809 18.4767 13.9406L20.6947 16.1586C20.7731 16.2509 20.876 16.3244 21.0034 16.3793C21.1309 16.434 21.269 16.4613 21.4177 16.4613C21.6604 16.4613 21.8697 16.381 22.0457 16.2203C22.2219 16.0596 22.31 15.8493 22.31 15.5893C22.31 15.4406 22.2827 15.3026 22.228 15.1753C22.1731 15.048 22.0996 14.945 22.0074 14.8663L17.3304 10.1893C17.0432 9.88842 16.73 9.66831 16.3907 9.52898C16.0514 9.38987 15.6868 9.32031 15.297 9.32031C14.921 9.32031 14.5642 9.38987 14.2267 9.52898C13.8889 9.66831 13.5697 9.88842 13.269 10.1893L8.88936 14.5893C8.50136 14.9773 8.24069 15.4444 8.10736 15.9906C7.97402 16.5369 7.98769 17.0681 8.14836 17.5843C8.20658 17.8594 8.15658 18.1094 7.99836 18.3343C7.84036 18.559 7.62369 18.6935 7.34836 18.738C7.07325 18.7824 6.82113 18.7291 6.59202 18.578C6.36291 18.4266 6.22613 18.2133 6.18169 17.938C5.97147 17.0851 5.97069 16.236 6.17936 15.3906C6.3878 14.5453 6.81591 13.7988 7.46369 13.151L11.8304 8.78431C12.3297 8.29876 12.8729 7.93342 13.46 7.68831C14.0471 7.44298 14.6638 7.32031 15.31 7.32031C15.956 7.32031 16.5705 7.44298 17.1534 7.68831C17.7365 7.93342 18.2707 8.29876 18.756 8.78431L19.5204 9.54831L20.2844 8.78431C20.7835 8.29876 21.3245 7.93342 21.9074 7.68831C22.4902 7.44298 23.1048 7.32031 23.751 7.32031C24.3972 7.32031 25.0139 7.44298 25.601 7.68831C26.1881 7.93342 26.7245 8.29876 27.21 8.78431L32.51 14.0843C32.9954 14.5699 33.3671 15.1224 33.6254 15.742C33.8834 16.3615 34.0124 16.9944 34.0124 17.6406C34.0124 18.2869 33.8834 18.9014 33.6254 19.4843C33.3671 20.0672 32.9954 20.6013 32.51 21.0866L21.8457 31.7303C21.5517 32.0243 21.2206 32.2474 20.8524 32.3996C20.4839 32.5516 20.0988 32.6276 19.697 32.6276Z" fill="#333333"/>
</g>
</svg>
