<svg width="12" height="13" viewBox="0 0 12 13" fill="none" xmlns="http://www.w3.org/2000/svg">
<path d="M11.3 12.5C9.91111 12.5 8.53889 12.1972 7.18333 11.5917C5.82778 10.9861 4.59444 10.1278 3.48333 9.01667C2.37222 7.90556 1.51389 6.67222 0.908333 5.31667C0.302778 3.96111 0 2.58889 0 1.2C0 1 0.0666667 0.833333 0.2 0.7C0.333333 0.566667 0.5 0.5 0.7 0.5H3.4C3.55556 0.5 3.69444 0.552778 3.81667 0.658333C3.93889 0.763889 4.01111 0.888889 4.03333 1.03333L4.46667 3.36667C4.48889 3.54444 4.48333 3.69444 4.45 3.81667C4.41667 3.93889 4.35556 4.04444 4.26667 4.13333L2.65 5.76667C2.87222 6.17778 3.13611 6.575 3.44167 6.95833C3.74722 7.34167 4.08333 7.71111 4.45 8.06667C4.79444 8.41111 5.15556 8.73056 5.53333 9.025C5.91111 9.31944 6.31111 9.58889 6.73333 9.83333L8.3 8.26667C8.4 8.16667 8.53056 8.09167 8.69167 8.04167C8.85278 7.99167 9.01111 7.97778 9.16667 8L11.4667 8.46667C11.6222 8.51111 11.75 8.59167 11.85 8.70833C11.95 8.825 12 8.95556 12 9.1V11.8C12 12 11.9333 12.1667 11.8 12.3C11.6667 12.4333 11.5 12.5 11.3 12.5ZM2.01667 4.5L3.11667 3.4L2.83333 1.83333H1.35C1.40556 2.28889 1.48333 2.73889 1.58333 3.18333C1.68333 3.62778 1.82778 4.06667 2.01667 4.5ZM7.98333 10.4667C8.41667 10.6556 8.85833 10.8056 9.30833 10.9167C9.75833 11.0278 10.2111 11.1 10.6667 11.1333V9.66667L9.1 9.35L7.98333 10.4667Z" fill="#236AD4"/>
</svg>
