<svg width="14" height="14" viewBox="0 0 14 14" fill="none" xmlns="http://www.w3.org/2000/svg">
<mask id="mask0_13046_62783" style="mask-type:alpha" maskUnits="userSpaceOnUse" x="0" y="0" width="14" height="14">
<rect width="14" height="14" fill="#D9D9D9"/>
</mask>
<g mask="url(#mask0_13046_62783)">
<path d="M6.09583 7.56875L6.85417 8.32708C6.96111 8.43403 7.09722 8.4875 7.2625 8.4875C7.42778 8.4875 7.56389 8.43403 7.67083 8.32708L9.33333 6.66458V7.01458C9.33333 7.17986 9.38924 7.31597 9.50104 7.42292C9.61285 7.52986 9.75139 7.58333 9.91667 7.58333C10.0819 7.58333 10.2205 7.52743 10.3323 7.41563C10.4441 7.30382 10.5 7.16528 10.5 7V5.25C10.5 5.08472 10.4441 4.94618 10.3323 4.83437C10.2205 4.72257 10.0819 4.66667 9.91667 4.66667H8.15208C7.98681 4.66667 7.85069 4.72257 7.74375 4.83437C7.63681 4.94618 7.58333 5.08472 7.58333 5.25C7.58333 5.41528 7.63924 5.55382 7.75104 5.66562C7.86285 5.77743 8.00139 5.83333 8.16667 5.83333H8.50208L7.2625 7.0875L6.50417 6.32917C6.39722 6.2125 6.26111 6.15417 6.09583 6.15417C5.93056 6.15417 5.79444 6.2125 5.6875 6.32917L3.90833 8.10833C3.79167 8.21528 3.73333 8.35139 3.73333 8.51667C3.73333 8.68194 3.79167 8.81806 3.90833 8.925C4.01528 9.04167 4.15139 9.1 4.31667 9.1C4.48194 9.1 4.61806 9.04167 4.725 8.925L6.09583 7.56875ZM2.91667 12.25C2.59583 12.25 2.32118 12.1358 2.09271 11.9073C1.86424 11.6788 1.75 11.4042 1.75 11.0833V2.91667C1.75 2.59583 1.86424 2.32118 2.09271 2.09271C2.32118 1.86424 2.59583 1.75 2.91667 1.75H11.0833C11.4042 1.75 11.6788 1.86424 11.9073 2.09271C12.1358 2.32118 12.25 2.59583 12.25 2.91667V11.0833C12.25 11.4042 12.1358 11.6788 11.9073 11.9073C11.6788 12.1358 11.4042 12.25 11.0833 12.25H2.91667ZM2.91667 11.0833H11.0833V2.91667H2.91667V11.0833Z" fill="white"/>
</g>
</svg>
