<svg width="14" height="14" viewBox="0 0 14 14" fill="none" xmlns="http://www.w3.org/2000/svg">
<mask id="mask0_13046_62811" style="mask-type:alpha" maskUnits="userSpaceOnUse" x="0" y="0" width="14" height="14">
<rect width="14" height="14" fill="#D9D9D9"/>
</mask>
<g mask="url(#mask0_13046_62811)">
<path d="M5.10417 13.0833C4.65694 13.0833 4.2559 12.9667 3.90104 12.7333C3.54618 12.5 3.27153 12.1792 3.07708 11.7708C2.92153 11.975 2.72465 12.133 2.48646 12.2448C2.24826 12.3566 2.00278 12.4125 1.75 12.4125C1.25417 12.4125 0.838542 12.2424 0.503125 11.9021C0.167708 11.5618 0 11.1486 0 10.6625C0 10.2444 0.136111 9.86771 0.408333 9.53229C0.680556 9.19687 1.02569 9.00486 1.44375 8.95625C1.30764 8.76181 1.20312 8.55521 1.13021 8.33646C1.05729 8.11771 1.02083 7.88681 1.02083 7.64375C1.02083 7.25486 1.12049 6.89028 1.31979 6.55C1.5191 6.20972 1.79861 5.93264 2.15833 5.71875C2.20694 5.89375 2.27257 6.0809 2.35521 6.28021C2.43785 6.47951 2.53264 6.65208 2.63958 6.79792C2.50347 6.90486 2.39653 7.03368 2.31875 7.18437C2.24097 7.33507 2.20208 7.49306 2.20208 7.65833C2.20208 8.20278 2.42569 8.53819 2.87292 8.66458C3.32014 8.79097 3.74306 8.89305 4.14167 8.97083L4.41875 9.4375C4.31181 9.74861 4.21944 10.0135 4.14167 10.2323C4.06389 10.451 4.025 10.6479 4.025 10.8229C4.025 11.1146 4.12951 11.3698 4.33854 11.5885C4.54757 11.8073 4.80278 11.9167 5.10417 11.9167C5.41528 11.9167 5.68264 11.7976 5.90625 11.5594C6.12986 11.3212 6.31701 11.0247 6.46771 10.6698C6.6184 10.3149 6.73993 9.93819 6.83229 9.53958C6.92465 9.14097 7 8.78125 7.05833 8.46042C7.0875 8.29514 7.17014 8.16632 7.30625 8.07396C7.44236 7.9816 7.58819 7.95972 7.74375 8.00833C7.90903 8.05694 8.03299 8.15417 8.11563 8.3C8.19826 8.44583 8.22014 8.60139 8.18125 8.76667C8.09375 9.21389 7.98194 9.69028 7.84583 10.1958C7.70972 10.7014 7.52743 11.1681 7.29896 11.5958C7.07049 12.0236 6.77882 12.3785 6.42396 12.6604C6.0691 12.9424 5.62917 13.0833 5.10417 13.0833ZM1.75 11.2458C1.91528 11.2458 2.05382 11.1899 2.16563 11.0781C2.27743 10.9663 2.33333 10.8278 2.33333 10.6625C2.33333 10.4972 2.27743 10.3587 2.16563 10.2469C2.05382 10.1351 1.91528 10.0792 1.75 10.0792C1.58472 10.0792 1.44618 10.1351 1.33438 10.2469C1.22257 10.3587 1.16667 10.4972 1.16667 10.6625C1.16667 10.8278 1.22257 10.9663 1.33438 11.0781C1.44618 11.1899 1.58472 11.2458 1.75 11.2458ZM6.31458 8.51875C6.18819 8.64514 6.03507 8.70104 5.85521 8.68646C5.67535 8.67188 5.51736 8.60139 5.38125 8.475C4.63264 7.79444 4.03472 7.17708 3.5875 6.62292C3.14028 6.06875 2.91667 5.47083 2.91667 4.82917C2.91667 4.19722 3.13299 3.66493 3.56562 3.23229C3.99826 2.79965 4.53056 2.58333 5.1625 2.58333C5.20139 2.58333 5.23542 2.58576 5.26458 2.59063C5.29375 2.59549 5.32778 2.59792 5.36667 2.59792C5.32778 2.50069 5.29861 2.40347 5.27917 2.30625C5.25972 2.20903 5.25 2.10694 5.25 2C5.25 1.51389 5.42014 1.10069 5.76042 0.760417C6.10069 0.420139 6.51389 0.25 7 0.25C7.48611 0.25 7.89931 0.420139 8.23958 0.760417C8.57986 1.10069 8.75 1.51389 8.75 2C8.75 2.10694 8.74028 2.2066 8.72083 2.29896C8.70139 2.39132 8.67222 2.48611 8.63333 2.58333H8.8375C9.42083 2.58333 9.91667 2.77049 10.325 3.14479C10.7333 3.5191 10.9764 3.98333 11.0542 4.5375C10.8792 4.50833 10.6823 4.49375 10.4635 4.49375C10.2448 4.49375 10.0431 4.50347 9.85833 4.52292C9.79028 4.29931 9.66632 4.11458 9.48646 3.96875C9.3066 3.82292 9.09028 3.75 8.8375 3.75C8.49722 3.75 8.23229 3.84965 8.04271 4.04896C7.85313 4.24826 7.59306 4.5375 7.2625 4.91667H6.72292C6.38264 4.51806 6.11771 4.22396 5.92812 4.03437C5.73854 3.84479 5.48333 3.75 5.1625 3.75C4.85139 3.75 4.59375 3.85208 4.38958 4.05625C4.18542 4.26042 4.08333 4.51806 4.08333 4.82917C4.08333 5.2375 4.27535 5.66285 4.65938 6.10521C5.0434 6.54757 5.56111 7.06528 6.2125 7.65833C6.34861 7.775 6.42882 7.9184 6.45312 8.08854C6.47743 8.25868 6.43125 8.40208 6.31458 8.51875ZM7 2.58333C7.16528 2.58333 7.30382 2.52743 7.41563 2.41563C7.52743 2.30382 7.58333 2.16528 7.58333 2C7.58333 1.83472 7.52743 1.69618 7.41563 1.58438C7.30382 1.47257 7.16528 1.41667 7 1.41667C6.83472 1.41667 6.69618 1.47257 6.58437 1.58438C6.47257 1.69618 6.41667 1.83472 6.41667 2C6.41667 2.16528 6.47257 2.30382 6.58437 2.41563C6.69618 2.52743 6.83472 2.58333 7 2.58333ZM8.88125 13.0833C8.66736 13.0833 8.4559 13.0542 8.24687 12.9958C8.03785 12.9375 7.83611 12.8451 7.64167 12.7188C7.74861 12.5826 7.85556 12.4222 7.9625 12.2375C8.06944 12.0528 8.16667 11.8826 8.25417 11.7271C8.36111 11.7951 8.46805 11.8438 8.575 11.8729C8.68194 11.9021 8.78889 11.9167 8.89583 11.9167C9.20694 11.9167 9.46701 11.8073 9.67604 11.5885C9.88507 11.3698 9.98958 11.1097 9.98958 10.8083C9.98958 10.6236 9.9507 10.4243 9.87292 10.2104C9.79514 9.99653 9.70278 9.73403 9.59583 9.42292L9.87292 8.95625C10.2812 8.87847 10.7066 8.77639 11.149 8.65C11.5913 8.52361 11.8125 8.18819 11.8125 7.64375C11.8125 7.25486 11.6691 6.97292 11.3823 6.79792C11.0955 6.62292 10.7819 6.53542 10.4417 6.53542C10.1014 6.53542 9.70764 6.59375 9.26042 6.71042C8.81319 6.82708 8.30278 6.97778 7.72917 7.1625C7.56389 7.21111 7.40347 7.20382 7.24792 7.14062C7.09236 7.07743 6.99028 6.96319 6.94167 6.79792C6.89306 6.63264 6.91736 6.47708 7.01458 6.33125C7.11181 6.18542 7.24306 6.08819 7.40833 6.03958C8.02083 5.84514 8.575 5.68472 9.07083 5.55833C9.56667 5.43194 10.0285 5.36875 10.4563 5.36875C11.1271 5.36875 11.7153 5.56806 12.2208 5.96667C12.7264 6.36528 12.9792 6.92431 12.9792 7.64375C12.9792 7.88681 12.9427 8.11771 12.8698 8.33646C12.7969 8.55521 12.6924 8.76181 12.5562 8.95625C12.9743 9.00486 13.3194 9.19687 13.5917 9.53229C13.8639 9.86771 14 10.2444 14 10.6625C14 11.1486 13.8323 11.5618 13.4969 11.9021C13.1615 12.2424 12.7458 12.4125 12.25 12.4125C11.9972 12.4125 11.7517 12.3566 11.5135 12.2448C11.2753 12.133 11.0785 11.975 10.9229 11.7708C10.7285 12.1792 10.4538 12.5 10.099 12.7333C9.7441 12.9667 9.33819 13.0833 8.88125 13.0833ZM12.2646 11.2458C12.4299 11.2458 12.566 11.1899 12.6729 11.0781C12.7799 10.9663 12.8333 10.8278 12.8333 10.6625C12.8333 10.4972 12.7774 10.3562 12.6656 10.2396C12.5538 10.1229 12.4153 10.0646 12.25 10.0646C12.0847 10.0646 11.9462 10.1205 11.8344 10.2323C11.7226 10.3441 11.6667 10.4826 11.6667 10.6479C11.6667 10.8132 11.725 10.9542 11.8417 11.0708C11.9583 11.1875 12.0993 11.2458 12.2646 11.2458Z" fill="white"/>
</g>
</svg>
