<svg width="66" height="66" viewBox="0 0 66 66" fill="none" xmlns="http://www.w3.org/2000/svg">
<rect width="66" height="66" rx="33" fill="white"/>
<path d="M47.2189 52.0011V45.4976L43.4961 36.5488H45.9017L48.2934 42.6623L50.6366 36.5488H53.0006L49.264 45.5187V52.0011H47.2189Z" fill="#3B2E7E"/>
<path d="M38.1582 52.0011V39.1629H35.1426V36.5488H43.219V39.1629H40.2103V52.0011H38.1582Z" fill="#3B2E7E"/>
<path d="M27.2051 52.0011V36.5488H34.1723V39.1629H29.2571V42.8204H33.4998V45.4344H29.2571V52.0011H27.2051Z" fill="#3B2E7E"/>
<path d="M23.1758 52.0011V36.5488H25.2278V52.0011H23.1758Z" fill="#3B2E7E"/>
<path d="M13 52.0011V36.5488H14.9966L19.1561 46.8679V36.5488H21.0626V52.0011H19.0036L14.9065 41.9244V52.0011H13Z" fill="#3B2E7E"/>
<path d="M43.2871 27.7159V14.8777H40.2715V12.2637H48.3479V14.8777H45.3392V27.7159H43.2871Z" fill="#F5812A"/>
<path d="M32.334 27.7159V12.2637H39.3012V14.8777H34.386V18.5352H38.6287V21.1492H34.386V27.7159H32.334Z" fill="#F5812A"/>
<path d="M28.3066 27.7159V12.2637H30.3587V27.7159H28.3066Z" fill="#E31D26"/>
<path d="M22.0464 22.0345V19.431H26.4694V25.5866C26.0396 26.219 25.4156 26.7777 24.5976 27.2625C23.7842 27.7404 22.9592 27.9793 22.1227 27.9793C21.0597 27.9793 20.133 27.642 19.3427 26.9674C18.5524 26.2858 17.9585 25.3161 17.561 24.0582C17.1636 22.7934 16.9648 21.4196 16.9648 19.9369C16.9648 18.3278 17.1867 16.8978 17.6304 15.647C18.0741 14.3962 18.7234 13.437 19.5784 12.7695C20.2301 12.2565 21.0412 12 22.0117 12C23.2735 12 24.2579 12.404 24.965 13.2121C25.6768 14.0132 26.1343 15.1235 26.3377 16.5429L24.2995 17.1226C24.1562 16.3637 23.8859 15.7664 23.4884 15.3308C23.0955 14.8881 22.6033 14.6667 22.0117 14.6667C21.1151 14.6667 20.4011 15.0989 19.8696 15.9632C19.3427 16.8275 19.0793 18.1099 19.0793 19.8104C19.0793 21.6445 19.3473 23.0218 19.8835 23.9423C20.4196 24.8558 21.1221 25.3125 21.991 25.3125C22.4208 25.3125 22.8506 25.1861 23.2804 24.9331C23.7148 24.6731 24.0869 24.3604 24.3965 23.995V22.0345H22.0464Z" fill="#F5812A"/>
</svg>
