<svg width="40" height="40" viewBox="0 0 40 40" fill="none" xmlns="http://www.w3.org/2000/svg">
<mask id="mask0_7101_32591" style="mask-type:alpha" maskUnits="userSpaceOnUse" x="4" y="4" width="32" height="32">
<rect x="4" y="4" width="32" height="32" fill="#4399EB"/>
</mask>
<g mask="url(#mask0_7101_32591)">
<path d="M7.1543 29.4102V10.1279C7.1543 9.56565 7.3513 9.08754 7.7453 8.69354C8.1393 8.29954 8.61741 8.10254 9.17963 8.10254H17.7953C18.3575 8.10254 18.8356 8.29954 19.2296 8.69354C19.6236 9.08754 19.8206 9.56565 19.8206 10.1279V13.4359H30.821C31.3832 13.4359 31.8613 13.6329 32.2553 14.0269C32.6493 14.4209 32.8463 14.899 32.8463 15.4612V29.4102C32.8463 29.9724 32.6493 30.4507 32.2553 30.8449C31.8613 31.2389 31.3832 31.4359 30.821 31.4359H9.17963C8.61741 31.4359 8.1393 31.2389 7.7453 30.8449C7.3513 30.4507 7.1543 29.9724 7.1543 29.4102ZM9.15396 29.4359H12.4876V26.1025H9.15396V29.4359ZM9.15396 24.1025H12.4876V20.7692H9.15396V24.1025ZM9.15396 18.7692H12.4876V15.4359H9.15396V18.7692ZM9.15396 13.4359H12.4876V10.1025H9.15396V13.4359ZM14.4873 29.4359H17.821V26.1025H14.4873V29.4359ZM14.4873 24.1025H17.821V20.7692H14.4873V24.1025ZM14.4873 18.7692H17.821V15.4359H14.4873V18.7692ZM14.4873 13.4359H17.821V10.1025H14.4873V13.4359ZM19.8206 29.4359H30.8466V15.4359H19.8206V18.7692H22.744V20.7692H19.8206V24.1025H22.744V26.1025H19.8206V29.4359ZM25.667 20.7692V18.7692H27.667V20.7692H25.667ZM25.667 26.1025V24.1025H27.667V26.1025H25.667Z" fill="#4399EB"/>
</g>
</svg>
