<svg width="24" height="24" viewBox="0 0 24 24" fill="none" xmlns="http://www.w3.org/2000/svg">
<mask id="mask0_17081_88119" style="mask-type:alpha" maskUnits="userSpaceOnUse" x="1" y="1" width="22" height="22">
<rect x="1" y="1" width="22" height="22" fill="#D9D9D9"/>
</mask>
<g mask="url(#mask0_17081_88119)">
<path d="M12 23C11.7563 23 11.5219 22.9659 11.2969 22.8976C11.0719 22.8293 10.8563 22.7268 10.65 22.5902L3.9 17.9805C3.61875 17.7927 3.39844 17.5537 3.23906 17.2634C3.07969 16.9732 3 16.6659 3 16.3415V4.04878C3 3.48537 3.22031 3.00305 3.66094 2.60183C4.10156 2.20061 4.63125 2 5.25 2H18.75C19.3687 2 19.8984 2.20061 20.3391 2.60183C20.7797 3.00305 21 3.48537 21 4.04878V16.3415C21 16.6659 20.9203 16.9732 20.7609 17.2634C20.6016 17.5537 20.3813 17.7927 20.1 17.9805L13.35 22.5902C13.1438 22.7268 12.9281 22.8293 12.7031 22.8976C12.4781 22.9659 12.2437 23 12 23ZM12 20.9512L18.75 16.3415V4.04878H5.25V16.3415L12 20.9512Z" fill="#4399EB"/>
<path d="M18.1029 11.3643V11.6404C18.1029 12.1613 18.0422 12.6292 17.9209 13.0441C17.8021 13.4559 17.6329 13.8084 17.4134 14.1016C17.1939 14.3917 16.9344 14.6148 16.6348 14.7707C16.3353 14.9236 16.0047 15 15.6432 15C15.2791 15 14.946 14.9236 14.6438 14.7707C14.3443 14.6148 14.0835 14.3917 13.8614 14.1016C13.6419 13.8084 13.4714 13.4559 13.3501 13.0441C13.2313 12.6292 13.1719 12.1613 13.1719 11.6404V11.3643C13.1719 10.8434 13.2313 10.3754 13.3501 9.96056C13.4714 9.54568 13.6406 9.19318 13.8575 8.90307C14.077 8.60985 14.3365 8.38681 14.6361 8.23396C14.9382 8.07799 15.2713 8 15.6355 8C15.997 8 16.3275 8.07799 16.6271 8.23396C16.9292 8.38681 17.19 8.60985 17.4095 8.90307C17.629 9.19318 17.7995 9.54568 17.9209 9.96056C18.0422 10.3754 18.1029 10.8434 18.1029 11.3643ZM16.7239 11.6404V11.3549C16.7239 11.018 16.6994 10.7217 16.6503 10.4659C16.6038 10.207 16.5341 9.9902 16.4412 9.81551C16.3482 9.64082 16.2333 9.5098 16.0964 9.42246C15.9621 9.332 15.8085 9.28676 15.6355 9.28676C15.4547 9.28676 15.2972 9.332 15.1629 9.42246C15.0286 9.5098 14.9163 9.64082 14.8259 9.81551C14.7355 9.9902 14.6671 10.207 14.6206 10.4659C14.5767 10.7217 14.5547 11.018 14.5547 11.3549V11.6404C14.5547 11.9742 14.5767 12.2705 14.6206 12.5294C14.6671 12.7852 14.7355 13.002 14.8259 13.1798C14.9188 13.3576 15.0325 13.4918 15.1668 13.5822C15.3036 13.6727 15.4624 13.7179 15.6432 13.7179C15.8162 13.7179 15.9699 13.6727 16.1042 13.5822C16.2384 13.4918 16.3508 13.3576 16.4412 13.1798C16.5341 13.002 16.6038 12.7852 16.6503 12.5294C16.6994 12.2705 16.7239 11.9742 16.7239 11.6404Z" fill="#4399EB"/>
<path d="M10.4146 12.5951H9.01237V11.327H10.4146C10.6057 11.327 10.7606 11.288 10.8794 11.2101C10.9982 11.1321 11.0847 11.0245 11.139 10.8872C11.1958 10.7468 11.2242 10.5893 11.2242 10.4146C11.2242 10.2274 11.1958 10.0543 11.139 9.89522C11.0847 9.73613 10.9982 9.60823 10.8794 9.51153C10.7606 9.41171 10.6057 9.3618 10.4146 9.3618H9.52368V14.9066H8.16406V8.09375H10.4146C10.8665 8.09375 11.2552 8.19357 11.5805 8.39322C11.9085 8.59286 12.1603 8.86737 12.3359 9.21674C12.5115 9.563 12.5993 9.95917 12.5993 10.4052C12.5993 10.8451 12.5115 11.2288 12.3359 11.5563C12.1603 11.8839 11.9085 12.1397 11.5805 12.3237C11.2552 12.5046 10.8665 12.5951 10.4146 12.5951Z" fill="#4399EB"/>
<path d="M7.20731 8.09375V14.9066H5.85156V8.09375H7.20731Z" fill="#4399EB"/>
</g>
</svg>
