<svg width="12" height="6" viewBox="0 0 12 6" fill="none" xmlns="http://www.w3.org/2000/svg">
<path d="M3.08464 5.91439C2.27769 5.91439 1.58984 5.63001 1.02109 5.06126C0.452344 4.49251 0.167969 3.80467 0.167969 2.99772C0.167969 2.19078 0.452344 1.50293 1.02109 0.93418C1.58984 0.36543 2.27769 0.0810547 3.08464 0.0810547H4.83464C4.99991 0.0810547 5.13845 0.136957 5.25026 0.248763C5.36207 0.360569 5.41797 0.49911 5.41797 0.664388C5.41797 0.829666 5.36207 0.968207 5.25026 1.08001C5.13845 1.19182 4.99991 1.24772 4.83464 1.24772H3.08464C2.59852 1.24772 2.18533 1.41786 1.84505 1.75814C1.50477 2.09842 1.33464 2.51161 1.33464 2.99772C1.33464 3.48383 1.50477 3.89703 1.84505 4.2373C2.18533 4.57758 2.59852 4.74772 3.08464 4.74772H4.83464C4.99991 4.74772 5.13845 4.80362 5.25026 4.91543C5.36207 5.02724 5.41797 5.16578 5.41797 5.33105C5.41797 5.49633 5.36207 5.63487 5.25026 5.74668C5.13845 5.85849 4.99991 5.91439 4.83464 5.91439H3.08464ZM4.2513 3.58105C4.08602 3.58105 3.94748 3.52515 3.83568 3.41335C3.72387 3.30154 3.66797 3.163 3.66797 2.99772C3.66797 2.83244 3.72387 2.6939 3.83568 2.5821C3.94748 2.47029 4.08602 2.41439 4.2513 2.41439H7.7513C7.91658 2.41439 8.05512 2.47029 8.16693 2.5821C8.27873 2.6939 8.33463 2.83244 8.33463 2.99772C8.33463 3.163 8.27873 3.30154 8.16693 3.41335C8.05512 3.52515 7.91658 3.58105 7.7513 3.58105H4.2513ZM7.16797 5.91439C7.00269 5.91439 6.86415 5.85849 6.75234 5.74668C6.64054 5.63487 6.58464 5.49633 6.58464 5.33105C6.58464 5.16578 6.64054 5.02724 6.75234 4.91543C6.86415 4.80362 7.00269 4.74772 7.16797 4.74772H8.91797C9.40408 4.74772 9.81727 4.57758 10.1576 4.2373C10.4978 3.89703 10.668 3.48383 10.668 2.99772C10.668 2.51161 10.4978 2.09842 10.1576 1.75814C9.81727 1.41786 9.40408 1.24772 8.91797 1.24772H7.16797C7.00269 1.24772 6.86415 1.19182 6.75234 1.08001C6.64054 0.968207 6.58464 0.829666 6.58464 0.664388C6.58464 0.49911 6.64054 0.360569 6.75234 0.248763C6.86415 0.136957 7.00269 0.0810547 7.16797 0.0810547H8.91797C9.72491 0.0810547 10.4128 0.36543 10.9815 0.93418C11.5503 1.50293 11.8346 2.19078 11.8346 2.99772C11.8346 3.80467 11.5503 4.49251 10.9815 5.06126C10.4128 5.63001 9.72491 5.91439 8.91797 5.91439H7.16797Z" fill="white"/>
</svg>
