<svg width="24" height="24" viewBox="0 0 24 24" fill="none" xmlns="http://www.w3.org/2000/svg">
<mask id="mask0_17081_88099" style="mask-type:alpha" maskUnits="userSpaceOnUse" x="0" y="0" width="24" height="24">
<rect width="24" height="24" fill="white"/>
</mask>
<g mask="url(#mask0_17081_88099)">
<path d="M1.70916 16.3336L5.36876 10.4663C5.53287 10.2086 5.76461 10.0689 6.06396 10.0471C6.36331 10.0253 6.61683 10.1265 6.82453 10.3509L9.02646 12.9221L12.2592 7.66054C12.4297 7.37592 12.6832 7.23201 13.0197 7.22879C13.3563 7.22559 13.6149 7.36117 13.7957 7.63554L15.3957 10.0451C15.1085 10.0682 14.839 10.1076 14.587 10.1634C14.3351 10.2192 14.0842 10.2945 13.8342 10.3893L13.063 9.23739L9.90146 14.3912C9.73734 14.6489 9.50304 14.7913 9.19856 14.8182C8.89407 14.8451 8.63799 14.7413 8.43031 14.5066L6.21876 11.9259L2.98606 17.1393C2.87452 17.3252 2.70978 17.4409 2.49183 17.4864C2.27388 17.532 2.07709 17.4855 1.90146 17.347C1.73607 17.2355 1.63736 17.0826 1.60531 16.8884C1.57326 16.6942 1.60787 16.5092 1.70916 16.3336ZM18.1053 10.4009C17.8656 10.306 17.6197 10.2281 17.3678 10.1672C17.1159 10.1063 16.8547 10.0676 16.5842 10.0509L21.0092 3.03359C21.1207 2.85796 21.2829 2.74481 21.4957 2.69416C21.7085 2.64353 21.9027 2.68745 22.0784 2.82591C22.2437 2.93745 22.345 3.09032 22.3822 3.28454C22.4194 3.47877 22.3873 3.66371 22.2861 3.83934L18.1053 10.4009Z" fill="#FF5952"/>
<path d="M21.5781 22.6434L18.2993 19.3838C17.9852 19.6107 17.6384 19.7825 17.2589 19.8992C16.8794 20.0158 16.4858 20.0742 16.0781 20.0742C14.9627 20.0742 14.0172 19.6864 13.2416 18.9107C12.4659 18.1351 12.0781 17.1896 12.0781 16.0742C12.0781 14.9588 12.4659 14.0133 13.2416 13.2377C14.0172 12.462 14.9627 12.0742 16.0781 12.0742C17.1935 12.0742 18.139 12.462 18.9146 13.2377C19.6903 14.0133 20.0781 14.9588 20.0781 16.0742C20.0781 16.4883 20.0181 16.8867 19.8983 17.2694C19.7784 17.6521 19.6018 18.0056 19.3685 18.3299L22.6473 21.5742L21.5781 22.6434ZM16.0781 18.5742C16.7781 18.5742 17.3698 18.3325 17.8531 17.8492C18.3364 17.3659 18.5781 16.7742 18.5781 16.0742C18.5781 15.3742 18.3364 14.7825 17.8531 14.2992C17.3698 13.8159 16.7781 13.5742 16.0781 13.5742C15.3781 13.5742 14.7864 13.8159 14.3031 14.2992C13.8198 14.7825 13.5781 15.3742 13.5781 16.0742C13.5781 16.7742 13.8198 17.3659 14.3031 17.8492C14.7864 18.3325 15.3781 18.5742 16.0781 18.5742Z" fill="#FF5952"/>
</g>
</svg>
