<svg width="46" height="45" viewBox="0 0 46 45" fill="none" xmlns="http://www.w3.org/2000/svg">
<g clip-path="url(#clip0_16536_80861)">
<path d="M22.9293 44.9634C35.5907 44.9634 45.8548 34.898 45.8548 22.4817C45.8548 10.0654 35.5907 0 22.9293 0C10.268 0 0.00390625 10.0654 0.00390625 22.4817C0.00390625 34.898 10.268 44.9634 22.9293 44.9634Z" fill="#4399EB"/>
<path d="M41.4272 26.7998C43.84 16.7793 37.5124 6.7379 27.2941 4.37178C17.0759 2.00565 6.83632 8.21076 4.42349 18.2313C2.01067 28.2518 8.33824 38.2931 18.5565 40.6592C28.7748 43.0254 39.0143 36.8203 41.4272 26.7998Z" fill="#4399EB"/>
<path d="M22.9293 5.11358C32.6959 5.11358 40.636 12.8999 40.636 22.4775C40.636 32.0551 32.6959 39.8414 22.9293 39.8414C13.1627 39.8414 5.22268 32.0916 5.22268 22.4775C5.22268 12.8634 13.1627 5.11358 22.9293 5.11358ZM22.9293 2.55469C11.7089 2.55469 2.61328 11.4743 2.61328 22.4775C2.61328 33.4808 11.7089 42.4003 22.9293 42.4003C34.1497 42.4003 43.2454 33.4808 43.2454 22.4775C43.2826 11.4743 34.187 2.55469 22.9293 2.55469Z" fill="white"/>
<path d="M29.3045 7.96875L25.0922 13.3424H27.2543V24.7112L18.6805 13.1597H14.58V31.474H12.418L16.6303 36.8843L20.8426 31.474H18.6805V19.8859L27.2543 31.6934H31.3548V13.3424H33.5168L29.3045 7.96875Z" fill="white"/>
<path d="M45.4456 2V5.7766H44.6881V3.32019L43.6763 5.7766H43.1028L42.0856 3.32019V5.7766H41.3281V2H42.1884L43.3896 4.8081L44.5907 2H45.4456Z" fill="#333333"/>
<path d="M40.7702 2V2.6114H39.7639V5.7766H39.0064V2.6114H38V2H40.7702Z" fill="#333333"/>
</g>
<defs>
<clipPath id="clip0_16536_80861">
<rect width="45.8509" height="44.9634" fill="white" transform="translate(0.00390625)"/>
</clipPath>
</defs>
</svg>
