<svg width="14" height="11" viewBox="0 0 14 11" fill="none" xmlns="http://www.w3.org/2000/svg">
<path d="M1.66536 10.8337C1.2987 10.8337 0.984809 10.7031 0.723698 10.442C0.462587 10.1809 0.332031 9.86699 0.332031 9.50033V1.50033C0.332031 1.13366 0.462587 0.81977 0.723698 0.558659C0.984809 0.297548 1.2987 0.166992 1.66536 0.166992H12.332C12.6987 0.166992 13.0126 0.297548 13.2737 0.558659C13.5348 0.81977 13.6654 1.13366 13.6654 1.50033V9.50033C13.6654 9.86699 13.5348 10.1809 13.2737 10.442C13.0126 10.7031 12.6987 10.8337 12.332 10.8337H1.66536ZM12.332 2.83366L7.3487 5.95033C7.29314 5.98366 7.23481 6.00866 7.1737 6.02533C7.11259 6.04199 7.05425 6.05033 6.9987 6.05033C6.94314 6.05033 6.88481 6.04199 6.8237 6.02533C6.76259 6.00866 6.70425 5.98366 6.6487 5.95033L1.66536 2.83366V9.50033H12.332V2.83366ZM6.9987 4.83366L12.332 1.50033H1.66536L6.9987 4.83366ZM1.66536 3.00033V2.01699V2.03366V2.02533V3.00033Z" fill="#236AD4"/>
</svg>
