<svg width="24" height="24" viewBox="0 0 24 24" fill="none" xmlns="http://www.w3.org/2000/svg">
<mask id="mask0_7178_36884" style="mask-type:alpha" maskUnits="userSpaceOnUse" x="0" y="0" width="24" height="24">
<rect width="24" height="24" fill="#D9D9D9"/>
</mask>
<g mask="url(#mask0_7178_36884)">
<path d="M3.39902 18L1.99902 16.6L7.29902 11.3C7.88236 10.7167 8.59069 10.425 9.42402 10.425C10.2574 10.425 10.9657 10.7167 11.549 11.3L12.699 12.45C12.899 12.65 13.1365 12.75 13.4115 12.75C13.6865 12.75 13.924 12.65 14.124 12.45L18.574 8H15.999V6H21.999V12H19.999V9.425L15.524 13.875C14.9407 14.4583 14.2324 14.75 13.399 14.75C12.5657 14.75 11.8574 14.4583 11.274 13.875L10.099 12.7C9.91569 12.5167 9.68236 12.425 9.39902 12.425C9.11569 12.425 8.88236 12.5167 8.69902 12.7L3.39902 18Z" fill="#04B800"/>
</g>
</svg>
