<svg width="40" height="40" viewBox="0 0 40 40" fill="none" xmlns="http://www.w3.org/2000/svg">
<rect width="40" height="40" rx="4" fill="#ECF5FE"/>
<g clip-path="url(#clip0_16595_84541)">
<path d="M16.717 19.311C16.5242 19.5984 16.0606 20.1658 15.4543 20.8444C14.8499 21.523 14.1027 22.311 13.3462 23.0397C11.3104 24.9976 10.2647 25.5223 9.63796 25.5223C9.40619 25.5223 9.23191 25.45 9.08543 25.3517C8.54403 24.9902 8.18433 24.1336 9.61571 20.5329C10.3907 18.5786 11.4049 16.578 11.7924 16.0033C12.7047 14.6442 14.5514 14.2826 15.9086 15.1949C16.5668 15.6361 17.0137 16.3073 17.1657 17.0861C17.3177 17.8629 17.1583 18.6528 16.717 19.311Z" fill="url(#paint0_linear_16595_84541)"/>
<path fill-rule="evenodd" clip-rule="evenodd" d="M15.4543 20.8444C16.0606 20.1658 16.5242 19.5984 16.717 19.311C17.1583 18.6528 17.3177 17.8629 17.1657 17.0861C17.0137 16.3073 16.5668 15.6361 15.9086 15.1949C14.5514 14.2826 12.7047 14.6442 11.7924 16.0033C11.4049 16.578 10.3907 18.5786 9.61571 20.5329C8.18433 24.1336 8.54403 24.9902 9.08543 25.3517C9.23191 25.45 9.40619 25.5223 9.63796 25.5223C10.2647 25.5223 11.3104 24.9976 13.3462 23.0397C14.1027 22.311 14.8499 21.523 15.4543 20.8444ZM15.2159 20.632L15.2162 20.6316C15.8222 19.9534 16.2725 19.4004 16.4518 19.1331C16.8461 18.545 16.9881 17.8411 16.8523 17.1474L16.8523 17.1473C16.7165 16.452 16.3186 15.8542 15.7308 15.4601L15.7305 15.4599C14.5196 14.646 12.8714 14.9687 12.0576 16.1812L12.0572 16.1818C11.6889 16.7281 10.6847 18.7037 9.91254 20.6506L9.91244 20.6508C9.19965 22.4439 8.94953 23.5153 8.92995 24.1666C8.9203 24.4876 8.96749 24.6881 9.02794 24.8175C9.08609 24.9421 9.16598 25.0216 9.26277 25.0862L9.26333 25.0866C9.36763 25.1565 9.48106 25.203 9.63796 25.203C9.86399 25.203 10.2209 25.1072 10.7929 24.7454C11.3614 24.3858 12.1141 23.7816 13.1247 22.8097C13.8746 22.0873 14.6162 21.3053 15.2159 20.632Z" fill="#42397A"/>
<path d="M30.9179 25.3513C30.7714 25.4495 30.5971 25.5218 30.3653 25.5218C29.7386 25.5218 28.6929 24.9971 26.6571 23.0392C25.1423 21.5818 23.672 19.8853 23.2863 19.3105C22.8432 18.6523 22.6856 17.8625 22.8376 17.0856C22.9896 16.3069 23.4365 15.6357 24.0947 15.1944C25.4519 14.2822 27.2986 14.6456 28.2108 16.0028C28.5984 16.5776 29.6126 18.5782 30.3876 20.5324C31.819 24.1331 31.4593 24.9897 30.9179 25.3513Z" fill="url(#paint1_linear_16595_84541)"/>
<path fill-rule="evenodd" clip-rule="evenodd" d="M30.74 25.0861L30.7405 25.0857C30.8373 25.0211 30.9172 24.9416 30.9754 24.8171C31.0358 24.6876 31.083 24.4871 31.0733 24.1661C31.0538 23.5148 30.8036 22.4434 30.0909 20.6504L30.0908 20.6501C29.3186 18.7032 28.3144 16.7276 27.9461 16.1813L27.9458 16.1809C27.1318 14.9698 25.4835 14.6457 24.2728 15.4594L24.2725 15.4596C23.6847 15.8537 23.2867 16.4515 23.151 17.1468L23.151 17.1469C23.0151 17.8412 23.1557 18.5447 23.5512 19.1322L23.5515 19.1326C23.9181 19.6791 25.3692 21.3571 26.8784 22.809C27.8891 23.781 28.6419 24.3853 29.2104 24.7449C29.7824 25.1067 30.1393 25.2025 30.3653 25.2025C30.5222 25.2025 30.6357 25.1561 30.74 25.0861ZM22.8376 17.0856C22.6856 17.8625 22.8432 18.6523 23.2863 19.3105C23.672 19.8853 25.1423 21.5818 26.6571 23.0392C28.6929 24.9971 29.7386 25.5218 30.3653 25.5218C30.5971 25.5218 30.7714 25.4495 30.9179 25.3513C31.4593 24.9897 31.819 24.1331 30.3876 20.5324C29.6126 18.5782 28.5984 16.5776 28.2108 16.0028C27.2986 14.6456 25.4519 14.2822 24.0947 15.1944C23.4365 15.6357 22.9896 16.3069 22.8376 17.0856Z" fill="#42397A"/>
<path d="M26.5824 18.2791C26.5769 20.6227 25.9428 26.276 20.1783 28.1987C20.1208 28.2172 20.0615 28.2265 20.0022 28.2265C19.9428 28.2265 19.8835 28.2172 19.826 28.1987C14.0616 26.276 13.4275 20.6227 13.4219 18.2791C13.42 17.3521 13.5888 16.4269 13.9244 15.5332L14.1042 15.053C14.1858 14.836 14.3934 14.6914 14.6252 14.6914H25.3791C25.6109 14.6914 25.8185 14.836 25.9001 15.053L26.08 15.5332C26.4156 16.4269 26.5843 17.3521 26.5824 18.2791Z" fill="url(#paint2_linear_16595_84541)"/>
<path fill-rule="evenodd" clip-rule="evenodd" d="M13.9244 15.5332C13.5888 16.4269 13.42 17.3521 13.4219 18.2791C13.4275 20.6227 14.0616 26.276 19.826 28.1987C19.8835 28.2172 19.9428 28.2265 20.0022 28.2265C20.0615 28.2265 20.1208 28.2172 20.1783 28.1987C25.9428 26.276 26.5769 20.6227 26.5824 18.2791C26.5843 17.3521 26.4156 16.4269 26.08 15.5332L25.9001 15.053C25.8185 14.836 25.6109 14.6914 25.3791 14.6914H14.6252C14.3934 14.6914 14.1858 14.836 14.1042 15.053L13.9244 15.5332ZM14.4032 15.1652C14.4031 15.1653 14.4031 15.1653 14.4031 15.1654L14.2233 15.6454C13.9009 16.5039 13.7394 17.3909 13.7412 18.2784M14.4032 15.1652C14.4383 15.0721 14.5273 15.0107 14.6252 15.0107H25.3791C25.477 15.0107 25.5662 15.0721 25.6012 15.1653C25.6012 15.1653 25.6012 15.1653 25.6012 15.1653L25.7809 15.6452L25.781 15.6454C26.1034 16.5039 26.2649 17.3909 26.2631 18.2784C26.2576 20.604 25.6264 26.0438 20.0791 27.8952C20.0536 27.9033 20.0277 27.9072 20.0022 27.9072C19.9766 27.9072 19.9508 27.9033 19.9253 27.8952C14.3781 26.0438 13.7468 20.6042 13.7412 18.2785" fill="#42397A"/>
<path d="M21.3004 25.0734H18.7047C18.3974 25.0734 18.1484 24.8244 18.1484 24.5172C18.1484 24.2099 18.3974 23.9609 18.7047 23.9609H21.3004C21.6077 23.9609 21.8567 24.2099 21.8567 24.5172C21.8567 24.8244 21.6077 25.0734 21.3004 25.0734Z" fill="#A4EEFF"/>
<path d="M24.2633 18.2138V21.1804C24.2633 21.998 23.5977 22.6637 22.78 22.6637H17.2177C16.4 22.6637 15.7344 21.998 15.7344 21.1804V18.2138C15.7344 17.3961 16.4 16.7305 17.2177 16.7305H22.78C23.5977 16.7305 24.2633 17.3961 24.2633 18.2138Z" fill="url(#paint3_linear_16595_84541)"/>
<path d="M18.1509 20.2531C17.8439 20.2531 17.5938 20.0041 17.5938 19.6969C17.5938 19.3896 17.842 19.1406 18.1491 19.1406H18.1509C18.4581 19.1406 18.7072 19.3896 18.7072 19.6969C18.7072 20.0041 18.4581 20.2531 18.1509 20.2531ZM20.005 20.2531C19.698 20.2531 19.4479 20.0041 19.4479 19.6969C19.4479 19.3896 19.6961 19.1406 20.0032 19.1406H20.005C20.3123 19.1406 20.5613 19.3896 20.5613 19.6969C20.5613 20.0041 20.3123 20.2531 20.005 20.2531ZM21.8592 20.2531C21.5521 20.2531 21.302 20.0041 21.302 19.6969C21.302 19.3896 21.5503 19.1406 21.8573 19.1406H21.8592C22.1664 19.1406 22.4154 19.3896 22.4154 19.6969C22.4154 20.0041 22.1664 20.2531 21.8592 20.2531Z" fill="#384051"/>
<path d="M15.5525 7.82967V11.1671C15.5525 11.4749 15.3041 11.7233 14.9963 11.7233H14.2546C13.335 11.7233 12.5859 10.9743 12.5859 10.0546V8.94215C12.5859 8.0225 13.335 7.27344 14.2546 7.27344H14.9963C15.3041 7.27344 15.5525 7.52189 15.5525 7.82967Z" fill="url(#paint4_linear_16595_84541)"/>
<path fill-rule="evenodd" clip-rule="evenodd" d="M15.2332 11.1671V7.82967C15.2332 7.69825 15.1277 7.59276 14.9963 7.59276H14.2546C13.5114 7.59276 12.9053 8.19886 12.9053 8.94215V10.0546C12.9053 10.7979 13.5114 11.404 14.2546 11.404H14.9963C15.1277 11.404 15.2332 11.2985 15.2332 11.1671ZM15.5525 11.1671V7.82967C15.5525 7.52189 15.3041 7.27344 14.9963 7.27344H14.2546C13.335 7.27344 12.5859 8.0225 12.5859 8.94215V10.0546C12.5859 10.9743 13.335 11.7233 14.2546 11.7233H14.9963C15.3041 11.7233 15.5525 11.4749 15.5525 11.1671Z" fill="#42397A"/>
<path d="M27.6051 8.94215V10.0546C27.6051 10.9743 26.8561 11.7233 25.9364 11.7233H25.0094C24.7016 11.7233 24.4531 11.4749 24.4531 11.1671V7.82967C24.4531 7.52189 24.7016 7.27344 25.0094 7.27344H25.9364C26.8561 7.27344 27.6051 8.0225 27.6051 8.94215Z" fill="url(#paint5_linear_16595_84541)"/>
<path fill-rule="evenodd" clip-rule="evenodd" d="M27.2858 10.0546V8.94215C27.2858 8.19886 26.6797 7.59276 25.9364 7.59276H25.0094C24.8779 7.59276 24.7724 7.69825 24.7724 7.82967V11.1671C24.7724 11.2985 24.8779 11.404 25.0094 11.404H25.9364C26.6797 11.404 27.2858 10.7979 27.2858 10.0546ZM27.6051 10.0546V8.94215C27.6051 8.0225 26.8561 7.27344 25.9364 7.27344H25.0094C24.7016 7.27344 24.4531 7.52189 24.4531 7.82967V11.1671C24.4531 11.4749 24.7016 11.7233 25.0094 11.7233H25.9364C26.8561 11.7233 27.6051 10.9743 27.6051 10.0546Z" fill="#42397A"/>
<path d="M23.529 13.2075H16.4833C15.6641 13.2075 15 12.5434 15 11.7242V7.27431C15 6.45516 15.6641 5.79102 16.4833 5.79102H23.529C24.3481 5.79102 25.0123 6.45516 25.0123 7.27431V11.7242C25.0123 12.5434 24.3481 13.2075 23.529 13.2075Z" fill="#A4EEFF"/>
<path d="M23.529 13.2075H16.4833C15.6641 13.2075 15 12.5434 15 11.7242V7.27431C15 6.45516 15.6641 5.79102 16.4833 5.79102H23.529C24.3481 5.79102 25.0123 6.45516 25.0123 7.27431V11.7242C25.0123 12.5434 24.3481 13.2075 23.529 13.2075Z" fill="url(#paint6_linear_16595_84541)"/>
<path d="M18.8911 10.0557C18.7487 10.0557 18.6065 10.0014 18.4978 9.8927C18.3056 9.7008 17.9933 9.7008 17.8011 9.8927C17.5838 10.11 17.2318 10.11 17.0145 9.8927C16.7972 9.67558 16.7972 9.3233 17.0145 9.10618C17.6403 8.48023 18.6586 8.48023 19.2844 9.10618C19.5017 9.3233 19.5017 9.67558 19.2844 9.8927C19.1757 10.0014 19.0335 10.0557 18.8911 10.0557ZM22.5993 10.0557C22.4569 10.0557 22.3147 10.0014 22.2061 9.8927C22.0138 9.7008 21.7016 9.7008 21.5093 9.8927C21.292 10.11 20.9401 10.11 20.7228 9.8927C20.5055 9.67558 20.5055 9.3233 20.7228 9.10618C21.3485 8.48023 22.3668 8.48023 22.9926 9.10618C23.2099 9.3233 23.2099 9.67558 22.9926 9.8927C22.8839 10.0014 22.7417 10.0557 22.5993 10.0557Z" fill="#384051"/>
<path d="M23.5227 13.7633H16.477C15.3525 13.7633 14.4375 12.8483 14.4375 11.7238V7.27391C14.4375 6.14938 15.3525 5.23438 16.477 5.23438H23.5227C24.6472 5.23438 25.5622 6.14938 25.5622 7.27391V11.7238C25.5622 12.8483 24.6472 13.7633 23.5227 13.7633ZM16.477 6.34685C15.9659 6.34685 15.55 6.76273 15.55 7.27391V11.7238C15.55 12.235 15.9659 12.6509 16.477 12.6509H23.5227C24.0339 12.6509 24.4498 12.235 24.4498 11.7238V7.27391C24.4498 6.76273 24.0339 6.34685 23.5227 6.34685H16.477Z" fill="url(#paint7_linear_16595_84541)"/>
<path fill-rule="evenodd" clip-rule="evenodd" d="M16.477 13.444H23.5227C24.4709 13.444 25.2429 12.672 25.2429 11.7238V7.27391C25.2429 6.32574 24.4709 5.5537 23.5227 5.5537H16.477C15.5289 5.5537 14.7568 6.32574 14.7568 7.27391V11.7238C14.7568 12.672 15.5289 13.444 16.477 13.444ZM15.2307 7.27391C15.2307 6.58637 15.7895 6.02753 16.477 6.02753H23.5227C24.2102 6.02753 24.7691 6.58637 24.7691 7.27391V11.7238C24.7691 12.4113 24.2102 12.9702 23.5227 12.9702H16.477C15.7895 12.9702 15.2307 12.4113 15.2307 11.7238V7.27391ZM16.477 13.7633H23.5227C24.6472 13.7633 25.5622 12.8483 25.5622 11.7238V7.27391C25.5622 6.14938 24.6472 5.23438 23.5227 5.23438H16.477C15.3525 5.23438 14.4375 6.14938 14.4375 7.27391V11.7238C14.4375 12.8483 15.3525 13.7633 16.477 13.7633ZM15.55 7.27391C15.55 6.76273 15.9659 6.34685 16.477 6.34685H23.5227C24.0339 6.34685 24.4498 6.76273 24.4498 7.27391V11.7238C24.4498 12.235 24.0339 12.6509 23.5227 12.6509H16.477C15.9659 12.6509 15.55 12.235 15.55 11.7238V7.27391Z" fill="#42397A"/>
<path d="M29.0934 17.3111L28.9034 17.372L19.8225 19.9145L11.169 17.4363C11.148 17.4288 11.127 17.4211 11.1059 17.4135L11.1042 17.4129C10.7381 17.2801 10.3528 17.1404 9.95819 17.1145C9.89712 17.1697 9.85955 17.2037 9.83628 17.2443C9.79907 17.3093 9.79841 17.3913 9.79669 17.6046L9.79765 17.7588C9.79694 17.9318 9.79646 18.1048 9.79684 18.2778C9.79716 18.405 9.79721 18.5322 9.79702 18.6594C9.7962 19.0051 9.79592 19.3509 9.79633 19.6966C9.7968 20.0644 9.79677 20.4322 9.79655 20.8C9.79617 21.4151 9.79627 22.0303 9.79691 22.6454C9.7977 23.363 9.79795 24.0805 9.79717 24.7981C9.79649 25.418 9.79615 26.0379 9.79641 26.6578L9.79651 26.8091V26.8105C9.79671 27.1287 9.79692 27.4468 9.79661 27.765C9.79616 28.1183 9.7959 28.4717 9.79655 28.825C9.79686 28.9548 9.79712 29.0846 9.79731 29.2144L9.7973 29.2179C9.79686 29.3984 9.79641 29.5789 9.79698 29.7594L9.79765 29.9227C9.79657 30.0968 9.80166 30.2643 9.81574 30.4383L9.81581 30.4383C9.90011 30.5145 9.9345 30.5456 9.97484 30.5679C10.0026 30.5833 10.0332 30.5944 10.0849 30.6133L10.0849 30.6134C11.9077 31.1198 13.7274 31.6336 15.542 32.1634C15.7801 32.2329 16.0182 32.3023 16.2562 32.3717C16.7684 32.5209 17.2806 32.6703 17.7927 32.8198L19.8233 33.3347L21.8523 32.8198C22.2179 32.7192 22.5835 32.6186 22.9491 32.518L23.4036 32.393C24.3397 32.1353 25.2759 31.878 26.2128 31.6228C26.5274 31.5371 26.842 31.4512 27.1565 31.3653L27.2054 31.3519C27.4522 31.2845 27.6991 31.217 27.946 31.1499C28.2184 31.076 28.4907 31.002 28.7628 30.9275C28.8649 30.8995 28.967 30.8715 29.0692 30.8436C29.1666 30.8172 29.2641 30.7909 29.3616 30.7646L29.6276 30.6914C29.7673 30.6534 29.9062 30.6127 30.0429 30.567C30.2016 30.4236 30.2016 30.4236 30.2038 30.0763L30.2025 29.9219C30.2029 29.7486 30.2031 29.5753 30.2024 29.402C30.2018 29.2746 30.2015 29.1471 30.2015 29.0197C30.2017 28.6735 30.2014 28.3272 30.2004 27.981C30.1994 27.6128 30.199 27.2445 30.1988 26.8763C30.1985 26.1812 30.1975 25.4861 30.1961 24.791C30.1945 23.9933 30.1935 23.1956 30.1928 22.3978C30.1912 20.6796 30.1887 18.9614 30.1854 17.2432C29.9453 17.1446 29.8582 17.1092 29.5919 17.1583L29.3441 17.2352L29.0934 17.3111Z" fill="#3E3578"/>
<path d="M29.6789 17.6973C29.6789 21.8167 29.6789 25.9361 29.6789 30.1804C27.8172 30.7415 27.8172 30.7415 26.9216 30.9746C26.6078 31.0573 26.2953 31.1438 25.9826 31.2301C25.914 31.249 25.8454 31.2679 25.7747 31.2874C25.171 31.454 24.5678 31.622 23.9646 31.79C23.2549 31.9876 22.5448 32.1837 21.8342 32.3783C21.6314 32.434 21.4287 32.4902 21.226 32.5464C21.0961 32.5822 20.9662 32.618 20.8362 32.6537C20.7764 32.6704 20.7166 32.6871 20.655 32.7043C20.6 32.7194 20.5449 32.7344 20.4882 32.75C20.416 32.77 20.416 32.77 20.3424 32.7903C20.2135 32.8186 20.2135 32.8186 20 32.8186C20 28.6779 20 24.5373 20 20.2711C20.5402 20.1225 21.0803 19.9738 21.6369 19.8207C21.9917 19.7222 22.3464 19.6236 22.7011 19.5246C22.891 19.4717 23.0809 19.4187 23.2708 19.3658C23.3429 19.3457 23.3429 19.3457 23.4165 19.3252C24.2238 19.1002 25.0313 18.8759 25.8388 18.6516C26.149 18.5654 26.4592 18.4791 26.7694 18.3927C27.1341 18.2911 27.4989 18.19 27.8639 18.0893C27.9936 18.0534 28.1231 18.0174 28.2527 17.9812C28.4288 17.9321 28.6051 17.8835 28.7815 17.835C28.832 17.8208 28.8824 17.8066 28.9343 17.7919C29.2021 17.7191 29.3926 17.6973 29.6789 17.6973Z" fill="#D4DDFC"/>
<path d="M10.3291 17.6543C10.6104 17.7332 10.8917 17.812 11.1729 17.8909C11.2683 17.9177 11.3637 17.9444 11.4591 17.9712C13.0257 18.4104 14.587 18.8637 16.1478 19.3192C16.334 19.3735 16.5203 19.4279 16.7065 19.4821C16.8796 19.5326 17.0527 19.5831 17.2257 19.6336C18.0044 19.8606 18.7864 20.0763 19.5701 20.2888C19.5701 24.4237 19.5701 28.5585 19.5701 32.8187C19.2343 32.7754 18.9764 32.7364 18.6638 32.6443C18.5865 32.6217 18.5092 32.5991 18.4296 32.5759C18.3055 32.539 18.3055 32.539 18.179 32.5015C18.0451 32.4622 17.9112 32.423 17.7773 32.3838C17.5896 32.3287 17.402 32.2732 17.2143 32.2178C16.8486 32.1098 16.4826 32.0024 16.1167 31.895C16.0252 31.8682 15.9337 31.8413 15.8422 31.8145C15.0748 31.5892 14.3052 31.3711 13.5343 31.1559C12.8991 30.9786 12.2652 30.7983 11.6328 30.6132C11.4769 30.5676 11.3209 30.5224 11.1649 30.4771C11.0643 30.4478 10.9638 30.4184 10.8633 30.389C10.7317 30.3506 10.7317 30.3506 10.5974 30.3115C10.4002 30.2485 10.4002 30.2485 10.3291 30.1842C10.3221 30.0225 10.3198 29.8626 10.3205 29.7008C10.3205 29.6496 10.3204 29.5984 10.3203 29.5456C10.3202 29.3726 10.3206 29.1997 10.321 29.0267C10.321 28.9033 10.321 28.7798 10.321 28.6564C10.3209 28.3201 10.3214 27.9838 10.3219 27.6476C10.3223 27.2965 10.3223 26.9455 10.3224 26.5945C10.3227 25.9293 10.3232 25.2642 10.3239 24.599C10.3247 23.8419 10.3251 23.0848 10.3255 22.3278C10.3262 20.7699 10.3275 19.2121 10.3291 17.6543Z" fill="#D4DDFC"/>
<path d="M10.329 17.6543C11.2687 17.9089 11.2687 17.9089 12.2275 18.1687C12.2043 22.3066 12.1811 26.4445 12.1572 30.7078C11.7374 30.6225 11.3345 30.533 10.9267 30.4144C10.8764 30.4002 10.8262 30.386 10.7745 30.3713C10.4084 30.266 10.4084 30.266 10.329 30.1933C10.3221 30.0315 10.3198 29.8714 10.3205 29.7096C10.3205 29.6583 10.3204 29.6071 10.3203 29.5542C10.3202 29.3812 10.3206 29.2081 10.321 29.035C10.321 28.9115 10.321 28.7879 10.321 28.6644C10.3209 28.3278 10.3214 27.9913 10.3218 27.6548C10.3223 27.3036 10.3223 26.9523 10.3224 26.601C10.3226 25.9354 10.3232 25.2697 10.3239 24.604C10.3247 23.8464 10.3251 23.0888 10.3254 22.3312C10.3262 20.7722 10.3274 19.2133 10.329 17.6543Z" fill="#BEBEF6"/>
<path d="M29.6798 17.6973C29.6798 21.8137 29.6798 25.9302 29.6798 30.1714C28.1267 30.6215 28.1267 30.6215 27.8444 30.6215C27.8444 30.3032 27.8444 29.9849 27.8444 29.657C28.2637 29.5297 28.2637 29.5297 28.6915 29.3998C28.6915 29.2937 28.6915 29.1876 28.6915 29.0783C28.4119 29.142 28.1324 29.2056 27.8444 29.2712C27.8444 28.8468 27.8444 28.4224 27.8444 27.9852C28.2637 27.8579 28.2637 27.8579 28.6915 27.728C28.6915 27.6644 28.6915 27.6007 28.6915 27.5351C28.4119 27.5563 28.1324 27.5775 27.8444 27.5994C27.8444 27.1962 27.8444 26.7931 27.8444 26.3777C28.054 26.3141 28.2637 26.2504 28.4797 26.1848C28.5845 26.1212 28.5845 26.1212 28.6915 26.0562C28.6915 25.9926 28.6915 25.9289 28.6915 25.8633C28.2722 25.8951 28.2722 25.8951 27.8444 25.9276C27.8444 25.5245 27.8444 25.1213 27.8444 24.7059C28.1239 24.621 28.4035 24.5362 28.6915 24.4487C28.6915 24.3639 28.6915 24.279 28.6915 24.1915C28.2722 24.2234 28.2722 24.2234 27.8444 24.2558C27.8386 24.0776 27.8344 23.8996 27.8311 23.7213C27.8293 23.6708 27.8276 23.6203 27.8257 23.5682C27.8251 23.5196 27.8244 23.4709 27.8237 23.4207C27.8226 23.3759 27.8215 23.3311 27.8203 23.285C27.8518 23.1249 27.919 23.0706 28.0561 22.9698C28.2158 22.9088 28.2158 22.9088 28.3871 22.8613C28.4441 22.8452 28.5012 22.829 28.56 22.8124C28.6034 22.8007 28.6468 22.789 28.6915 22.7769C28.6915 22.6708 28.6915 22.5647 28.6915 22.4554C28.4119 22.5191 28.1324 22.5828 27.8444 22.6483C27.8444 22.224 27.8444 21.7996 27.8444 21.3623C28.1239 21.2775 28.4035 21.1926 28.6915 21.1051C28.6915 21.0415 28.6915 20.9778 28.6915 20.9122C28.2722 20.9441 28.2722 20.9441 27.8444 20.9765C27.8444 20.5734 27.8444 20.1702 27.8444 19.7549C28.054 19.6912 28.2637 19.6275 28.4797 19.562C28.5496 19.5195 28.6195 19.4771 28.6915 19.4334C28.6915 19.3697 28.6915 19.306 28.6915 19.2405C28.4119 19.2617 28.1324 19.2829 27.8444 19.3048C27.8444 18.9228 27.8444 18.5409 27.8444 18.1474C28.1906 18.0291 28.5296 17.9146 28.8812 17.8138C28.9952 17.7806 28.9952 17.7806 29.1115 17.7467C29.3268 17.6973 29.3268 17.6973 29.6798 17.6973Z" fill="#E8E8FF"/>
<path d="M10.3162 34.2907C10.386 34.2906 10.4557 34.2904 10.5276 34.2902C10.606 34.2904 10.6844 34.2905 10.7628 34.2907C10.8453 34.2906 10.9278 34.2905 11.0103 34.2904C11.2381 34.2901 11.466 34.2902 11.6938 34.2904C11.939 34.2906 12.1843 34.2903 12.4296 34.2902C12.9105 34.2899 13.3914 34.2899 13.8723 34.2901C14.263 34.2903 14.6536 34.2903 15.0443 34.2902C15.1275 34.2902 15.1275 34.2902 15.2124 34.2902C15.3251 34.2902 15.4378 34.2902 15.5505 34.2901C16.6087 34.2899 17.6668 34.2902 18.725 34.2905C19.6339 34.2908 20.5429 34.2907 21.4519 34.2904C22.5061 34.2901 23.5604 34.29 24.6146 34.2902C24.7269 34.2902 24.8392 34.2902 24.9515 34.2902C25.0067 34.2902 25.062 34.2902 25.1189 34.2903C25.5094 34.2903 25.8998 34.2902 26.2902 34.2901C26.7657 34.2899 27.2411 34.2899 27.7166 34.2903C27.9594 34.2904 28.2023 34.2905 28.4451 34.2903C28.667 34.2901 28.889 34.2902 29.1109 34.2905C29.1915 34.2906 29.2722 34.2906 29.3528 34.2904C29.4617 34.2902 29.5706 34.2905 29.6795 34.2907C29.7402 34.2907 29.801 34.2907 29.8635 34.2908C29.9985 34.2987 29.9985 34.2987 30.0531 34.362C30.06 34.5201 30.06 34.5201 30.0531 34.6783C29.9556 34.7913 29.8114 34.7495 29.6795 34.7496C29.6098 34.7497 29.54 34.7499 29.4682 34.7501C29.3898 34.7499 29.3114 34.7498 29.233 34.7496C29.1504 34.7497 29.0679 34.7498 28.9854 34.7499C28.7576 34.7502 28.5298 34.7501 28.302 34.7499C28.0567 34.7497 27.8114 34.75 27.5662 34.7501C27.0853 34.7504 26.6044 34.7503 26.1235 34.7502C25.7328 34.75 25.3421 34.75 24.9515 34.7501C24.8682 34.7501 24.8682 34.7501 24.7833 34.7501C24.6706 34.7501 24.5579 34.7501 24.4452 34.7502C23.3871 34.7503 22.3289 34.7501 21.2708 34.7498C20.3618 34.7495 19.4528 34.7496 18.5438 34.7499C17.4896 34.7502 16.4354 34.7503 15.3812 34.7501C15.2689 34.7501 15.1566 34.7501 15.0443 34.7501C14.989 34.7501 14.9337 34.7501 14.8768 34.75C14.4864 34.75 14.096 34.7501 13.7055 34.7502C13.2301 34.7504 12.7546 34.7504 12.2791 34.75C12.0363 34.7499 11.7935 34.7498 11.5507 34.75C11.3287 34.7502 11.1068 34.7501 10.8849 34.7497C10.8042 34.7497 10.7236 34.7497 10.6429 34.7499C10.534 34.7501 10.4251 34.7498 10.3162 34.7496C10.2555 34.7496 10.1948 34.7495 10.1322 34.7495C9.99727 34.7416 9.99727 34.7416 9.94262 34.6783C9.93579 34.5201 9.93579 34.5201 9.94262 34.362C10.0402 34.249 10.1844 34.2907 10.3162 34.2907Z" fill="#3E3679"/>
<path d="M7.54212 33.1803C7.6319 33.1803 7.72167 33.1804 7.81417 33.1804C7.9151 33.1808 8.01602 33.1811 8.11695 33.1815C8.22315 33.1817 8.32935 33.1818 8.43555 33.182C8.72879 33.1824 9.02202 33.1832 9.31525 33.1841C9.63095 33.1849 9.94664 33.1854 10.2623 33.186C10.8813 33.1871 11.5003 33.1886 12.1193 33.1902C12.6222 33.1915 13.125 33.1927 13.6278 33.1938C13.735 33.194 13.735 33.194 13.8443 33.1943C13.9893 33.1946 14.1344 33.1949 14.2795 33.1952C15.6414 33.1982 17.0034 33.2015 18.3654 33.205C19.5354 33.208 20.7054 33.2106 21.8754 33.213C23.2324 33.2158 24.5893 33.2188 25.9462 33.2221C26.0908 33.2225 26.2353 33.2228 26.3799 33.2232C26.451 33.2234 26.5221 33.2235 26.5954 33.2237C27.098 33.2249 27.6005 33.226 28.103 33.227C28.715 33.2282 29.327 33.2297 29.939 33.2314C30.2516 33.2323 30.5641 33.2331 30.8767 33.2336C31.1623 33.2341 31.448 33.2349 31.7337 33.2358C31.8375 33.2361 31.9413 33.2364 32.0451 33.2364C32.1852 33.2366 32.3254 33.2371 32.4656 33.2377C32.5437 33.2379 32.6219 33.2381 32.7024 33.2383C32.8761 33.2463 32.8761 33.2463 32.9463 33.3076C32.9546 33.4604 32.9546 33.4604 32.9454 33.6131C32.8195 33.7219 32.634 33.6812 32.4643 33.6808C32.3746 33.6807 32.2848 33.6807 32.1923 33.6806C32.0914 33.6803 31.9904 33.6799 31.8895 33.6795C31.7833 33.6794 31.6771 33.6792 31.5709 33.6791C31.2777 33.6787 30.9844 33.6779 30.6912 33.677C30.3755 33.6761 30.0598 33.6756 29.7441 33.6751C29.1251 33.6739 28.5061 33.6724 27.8871 33.6708C27.3843 33.6695 26.8815 33.6683 26.3786 33.6673C26.2715 33.667 26.2715 33.667 26.1622 33.6668C26.0171 33.6665 25.8721 33.6662 25.727 33.6658C24.365 33.6629 23.003 33.6595 21.641 33.6561C20.471 33.6531 19.301 33.6505 18.131 33.648C16.7741 33.6452 15.4172 33.6422 14.0602 33.6389C13.9157 33.6386 13.7711 33.6382 13.6266 33.6379C13.5555 33.6377 13.4843 33.6375 13.411 33.6373C12.9085 33.6361 12.406 33.6351 11.9034 33.634C11.2914 33.6328 10.6794 33.6314 10.0675 33.6296C9.7549 33.6287 9.44234 33.628 9.12978 33.6274C8.84412 33.627 8.55847 33.6262 8.27281 33.6252C8.16901 33.6249 8.0652 33.6247 7.9614 33.6246C7.82122 33.6245 7.68105 33.6239 7.54087 33.6234C7.46273 33.6232 7.38459 33.623 7.30408 33.6228C7.13037 33.6147 7.13037 33.6147 7.0602 33.5535C7.05184 33.4007 7.05184 33.4007 7.06107 33.2479C7.18695 33.1392 7.37242 33.1799 7.54212 33.1803Z" fill="#3E3679"/>
<path d="M28.7734 19.2447C28.751 19.3657 28.751 19.3657 28.7018 19.5029C28.5091 19.6189 28.3929 19.6647 28.1755 19.718C28.114 19.7334 28.0524 19.7488 27.989 19.7647C27.8905 19.7889 27.8905 19.7889 27.79 19.8136C27.3389 19.927 26.8918 20.0436 26.449 20.1808C25.9592 20.3321 25.4638 20.4594 24.9655 20.5856C24.5981 20.6793 24.2356 20.7794 23.8743 20.891C23.2565 21.0816 22.6287 21.2397 22 21.3981C21.851 21.436 21.7026 21.4755 21.5541 21.5152C21.3499 21.5654 21.1879 21.5804 20.9778 21.5689C20.9542 21.4837 20.9306 21.3985 20.9062 21.3107C21.2379 21.1032 21.5933 21.0141 21.9757 20.9117C22.0453 20.8927 22.115 20.8736 22.1867 20.854C22.4094 20.7933 22.6323 20.7332 22.8551 20.6731C23.0017 20.6332 23.1483 20.5933 23.2949 20.5533C23.9268 20.3813 24.5594 20.2112 25.1929 20.0441C25.8383 19.8738 26.4792 19.6911 27.1202 19.5077C27.2685 19.4652 27.4169 19.423 27.5654 19.3809C27.6516 19.3562 27.7379 19.3315 27.8268 19.3061C28.176 19.2134 28.4169 19.1619 28.7734 19.2447Z" fill="#463E7D"/>
<path d="M28.7734 25.8794C28.751 26.0005 28.751 26.0005 28.7018 26.1377C28.5091 26.2537 28.3929 26.2994 28.1755 26.3528C28.114 26.3682 28.0524 26.3836 27.989 26.3995C27.8905 26.4237 27.8905 26.4237 27.79 26.4484C27.3389 26.5617 26.8918 26.6783 26.449 26.8156C25.9592 26.9668 25.4638 27.0941 24.9655 27.2204C24.5981 27.3141 24.2356 27.4142 23.8743 27.5258C23.2565 27.7164 22.6287 27.8744 22 28.0328C21.851 28.0707 21.7026 28.1102 21.5541 28.15C21.3499 28.2001 21.1879 28.2152 20.9778 28.2037C20.9542 28.1185 20.9306 28.0332 20.9062 27.9454C21.2379 27.738 21.5933 27.6489 21.9757 27.5465C22.0453 27.5274 22.115 27.5084 22.1867 27.4888C22.4094 27.4281 22.6323 27.368 22.8551 27.3079C23.0017 27.268 23.1483 27.2281 23.2949 27.1881C23.9268 27.016 24.5594 26.846 25.1929 26.6789C25.8383 26.5085 26.4792 26.3258 27.1202 26.1424C27.2685 26.1 27.4169 26.0578 27.5654 26.0156C27.6516 25.991 27.7379 25.9663 27.8268 25.9409C28.176 25.8481 28.4169 25.7967 28.7734 25.8794Z" fill="#463E7D"/>
<path d="M28.7018 24.1215C28.7372 24.2819 28.7372 24.2819 28.7734 24.4456C27.8938 24.7611 26.9747 24.9873 26.0701 25.2362C25.4571 25.4048 24.845 25.5757 24.2329 25.7469C23.6891 25.8986 23.1445 26.0475 22.5989 26.1938C22.2043 26.3002 21.8154 26.4177 21.4292 26.5474C21.2487 26.5875 21.1511 26.5749 20.9778 26.5193C20.9542 26.4338 20.9306 26.3482 20.9062 26.2601C21.4832 26.0074 22.0819 25.8451 22.6942 25.6809C22.8011 25.6519 22.908 25.6229 23.0148 25.5939C23.6268 25.4279 24.2396 25.2646 24.8529 25.1027C25.2274 25.0013 25.5993 24.8929 25.9715 24.7849C26.4222 24.6552 26.876 24.5382 27.3332 24.4285C27.5886 24.3663 27.8351 24.2966 28.0819 24.2101C28.3153 24.1313 28.4578 24.1008 28.7018 24.1215Z" fill="#463E7D"/>
<path d="M28.7005 22.4785C28.7358 22.6365 28.7358 22.6365 28.7718 22.7977C28.2872 22.9793 27.8003 23.1311 27.2967 23.2644C27.1516 23.3034 27.0065 23.3423 26.8614 23.3813C26.7512 23.4108 26.7512 23.4108 26.6388 23.4408C26.2918 23.5338 25.9453 23.6285 25.5989 23.7232C25.462 23.7605 25.325 23.7978 25.1881 23.8351C25.1204 23.8535 25.0527 23.872 24.983 23.891C24.7808 23.946 24.5786 24.001 24.3765 24.056C24.3098 24.0741 24.2432 24.0923 24.1745 24.111C24.0404 24.1475 23.9062 24.1839 23.772 24.2202C23.3917 24.3234 23.0124 24.4291 22.6338 24.5372C22.5494 24.5611 22.4651 24.5849 22.3782 24.6095C22.2139 24.6561 22.0499 24.7031 21.886 24.7507C21.7746 24.7821 21.7746 24.7821 21.6609 24.8142C21.5952 24.8331 21.5295 24.852 21.4617 24.8714C21.2775 24.9054 21.1755 24.8954 21 24.8401C21 24.7559 21 24.6716 21 24.5848C21.4645 24.3866 21.9328 24.2399 22.426 24.1101C22.498 24.0908 22.57 24.0715 22.6442 24.0517C23.1125 23.9264 23.5816 23.8035 24.0509 23.6813C24.4247 23.5833 24.7957 23.4784 25.1666 23.3721C25.6587 23.2311 26.1531 23.1034 26.652 22.9831C27.1075 22.8715 27.5539 22.7392 27.9992 22.5984C28.2491 22.5208 28.4327 22.4785 28.7005 22.4785Z" fill="#463D7D"/>
<path d="M28.7018 20.8448C28.7372 20.9732 28.7372 20.9732 28.7734 21.1042C28.401 21.2903 28.0182 21.3971 27.6112 21.5055C27.4633 21.5456 27.3154 21.5857 27.1675 21.6258C27.0523 21.657 27.0523 21.657 26.9347 21.6887C26.5456 21.7945 26.1576 21.9035 25.7696 22.0122C25.1145 22.1952 24.4593 22.3775 23.8033 22.5578C23.4499 22.655 23.0969 22.753 22.7442 22.8525C22.6329 22.8838 22.6329 22.8838 22.5194 22.9156C22.3779 22.9553 22.2364 22.9953 22.0951 23.0356C21.1633 23.2962 21.1633 23.2962 20.9062 23.1796C20.9107 23.0621 20.9107 23.0621 20.9778 22.9202C21.3993 22.7304 21.8489 22.6149 22.2981 22.491C22.377 22.469 22.456 22.447 22.5373 22.4244C22.7892 22.3543 23.0412 22.2846 23.2932 22.2149C23.4598 22.1685 23.6264 22.1222 23.793 22.0758C24.5303 21.8708 25.268 21.6676 26.0083 21.4719C26.3146 21.3907 26.6194 21.3058 26.9236 21.2184C27.0017 21.1961 27.0797 21.1737 27.1601 21.1507C27.318 21.1052 27.4758 21.0595 27.6334 21.0134C27.7489 20.9804 27.7489 20.9804 27.8668 20.9469C27.9347 20.9272 28.0026 20.9075 28.0726 20.8872C28.2885 20.8414 28.4809 20.8373 28.7018 20.8448Z" fill="#463D7D"/>
<path d="M28.7018 27.4795C28.7372 27.6079 28.7372 27.6079 28.7734 27.7389C28.401 27.9251 28.0182 28.0319 27.6112 28.1402C27.4633 28.1803 27.3154 28.2204 27.1675 28.2606C27.0523 28.2917 27.0523 28.2917 26.9347 28.3235C26.5456 28.4293 26.1576 28.5382 25.7696 28.6469C25.1145 28.83 24.4593 29.0123 23.8033 29.1926C23.4499 29.2897 23.0969 29.3878 22.7442 29.4873C22.6329 29.5185 22.6329 29.5185 22.5194 29.5504C22.3779 29.5901 22.2364 29.6301 22.0951 29.6704C21.1633 29.9309 21.1633 29.9309 20.9062 29.8144C20.925 29.6923 20.925 29.6923 20.9778 29.5549C21.4541 29.267 22.1499 29.1674 22.697 29.0214C23.1909 28.8891 23.6822 28.7496 24.1738 28.6105C24.7659 28.4432 25.3579 28.2767 25.9539 28.1212C26.2657 28.0393 26.5754 27.9524 26.8848 27.8636C26.9685 27.8397 27.0521 27.8159 27.1383 27.7913C27.3043 27.7438 27.4701 27.6959 27.6358 27.6475C27.7502 27.6149 27.7502 27.6149 27.8668 27.5816C27.9347 27.5619 28.0026 27.5423 28.0726 27.522C28.2885 27.4762 28.4809 27.4721 28.7018 27.4795Z" fill="#463D7D"/>
<path d="M28.7005 29.1133C28.7358 29.2712 28.7358 29.2712 28.7718 29.4323C28.2872 29.6139 27.8003 29.7656 27.2967 29.8989C27.1513 29.9379 27.006 29.977 26.8606 30.016C26.7871 30.0357 26.7136 30.0553 26.6378 30.0755C26.2956 30.1672 25.9539 30.2603 25.6123 30.3535C25.5452 30.3717 25.4782 30.39 25.4092 30.4088C24.9682 30.5289 24.5276 30.6498 24.0871 30.7713C23.9313 30.8142 23.7755 30.857 23.6196 30.8998C23.2303 31.0067 22.8414 31.1148 22.4533 31.2251C22.3782 31.2462 22.3031 31.2673 22.2258 31.289C22.0833 31.3291 21.9411 31.3696 21.7991 31.4107C21.7038 31.4372 21.7038 31.4372 21.6066 31.4644C21.5235 31.4881 21.5235 31.4881 21.4387 31.5122C21.2684 31.5407 21.163 31.5226 21 31.4741C21 31.3899 21 31.3056 21 31.2189C21.4645 31.0207 21.9328 30.8741 22.426 30.7443C22.498 30.725 22.57 30.7058 22.6442 30.6859C23.1125 30.5607 23.5816 30.4379 24.0509 30.3156C24.4247 30.2177 24.7957 30.1128 25.1666 30.0066C25.6587 29.8656 26.1531 29.7379 26.652 29.6177C27.1075 29.5062 27.5539 29.3739 27.9992 29.2332C28.2491 29.1556 28.4327 29.1133 28.7005 29.1133Z" fill="#463D7D"/>
<path d="M31.3664 34.2965C31.4152 34.2963 31.4639 34.2961 31.5142 34.2959C31.6176 34.2956 31.721 34.2954 31.8243 34.2954C31.9829 34.2953 32.1415 34.2941 32.3 34.2929C32.4003 34.2928 32.5005 34.2926 32.6007 34.2926C32.6722 34.2919 32.6722 34.2919 32.7451 34.2912C33.081 34.2927 33.081 34.2927 33.2043 34.4332C33.1747 34.656 33.1747 34.656 33.0936 34.7483C32.9307 34.7547 32.7691 34.7571 32.6061 34.7567C32.5328 34.7568 32.5328 34.7568 32.4579 34.7569C32.3543 34.7569 32.2507 34.7568 32.1471 34.7566C31.9879 34.7562 31.8287 34.7565 31.6696 34.757C31.5692 34.7569 31.4687 34.7568 31.3683 34.7567C31.3204 34.7568 31.2724 34.757 31.223 34.7571C30.8872 34.7556 30.8872 34.7556 30.8255 34.6853C30.8186 34.5277 30.8186 34.5277 30.8255 34.3701C30.9427 34.2366 31.2042 34.2967 31.3664 34.2965Z" fill="#3E3578"/>
<path d="M7.24975 34.2835C7.32166 34.2837 7.32166 34.2837 7.39503 34.2839C7.44394 34.2838 7.49284 34.2838 7.54323 34.2837C7.64685 34.2837 7.75046 34.2838 7.85407 34.2841C8.01325 34.2844 8.17242 34.2841 8.33159 34.2836C8.432 34.2837 8.53242 34.2838 8.63283 34.2839C8.68077 34.2838 8.72872 34.2836 8.77811 34.2835C9.11398 34.2851 9.11398 34.2851 9.17566 34.3618C9.18258 34.5336 9.18258 34.5336 9.17566 34.7054C9.05848 34.851 8.79694 34.7854 8.63477 34.7857C8.586 34.7859 8.53722 34.7861 8.48697 34.7864C8.38359 34.7867 8.28021 34.7869 8.17683 34.7869C8.01825 34.787 7.8597 34.7883 7.70113 34.7896C7.6009 34.7898 7.50066 34.7899 7.40043 34.79C7.32894 34.7907 7.32894 34.7907 7.25601 34.7915C6.92017 34.7898 6.92017 34.7898 6.79688 34.6367C6.84403 34.25 6.95239 34.2849 7.24975 34.2835Z" fill="#3E3578"/>
</g>
<defs>
<linearGradient id="paint0_linear_16595_84541" x1="8.60948" y1="20.1068" x2="17.2219" y2="20.1068" gradientUnits="userSpaceOnUse">
<stop offset="0.004" stop-color="#7994D8"/>
<stop offset="0.037" stop-color="#728DD2"/>
<stop offset="0.175" stop-color="#5C75BC"/>
<stop offset="0.321" stop-color="#4C64AC"/>
<stop offset="0.48" stop-color="#425AA3"/>
<stop offset="0.677" stop-color="#3F57A0"/>
<stop offset="1" stop-color="#2A428B"/>
</linearGradient>
<linearGradient id="paint1_linear_16595_84541" x1="31.394" y1="20.1067" x2="22.7812" y2="20.1067" gradientUnits="userSpaceOnUse">
<stop offset="0.004" stop-color="#7994D8"/>
<stop offset="0.037" stop-color="#728DD2"/>
<stop offset="0.175" stop-color="#5C75BC"/>
<stop offset="0.321" stop-color="#4C64AC"/>
<stop offset="0.48" stop-color="#425AA3"/>
<stop offset="0.677" stop-color="#3F57A0"/>
<stop offset="1" stop-color="#2A428B"/>
</linearGradient>
<linearGradient id="paint2_linear_16595_84541" x1="13.4219" y1="21.459" x2="26.5824" y2="21.459" gradientUnits="userSpaceOnUse">
<stop stop-color="#A4EEFF"/>
<stop offset="0.732" stop-color="#02C0FC"/>
<stop offset="1" stop-color="#27A6FF"/>
</linearGradient>
<linearGradient id="paint3_linear_16595_84541" x1="15.7344" y1="19.6971" x2="24.2633" y2="19.6971" gradientUnits="userSpaceOnUse">
<stop offset="0.239" stop-color="#E8F8FC"/>
<stop offset="0.36" stop-color="#DAF5FB"/>
<stop offset="0.586" stop-color="#B6EBF8"/>
<stop offset="0.638" stop-color="#ADE9F7"/>
<stop offset="0.973" stop-color="#80CBF7"/>
</linearGradient>
<linearGradient id="paint4_linear_16595_84541" x1="12.5859" y1="9.49838" x2="15.5525" y2="9.49838" gradientUnits="userSpaceOnUse">
<stop offset="0.004" stop-color="#7994D8"/>
<stop offset="0.037" stop-color="#728DD2"/>
<stop offset="0.175" stop-color="#5C75BC"/>
<stop offset="0.321" stop-color="#4C64AC"/>
<stop offset="0.48" stop-color="#425AA3"/>
<stop offset="0.677" stop-color="#3F57A0"/>
<stop offset="1" stop-color="#2A428B"/>
</linearGradient>
<linearGradient id="paint5_linear_16595_84541" x1="27.6051" y1="9.49838" x2="24.4531" y2="9.49838" gradientUnits="userSpaceOnUse">
<stop offset="0.004" stop-color="#7994D8"/>
<stop offset="0.037" stop-color="#728DD2"/>
<stop offset="0.175" stop-color="#5C75BC"/>
<stop offset="0.321" stop-color="#4C64AC"/>
<stop offset="0.48" stop-color="#425AA3"/>
<stop offset="0.677" stop-color="#3F57A0"/>
<stop offset="1" stop-color="#2A428B"/>
</linearGradient>
<linearGradient id="paint6_linear_16595_84541" x1="15" y1="9.49926" x2="25.0123" y2="9.49926" gradientUnits="userSpaceOnUse">
<stop offset="0.184" stop-color="#E8F8FC"/>
<stop offset="0.31" stop-color="#DAF5FB"/>
<stop offset="0.547" stop-color="#B6EBF8"/>
<stop offset="0.601" stop-color="#ADE9F7"/>
<stop offset="0.723" stop-color="#A0E1F7"/>
<stop offset="0.943" stop-color="#80CBF7"/>
</linearGradient>
<linearGradient id="paint7_linear_16595_84541" x1="14.4375" y1="9.49886" x2="25.5622" y2="9.49886" gradientUnits="userSpaceOnUse">
<stop stop-color="#A4EEFF"/>
<stop offset="0.732" stop-color="#02C0FC"/>
<stop offset="1" stop-color="#27A6FF"/>
</linearGradient>
<clipPath id="clip0_16595_84541">
<rect width="32" height="32" fill="white" transform="translate(4 4)"/>
</clipPath>
</defs>
</svg>
