<svg width="27" height="24" viewBox="0 0 27 24" fill="none" xmlns="http://www.w3.org/2000/svg">
<path d="M2.74627 23.3327C2.07272 23.3327 1.5026 23.0993 1.03594 22.6327C0.569271 22.166 0.335938 21.5959 0.335938 20.9223V6.99935C0.335938 6.71557 0.431715 6.47801 0.623271 6.28668C0.814604 6.09513 1.05216 5.99935 1.33594 5.99935C1.61972 5.99935 1.85727 6.09513 2.0486 6.28668C2.24016 6.47801 2.33594 6.71557 2.33594 6.99935V20.9223C2.33594 21.025 2.37872 21.119 2.46427 21.2043C2.5496 21.2899 2.6436 21.3327 2.74627 21.3327H20.6693C20.953 21.3327 21.1906 21.4285 21.3819 21.62C21.5735 21.8113 21.6693 22.0489 21.6693 22.3327C21.6693 22.6165 21.5735 22.854 21.3819 23.0453C21.1906 23.2369 20.953 23.3327 20.6693 23.3327H2.74627ZM8.0796 17.9993C7.40605 17.9993 6.83594 17.766 6.36927 17.2993C5.9026 16.8327 5.66927 16.2626 5.66927 15.589V1.87135C5.66927 1.52757 5.78427 1.24079 6.01427 1.01101C6.24405 0.781015 6.53083 0.666016 6.8746 0.666016H25.7973C26.141 0.666016 26.4278 0.781015 26.6576 1.01101C26.8876 1.24079 27.0026 1.52757 27.0026 1.87135V15.589C27.0026 16.2626 26.7693 16.8327 26.3026 17.2993C25.8359 17.766 25.2658 17.9993 24.5923 17.9993H8.0796ZM8.0796 15.9993H24.5923C24.6949 15.9993 24.7889 15.9566 24.8743 15.871C24.9598 15.7857 25.0026 15.6917 25.0026 15.589V2.66602H7.66927V15.589C7.66927 15.6917 7.71205 15.7857 7.7976 15.871C7.88294 15.9566 7.97694 15.9993 8.0796 15.9993ZM11.3359 11.9993H14.6693C14.953 11.9993 15.1906 11.9036 15.3819 11.712C15.5735 11.5207 15.6693 11.2831 15.6693 10.9993V6.33268C15.6693 6.0489 15.5735 5.81135 15.3819 5.62002C15.1906 5.42846 14.953 5.33268 14.6693 5.33268H11.3359C11.0522 5.33268 10.8146 5.42846 10.6233 5.62002C10.4317 5.81135 10.3359 6.0489 10.3359 6.33268V10.9993C10.3359 11.2831 10.4317 11.5207 10.6233 11.712C10.8146 11.9036 11.0522 11.9993 11.3359 11.9993ZM18.3359 11.9993H21.0026C21.3804 11.9993 21.697 11.8716 21.9526 11.616C22.2082 11.3605 22.3359 11.0438 22.3359 10.666C22.3359 10.2882 22.2082 9.97157 21.9526 9.71601C21.697 9.46046 21.3804 9.33268 21.0026 9.33268H18.3359C17.9582 9.33268 17.6415 9.46046 17.3859 9.71601C17.1304 9.97157 17.0026 10.2882 17.0026 10.666C17.0026 11.0438 17.1304 11.3605 17.3859 11.616C17.6415 11.8716 17.9582 11.9993 18.3359 11.9993ZM18.3359 7.99935H21.0026C21.3804 7.99935 21.697 7.87157 21.9526 7.61602C22.2082 7.36046 22.3359 7.04379 22.3359 6.66602C22.3359 6.28824 22.2082 5.97157 21.9526 5.71602C21.697 5.46046 21.3804 5.33268 21.0026 5.33268H18.3359C17.9582 5.33268 17.6415 5.46046 17.3859 5.71602C17.1304 5.97157 17.0026 6.28824 17.0026 6.66602C17.0026 7.04379 17.1304 7.36046 17.3859 7.61602C17.6415 7.87157 17.9582 7.99935 18.3359 7.99935Z" fill="white"/>
</svg>
