<svg width="37" height="37" viewBox="0 0 37 37" fill="none" xmlns="http://www.w3.org/2000/svg">
<g filter="url(#filter0_i_805_25330)">
<path d="M30.525 29.5992H6.475C5.96625 29.5992 5.55 30.0155 5.55 30.5242V32.3742C5.55 32.883 5.96625 33.2992 6.475 33.2992H30.525C31.0337 33.2992 31.45 32.883 31.45 32.3742V30.5242C31.45 30.0155 31.0337 29.5992 30.525 29.5992ZM34.225 11.0992C32.693 11.0992 31.45 12.3422 31.45 13.8742C31.45 14.2847 31.5425 14.6663 31.7044 15.0189L27.5188 17.528C26.6284 18.0598 25.478 17.7592 24.9634 16.8573L20.2517 8.61328C20.8703 8.10453 21.275 7.34141 21.275 6.47422C21.275 4.94219 20.032 3.69922 18.5 3.69922C16.968 3.69922 15.725 4.94219 15.725 6.47422C15.725 7.34141 16.1297 8.10453 16.7483 8.61328L12.0366 16.8573C11.522 17.7592 10.3658 18.0598 9.48125 17.528L5.30141 15.0189C5.4575 14.672 5.55578 14.2847 5.55578 13.8742C5.55578 12.3422 4.31281 11.0992 2.78078 11.0992C1.24875 11.0992 0 12.3422 0 13.8742C0 15.4063 1.24297 16.6492 2.775 16.6492C2.92531 16.6492 3.07563 16.6261 3.22016 16.603L7.4 27.7492H29.6L33.7798 16.603C33.9244 16.6261 34.0747 16.6492 34.225 16.6492C35.757 16.6492 37 15.4063 37 13.8742C37 12.3422 35.757 11.0992 34.225 11.0992Z" fill="url(#paint0_linear_805_25330)"/>
</g>
<path d="M32.025 15.1182L31.8329 15.2333L27.6473 17.7424L27.647 17.7426C26.6367 18.3461 25.3304 18.005 24.7463 16.9812L20.0347 8.73733L19.93 8.55419L20.0929 8.42019C20.6584 7.95513 21.025 7.26085 21.025 6.47422C21.025 5.08026 19.894 3.94922 18.5 3.94922C17.106 3.94922 15.975 5.08026 15.975 6.47422C15.975 7.26085 16.3416 7.95513 16.9071 8.42019L17.07 8.55419L16.9653 8.73733L12.2537 16.9812L32.025 15.1182ZM32.025 15.1182L31.9316 14.9146M32.025 15.1182L31.9316 14.9146M31.9316 14.9146C31.7835 14.592 31.7 14.2459 31.7 13.8742C31.7 12.4803 32.831 11.3492 34.225 11.3492C35.619 11.3492 36.75 12.4803 36.75 13.8742C36.75 15.2682 35.619 16.3992 34.225 16.3992C34.0973 16.3992 33.9657 16.3795 33.8193 16.3561L33.6175 16.3238L33.5458 16.5152L29.4268 27.4992H7.57325L3.45424 16.5152L3.38248 16.3238L3.18066 16.3561C3.0343 16.3795 2.90266 16.3992 2.775 16.3992C1.38104 16.3992 0.25 15.2682 0.25 13.8742C0.25 12.4809 1.38614 11.3492 2.78078 11.3492C4.17474 11.3492 5.30578 12.4803 5.30578 13.8742C5.30578 14.2444 5.21715 14.5969 5.07343 14.9163L4.98226 15.1189M31.9316 14.9146L4.98226 15.1189M4.98226 15.1189L5.17274 15.2333M4.98226 15.1189L5.17274 15.2333M5.17274 15.2333L9.35242 17.7422M5.17274 15.2333L9.35242 17.7422M9.35242 17.7422C10.3573 18.3465 11.6696 18.0048 12.2536 16.9814L9.35242 17.7422ZM5.8 30.5242C5.8 30.1535 6.10432 29.8492 6.475 29.8492H30.525C30.8957 29.8492 31.2 30.1535 31.2 30.5242V32.3742C31.2 32.7449 30.8957 33.0492 30.525 33.0492H6.475C6.10432 33.0492 5.8 32.7449 5.8 32.3742V30.5242Z" stroke="url(#paint1_linear_805_25330)" stroke-width="0.5"/>
<g filter="url(#filter1_f_805_25330)">
<path d="M29.5 31.5C29.5 30.9477 29.5523 30 29 30C28.4477 30 28 30.4477 28 31C28 31.5523 28.4477 32.5 29 32.5C29.5523 32.5 29.5 32.0523 29.5 31.5Z" fill="#DADADA"/>
</g>
<g filter="url(#filter2_f_805_25330)">
<path d="M25.5 31.5C25.5 30.9477 25.5523 30 25 30C24.4477 30 24 30.4477 24 31C24 31.5523 24.4477 32.5 25 32.5C25.5523 32.5 25.5 32.0523 25.5 31.5Z" fill="#DADADA"/>
</g>
<g filter="url(#filter3_f_805_25330)">
<path d="M21.5 31.5C21.5 30.9477 21.5523 30 21 30C20.4477 30 20 30.4477 20 31C20 31.5523 20.4477 32.5 21 32.5C21.5523 32.5 21.5 32.0523 21.5 31.5Z" fill="#DADADA"/>
</g>
<g filter="url(#filter4_f_805_25330)">
<path d="M17.5 31.5C17.5 30.9477 17.5523 30 17 30C16.4477 30 16 30.4477 16 31C16 31.5523 16.4477 32.5 17 32.5C17.5523 32.5 17.5 32.0523 17.5 31.5Z" fill="#DADADA"/>
</g>
<g filter="url(#filter5_f_805_25330)">
<path d="M13.5 31.5C13.5 30.9477 13.5523 30 13 30C12.4477 30 12 30.4477 12 31C12 31.5523 12.4477 32.5 13 32.5C13.5523 32.5 13.5 32.0523 13.5 31.5Z" fill="#DADADA"/>
</g>
<g filter="url(#filter6_f_805_25330)">
<path d="M9.5 31.5C9.5 30.9477 9.55228 30 9 30C8.44772 30 8 30.4477 8 31C8 31.5523 8.44772 32.5 9 32.5C9.55228 32.5 9.5 32.0523 9.5 31.5Z" fill="#DADADA"/>
</g>
<g filter="url(#filter7_i_805_25330)">
<circle cx="8.5" cy="31.5" r="1" fill="#8F8F8F"/>
</g>
<g filter="url(#filter8_i_805_25330)">
<circle cx="12.5" cy="31.5" r="1" fill="#8F8F8F"/>
</g>
<g filter="url(#filter9_i_805_25330)">
<circle cx="16.5" cy="31.5" r="1" fill="#8F8F8F"/>
</g>
<g filter="url(#filter10_i_805_25330)">
<circle cx="20.5" cy="31.5" r="1" fill="#8F8F8F"/>
</g>
<g filter="url(#filter11_i_805_25330)">
<circle cx="24.5" cy="31.5" r="1" fill="#8F8F8F"/>
</g>
<g filter="url(#filter12_i_805_25330)">
<circle cx="28.5" cy="31.5" r="1" fill="#8F8F8F"/>
</g>
<g filter="url(#filter13_f_805_25330)">
<path d="M18.5 6C18.5 5.44772 18.5523 4.5 18 4.5C17.4477 4.5 17 4.94772 17 5.5C17 6.05228 17.4477 7 18 7C18.5523 7 18.5 6.55228 18.5 6Z" fill="#DADADA"/>
</g>
<g filter="url(#filter14_f_805_25330)">
<path d="M34.5 13.5C34.5 12.9477 34.5523 12 34 12C33.4477 12 33 12.4477 33 13C33 13.5523 33.4477 14.5 34 14.5C34.5523 14.5 34.5 14.0523 34.5 13.5Z" fill="#DADADA"/>
</g>
<g filter="url(#filter15_f_805_25330)">
<path d="M2.5 14C2.5 13.4477 2.55228 12.5 2 12.5C1.44772 12.5 1 12.9477 1 13.5C1 14.0523 1.44772 15 2 15C2.55228 15 2.5 14.5523 2.5 14Z" fill="#DADADA"/>
</g>
<path d="M14.716 26.084C13.932 26.084 13.212 25.9 12.556 25.532C11.9 25.164 11.38 24.656 10.996 24.008C10.612 23.352 10.42 22.612 10.42 21.788C10.42 20.972 10.612 20.24 10.996 19.592C11.38 18.936 11.9 18.424 12.556 18.056C13.212 17.688 13.932 17.504 14.716 17.504C15.508 17.504 16.228 17.688 16.876 18.056C17.532 18.424 18.048 18.936 18.424 19.592C18.808 20.24 19 20.972 19 21.788C19 22.612 18.808 23.352 18.424 24.008C18.048 24.656 17.532 25.164 16.876 25.532C16.22 25.9 15.5 26.084 14.716 26.084ZM14.716 24.584C15.22 24.584 15.664 24.472 16.048 24.248C16.432 24.016 16.732 23.688 16.948 23.264C17.164 22.84 17.272 22.348 17.272 21.788C17.272 21.228 17.164 20.74 16.948 20.324C16.732 19.9 16.432 19.576 16.048 19.352C15.664 19.128 15.22 19.016 14.716 19.016C14.212 19.016 13.764 19.128 13.372 19.352C12.988 19.576 12.688 19.9 12.472 20.324C12.256 20.74 12.148 21.228 12.148 21.788C12.148 22.348 12.256 22.84 12.472 23.264C12.688 23.688 12.988 24.016 13.372 24.248C13.764 24.472 14.212 24.584 14.716 24.584ZM23.1419 26.084C22.5579 26.084 22.0299 25.984 21.5579 25.784C21.0939 25.584 20.7259 25.296 20.4539 24.92C20.1819 24.544 20.0419 24.1 20.0339 23.588H21.8339C21.8579 23.932 21.9779 24.204 22.1939 24.404C22.4179 24.604 22.7219 24.704 23.1059 24.704C23.4979 24.704 23.8059 24.612 24.0299 24.428C24.2539 24.236 24.3659 23.988 24.3659 23.684C24.3659 23.436 24.2899 23.232 24.1379 23.072C23.9859 22.912 23.7939 22.788 23.5619 22.7C23.3379 22.604 23.0259 22.5 22.6259 22.388C22.0819 22.228 21.6379 22.072 21.2939 21.92C20.9579 21.76 20.6659 21.524 20.4179 21.212C20.1779 20.892 20.0579 20.468 20.0579 19.94C20.0579 19.444 20.1819 19.012 20.4299 18.644C20.6779 18.276 21.0259 17.996 21.4739 17.804C21.9219 17.604 22.4339 17.504 23.0099 17.504C23.8739 17.504 24.5739 17.716 25.1099 18.14C25.6539 18.556 25.9539 19.14 26.0099 19.892H24.1619C24.1459 19.604 24.0219 19.368 23.7899 19.184C23.5659 18.992 23.2659 18.896 22.8899 18.896C22.5619 18.896 22.2979 18.98 22.0979 19.148C21.9059 19.316 21.8099 19.56 21.8099 19.88C21.8099 20.104 21.8819 20.292 22.0259 20.444C22.1779 20.588 22.3619 20.708 22.5779 20.804C22.8019 20.892 23.1139 20.996 23.5139 21.116C24.0579 21.276 24.5019 21.436 24.8459 21.596C25.1899 21.756 25.4859 21.996 25.7339 22.316C25.9819 22.636 26.1059 23.056 26.1059 23.576C26.1059 24.024 25.9899 24.44 25.7579 24.824C25.5259 25.208 25.1859 25.516 24.7379 25.748C24.2899 25.972 23.7579 26.084 23.1419 26.084Z" fill="#484848"/>
<defs>
<filter id="filter0_i_805_25330" x="0" y="3.69922" width="39" height="31.5996" filterUnits="userSpaceOnUse" color-interpolation-filters="sRGB">
<feFlood flood-opacity="0" result="BackgroundImageFix"/>
<feBlend mode="normal" in="SourceGraphic" in2="BackgroundImageFix" result="shape"/>
<feColorMatrix in="SourceAlpha" type="matrix" values="0 0 0 0 0 0 0 0 0 0 0 0 0 0 0 0 0 0 127 0" result="hardAlpha"/>
<feOffset dx="2" dy="2"/>
<feGaussianBlur stdDeviation="1.5"/>
<feComposite in2="hardAlpha" operator="arithmetic" k2="-1" k3="1"/>
<feColorMatrix type="matrix" values="0 0 0 0 0.491667 0 0 0 0 0.491667 0 0 0 0 0.491667 0 0 0 0.81 0"/>
<feBlend mode="normal" in2="shape" result="effect1_innerShadow_805_25330"/>
</filter>
<filter id="filter1_f_805_25330" x="27" y="29" width="3.50146" height="4.5" filterUnits="userSpaceOnUse" color-interpolation-filters="sRGB">
<feFlood flood-opacity="0" result="BackgroundImageFix"/>
<feBlend mode="normal" in="SourceGraphic" in2="BackgroundImageFix" result="shape"/>
<feGaussianBlur stdDeviation="0.5" result="effect1_foregroundBlur_805_25330"/>
</filter>
<filter id="filter2_f_805_25330" x="23" y="29" width="3.50146" height="4.5" filterUnits="userSpaceOnUse" color-interpolation-filters="sRGB">
<feFlood flood-opacity="0" result="BackgroundImageFix"/>
<feBlend mode="normal" in="SourceGraphic" in2="BackgroundImageFix" result="shape"/>
<feGaussianBlur stdDeviation="0.5" result="effect1_foregroundBlur_805_25330"/>
</filter>
<filter id="filter3_f_805_25330" x="19" y="29" width="3.50146" height="4.5" filterUnits="userSpaceOnUse" color-interpolation-filters="sRGB">
<feFlood flood-opacity="0" result="BackgroundImageFix"/>
<feBlend mode="normal" in="SourceGraphic" in2="BackgroundImageFix" result="shape"/>
<feGaussianBlur stdDeviation="0.5" result="effect1_foregroundBlur_805_25330"/>
</filter>
<filter id="filter4_f_805_25330" x="15" y="29" width="3.50146" height="4.5" filterUnits="userSpaceOnUse" color-interpolation-filters="sRGB">
<feFlood flood-opacity="0" result="BackgroundImageFix"/>
<feBlend mode="normal" in="SourceGraphic" in2="BackgroundImageFix" result="shape"/>
<feGaussianBlur stdDeviation="0.5" result="effect1_foregroundBlur_805_25330"/>
</filter>
<filter id="filter5_f_805_25330" x="11" y="29" width="3.50146" height="4.5" filterUnits="userSpaceOnUse" color-interpolation-filters="sRGB">
<feFlood flood-opacity="0" result="BackgroundImageFix"/>
<feBlend mode="normal" in="SourceGraphic" in2="BackgroundImageFix" result="shape"/>
<feGaussianBlur stdDeviation="0.5" result="effect1_foregroundBlur_805_25330"/>
</filter>
<filter id="filter6_f_805_25330" x="7" y="29" width="3.50146" height="4.5" filterUnits="userSpaceOnUse" color-interpolation-filters="sRGB">
<feFlood flood-opacity="0" result="BackgroundImageFix"/>
<feBlend mode="normal" in="SourceGraphic" in2="BackgroundImageFix" result="shape"/>
<feGaussianBlur stdDeviation="0.5" result="effect1_foregroundBlur_805_25330"/>
</filter>
<filter id="filter7_i_805_25330" x="7.5" y="30.5" width="2.01" height="2.01" filterUnits="userSpaceOnUse" color-interpolation-filters="sRGB">
<feFlood flood-opacity="0" result="BackgroundImageFix"/>
<feBlend mode="normal" in="SourceGraphic" in2="BackgroundImageFix" result="shape"/>
<feColorMatrix in="SourceAlpha" type="matrix" values="0 0 0 0 0 0 0 0 0 0 0 0 0 0 0 0 0 0 127 0" result="hardAlpha"/>
<feOffset dx="0.01" dy="0.01"/>
<feGaussianBlur stdDeviation="0.05"/>
<feComposite in2="hardAlpha" operator="arithmetic" k2="-1" k3="1"/>
<feColorMatrix type="matrix" values="0 0 0 0 1 0 0 0 0 0.852155 0 0 0 0 0.5625 0 0 0 1 0"/>
<feBlend mode="normal" in2="shape" result="effect1_innerShadow_805_25330"/>
</filter>
<filter id="filter8_i_805_25330" x="11.5" y="30.5" width="2.01" height="2.01" filterUnits="userSpaceOnUse" color-interpolation-filters="sRGB">
<feFlood flood-opacity="0" result="BackgroundImageFix"/>
<feBlend mode="normal" in="SourceGraphic" in2="BackgroundImageFix" result="shape"/>
<feColorMatrix in="SourceAlpha" type="matrix" values="0 0 0 0 0 0 0 0 0 0 0 0 0 0 0 0 0 0 127 0" result="hardAlpha"/>
<feOffset dx="0.01" dy="0.01"/>
<feGaussianBlur stdDeviation="0.05"/>
<feComposite in2="hardAlpha" operator="arithmetic" k2="-1" k3="1"/>
<feColorMatrix type="matrix" values="0 0 0 0 1 0 0 0 0 0.852155 0 0 0 0 0.5625 0 0 0 1 0"/>
<feBlend mode="normal" in2="shape" result="effect1_innerShadow_805_25330"/>
</filter>
<filter id="filter9_i_805_25330" x="15.5" y="30.5" width="2.01" height="2.01" filterUnits="userSpaceOnUse" color-interpolation-filters="sRGB">
<feFlood flood-opacity="0" result="BackgroundImageFix"/>
<feBlend mode="normal" in="SourceGraphic" in2="BackgroundImageFix" result="shape"/>
<feColorMatrix in="SourceAlpha" type="matrix" values="0 0 0 0 0 0 0 0 0 0 0 0 0 0 0 0 0 0 127 0" result="hardAlpha"/>
<feOffset dx="0.01" dy="0.01"/>
<feGaussianBlur stdDeviation="0.05"/>
<feComposite in2="hardAlpha" operator="arithmetic" k2="-1" k3="1"/>
<feColorMatrix type="matrix" values="0 0 0 0 1 0 0 0 0 0.852155 0 0 0 0 0.5625 0 0 0 1 0"/>
<feBlend mode="normal" in2="shape" result="effect1_innerShadow_805_25330"/>
</filter>
<filter id="filter10_i_805_25330" x="19.5" y="30.5" width="2.01" height="2.01" filterUnits="userSpaceOnUse" color-interpolation-filters="sRGB">
<feFlood flood-opacity="0" result="BackgroundImageFix"/>
<feBlend mode="normal" in="SourceGraphic" in2="BackgroundImageFix" result="shape"/>
<feColorMatrix in="SourceAlpha" type="matrix" values="0 0 0 0 0 0 0 0 0 0 0 0 0 0 0 0 0 0 127 0" result="hardAlpha"/>
<feOffset dx="0.01" dy="0.01"/>
<feGaussianBlur stdDeviation="0.05"/>
<feComposite in2="hardAlpha" operator="arithmetic" k2="-1" k3="1"/>
<feColorMatrix type="matrix" values="0 0 0 0 1 0 0 0 0 0.852155 0 0 0 0 0.5625 0 0 0 1 0"/>
<feBlend mode="normal" in2="shape" result="effect1_innerShadow_805_25330"/>
</filter>
<filter id="filter11_i_805_25330" x="23.5" y="30.5" width="2.01" height="2.01" filterUnits="userSpaceOnUse" color-interpolation-filters="sRGB">
<feFlood flood-opacity="0" result="BackgroundImageFix"/>
<feBlend mode="normal" in="SourceGraphic" in2="BackgroundImageFix" result="shape"/>
<feColorMatrix in="SourceAlpha" type="matrix" values="0 0 0 0 0 0 0 0 0 0 0 0 0 0 0 0 0 0 127 0" result="hardAlpha"/>
<feOffset dx="0.01" dy="0.01"/>
<feGaussianBlur stdDeviation="0.05"/>
<feComposite in2="hardAlpha" operator="arithmetic" k2="-1" k3="1"/>
<feColorMatrix type="matrix" values="0 0 0 0 1 0 0 0 0 0.852155 0 0 0 0 0.5625 0 0 0 1 0"/>
<feBlend mode="normal" in2="shape" result="effect1_innerShadow_805_25330"/>
</filter>
<filter id="filter12_i_805_25330" x="27.5" y="30.5" width="2.01" height="2.01" filterUnits="userSpaceOnUse" color-interpolation-filters="sRGB">
<feFlood flood-opacity="0" result="BackgroundImageFix"/>
<feBlend mode="normal" in="SourceGraphic" in2="BackgroundImageFix" result="shape"/>
<feColorMatrix in="SourceAlpha" type="matrix" values="0 0 0 0 0 0 0 0 0 0 0 0 0 0 0 0 0 0 127 0" result="hardAlpha"/>
<feOffset dx="0.01" dy="0.01"/>
<feGaussianBlur stdDeviation="0.05"/>
<feComposite in2="hardAlpha" operator="arithmetic" k2="-1" k3="1"/>
<feColorMatrix type="matrix" values="0 0 0 0 1 0 0 0 0 0.852155 0 0 0 0 0.5625 0 0 0 1 0"/>
<feBlend mode="normal" in2="shape" result="effect1_innerShadow_805_25330"/>
</filter>
<filter id="filter13_f_805_25330" x="16" y="3.5" width="3.50146" height="4.5" filterUnits="userSpaceOnUse" color-interpolation-filters="sRGB">
<feFlood flood-opacity="0" result="BackgroundImageFix"/>
<feBlend mode="normal" in="SourceGraphic" in2="BackgroundImageFix" result="shape"/>
<feGaussianBlur stdDeviation="0.5" result="effect1_foregroundBlur_805_25330"/>
</filter>
<filter id="filter14_f_805_25330" x="32" y="11" width="3.50146" height="4.5" filterUnits="userSpaceOnUse" color-interpolation-filters="sRGB">
<feFlood flood-opacity="0" result="BackgroundImageFix"/>
<feBlend mode="normal" in="SourceGraphic" in2="BackgroundImageFix" result="shape"/>
<feGaussianBlur stdDeviation="0.5" result="effect1_foregroundBlur_805_25330"/>
</filter>
<filter id="filter15_f_805_25330" x="0" y="11.5" width="3.50146" height="4.5" filterUnits="userSpaceOnUse" color-interpolation-filters="sRGB">
<feFlood flood-opacity="0" result="BackgroundImageFix"/>
<feBlend mode="normal" in="SourceGraphic" in2="BackgroundImageFix" result="shape"/>
<feGaussianBlur stdDeviation="0.5" result="effect1_foregroundBlur_805_25330"/>
</filter>
<linearGradient id="paint0_linear_805_25330" x1="38.5" y1="9.49902" x2="5.5" y2="26.499" gradientUnits="userSpaceOnUse">
<stop stop-color="#9A9A9A"/>
<stop offset="0.348958" stop-color="#C1C1C1"/>
<stop offset="0.65625" stop-color="#C6C6C6"/>
<stop offset="1" stop-color="white"/>
</linearGradient>
<linearGradient id="paint1_linear_805_25330" x1="38.5" y1="64.999" x2="13" y2="-33.001" gradientUnits="userSpaceOnUse">
<stop stop-color="#D7D7D7"/>
<stop offset="0.166667" stop-color="white"/>
<stop offset="0.322817" stop-color="#DFDFDF"/>
<stop offset="0.489583" stop-color="#939393"/>
<stop offset="0.671875" stop-color="#959595"/>
<stop offset="0.84375" stop-color="#E3E3E3"/>
<stop offset="1" stop-color="#ECECEC"/>
</linearGradient>
</defs>
</svg>
