<svg width="12" height="12" viewBox="0 0 12 12" fill="none" xmlns="http://www.w3.org/2000/svg">
<path d="M0.750488 1.33333C0.750488 1.16806 0.806392 1.02951 0.918198 0.917708C1.03 0.805902 1.16854 0.75 1.33382 0.75L4.83382 0.75C4.9991 0.75 5.13764 0.805903 5.24945 0.917708C5.36125 1.02951 5.41716 1.16806 5.41716 1.33333C5.41716 1.49861 5.36125 1.63715 5.24945 1.74896C5.13764 1.86076 4.9991 1.91667 4.83382 1.91667L2.73382 1.91667L10.0838 9.26667L10.0838 7.16667C10.0838 7.00139 10.1397 6.86285 10.2515 6.75104C10.3633 6.63924 10.5019 6.58333 10.6672 6.58333C10.8324 6.58333 10.971 6.63924 11.0828 6.75104C11.1946 6.86285 11.2505 7.00139 11.2505 7.16667L11.2505 10.6667C11.2505 10.8319 11.1946 10.9705 11.0828 11.0823C10.971 11.1941 10.8324 11.25 10.6672 11.25L7.16715 11.25C7.00188 11.25 6.86334 11.1941 6.75153 11.0823C6.63972 10.9705 6.58382 10.8319 6.58382 10.6667C6.58382 10.5014 6.63972 10.3628 6.75153 10.251C6.86334 10.1392 7.00188 10.0833 7.16715 10.0833L9.26715 10.0833L1.91716 2.73333L1.91716 4.83333C1.91716 4.99861 1.86125 5.13715 1.74945 5.24896C1.63764 5.36076 1.4991 5.41667 1.33382 5.41667C1.16854 5.41667 1.03 5.36076 0.918197 5.24896C0.806392 5.13715 0.750488 4.99861 0.750488 4.83333L0.750488 1.33333Z" fill="#999999"/>
</svg>
