<svg width="24" height="24" viewBox="0 0 24 24" fill="none" xmlns="http://www.w3.org/2000/svg">
<mask id="mask0_7178_37521" style="mask-type:alpha" maskUnits="userSpaceOnUse" x="0" y="0" width="24" height="24">
<rect width="24" height="24" fill="#D9D9D9"/>
</mask>
<g mask="url(#mask0_7178_37521)">
<path d="M1.50004 16.1995L5.27504 10.1495C5.45837 9.86619 5.71254 9.71202 6.03754 9.68702C6.36254 9.66202 6.6417 9.77452 6.87504 10.0245L9.00004 12.4995L12.175 7.32452C12.3584 7.00785 12.6375 6.84952 13.0125 6.84952C13.3875 6.84952 13.675 6.99952 13.875 7.29952L15.725 10.0745C15.3417 10.0912 14.9792 10.137 14.6375 10.212C14.2959 10.287 13.9584 10.3912 13.625 10.5245L13.075 9.69952L10 14.6995C9.8167 14.9829 9.55837 15.1412 9.22504 15.1745C8.8917 15.2079 8.60837 15.0912 8.37504 14.8245L6.25004 12.3495L3.20004 17.2745C3.05004 17.5245 2.8292 17.6787 2.53754 17.737C2.24587 17.7954 1.98337 17.7329 1.75004 17.5495C1.53337 17.3995 1.4042 17.1954 1.36254 16.937C1.32087 16.6787 1.3667 16.4329 1.50004 16.1995ZM21.575 22.9995L18.45 19.8745C18.1167 20.1079 17.7459 20.2829 17.3375 20.3995C16.9292 20.5162 16.5084 20.5745 16.075 20.5745C14.825 20.5745 13.7625 20.137 12.8875 19.262C12.0125 18.387 11.575 17.3245 11.575 16.0745C11.575 14.8245 12.0125 13.762 12.8875 12.887C13.7625 12.012 14.825 11.5745 16.075 11.5745C17.325 11.5745 18.3875 12.012 19.2625 12.887C20.1375 13.762 20.575 14.8245 20.575 16.0745C20.575 16.5079 20.5167 16.9287 20.4 17.337C20.2834 17.7454 20.1084 18.1245 19.875 18.4745L23 21.5745L21.575 22.9995ZM16.075 18.5745C16.775 18.5745 17.3667 18.3329 17.85 17.8495C18.3334 17.3662 18.575 16.7745 18.575 16.0745C18.575 15.3745 18.3334 14.7829 17.85 14.2995C17.3667 13.8162 16.775 13.5745 16.075 13.5745C15.375 13.5745 14.7834 13.8162 14.3 14.2995C13.8167 14.7829 13.575 15.3745 13.575 16.0745C13.575 16.7745 13.8167 17.3662 14.3 17.8495C14.7834 18.3329 15.375 18.5745 16.075 18.5745ZM18.3 10.5745C17.9834 10.4412 17.6542 10.3329 17.3125 10.2495C16.9709 10.1662 16.6167 10.1162 16.25 10.0995L20.8 2.89952C20.95 2.66618 21.1667 2.51618 21.45 2.44952C21.7334 2.38285 21.9917 2.44118 22.225 2.62452C22.4417 2.77452 22.575 2.97868 22.625 3.23702C22.675 3.49535 22.6334 3.74118 22.5 3.97452L18.3 10.5745Z" fill="#4399EB"/>
</g>
</svg>
