<svg width="40" height="40" viewBox="0 0 40 40" fill="none" xmlns="http://www.w3.org/2000/svg">
<mask id="mask0_7101_32596" style="mask-type:alpha" maskUnits="userSpaceOnUse" x="4" y="4" width="32" height="32">
<rect x="4" y="4" width="32" height="32" fill="#fff"/>
</mask>
<g mask="url(#mask0_7101_32596)">
<path d="M20.0007 14.6663C18.534 14.6663 17.2784 15.1886 16.234 16.233C15.1895 17.2775 14.6673 18.533 14.6673 19.9997C14.6673 21.0595 14.9515 22.0266 15.52 22.901C16.0882 23.7755 16.8553 24.4289 17.8213 24.8613C18.0829 24.9878 18.2709 25.1805 18.3853 25.4393C18.4998 25.6985 18.5007 25.9587 18.388 26.22C18.2751 26.4542 18.1037 26.632 17.8737 26.7533C17.6439 26.8749 17.4119 26.8792 17.1777 26.7663C15.8119 26.1937 14.7187 25.2946 13.898 24.069C13.0775 22.8432 12.6673 21.4868 12.6673 19.9997C12.6673 17.9655 13.381 16.2347 14.8083 14.8073C16.2357 13.38 17.9664 12.6663 20.0007 12.6663C21.4929 12.6663 22.8574 13.0766 24.0943 13.897C25.331 14.7177 26.2288 15.8203 26.7877 17.205C26.887 17.439 26.8772 17.6731 26.7583 17.9073C26.6394 18.1416 26.463 18.3082 26.229 18.4073C25.9588 18.5202 25.6929 18.516 25.4313 18.3947C25.1698 18.2733 24.9758 18.0776 24.8493 17.8073C24.4169 16.8416 23.7634 16.0766 22.889 15.5123C22.0148 14.9483 21.052 14.6663 20.0007 14.6663ZM20.0007 9.33301C17.0229 9.33301 14.5007 10.3663 12.434 12.433C10.3673 14.4997 9.33398 17.0219 9.33398 19.9997C9.33398 22.8852 10.2947 25.3366 12.216 27.3537C14.1373 29.3708 16.5254 30.4613 19.3803 30.6253C19.6639 30.6527 19.9082 30.7723 20.1133 30.9843C20.3187 31.1963 20.4144 31.4442 20.4007 31.728C20.3869 32.0116 20.2843 32.2478 20.093 32.4367C19.9014 32.6256 19.6639 32.7132 19.3803 32.6997C17.681 32.6312 16.1005 32.2406 14.639 31.5277C13.1777 30.815 11.9029 29.8809 10.8147 28.7253C9.72665 27.5698 8.87454 26.2407 8.25832 24.738C7.6421 23.2356 7.33398 21.6561 7.33398 19.9997C7.33398 18.2492 7.66687 16.6036 8.33265 15.0627C8.99843 13.5216 9.90143 12.1809 11.0417 11.0407C12.1819 9.90045 13.5225 8.99745 15.0637 8.33168C16.6045 7.6659 18.2502 7.33301 20.0007 7.33301C23.3271 7.33301 26.2357 8.48556 28.7263 10.7907C31.2168 13.0958 32.5415 15.9543 32.7007 19.3663C32.728 19.6363 32.6459 19.8692 32.4543 20.065C32.263 20.2608 32.0254 20.3655 31.7417 20.379C31.4579 20.3928 31.2044 20.2983 30.9813 20.0957C30.7582 19.8932 30.633 19.6501 30.6057 19.3663C30.4005 16.6312 29.2822 14.2752 27.2507 12.2983C25.2191 10.3215 22.8024 9.33301 20.0007 9.33301ZM29.8623 31.8457L24.8083 26.7997L23.962 29.3713C23.8595 29.6569 23.6655 29.7962 23.38 29.7893C23.0947 29.7825 22.905 29.6362 22.811 29.3507L20.329 21.0843C20.2572 20.857 20.3084 20.6561 20.4827 20.4817C20.6571 20.3075 20.858 20.2562 21.0853 20.328L29.3517 22.81C29.6372 22.904 29.7834 23.0937 29.7903 23.379C29.7972 23.6646 29.6579 23.8586 29.3723 23.961L26.8007 24.8073L31.8673 29.8613C32.1511 30.1449 32.293 30.4756 32.293 30.8533C32.293 31.2311 32.1511 31.5619 31.8673 31.8457C31.5835 32.1295 31.2493 32.2713 30.8647 32.2713C30.48 32.2713 30.1459 32.1295 29.8623 31.8457Z" fill="#fff"/>
</g>
</svg>
