<svg width="24" height="25" viewBox="0 0 24 25" fill="none" xmlns="http://www.w3.org/2000/svg"><mask id="a" style="mask-type:alpha" maskUnits="userSpaceOnUse" x="0" y="0" width="24" height="25"><path fill="#fff" d="M0 .5h24v24H0z"/></mask><g mask="url(#a)"><path d="M7 22.5q-.824 0-1.412-.587A1.93 1.93 0 0 1 5 20.5q0-.824.588-1.413A1.93 1.93 0 0 1 7 18.5q.824 0 1.412.587Q9 19.676 9 20.5t-.588 1.413A1.93 1.93 0 0 1 7 22.5m10 0q-.825 0-1.412-.587A1.93 1.93 0 0 1 15 20.5q0-.824.588-1.413A1.93 1.93 0 0 1 17 18.5q.824 0 1.413.587.587.588.587 1.413 0 .824-.587 1.413A1.93 1.93 0 0 1 17 22.5M6.15 6.5l2.4 5h7l2.75-5zm-.95-2h14.75q.575 0 .875.513.3.512.025 1.037l-3.55 6.4q-.275.5-.738.775a1.95 1.95 0 0 1-1.012.275H8.1l-1.1 2h11q.424 0 .712.287.288.288.288.713 0 .424-.288.712A.97.97 0 0 1 18 17.5H7q-1.125 0-1.7-.988-.575-.987-.05-1.962L6.6 12.1 3 4.5H2a.97.97 0 0 1-.712-.287A.97.97 0 0 1 1 3.5q0-.424.288-.712A.97.97 0 0 1 2 2.5h1.625q.274 0 .525.15.25.15.375.425z" fill="#fff"/></g></svg>