<svg width="30" height="30" viewBox="0 0 30 30" fill="none" xmlns="http://www.w3.org/2000/svg">
<g clip-path="url(#clip0_16586_84675)">
<circle cx="15" cy="15" r="15" fill="#FFEAEA"/>
<path fill-rule="evenodd" clip-rule="evenodd" d="M15 0.612245C7.05386 0.612245 0.612245 7.05386 0.612245 15C0.612245 22.9461 7.05386 29.3878 15 29.3878C22.9461 29.3878 29.3878 22.9461 29.3878 15C29.3878 7.05386 22.9461 0.612245 15 0.612245ZM0 15C0 6.71573 6.71573 0 15 0C23.2843 0 30 6.71573 30 15C30 23.2843 23.2843 30 15 30C6.71573 30 0 23.2843 0 15Z" fill="#D80000"/>
<path fill-rule="evenodd" clip-rule="evenodd" d="M11.4145 19.6469C12.5048 19.0593 13.7413 18.75 15 18.75C16.2587 18.75 17.4953 19.0594 18.5856 19.647C19.6758 20.2346 20.5814 21.0799 21.2114 22.0979C21.2907 22.226 21.2438 22.3899 21.1067 22.464C20.9695 22.538 20.7941 22.4942 20.7148 22.3661C20.1351 21.4295 19.302 20.6519 18.2989 20.1112C17.2958 19.5706 16.1581 19.2859 15 19.2859C13.842 19.2859 12.7043 19.5705 11.7012 20.1112C10.6981 20.6518 9.86487 21.4294 9.28521 22.366C9.20591 22.4941 9.03046 22.5379 8.89331 22.4639C8.75617 22.3898 8.70927 22.2259 8.78857 22.0978C9.4186 21.0798 10.3242 20.2346 11.4145 19.6469Z" fill="#D80000"/>
<path d="M10 13.75C10.6904 13.75 11.25 13.1904 11.25 12.5C11.25 11.8096 10.6904 11.25 10 11.25C9.30964 11.25 8.75 11.8096 8.75 12.5C8.75 13.1904 9.30964 13.75 10 13.75Z" fill="#D80000"/>
<path d="M20 13.75C20.6904 13.75 21.25 13.1904 21.25 12.5C21.25 11.8096 20.6904 11.25 20 11.25C19.3096 11.25 18.75 11.8096 18.75 12.5C18.75 13.1904 19.3096 13.75 20 13.75Z" fill="#D80000"/>
</g>
<defs>
<clipPath id="clip0_16586_84675">
<rect width="30" height="30" fill="white"/>
</clipPath>
</defs>
</svg>
