<svg width="30" height="30" viewBox="0 0 30 30" fill="none" xmlns="http://www.w3.org/2000/svg">
<g clip-path="url(#clip0_16586_84654)">
<circle cx="15" cy="15" r="15" fill="#FFF6E4"/>
<path fill-rule="evenodd" clip-rule="evenodd" d="M15 0.612245C7.05386 0.612245 0.612245 7.05386 0.612245 15C0.612245 22.9461 7.05386 29.3878 15 29.3878C22.9461 29.3878 29.3878 22.9461 29.3878 15C29.3878 7.05386 22.9461 0.612245 15 0.612245ZM0 15C0 6.71573 6.71573 0 15 0C23.2843 0 30 6.71573 30 15C30 23.2843 23.2843 30 15 30C6.71573 30 0 23.2843 0 15Z" fill="#FFC145"/>
<path d="M10 13.75C10.6904 13.75 11.25 13.1904 11.25 12.5C11.25 11.8096 10.6904 11.25 10 11.25C9.30964 11.25 8.75 11.8096 8.75 12.5C8.75 13.1904 9.30964 13.75 10 13.75Z" fill="#FFC145"/>
<path d="M20 13.75C20.6904 13.75 21.25 13.1904 21.25 12.5C21.25 11.8096 20.6904 11.25 20 11.25C19.3096 11.25 18.75 11.8096 18.75 12.5C18.75 13.1904 19.3096 13.75 20 13.75Z" fill="#FFC145"/>
<path fill-rule="evenodd" clip-rule="evenodd" d="M8.75 20.375C8.75 20.1679 8.88325 20 9.04762 20H20.9524C21.1168 20 21.25 20.1679 21.25 20.375C21.25 20.5821 21.1168 20.75 20.9524 20.75H9.04762C8.88325 20.75 8.75 20.5821 8.75 20.375Z" fill="#FFC145"/>
</g>
<defs>
<clipPath id="clip0_16586_84654">
<rect width="30" height="30" fill="white"/>
</clipPath>
</defs>
</svg>
