<svg width="10" height="10" viewBox="0 0 10 10" fill="none" xmlns="http://www.w3.org/2000/svg">
<path d="M1.4987 9.66732C1.17786 9.66732 0.903212 9.55308 0.67474 9.32461C0.446267 9.09614 0.332031 8.82148 0.332031 8.50065V3.25065H2.66536V8.50065C2.66536 8.82148 2.55113 9.09614 2.32266 9.32461C2.09418 9.55308 1.81953 9.66732 1.4987 9.66732ZM0.332031 2.66732V1.50065C0.332031 1.17982 0.446267 0.905165 0.67474 0.676693C0.903212 0.448221 1.17786 0.333984 1.4987 0.333984C1.81953 0.333984 2.09418 0.448221 2.32266 0.676693C2.55113 0.905165 2.66536 1.17982 2.66536 1.50065V2.66732H0.332031ZM4.9987 9.66732C4.67787 9.66732 4.40321 9.55308 4.17474 9.32461C3.94627 9.09614 3.83203 8.82148 3.83203 8.50065V5.00065H6.16537V8.50065C6.16537 8.82148 6.05113 9.09614 5.82266 9.32461C5.59418 9.55308 5.31953 9.66732 4.9987 9.66732ZM3.83203 4.41732V3.25065C3.83203 2.92982 3.94627 2.65517 4.17474 2.42669C4.40321 2.19822 4.67787 2.08398 4.9987 2.08398C5.31953 2.08398 5.59418 2.19822 5.82266 2.42669C6.05113 2.65517 6.16537 2.92982 6.16537 3.25065V4.41732H3.83203ZM8.4987 9.66732C8.17787 9.66732 7.90321 9.55308 7.67474 9.32461C7.44627 9.09614 7.33203 8.82148 7.33203 8.50065V6.75065H9.66537V8.50065C9.66537 8.82148 9.55113 9.09614 9.32266 9.32461C9.09418 9.55308 8.81953 9.66732 8.4987 9.66732ZM7.33203 6.16732V5.00065C7.33203 4.67982 7.44627 4.40517 7.67474 4.17669C7.90321 3.94822 8.17787 3.83398 8.4987 3.83398C8.81953 3.83398 9.09418 3.94822 9.32266 4.17669C9.55113 4.40517 9.66537 4.67982 9.66537 5.00065V6.16732H7.33203Z" fill="white"/>
</svg>
