<svg width="40" height="40" viewBox="0 0 40 40" fill="none" xmlns="http://www.w3.org/2000/svg">
<mask id="mask0_7395_33997" style="mask-type:alpha" maskUnits="userSpaceOnUse" x="4" y="4" width="32" height="32">
<rect x="4" y="4" width="32" height="32" fill="#D9D9D9"/>
</mask>
<g mask="url(#mask0_7395_33997)">
<path d="M11.8616 17.6665C11.518 17.5638 11.1953 17.4322 10.8936 17.2715C10.5918 17.1108 10.3059 16.9074 10.0359 16.6612L9.23591 16.9485C9.01524 17.0203 8.79813 17.0177 8.58457 16.9408C8.37079 16.8639 8.20324 16.7289 8.08191 16.5358L7.89224 16.2228C7.77091 16.0159 7.72602 15.7955 7.75757 15.5615C7.78935 15.3273 7.90179 15.1315 8.09491 14.9742L8.73857 14.4305C8.64279 14.0734 8.59491 13.7076 8.59491 13.3332C8.59491 12.9587 8.64279 12.5929 8.73857 12.2358L8.09491 11.6922C7.90179 11.5348 7.78935 11.3425 7.75757 11.1152C7.72602 10.8878 7.77091 10.6707 7.89224 10.4638L8.10257 10.1305C8.22391 9.93738 8.38802 9.80238 8.59491 9.72549C8.80157 9.6486 9.01524 9.64604 9.23591 9.71782L10.0359 10.0052C10.3059 9.75893 10.5918 9.55549 10.8936 9.39482C11.1953 9.23416 11.518 9.10249 11.8616 8.99982L11.9972 8.21282C12.0468 7.9786 12.1605 7.78627 12.3382 7.63582C12.516 7.48538 12.722 7.41016 12.9562 7.41016H13.3102C13.5445 7.41016 13.7505 7.48882 13.9282 7.64616C14.106 7.80327 14.2197 7.99893 14.2692 8.23316L14.4049 8.99982C14.7485 9.10249 15.0711 9.23416 15.3729 9.39482C15.6747 9.55549 15.9606 9.75893 16.2306 10.0052L17.0306 9.71782C17.2512 9.64604 17.4683 9.6486 17.6819 9.72549C17.8957 9.80238 18.0632 9.93738 18.1846 10.1305L18.3742 10.4435C18.4956 10.6504 18.5405 10.8708 18.5089 11.1048C18.4771 11.339 18.3647 11.5348 18.1716 11.6922L17.5279 12.2358C17.6237 12.5929 17.6716 12.9587 17.6716 13.3332C17.6716 13.7076 17.6237 14.0734 17.5279 14.4305L18.1716 14.9742C18.3647 15.1315 18.4771 15.3238 18.5089 15.5512C18.5405 15.7785 18.4956 15.9956 18.3742 16.2025L18.1639 16.5358C18.0426 16.7289 17.8785 16.8639 17.6716 16.9408C17.4649 17.0177 17.2512 17.0203 17.0306 16.9485L16.2306 16.6612C15.9606 16.9074 15.6747 17.1108 15.3729 17.2715C15.0711 17.4322 14.7485 17.5638 14.4049 17.6665L14.2692 18.4535C14.2197 18.6877 14.106 18.88 13.9282 19.0305C13.7505 19.1809 13.5445 19.2562 13.3102 19.2562H12.9562C12.722 19.2562 12.516 19.1775 12.3382 19.0202C12.1605 18.863 12.0468 18.6674 11.9972 18.4332L11.8616 17.6665ZM13.1332 16.1025C13.9008 16.1025 14.5542 15.8328 15.0936 15.2935C15.6329 14.7542 15.9026 14.1007 15.9026 13.3332C15.9026 12.5656 15.6329 11.9122 15.0936 11.3728C14.5542 10.8335 13.9008 10.5638 13.1332 10.5638C12.3657 10.5638 11.7122 10.8335 11.1729 11.3728C10.6336 11.9122 10.3639 12.5656 10.3639 13.3332C10.3639 14.1007 10.6336 14.7542 11.1729 15.2935C11.7122 15.8328 12.3657 16.1025 13.1332 16.1025ZM23.8512 31.2382C23.3623 31.139 22.9077 30.9673 22.4872 30.7228C22.0666 30.4784 21.6879 30.1742 21.3512 29.8102L20.3666 30.1458C20.0777 30.2449 19.7909 30.2458 19.5062 30.1485C19.2218 30.0509 18.9983 29.8646 18.8359 29.5895L18.5846 29.1612C18.4221 28.886 18.3636 28.5917 18.4089 28.2782C18.4542 27.9644 18.6008 27.7058 18.8486 27.5025L19.6436 26.8408C19.4965 26.3468 19.4229 25.8443 19.4229 25.3332C19.4229 24.822 19.4965 24.3195 19.6436 23.8255L18.8486 23.1435C18.6008 22.9399 18.4542 22.6848 18.4089 22.3782C18.3636 22.0713 18.4221 21.7803 18.5846 21.5052L18.8359 21.0768C18.9983 20.8017 19.2218 20.6154 19.5062 20.5178C19.7909 20.4205 20.0777 20.4214 20.3666 20.5205L21.3512 20.8562C21.6879 20.4922 22.0666 20.1879 22.4872 19.9435C22.9077 19.699 23.3623 19.5273 23.8512 19.4282L24.0616 18.3562C24.1247 18.0537 24.2725 17.8055 24.5049 17.6115C24.7376 17.4175 25.012 17.3205 25.3282 17.3205H25.8716C26.1878 17.3205 26.4622 17.4175 26.6949 17.6115C26.9273 17.8055 27.0751 18.0537 27.1382 18.3562L27.3486 19.4282C27.8375 19.5273 28.2921 19.699 28.7126 19.9435C29.1332 20.1879 29.5119 20.4922 29.8486 20.8562L30.8332 20.5205C31.1221 20.4214 31.4089 20.4205 31.6936 20.5178C31.978 20.6154 32.2015 20.8017 32.3639 21.0768L32.6152 21.5052C32.7777 21.7803 32.8362 22.0746 32.7909 22.3882C32.7456 22.7019 32.599 22.9605 32.3512 23.1638L31.5562 23.8255C31.7033 24.3195 31.7769 24.822 31.7769 25.3332C31.7769 25.8443 31.7033 26.3468 31.5562 26.8408L32.3512 27.5228C32.599 27.7264 32.7456 27.9815 32.7909 28.2882C32.8362 28.595 32.7777 28.886 32.6152 29.1612L32.3639 29.5895C32.2015 29.8646 31.978 30.0509 31.6936 30.1485C31.4089 30.2458 31.1221 30.2449 30.8332 30.1458L29.8486 29.8102C29.5119 30.1742 29.1332 30.4784 28.7126 30.7228C28.2921 30.9673 27.8375 31.139 27.3486 31.2382L27.1382 32.3102C27.0751 32.6126 26.9273 32.8608 26.6949 33.0548C26.4622 33.2488 26.1878 33.3458 25.8716 33.3458H25.3282C25.012 33.3458 24.7376 33.2488 24.5049 33.0548C24.2725 32.8608 24.1247 32.6126 24.0616 32.3102L23.8512 31.2382ZM25.5999 29.3332C26.711 29.3332 27.6555 28.9443 28.4332 28.1665C29.211 27.3887 29.5999 26.4443 29.5999 25.3332C29.5999 24.222 29.211 23.2776 28.4332 22.4998C27.6555 21.722 26.711 21.3332 25.5999 21.3332C24.4888 21.3332 23.5444 21.722 22.7666 22.4998C21.9888 23.2776 21.5999 24.222 21.5999 25.3332C21.5999 26.4443 21.9888 27.3887 22.7666 28.1665C23.5444 28.9443 24.4888 29.3332 25.5999 29.3332Z" fill="#333333"/>
</g>
</svg>
