<svg width="16" height="16" viewBox="0 0 16 16" fill="none" xmlns="http://www.w3.org/2000/svg">
<g id="Group 1616">
<path id="path2993" d="M6.01611 15.038C5.53801 15.038 5.62382 14.8187 5.4522 14.2776L4.05469 8.77904L12.734 2.31534L13.7515 2.63706L12.9056 5.38633L6.01611 15.038Z" fill="#C8DAEA"/>
<path id="path2989" d="M6.01562 15.0379C6.38339 15.0379 6.54276 14.8332 6.75116 14.5992C7.06989 14.2336 11.1644 9.4809 11.1644 9.4809L8.65128 8.74971L6.3221 10.5046L6.01562 14.8917V15.0379Z" fill="#A9C9DD"/>
<path id="path2991" d="M6.26105 10.5631L12.1943 15.7838C12.8686 16.2225 13.3589 16.0031 13.5306 15.038L15.9456 1.46712C16.1907 0.2826 15.5655 -0.243855 14.9158 0.107115L0.744555 6.62931C-0.223896 7.09727 -0.211637 7.74072 0.572931 8.01857L4.21382 9.37858L12.6357 3.04649C13.0279 2.75402 13.3957 2.91488 13.1015 3.2366L6.26105 10.5631Z" fill="url(#paint0_linear_1455_18791)"/>
</g>
<defs>
<linearGradient id="paint0_linear_1455_18791" x1="9.81502" y1="7.54403" x2="13.713" y2="12.7723" gradientUnits="userSpaceOnUse">
<stop stop-color="#EFF7FC"/>
<stop offset="1" stop-color="white"/>
</linearGradient>
</defs>
</svg>
