<svg width="32" height="32" viewBox="0 0 32 32" fill="none" xmlns="http://www.w3.org/2000/svg">
<mask id="mask0_8455_46884" style="mask-type:alpha" maskUnits="userSpaceOnUse" x="0" y="0" width="32" height="32">
<rect width="32" height="32" fill="#D9D9D9"/>
</mask>
<g mask="url(#mask0_8455_46884)">
<path d="M16 21.9958L11.7254 23.8258C11.0766 24.1025 10.4601 24.0496 9.87608 23.6668C9.29203 23.2841 9 22.7457 9 22.0517V8.94167C9 8.39908 9.18846 7.93982 9.56538 7.56389C9.94231 7.18796 10.4028 7 10.9468 7H21.0532C21.5972 7 22.0577 7.18796 22.4346 7.56389C22.8115 7.93982 23 8.39908 23 8.94167V22.0517C23 22.7457 22.708 23.2841 22.1239 23.6668C21.5399 24.0496 20.9234 24.1025 20.2746 23.8258L16 21.9958ZM16 20.2112L20.9186 22.3242C21.0291 22.3724 21.1344 22.3621 21.2344 22.2933C21.3345 22.2244 21.3846 22.1314 21.3846 22.0143V8.94167C21.3846 8.85897 21.3501 8.78325 21.281 8.71451C21.212 8.64558 21.1361 8.61113 21.0532 8.61113H10.9468C10.8639 8.61113 10.788 8.64558 10.719 8.71451C10.6499 8.78325 10.6154 8.85897 10.6154 8.94167V22.0143C10.6154 22.1314 10.6655 22.2244 10.7656 22.2933C10.8656 22.3621 10.9709 22.3724 11.0814 22.3242L16 20.2112Z" fill="#333333"/>
</g>
</svg>
