<svg width="14" height="14" viewBox="0 0 14 14" fill="none" xmlns="http://www.w3.org/2000/svg">
<mask id="mask0_13046_62777" style="mask-type:alpha" maskUnits="userSpaceOnUse" x="0" y="0" width="14" height="14">
<rect width="14" height="14" fill="#D9D9D9"/>
</mask>
<g mask="url(#mask0_13046_62777)">
<path d="M2.625 11.6673C2.38194 11.6673 2.17535 11.5822 2.00521 11.4121C1.83507 11.242 1.75 11.0354 1.75 10.7923V8.45898C1.75 8.21593 1.83507 8.00933 2.00521 7.83919C2.17535 7.66905 2.38194 7.58398 2.625 7.58398C2.86806 7.58398 3.07465 7.66905 3.24479 7.83919C3.41493 8.00933 3.5 8.21593 3.5 8.45898V10.7923C3.5 11.0354 3.41493 11.242 3.24479 11.4121C3.07465 11.5822 2.86806 11.6673 2.625 11.6673ZM4.95833 8.16732C4.71528 8.16732 4.50868 8.08225 4.33854 7.91211C4.1684 7.74197 4.08333 7.53537 4.08333 7.29232V6.70898C4.08333 6.46593 4.1684 6.25933 4.33854 6.08919C4.50868 5.91905 4.71528 5.83398 4.95833 5.83398C5.20139 5.83398 5.40799 5.91905 5.57812 6.08919C5.74826 6.25933 5.83333 6.46593 5.83333 6.70898V7.29232C5.83333 7.53537 5.74826 7.74197 5.57812 7.91211C5.40799 8.08225 5.20139 8.16732 4.95833 8.16732ZM6.70833 5.25065C6.46528 5.25065 6.25868 5.16558 6.08854 4.99544C5.9184 4.8253 5.83333 4.61871 5.83333 4.37565V3.79232C5.83333 3.54926 5.9184 3.34266 6.08854 3.17253C6.25868 3.00239 6.46528 2.91732 6.70833 2.91732C6.95139 2.91732 7.15799 3.00239 7.32812 3.17253C7.49826 3.34266 7.58333 3.54926 7.58333 3.79232V4.37565C7.58333 4.61871 7.49826 4.8253 7.32812 4.99544C7.15799 5.16558 6.95139 5.25065 6.70833 5.25065ZM9.04167 4.08398C8.79861 4.08398 8.59201 3.99892 8.42188 3.82878C8.25174 3.65864 8.16667 3.45204 8.16667 3.20898C8.16667 2.96593 8.25174 2.75933 8.42188 2.58919C8.59201 2.41905 8.79861 2.33398 9.04167 2.33398C9.28472 2.33398 9.49132 2.41905 9.66146 2.58919C9.8316 2.75933 9.91667 2.96593 9.91667 3.20898C9.91667 3.45204 9.8316 3.65864 9.66146 3.82878C9.49132 3.99892 9.28472 4.08398 9.04167 4.08398ZM11.375 11.6673C11.1319 11.6673 10.9253 11.5822 10.7552 11.4121C10.5851 11.242 10.5 11.0354 10.5 10.7923V3.20898C10.5 2.96593 10.5851 2.75933 10.7552 2.58919C10.9253 2.41905 11.1319 2.33398 11.375 2.33398C11.6181 2.33398 11.8247 2.41905 11.9948 2.58919C12.1649 2.75933 12.25 2.96593 12.25 3.20898V10.7923C12.25 11.0354 12.1649 11.242 11.9948 11.4121C11.8247 11.5822 11.6181 11.6673 11.375 11.6673Z" fill="white"/>
</g>
</svg>
