<svg width="40" height="40" viewBox="0 0 40 40" fill="none" xmlns="http://www.w3.org/2000/svg">
<mask id="mask0_7101_32595" style="mask-type:alpha" maskUnits="userSpaceOnUse" x="4" y="4" width="32" height="32">
<rect x="4" y="4" width="32" height="32" fill="#D9D9D9"/>
</mask>
<g mask="url(#mask0_7101_32595)">
<path d="M21.001 20.928V15.6663C21.001 15.3826 20.9052 15.145 20.7136 14.9537C20.5223 14.7621 20.2848 14.6663 20.001 14.6663C19.7172 14.6663 19.4796 14.7621 19.2883 14.9537C19.0968 15.145 19.001 15.3826 19.001 15.6663V21.2357C19.001 21.3963 19.0301 21.5493 19.0883 21.6947C19.1463 21.8398 19.2378 21.9748 19.3626 22.0997L23.2626 25.9997C23.4471 26.1843 23.6791 26.2788 23.9586 26.283C24.2382 26.2872 24.4745 26.1928 24.6676 25.9997C24.8608 25.8066 24.9573 25.5723 24.9573 25.297C24.9573 25.0219 24.8608 24.7878 24.6676 24.5947L21.001 20.928ZM20.001 32.6663C18.4283 32.6663 16.9549 32.3689 15.5806 31.774C14.2062 31.1791 13.0079 30.3706 11.9856 29.3483C10.9634 28.3261 10.1549 27.1278 9.55997 25.7533C8.96509 24.3791 8.66764 22.9057 8.66764 21.333C8.66764 19.7603 8.96509 18.2869 9.55997 16.9127C10.1549 15.5382 10.9634 14.3399 11.9856 13.3177C13.0079 12.2954 14.2062 11.4869 15.5806 10.892C16.9549 10.2971 18.4283 9.99967 20.001 9.99967C21.5736 9.99967 23.0471 10.2971 24.4213 10.892C25.7958 11.4869 26.9941 12.2954 28.0163 13.3177C29.0385 14.3399 29.8471 15.5382 30.442 16.9127C31.0369 18.2869 31.3343 19.7603 31.3343 21.333C31.3343 22.9057 31.0369 24.3791 30.442 25.7533C29.8471 27.1278 29.0385 28.3261 28.0163 29.3483C26.9941 30.3706 25.7958 31.1791 24.4213 31.774C23.0471 32.3689 21.5736 32.6663 20.001 32.6663ZM7.22164 13.7073C7.02831 13.5142 6.93164 13.28 6.93164 13.0047C6.93164 12.7296 7.02831 12.4955 7.22164 12.3023L10.9703 8.55367C11.155 8.36901 11.387 8.27456 11.6663 8.27034C11.9459 8.26589 12.1822 8.36034 12.3753 8.55367C12.5684 8.74678 12.665 8.98089 12.665 9.25601C12.665 9.53134 12.5684 9.76556 12.3753 9.95867L8.62664 13.7073C8.44197 13.892 8.20997 13.9864 7.93064 13.9907C7.65109 13.9949 7.41475 13.9004 7.22164 13.7073ZM32.7803 13.7073C32.5872 13.9004 32.3531 13.997 32.078 13.997C31.8026 13.997 31.5684 13.9004 31.3753 13.7073L27.6266 9.95867C27.442 9.77401 27.3475 9.54201 27.3433 9.26267C27.3391 8.98312 27.4335 8.74678 27.6266 8.55367C27.8198 8.36034 28.054 8.26367 28.3293 8.26367C28.6044 8.26367 28.8385 8.36034 29.0316 8.55367L32.7803 12.3023C32.965 12.487 33.0594 12.719 33.0636 12.9983C33.0681 13.2779 32.9736 13.5142 32.7803 13.7073ZM20.001 30.6663C22.5925 30.6663 24.796 29.7587 26.6113 27.9433C28.4266 26.128 29.3343 23.9246 29.3343 21.333C29.3343 18.7415 28.4266 16.538 26.6113 14.7227C24.796 12.9073 22.5925 11.9997 20.001 11.9997C17.4094 11.9997 15.206 12.9073 13.3906 14.7227C11.5753 16.538 10.6676 18.7415 10.6676 21.333C10.6676 23.9246 11.5753 26.128 13.3906 27.9433C15.206 29.7587 17.4094 30.6663 20.001 30.6663Z" fill="#333333"/>
</g>
</svg>
