<svg width="25" height="25" viewBox="0 0 25 25" fill="none" xmlns="http://www.w3.org/2000/svg">
<mask id="mask0_13126_61564" style="mask-type:alpha" maskUnits="userSpaceOnUse" x="0" y="0" width="25" height="25">
<rect x="0.675781" y="0.0839844" width="24" height="24" fill="#D9D9D9"/>
</mask>
<g mask="url(#mask0_13126_61564)">
<path d="M13.2766 12.0838L9.37656 8.18379C9.19323 8.00046 9.10156 7.76712 9.10156 7.48379C9.10156 7.20046 9.19323 6.96712 9.37656 6.78379C9.5599 6.60046 9.79323 6.50879 10.0766 6.50879C10.3599 6.50879 10.5932 6.60046 10.7766 6.78379L15.3766 11.3838C15.4766 11.4838 15.5474 11.5921 15.5891 11.7088C15.6307 11.8255 15.6516 11.9505 15.6516 12.0838C15.6516 12.2171 15.6307 12.3421 15.5891 12.4588C15.5474 12.5755 15.4766 12.6838 15.3766 12.7838L10.7766 17.3838C10.5932 17.5671 10.3599 17.6588 10.0766 17.6588C9.79323 17.6588 9.5599 17.5671 9.37656 17.3838C9.19323 17.2005 9.10156 16.9671 9.10156 16.6838C9.10156 16.4005 9.19323 16.1671 9.37656 15.9838L13.2766 12.0838Z" fill="white"/>
</g>
</svg>
