<svg width="24" height="24" viewBox="0 0 24 24" fill="none" xmlns="http://www.w3.org/2000/svg">
<mask id="mask0_13126_61561" style="mask-type:alpha" maskUnits="userSpaceOnUse" x="0" y="0" width="24" height="24">
<rect x="24" y="24" width="24" height="24" transform="rotate(-180 24 24)" fill="#D9D9D9"/>
</mask>
<g mask="url(#mask0_13126_61561)">
<path d="M11.3992 12.0002L15.2992 15.9002C15.4826 16.0835 15.5742 16.3169 15.5742 16.6002C15.5742 16.8835 15.4826 17.1169 15.2992 17.3002C15.1159 17.4835 14.8826 17.5752 14.5992 17.5752C14.3159 17.5752 14.0826 17.4835 13.8992 17.3002L9.29922 12.7002C9.19922 12.6002 9.12839 12.4919 9.08672 12.3752C9.04505 12.2585 9.02422 12.1335 9.02422 12.0002C9.02422 11.8669 9.04505 11.7419 9.08672 11.6252C9.12839 11.5085 9.19922 11.4002 9.29922 11.3002L13.8992 6.7002C14.0826 6.51686 14.3159 6.42519 14.5992 6.42519C14.8826 6.42519 15.1159 6.51686 15.2992 6.7002C15.4826 6.88353 15.5742 7.11686 15.5742 7.4002C15.5742 7.68353 15.4826 7.91686 15.2992 8.10019L11.3992 12.0002Z" fill="#333333"/>
</g>
</svg>
