<svg width="14" height="14" viewBox="0 0 14 14" fill="none" xmlns="http://www.w3.org/2000/svg">
<mask id="mask0_13046_62789" style="mask-type:alpha" maskUnits="userSpaceOnUse" x="0" y="0" width="14" height="14">
<rect width="14" height="14" fill="#D9D9D9"/>
</mask>
<g mask="url(#mask0_13046_62789)">
<path d="M2.96042 7.00065H4.66667C4.77361 7.00065 4.87569 7.02739 4.97292 7.08086C5.07014 7.13433 5.14306 7.21454 5.19167 7.32148L5.83333 8.60482L7.64167 4.98815C7.74861 4.76454 7.92361 4.65273 8.16667 4.65273C8.40972 4.65273 8.58472 4.76454 8.69167 4.98815L9.69792 7.00065H11.0396C10.8938 6.00898 10.4417 5.17773 9.68333 4.5069C8.925 3.83607 8.03056 3.50065 7 3.50065C5.96944 3.50065 5.075 3.83607 4.31667 4.5069C3.55833 5.17773 3.10625 6.00898 2.96042 7.00065ZM7 11.6673C8.03056 11.6673 8.925 11.3319 9.68333 10.6611C10.4417 9.99023 10.8938 9.15898 11.0396 8.16732H9.33333C9.22639 8.16732 9.12431 8.14058 9.02708 8.08711C8.92986 8.03364 8.85694 7.95343 8.80833 7.84648L8.16667 6.56315L6.35833 10.1798C6.25139 10.4034 6.07639 10.5152 5.83333 10.5152C5.59028 10.5152 5.41528 10.4034 5.30833 10.1798L4.30208 8.16732H2.96042C3.10625 9.15898 3.55833 9.99023 4.31667 10.6611C5.075 11.3319 5.96944 11.6673 7 11.6673ZM7 12.834C6.28056 12.834 5.60243 12.6954 4.96563 12.4184C4.32882 12.1413 3.77222 11.7645 3.29583 11.2882C2.81944 10.8118 2.44271 10.2552 2.16563 9.61836C1.88854 8.98155 1.75 8.30343 1.75 7.58398H2.91667C2.91667 8.71176 3.31528 9.67426 4.1125 10.4715C4.90972 11.2687 5.87222 11.6673 7 11.6673C8.12778 11.6673 9.09028 11.2687 9.8875 10.4715C10.6847 9.67426 11.0833 8.71176 11.0833 7.58398H12.25C12.25 8.30343 12.1115 8.98155 11.8344 9.61836C11.5573 10.2552 11.1806 10.8118 10.7042 11.2882C10.2278 11.7645 9.67118 12.1413 9.03437 12.4184C8.39757 12.6954 7.71944 12.834 7 12.834ZM1.75 7.58398C1.75 6.86454 1.88854 6.18641 2.16563 5.54961C2.44271 4.9128 2.81944 4.35621 3.29583 3.87982C3.77222 3.40343 4.32882 3.02669 4.96563 2.74961C5.60243 2.47253 6.28056 2.33398 7 2.33398C7.60278 2.33398 8.18125 2.43121 8.73542 2.62565C9.28958 2.8201 9.80972 3.10204 10.2958 3.47148L10.7042 3.06315C10.8111 2.95621 10.9472 2.90273 11.1125 2.90273C11.2778 2.90273 11.4139 2.95621 11.5208 3.06315C11.6278 3.1701 11.6812 3.30621 11.6812 3.47148C11.6812 3.63676 11.6278 3.77287 11.5208 3.87982L11.1125 4.28815C11.4819 4.77426 11.7639 5.2944 11.9583 5.84857C12.1528 6.40273 12.25 6.98121 12.25 7.58398H11.0833C11.0833 6.45621 10.6847 5.49371 9.8875 4.69648C9.09028 3.89926 8.12778 3.50065 7 3.50065C5.87222 3.50065 4.90972 3.89926 4.1125 4.69648C3.31528 5.49371 2.91667 6.45621 2.91667 7.58398H1.75ZM5.83333 1.75065C5.66806 1.75065 5.52951 1.69475 5.41771 1.58294C5.3059 1.47114 5.25 1.3326 5.25 1.16732C5.25 1.00204 5.3059 0.863498 5.41771 0.751693C5.52951 0.639887 5.66806 0.583984 5.83333 0.583984H8.16667C8.33194 0.583984 8.47049 0.639887 8.58229 0.751693C8.6941 0.863498 8.75 1.00204 8.75 1.16732C8.75 1.3326 8.6941 1.47114 8.58229 1.58294C8.47049 1.69475 8.33194 1.75065 8.16667 1.75065H5.83333ZM7 11.6673C5.87222 11.6673 4.90972 11.2687 4.1125 10.4715C3.31528 9.67426 2.91667 8.71176 2.91667 7.58398C2.91667 6.45621 3.31528 5.49371 4.1125 4.69648C4.90972 3.89926 5.87222 3.50065 7 3.50065C8.12778 3.50065 9.09028 3.89926 9.8875 4.69648C10.6847 5.49371 11.0833 6.45621 11.0833 7.58398C11.0833 8.71176 10.6847 9.67426 9.8875 10.4715C9.09028 11.2687 8.12778 11.6673 7 11.6673Z" fill="white"/>
</g>
</svg>
