<svg width="12" height="15" viewBox="0 0 12 15" fill="none" xmlns="http://www.w3.org/2000/svg">
<path d="M6.00033 13L2.50033 14.5C1.94477 14.7361 1.41699 14.691 0.916992 14.3646C0.416992 14.0382 0.166992 13.5764 0.166992 12.9792V2.16667C0.166992 1.70833 0.330187 1.31597 0.656576 0.989583C0.982965 0.663194 1.37533 0.5 1.83366 0.5H10.167C10.6253 0.5 11.0177 0.663194 11.3441 0.989583C11.6705 1.31597 11.8337 1.70833 11.8337 2.16667V12.9792C11.8337 13.5764 11.5837 14.0382 11.0837 14.3646C10.5837 14.691 10.0559 14.7361 9.50033 14.5L6.00033 13ZM6.00033 11.1667L10.167 12.9583V2.16667H1.83366V12.9583L6.00033 11.1667Z" fill="#333333"/>
</svg>
