<svg width="10" height="6" viewBox="0 0 10 6" fill="none" xmlns="http://www.w3.org/2000/svg">
<path d="M5.0026 3.50065L8.2526 0.250651C8.40538 0.0978732 8.59983 0.0214843 8.83594 0.0214843C9.07205 0.0214843 9.26649 0.0978732 9.41927 0.250651C9.57205 0.403429 9.64844 0.597873 9.64844 0.833984C9.64844 1.0701 9.57205 1.26454 9.41927 1.41732L5.58594 5.25065C5.5026 5.33398 5.41233 5.39301 5.3151 5.42773C5.21788 5.46246 5.11371 5.47982 5.0026 5.47982C4.89149 5.47982 4.78733 5.46246 4.6901 5.42773C4.59288 5.39301 4.5026 5.33398 4.41927 5.25065L0.585937 1.41732C0.43316 1.26454 0.35677 1.0701 0.35677 0.833984C0.35677 0.597873 0.43316 0.403428 0.585937 0.250651C0.738715 0.0978729 0.93316 0.021484 1.16927 0.021484C1.40538 0.021484 1.59983 0.0978729 1.7526 0.250651L5.0026 3.50065Z" fill="#236AD4"/>
</svg>
