<svg width="12" height="12" viewBox="0 0 12 12" fill="none" xmlns="http://www.w3.org/2000/svg">
<mask id="mask0_16586_84664" style="mask-type:alpha" maskUnits="userSpaceOnUse" x="0" y="0" width="12" height="12">
<rect width="12" height="12" fill="#D9D9D9"/>
</mask>
<g mask="url(#mask0_16586_84664)">
<path d="M7.65 8.34805L8.35 7.64805L6.5 5.79805V3.49805H5.5V6.19805L7.65 8.34805ZM6 10.998C5.30833 10.998 4.65833 10.8668 4.05 10.6043C3.44167 10.3418 2.9125 9.98555 2.4625 9.53555C2.0125 9.08555 1.65625 8.55638 1.39375 7.94805C1.13125 7.33971 1 6.68971 1 5.99805C1 5.30638 1.13125 4.65638 1.39375 4.04805C1.65625 3.43971 2.0125 2.91055 2.4625 2.46055C2.9125 2.01055 3.44167 1.6543 4.05 1.3918C4.65833 1.1293 5.30833 0.998047 6 0.998047C6.69167 0.998047 7.34167 1.1293 7.95 1.3918C8.55833 1.6543 9.0875 2.01055 9.5375 2.46055C9.9875 2.91055 10.3438 3.43971 10.6062 4.04805C10.8687 4.65638 11 5.30638 11 5.99805C11 6.68971 10.8687 7.33971 10.6062 7.94805C10.3438 8.55638 9.9875 9.08555 9.5375 9.53555C9.0875 9.98555 8.55833 10.3418 7.95 10.6043C7.34167 10.8668 6.69167 10.998 6 10.998ZM6 9.99805C7.10833 9.99805 8.05208 9.60846 8.83125 8.8293C9.61042 8.05013 10 7.10638 10 5.99805C10 4.88971 9.61042 3.94596 8.83125 3.1668C8.05208 2.38763 7.10833 1.99805 6 1.99805C4.89167 1.99805 3.94792 2.38763 3.16875 3.1668C2.38958 3.94596 2 4.88971 2 5.99805C2 7.10638 2.38958 8.05013 3.16875 8.8293C3.94792 9.60846 4.89167 9.99805 6 9.99805Z" fill="#236AD4"/>
</g>
</svg>
