<svg width="24" height="24" viewBox="0 0 24 24" fill="none" xmlns="http://www.w3.org/2000/svg"><mask id="a" style="mask-type:alpha" maskUnits="userSpaceOnUse" x="0" y="0" width="24" height="24"><path fill="#fff" d="M0 0h24v24H0z"/></mask><g mask="url(#a)"><path d="M13 8V4q0-.424.287-.712A.97.97 0 0 1 14 3h6q.424 0 .712.288Q21 3.575 21 4v4q0 .424-.288.713A.97.97 0 0 1 20 9h-6a.97.97 0 0 1-.713-.287A.97.97 0 0 1 13 8M3 12V4q0-.424.288-.712A.97.97 0 0 1 4 3h6q.424 0 .713.288Q11 3.575 11 4v8q0 .424-.287.713A.97.97 0 0 1 10 13H4a.97.97 0 0 1-.712-.287A.97.97 0 0 1 3 12m10 8v-8q0-.424.287-.713A.97.97 0 0 1 14 11h6q.424 0 .712.287.288.288.288.713v8q0 .424-.288.712A.97.97 0 0 1 20 21h-6a.97.97 0 0 1-.713-.288A.97.97 0 0 1 13 20M3 20v-4q0-.424.288-.713A.97.97 0 0 1 4 15h6q.424 0 .713.287.287.288.287.713v4q0 .424-.287.712A.97.97 0 0 1 10 21H4a.97.97 0 0 1-.712-.288A.97.97 0 0 1 3 20m2-9h4V5H5zm10 8h4v-6h-4zm0-12h4V5h-4zM5 19h4v-2H5z" fill="#fff"/></g></svg>