<svg width="18" height="18" viewBox="0 0 18 18" fill="none" xmlns="http://www.w3.org/2000/svg">
<mask id="mask0_7491_42028" style="mask-type:alpha" maskUnits="userSpaceOnUse" x="0" y="0" width="18" height="18">
<rect width="18" height="18" fill="#D9D9D9"/>
</mask>
<g mask="url(#mask0_7491_42028)">
<path d="M5.24902 15.75C4.83652 15.75 4.4834 15.6031 4.18965 15.3094C3.8959 15.0156 3.74902 14.6625 3.74902 14.25V4.5C3.53652 4.5 3.3584 4.42813 3.21465 4.28438C3.0709 4.14063 2.99902 3.9625 2.99902 3.75C2.99902 3.5375 3.0709 3.35938 3.21465 3.21563C3.3584 3.07188 3.53652 3 3.74902 3H6.74902C6.74902 2.7875 6.8209 2.60938 6.96465 2.46562C7.1084 2.32187 7.28652 2.25 7.49902 2.25H10.499C10.7115 2.25 10.8896 2.32187 11.0334 2.46562C11.1771 2.60938 11.249 2.7875 11.249 3H14.249C14.4615 3 14.6396 3.07188 14.7834 3.21563C14.9271 3.35938 14.999 3.5375 14.999 3.75C14.999 3.9625 14.9271 4.14063 14.7834 4.28438C14.6396 4.42813 14.4615 4.5 14.249 4.5V14.25C14.249 14.6625 14.1021 15.0156 13.8084 15.3094C13.5146 15.6031 13.1615 15.75 12.749 15.75H5.24902ZM12.749 4.5H5.24902V14.25H12.749V4.5ZM7.49902 12.75C7.71152 12.75 7.88965 12.6781 8.0334 12.5344C8.17715 12.3906 8.24902 12.2125 8.24902 12V6.75C8.24902 6.5375 8.17715 6.35938 8.0334 6.21562C7.88965 6.07187 7.71152 6 7.49902 6C7.28652 6 7.1084 6.07187 6.96465 6.21562C6.8209 6.35938 6.74902 6.5375 6.74902 6.75V12C6.74902 12.2125 6.8209 12.3906 6.96465 12.5344C7.1084 12.6781 7.28652 12.75 7.49902 12.75ZM10.499 12.75C10.7115 12.75 10.8896 12.6781 11.0334 12.5344C11.1771 12.3906 11.249 12.2125 11.249 12V6.75C11.249 6.5375 11.1771 6.35938 11.0334 6.21562C10.8896 6.07187 10.7115 6 10.499 6C10.2865 6 10.1084 6.07187 9.96465 6.21562C9.8209 6.35938 9.74902 6.5375 9.74902 6.75V12C9.74902 12.2125 9.8209 12.3906 9.96465 12.5344C10.1084 12.6781 10.2865 12.75 10.499 12.75Z" fill="#FFEAEA"/>
</g>
</svg>
