<svg width="20" height="20" viewBox="0 0 20 20" fill="none" xmlns="http://www.w3.org/2000/svg">
<g id="Facebook" clip-path="url(#clip0_1455_18764)">
<path id="Vector" d="M18.8961 20C19.5056 20 19.9999 19.5057 19.9999 18.8962V1.1038C19.9999 0.494052 19.5056 0 18.8961 0H1.1038C0.494052 0 0 0.494127 0 1.1038V18.8961C0 19.5057 0.494052 19.9999 1.1038 19.9999L18.8961 20Z" fill="#485A96"/>
<path id="Vector_2" d="M11.491 20V10.8771H14.4393L14.8807 7.32167H11.4909V5.0517C11.4909 4.02233 11.7661 3.32087 13.1874 3.32087L15 3.31999V0.14008C14.6865 0.0968288 13.6104 0 12.3587 0C9.74513 0 7.95586 1.65686 7.95586 4.69969V7.32167H5V10.8771H7.95586V19.9999L11.491 20Z" fill="white"/>
</g>
<defs>
<clipPath id="clip0_1455_18764">
<rect width="20" height="20" fill="white"/>
</clipPath>
</defs>
</svg>
