<svg width="32" height="32" viewBox="0 0 32 32" fill="none" xmlns="http://www.w3.org/2000/svg">
<mask id="mask0_7265_55522" style="mask-type:alpha" maskUnits="userSpaceOnUse" x="0" y="0" width="32" height="32">
<rect width="32" height="32" fill="#fff"/>
</mask>
<g mask="url(#mask0_7265_55522)">
<path d="M18.4975 27.4701C18.5404 27.4872 18.5789 27.4958 18.6129 27.4958C18.6471 27.4958 18.6856 27.4872 18.7285 27.4701L26.5719 25.0418C26.5036 24.7393 26.3626 24.5073 26.1489 24.3458C25.9351 24.1842 25.6932 24.1034 25.4232 24.1034H18.8935C18.3118 24.1034 17.8174 24.0812 17.4105 24.0368C17.0036 23.9923 16.5856 23.8949 16.1565 23.7444L14.0642 23.0598C13.7953 22.9742 13.6021 22.8033 13.4845 22.5471C13.3668 22.2907 13.3506 22.0295 13.4362 21.7638C13.5215 21.4978 13.6869 21.3029 13.9322 21.1791C14.1775 21.0551 14.4352 21.0359 14.7052 21.1214L16.4385 21.7291C16.8421 21.8573 17.2934 21.9483 17.7925 22.0021C18.2916 22.0559 18.9385 22.0897 19.7332 22.1034H20.0899C20.0899 21.7734 20.0155 21.4888 19.8669 21.2494C19.7182 21.0101 19.5224 20.8485 19.2795 20.7648L11.5439 17.9238C11.5181 17.9153 11.4945 17.909 11.4732 17.9048C11.4519 17.9003 11.4284 17.8981 11.4029 17.8981H8.9362V24.7701L18.4975 27.4701ZM17.9772 29.4291L8.9362 26.8368C8.78397 27.3888 8.47453 27.8319 8.00786 28.1661C7.5412 28.5003 7.0472 28.6674 6.52586 28.6674H4.67986C4.01698 28.6674 3.44953 28.4314 2.97753 27.9594C2.50553 27.4874 2.26953 26.92 2.26953 26.2571V18.3084C2.26953 17.6458 2.50553 17.0784 2.97753 16.6064C3.44953 16.1344 4.01698 15.8984 4.67986 15.8984H11.3879C11.5276 15.8984 11.6693 15.9138 11.8129 15.9444C11.9566 15.9753 12.09 16.0112 12.2129 16.0521L19.9822 18.9138C20.5873 19.1375 21.0899 19.5337 21.4899 20.1021C21.8899 20.6705 22.0899 21.3377 22.0899 22.1034H25.4232C26.3805 22.1034 27.1604 22.4124 27.7629 23.0304C28.3655 23.6482 28.6669 24.4503 28.6669 25.4368C28.6669 25.8146 28.5669 26.1188 28.3669 26.3494C28.1669 26.5803 27.8643 26.7632 27.4592 26.8981L19.3695 29.4084C19.1506 29.4802 18.9206 29.5182 18.6795 29.5224C18.4386 29.5269 18.2045 29.4958 17.9772 29.4291ZM4.26953 26.2571C4.26953 26.3769 4.30798 26.4752 4.38486 26.5521C4.46175 26.629 4.56009 26.6674 4.67986 26.6674H6.52586C6.64542 26.6674 6.74375 26.6354 6.82086 26.5714C6.89775 26.5072 6.9362 26.4024 6.9362 26.2571V17.8981H4.67986C4.56009 17.8981 4.46175 17.9367 4.38486 18.0138C4.30798 18.0907 4.26953 18.1889 4.26953 18.3084V26.2571Z" fill="#fff"/>
<path d="M22.82 13.2C22.9667 13.0667 23.0467 12.9 23.06 12.7C23.0733 12.5 23.0067 12.3267 22.86 12.18L20.64 9.84L20.66 9.78H20.86C21.58 9.78 22.1767 9.56 22.65 9.12C23.1233 8.68 23.4133 8.16667 23.52 7.58H23.86C23.9933 7.58 24.1033 7.53333 24.19 7.44C24.2767 7.34667 24.32 7.23333 24.32 7.1C24.32 6.96667 24.2767 6.85667 24.19 6.77C24.1033 6.68333 23.9933 6.64 23.86 6.64H23.5C23.46 6.44 23.39 6.25 23.29 6.07C23.19 5.89 23.0667 5.71333 22.92 5.54H23.86C23.9933 5.54 24.1033 5.49333 24.19 5.4C24.2767 5.30667 24.32 5.19333 24.32 5.06C24.32 4.92667 24.2767 4.81667 24.19 4.73C24.1033 4.64333 23.9933 4.6 23.86 4.6H18.26C18.1 4.6 17.9633 4.65667 17.85 4.77C17.7367 4.88333 17.68 5.02 17.68 5.18C17.68 5.34 17.7367 5.47333 17.85 5.58C17.9633 5.68667 18.1 5.74 18.26 5.74H20.8C21.1467 5.74 21.43 5.82667 21.65 6C21.87 6.17333 22.02 6.38667 22.1 6.64H18.14C18.0067 6.64 17.8967 6.68667 17.81 6.78C17.7233 6.87333 17.68 6.98667 17.68 7.12C17.68 7.25333 17.7233 7.36333 17.81 7.45C17.8967 7.53667 18.0067 7.58 18.14 7.58H22.12C22.04 7.84667 21.8867 8.07667 21.66 8.27C21.4333 8.46333 21.1267 8.56 20.74 8.56H19.38C19.2067 8.56 19.0567 8.6 18.93 8.68C18.8033 8.76 18.7067 8.87333 18.64 9.02C18.5733 9.16667 18.5533 9.31667 18.58 9.47C18.6067 9.62333 18.68 9.76667 18.8 9.9L21.8 13.18C21.9333 13.3267 22.1 13.4 22.3 13.4C22.5 13.4 22.6733 13.3333 22.82 13.2ZM21 17C19.8933 17 18.8533 16.79 17.88 16.37C16.9067 15.95 16.06 15.38 15.34 14.66C14.62 13.94 14.05 13.0933 13.63 12.12C13.21 11.1467 13 10.1067 13 9C13 7.89333 13.21 6.85333 13.63 5.88C14.05 4.90667 14.62 4.06 15.34 3.34C16.06 2.62 16.9067 2.05 17.88 1.63C18.8533 1.21 19.8933 1 21 1C22.1067 1 23.1467 1.21 24.12 1.63C25.0933 2.05 25.94 2.62 26.66 3.34C27.38 4.06 27.95 4.90667 28.37 5.88C28.79 6.85333 29 7.89333 29 9C29 10.1067 28.79 11.1467 28.37 12.12C27.95 13.0933 27.38 13.94 26.66 14.66C25.94 15.38 25.0933 15.95 24.12 16.37C23.1467 16.79 22.1067 17 21 17ZM21 15.4C22.7867 15.4 24.3 14.78 25.54 13.54C26.78 12.3 27.4 10.7867 27.4 9C27.4 7.21333 26.78 5.7 25.54 4.46C24.3 3.22 22.7867 2.6 21 2.6C19.2133 2.6 17.7 3.22 16.46 4.46C15.22 5.7 14.6 7.21333 14.6 9C14.6 10.7867 15.22 12.3 16.46 13.54C17.7 14.78 19.2133 15.4 21 15.4Z" fill="#fff"/>
</g>
</svg>
