<svg width="14" height="14" viewBox="0 0 14 14" fill="none" xmlns="http://www.w3.org/2000/svg">
<mask id="mask0_13046_62795" style="mask-type:alpha" maskUnits="userSpaceOnUse" x="0" y="0" width="14" height="14">
<rect width="14" height="14" fill="#D9D9D9"/>
</mask>
<g mask="url(#mask0_13046_62795)">
<path d="M2.91667 12.25C2.59583 12.25 2.32118 12.1358 2.09271 11.9073C1.86424 11.6788 1.75 11.4042 1.75 11.0833V2.33333C1.75 2.16806 1.8059 2.02951 1.91771 1.91771C2.02951 1.8059 2.16806 1.75 2.33333 1.75C2.49861 1.75 2.63715 1.8059 2.74896 1.91771C2.86076 2.02951 2.91667 2.16806 2.91667 2.33333V11.0833H11.6667C11.8319 11.0833 11.9705 11.1392 12.0823 11.251C12.1941 11.3628 12.25 11.5014 12.25 11.6667C12.25 11.8319 12.1941 11.9705 12.0823 12.0823C11.9705 12.1941 11.8319 12.25 11.6667 12.25H2.91667ZM4.08333 10.5C3.91806 10.5 3.77951 10.4441 3.66771 10.3323C3.5559 10.2205 3.5 10.0819 3.5 9.91667V5.83333C3.5 5.66806 3.5559 5.52951 3.66771 5.41771C3.77951 5.3059 3.91806 5.25 4.08333 5.25H5.25C5.41528 5.25 5.55382 5.3059 5.66562 5.41771C5.77743 5.52951 5.83333 5.66806 5.83333 5.83333V9.91667C5.83333 10.0819 5.77743 10.2205 5.66562 10.3323C5.55382 10.4441 5.41528 10.5 5.25 10.5H4.08333ZM7 10.5C6.83472 10.5 6.69618 10.4441 6.58437 10.3323C6.47257 10.2205 6.41667 10.0819 6.41667 9.91667V2.91667C6.41667 2.75139 6.47257 2.61285 6.58437 2.50104C6.69618 2.38924 6.83472 2.33333 7 2.33333H8.16667C8.33194 2.33333 8.47049 2.38924 8.58229 2.50104C8.6941 2.61285 8.75 2.75139 8.75 2.91667V9.91667C8.75 10.0819 8.6941 10.2205 8.58229 10.3323C8.47049 10.4441 8.33194 10.5 8.16667 10.5H7ZM9.91667 10.5C9.75139 10.5 9.61285 10.4441 9.50104 10.3323C9.38924 10.2205 9.33333 10.0819 9.33333 9.91667V8.16667C9.33333 8.00139 9.38924 7.86285 9.50104 7.75104C9.61285 7.63924 9.75139 7.58333 9.91667 7.58333H11.0833C11.2486 7.58333 11.3872 7.63924 11.499 7.75104C11.6108 7.86285 11.6667 8.00139 11.6667 8.16667V9.91667C11.6667 10.0819 11.6108 10.2205 11.499 10.3323C11.3872 10.4441 11.2486 10.5 11.0833 10.5H9.91667Z" fill="white"/>
</g>
</svg>
