<svg width="66" height="66" viewBox="0 0 66 66" fill="none" xmlns="http://www.w3.org/2000/svg">
<rect width="66" height="66" rx="33" fill="#111111"/>
<path d="M47.2182 52.0009V45.4975L43.4955 36.5486H45.9011L48.2928 42.6621L50.636 36.5486H53L49.2634 45.5185V52.0009H47.2182Z" fill="#3B2E7E"/>
<path d="M38.1577 52.0009V39.1627H35.142V36.5486H43.2185V39.1627H40.2097V52.0009H38.1577Z" fill="#3B2E7E"/>
<path d="M27.2053 52.0009V36.5486H34.1725V39.1627H29.2573V42.8202H33.5V45.4342H29.2573V52.0009H27.2053Z" fill="#3B2E7E"/>
<path d="M23.1764 52.0009V36.5486H25.2284V52.0009H23.1764Z" fill="#3B2E7E"/>
<path d="M13 52.0009V36.5486H14.9966L19.1561 46.8677V36.5486H21.0626V52.0009H19.0036L14.9065 41.9243V52.0009H13Z" fill="#3B2E7E"/>
<path d="M43.288 27.7157V14.8775H40.2724V12.2635H48.3488V14.8775H45.3401V27.7157H43.288Z" fill="#F5812A"/>
<path d="M32.3341 27.7157V12.2635H39.3013V14.8775H34.3861V18.535H38.6288V21.1491H34.3861V27.7157H32.3341Z" fill="#F5812A"/>
<path d="M28.3067 27.7157V12.2635H30.3587V27.7157H28.3067Z" fill="#E31D26"/>
<path d="M22.0461 22.0345V19.431H26.4691V25.5866C26.0393 26.219 25.4153 26.7777 24.5973 27.2625C23.7839 27.7404 22.9589 27.9793 22.1224 27.9793C21.0594 27.9793 20.1327 27.642 19.3424 26.9674C18.5521 26.2858 17.9582 25.3161 17.5607 24.0582C17.1633 22.7934 16.9645 21.4196 16.9645 19.9369C16.9645 18.3278 17.1864 16.8978 17.6301 15.647C18.0738 14.3962 18.7231 13.437 19.5781 12.7695C20.2298 12.2565 21.0409 12 22.0115 12C23.2732 12 24.2576 12.404 24.9647 13.2121C25.6765 14.0132 26.134 15.1235 26.3374 16.5429L24.2992 17.1226C24.1559 16.3637 23.8856 15.7664 23.4881 15.3308C23.0952 14.8881 22.603 14.6667 22.0115 14.6667C21.1148 14.6667 20.4008 15.0989 19.8693 15.9632C19.3424 16.8275 19.079 18.1099 19.079 19.8104C19.079 21.6445 19.347 23.0218 19.8832 23.9423C20.4193 24.8558 21.1218 25.3125 21.9907 25.3125C22.4205 25.3125 22.8503 25.1861 23.2801 24.9331C23.7146 24.6731 24.0866 24.3604 24.3963 23.995V22.0345H22.0461Z" fill="#F5812A"/>
</svg>
