<svg width="31" height="15" viewBox="0 0 31 15" fill="none" xmlns="http://www.w3.org/2000/svg">
<path d="M8.20768 14.7923C6.19032 14.7923 4.4707 14.0814 3.04883 12.6595C1.62695 11.2376 0.916016 9.51801 0.916016 7.50065C0.916016 5.48329 1.62695 3.76367 3.04883 2.3418C4.4707 0.919922 6.19032 0.208984 8.20768 0.208984H12.5827C12.9959 0.208984 13.3422 0.348741 13.6217 0.628255C13.9013 0.907769 14.041 1.25412 14.041 1.66732C14.041 2.08051 13.9013 2.42687 13.6217 2.70638C13.3422 2.98589 12.9959 3.12565 12.5827 3.12565H8.20768C6.9924 3.12565 5.95942 3.551 5.10872 4.40169C4.25803 5.25239 3.83268 6.28537 3.83268 7.50065C3.83268 8.71593 4.25803 9.74891 5.10872 10.5996C5.95942 11.4503 6.9924 11.8757 8.20768 11.8757H12.5827C12.9959 11.8757 13.3422 12.0154 13.6217 12.2949C13.9013 12.5744 14.041 12.9208 14.041 13.334C14.041 13.7472 13.9013 14.0935 13.6217 14.373C13.3422 14.6526 12.9959 14.7923 12.5827 14.7923H8.20768ZM11.1243 8.95898C10.7112 8.95898 10.3648 8.81923 10.0853 8.53971C9.80577 8.2602 9.66602 7.91385 9.66602 7.50065C9.66602 7.08746 9.80577 6.7411 10.0853 6.46159C10.3648 6.18207 10.7112 6.04232 11.1243 6.04232H19.8743C20.2875 6.04232 20.6339 6.18207 20.9134 6.46159C21.1929 6.7411 21.3327 7.08746 21.3327 7.50065C21.3327 7.91385 21.1929 8.2602 20.9134 8.53971C20.6339 8.81923 20.2875 8.95898 19.8743 8.95898H11.1243ZM18.416 14.7923C18.0028 14.7923 17.6565 14.6526 17.377 14.373C17.0974 14.0935 16.9577 13.7472 16.9577 13.334C16.9577 12.9208 17.0974 12.5744 17.377 12.2949C17.6565 12.0154 18.0028 11.8757 18.416 11.8757H22.791C24.0063 11.8757 25.0393 11.4503 25.89 10.5996C26.7407 9.74891 27.166 8.71593 27.166 7.50065C27.166 6.28537 26.7407 5.25239 25.89 4.40169C25.0393 3.551 24.0063 3.12565 22.791 3.12565H18.416C18.0028 3.12565 17.6565 2.98589 17.377 2.70638C17.0974 2.42687 16.9577 2.08051 16.9577 1.66732C16.9577 1.25412 17.0974 0.907769 17.377 0.628255C17.6565 0.348741 18.0028 0.208984 18.416 0.208984H22.791C24.8084 0.208984 26.528 0.919922 27.9499 2.3418C29.3717 3.76367 30.0827 5.48329 30.0827 7.50065C30.0827 9.51801 29.3717 11.2376 27.9499 12.6595C26.528 14.0814 24.8084 14.7923 22.791 14.7923H18.416Z" fill="#9678F2"/>
</svg>
