<svg width="22" height="22" viewBox="0 0 22 22" fill="none" xmlns="http://www.w3.org/2000/svg">
<g clip-path="url(#clip0_17081_88138)">
<path fill-rule="evenodd" clip-rule="evenodd" d="M7.62792 21.154C7.52481 21.154 7.4346 21.1411 7.33149 21.1025L4.88275 20.2519C4.40589 20.0972 4.16102 19.5817 4.31568 19.1048L4.71521 17.9578C4.38012 17.7 4.05791 17.4165 3.77437 17.1072L2.666 17.6485C2.2278 17.8676 1.67361 17.6742 1.4674 17.2361L0.320362 14.8904C0.217257 14.6842 0.204369 14.4393 0.281697 14.2073C0.359026 13.9754 0.526571 13.7949 0.745669 13.6918L1.84116 13.1505C1.77672 12.7381 1.75094 12.3128 1.76383 11.8875L0.6039 11.488C0.384802 11.4106 0.19148 11.2431 0.0883756 11.0369C-0.0147293 10.8178 -0.0276174 10.5729 0.0497113 10.3409L0.900326 7.87928C0.977655 7.66019 1.13231 7.46686 1.35141 7.36376C1.57051 7.26065 1.81538 7.24777 2.04737 7.3251L3.2073 7.72463C3.45217 7.38954 3.73571 7.06733 4.04502 6.77091L3.50372 5.67542C3.28463 5.22433 3.47795 4.68303 3.91614 4.46393L6.26178 3.32978C6.48088 3.22668 6.72575 3.21379 6.94485 3.29112C7.17684 3.36845 7.35727 3.53599 7.46037 3.7422L8.00167 4.85058C8.41409 4.78614 8.8394 4.76036 9.26471 4.77325L9.66424 3.61332C9.83179 3.14935 10.3473 2.89159 10.8113 3.05913L12.6027 3.70354C12.4223 4.19328 12.3192 4.7217 12.2934 5.263C12.2419 6.59047 12.7316 7.90506 13.6338 8.88456C14.0977 9.38719 14.3942 10.0058 14.5102 10.676C14.2524 10.6889 14.0333 10.8435 13.9302 11.0626C13.4662 8.80723 11.4557 7.11889 9.07139 7.11889C6.33911 7.11889 4.10947 9.34853 4.10947 12.0808C4.10947 14.8131 6.33911 17.0427 9.07139 17.0427C11.6232 17.0427 13.724 15.1095 14.0075 12.635C14.1106 12.7768 14.2782 12.8799 14.4586 12.8928V13.1892C14.4586 13.5372 14.755 13.8336 15.103 13.8336H15.219C15.4639 14.3749 16.0181 14.7615 16.6496 14.7615H17.7837L17.2553 16.2823C17.178 16.5014 17.0105 16.6819 16.7914 16.7979C16.5723 16.901 16.3274 16.9138 16.1083 16.8365L14.9484 16.437C14.6906 16.7721 14.4071 17.0943 14.1106 17.3907L14.6391 18.4862C14.8581 18.9373 14.6777 19.4786 14.2266 19.6977L11.8939 20.8318C11.6748 20.9349 11.4299 20.9478 11.1979 20.8705C10.9659 20.7932 10.7855 20.6256 10.6824 20.4194L10.1411 19.311C9.72868 19.3755 9.30337 19.4013 8.87807 19.3884L8.47853 20.5483C8.40121 20.7803 8.24655 20.9607 8.02745 21.0638C7.89857 21.1283 7.76969 21.154 7.62792 21.154Z" fill="#9678F2"/>
<path d="M11.5923 10.3394L11.3257 11.3167H6.3125L6.58449 10.3394H11.5923ZM9.09641 16.1133L6.46716 13.0388L6.46183 12.1936H7.73112C8.04044 12.1936 8.29466 12.1373 8.49376 12.0246C8.69642 11.9084 8.84753 11.7516 8.94708 11.5544C9.05019 11.3572 9.10174 11.1353 9.10174 10.8888C9.10174 10.6317 9.05552 10.4046 8.96308 10.2074C8.87064 10.0066 8.72309 9.84993 8.52043 9.73723C8.31777 9.62454 8.04933 9.56819 7.71512 9.56819H6.31783L6.62182 8.42188H7.71512C8.34799 8.42188 8.87419 8.51696 9.29373 8.70713C9.71683 8.89378 10.0333 9.16672 10.243 9.52593C10.4564 9.88162 10.563 10.3113 10.563 10.8149C10.563 11.2551 10.4884 11.6442 10.339 11.9823C10.1933 12.3169 9.95682 12.5898 9.62972 12.8011C9.30262 13.0124 8.87241 13.1533 8.3391 13.2237L10.723 16.0393V16.1133H9.09641ZM11.5977 8.42188L11.3257 9.39915H7.20314L7.47513 8.42188H11.5977Z" fill="#9678F2"/>
<path fill-rule="evenodd" clip-rule="evenodd" d="M14.9345 10.6844C14.8185 9.89823 14.4834 9.1765 13.9421 8.59653C13.1173 7.69436 12.6791 6.52155 12.7306 5.28429C12.7693 4.08569 13.2719 2.97732 14.1355 2.13959C14.999 1.30186 16.1331 0.837891 17.3188 0.837891H17.3575C19.9093 0.837891 21.9972 2.91288 21.9972 5.46472C21.9972 6.61176 21.5719 7.72014 20.7986 8.57076C20.2444 9.1765 19.8964 9.91112 19.7804 10.6844H14.9345ZM14.0839 5.7096C13.9808 5.7096 13.8777 5.63227 13.8648 5.52916C13.839 5.33584 13.8261 5.14252 13.8261 4.96209C13.8648 4.24035 14.1612 3.55728 14.6896 3.05465C15.2052 2.55201 15.8882 2.26847 16.61 2.26847H16.6229C16.7388 2.26847 16.8291 2.35869 16.8291 2.47468C16.8291 2.59067 16.7388 2.69378 16.6229 2.69378C15.3469 2.70667 14.3159 3.69905 14.2643 4.97497C14.2514 5.14252 14.2643 5.29718 14.2901 5.45183C14.3159 5.56783 14.2257 5.68382 14.1097 5.69671C14.0968 5.7096 14.0839 5.7096 14.0839 5.7096Z" fill="#9678F2"/>
<path fill-rule="evenodd" clip-rule="evenodd" d="M14.1105 5.83802C14 5.84366 13.9 5.78393 13.8803 5.66824C13.8296 5.4893 13.8197 5.29531 13.8098 5.10133C13.8005 4.3757 14.0977 3.68629 14.6245 3.15373C15.1651 2.62047 15.8828 2.2986 16.6557 2.2462C16.78 2.23986 16.8958 2.33768 16.9017 2.45407C16.9077 2.57046 16.8162 2.67886 16.6781 2.68591C15.3243 2.75498 14.2569 3.8208 14.267 5.10393C14.2749 5.25912 14.2973 5.42654 14.3328 5.58032C14.3526 5.69601 14.2756 5.81663 14.152 5.8359C14.1381 5.83661 14.1243 5.83731 14.1105 5.83802Z" fill="white"/>
<path fill-rule="evenodd" clip-rule="evenodd" d="M20.0012 12.4755H14.5238C14.4078 12.4755 14.3047 12.3853 14.3047 12.2564V11.3285C14.3047 11.2125 14.4078 11.1094 14.5238 11.1094H20.0012C20.1301 11.1094 20.2203 11.2125 20.2203 11.3285V12.2564C20.2203 12.3853 20.1301 12.4755 20.0012 12.4755ZM19.4213 13.4035H15.1038C14.9878 13.4035 14.8975 13.3132 14.8975 13.1972V12.9008H19.6404V13.1972C19.6404 13.3132 19.5373 13.4035 19.4213 13.4035Z" fill="#9678F2"/>
<path fill-rule="evenodd" clip-rule="evenodd" d="M17.8792 14.3447H16.6549C16.0233 14.3447 15.5078 13.8291 15.5078 13.1976C15.5078 13.0816 15.6109 12.9785 15.7269 12.9785H18.8072C18.936 12.9785 19.0263 13.0816 19.0263 13.1976C19.0263 13.8291 18.5107 14.3447 17.8792 14.3447Z" fill="#9678F2"/>
</g>
<defs>
<clipPath id="clip0_17081_88138">
<rect width="22" height="22" fill="white"/>
</clipPath>
</defs>
</svg>
