<svg width="24" height="24" viewBox="0 0 24 24" fill="none" xmlns="http://www.w3.org/2000/svg">
<mask id="mask0_7178_37516" style="mask-type:alpha" maskUnits="userSpaceOnUse" x="0" y="0" width="24" height="24">
<rect width="24" height="24" fill="#D9D9D9"/>
</mask>
<g mask="url(#mask0_7178_37516)">
<path d="M3 20.0001V19.0001L5 17.0001V20.0001C5 20.2834 4.90417 20.5209 4.7125 20.7126C4.52083 20.9043 4.28333 21.0001 4 21.0001C3.71667 21.0001 3.47917 20.9043 3.2875 20.7126C3.09583 20.5209 3 20.2834 3 20.0001ZM7 20.0001V15.0001L9 13.0001V20.0001C9 20.2834 8.90417 20.5209 8.7125 20.7126C8.52083 20.9043 8.28333 21.0001 8 21.0001C7.71667 21.0001 7.47917 20.9043 7.2875 20.7126C7.09583 20.5209 7 20.2834 7 20.0001ZM11 20.0001V13.0001L13 15.0251V20.0001C13 20.2834 12.9042 20.5209 12.7125 20.7126C12.5208 20.9043 12.2833 21.0001 12 21.0001C11.7167 21.0001 11.4792 20.9043 11.2875 20.7126C11.0958 20.5209 11 20.2834 11 20.0001ZM15 20.0001V15.0251L17 13.0251V20.0001C17 20.2834 16.9042 20.5209 16.7125 20.7126C16.5208 20.9043 16.2833 21.0001 16 21.0001C15.7167 21.0001 15.4792 20.9043 15.2875 20.7126C15.0958 20.5209 15 20.2834 15 20.0001ZM19 20.0001V11.0001L21 9.00011V20.0001C21 20.2834 20.9042 20.5209 20.7125 20.7126C20.5208 20.9043 20.2833 21.0001 20 21.0001C19.7167 21.0001 19.4792 20.9043 19.2875 20.7126C19.0958 20.5209 19 20.2834 19 20.0001ZM3.3 12.7001L8.575 7.42511C8.95833 7.04178 9.43333 6.85011 10 6.85011C10.5667 6.85011 11.0417 7.04178 11.425 7.42511L14 10.0001L19.3 4.70011C19.5 4.50011 19.7375 4.40428 20.0125 4.41261C20.2875 4.42094 20.525 4.52511 20.725 4.72511C20.9083 4.92511 20.9958 5.16261 20.9875 5.43761C20.9792 5.71261 20.8833 5.94178 20.7 6.12511L15.425 11.4001C15.0417 11.7834 14.5667 11.9751 14 11.9751C13.4333 11.9751 12.9583 11.7834 12.575 11.4001L10 8.82511L4.7 14.1251C4.5 14.3251 4.2625 14.4209 3.9875 14.4126C3.7125 14.4043 3.475 14.3001 3.275 14.1001C3.09167 13.9001 3.00417 13.6626 3.0125 13.3876C3.02083 13.1126 3.11667 12.8834 3.3 12.7001Z" fill="#4399EB"/>
</g>
</svg>
