<svg width="24" height="24" viewBox="0 0 24 24" fill="none" xmlns="http://www.w3.org/2000/svg">
<mask id="mask0_7178_36895" style="mask-type:alpha" maskUnits="userSpaceOnUse" x="0" y="0" width="24" height="24">
<rect x="24" y="24" width="24" height="24" transform="rotate(-180 24 24)" fill="#D9D9D9"/>
</mask>
<g mask="url(#mask0_7178_36895)">
<path d="M20.601 6L22.001 7.4L16.701 12.7C16.1176 13.2833 15.4093 13.575 14.576 13.575C13.7426 13.575 13.0343 13.2833 12.451 12.7L11.301 11.55C11.101 11.35 10.8635 11.25 10.5885 11.25C10.3135 11.25 10.076 11.35 9.87598 11.55L5.42598 16L8.00098 16L8.00098 18L2.00098 18L2.00098 12L4.00098 12L4.00098 14.575L8.47598 10.125C9.05931 9.54167 9.76764 9.25 10.601 9.25C11.4343 9.25 12.1426 9.54167 12.726 10.125L13.901 11.3C14.0843 11.4833 14.3176 11.575 14.601 11.575C14.8843 11.575 15.1176 11.4833 15.301 11.3L20.601 6Z" fill="#D80000"/>
</g>
</svg>
