<svg width="40" height="40" viewBox="0 0 40 40" fill="none" xmlns="http://www.w3.org/2000/svg">
<g clip-path="url(#clip0_16586_84544)">
<path d="M15.8923 19.1397C15.6513 19.499 15.0719 20.2082 14.314 21.0564C13.5585 21.9047 12.6244 22.8897 11.6788 23.8005C9.13406 26.248 7.82691 26.9039 7.04354 26.9039C6.75383 26.9039 6.53598 26.8135 6.35288 26.6907C5.67613 26.2387 5.2265 25.168 7.01573 20.6671C7.98451 18.2243 9.25226 15.7235 9.73665 15.0051C10.8769 13.3062 13.1853 12.8543 14.8818 13.9946C15.7046 14.5462 16.2632 15.3852 16.4532 16.3586C16.6433 17.3297 16.4439 18.317 15.8923 19.1397Z" fill="url(#paint0_linear_16586_84544)"/>
<path fill-rule="evenodd" clip-rule="evenodd" d="M14.314 21.0564C15.0719 20.2082 15.6513 19.499 15.8923 19.1397C16.4439 18.317 16.6433 17.3297 16.4532 16.3586C16.2632 15.3852 15.7046 14.5462 14.8818 13.9946C13.1853 12.8543 10.8769 13.3062 9.73665 15.0051C9.25226 15.7235 7.98451 18.2243 7.01573 20.6671C5.2265 25.168 5.67613 26.2387 6.35288 26.6907C6.53598 26.8135 6.75383 26.9039 7.04354 26.9039C7.82691 26.9039 9.13406 26.248 11.6788 23.8005C12.6244 22.8897 13.5585 21.9047 14.314 21.0564ZM14.016 20.791L14.0164 20.7905C14.7738 19.9427 15.3367 19.2515 15.5609 18.9174C16.0537 18.1822 16.2312 17.3024 16.0615 16.4352L16.0615 16.435C15.8918 15.566 15.3943 14.8187 14.6596 14.3261L14.6592 14.3258C13.1456 13.3085 11.0854 13.7119 10.0681 15.2275L10.0676 15.2282C9.60719 15.9111 8.35192 18.3806 7.38677 20.8142L7.38665 20.8145C6.49566 23.0558 6.183 24.3951 6.15853 25.2092C6.14647 25.6105 6.20546 25.8611 6.28101 26.0229C6.35371 26.1786 6.45357 26.2779 6.57455 26.3587L6.57526 26.3592C6.70564 26.4467 6.84741 26.5047 7.04354 26.5047C7.32608 26.5047 7.77226 26.385 8.48727 25.9327C9.1978 25.4832 10.1387 24.7279 11.4019 23.5131C12.3393 22.6101 13.2663 21.6326 14.016 20.791Z" fill="#42397A"/>
<path d="M33.6473 26.6901C33.4642 26.8129 33.2464 26.9033 32.9567 26.9033C32.1733 26.9033 30.8661 26.2474 28.3214 23.7999C26.4278 21.9783 24.5899 19.8576 24.1079 19.1391C23.554 18.3164 23.357 17.3291 23.547 16.358C23.737 15.3845 24.2956 14.5456 25.1184 13.994C26.8149 12.8537 29.1233 13.3079 30.2636 15.0044C30.7479 15.7229 32.0157 18.2237 32.9845 20.6665C34.7737 25.1674 34.3241 26.2381 33.6473 26.6901Z" fill="url(#paint1_linear_16586_84544)"/>
<path fill-rule="evenodd" clip-rule="evenodd" d="M33.425 26.3586L33.4257 26.3581C33.5466 26.2773 33.6465 26.178 33.7192 26.0223C33.7948 25.8604 33.8537 25.6099 33.8417 25.2086C33.8172 24.3945 33.5045 23.0552 32.6136 20.8139L32.6134 20.8136C31.6483 18.38 30.393 15.9105 29.9326 15.2276L29.9323 15.2271C28.9148 13.7133 26.8543 13.3081 25.341 14.3252L25.3406 14.3255C24.6059 14.8181 24.1084 15.5654 23.9388 16.4344L23.9387 16.4346C23.7689 17.3024 23.9446 18.1819 24.439 18.9162L24.4393 18.9167C24.8977 19.5999 26.7115 21.6973 28.5981 23.5122C29.8614 24.7272 30.8024 25.4826 31.5129 25.9321C32.228 26.3844 32.6741 26.5041 32.9567 26.5041C33.1528 26.5041 33.2946 26.4461 33.425 26.3586ZM23.547 16.358C23.357 17.3291 23.554 18.3164 24.1079 19.1391C24.5899 19.8576 26.4278 21.9783 28.3214 23.7999C30.8661 26.2474 32.1733 26.9033 32.9567 26.9033C33.2464 26.9033 33.4642 26.8129 33.6473 26.6901C34.3241 26.2381 34.7737 25.1674 32.9845 20.6665C32.0157 18.2237 30.7479 15.7229 30.2636 15.0044C29.1233 13.3079 26.8149 12.8537 25.1184 13.994C24.2956 14.5456 23.737 15.3845 23.547 16.358Z" fill="#42397A"/>
<path d="M28.2242 17.8479C28.2172 20.7775 27.4246 27.844 20.219 30.2474C20.1471 30.2706 20.073 30.2821 19.9988 30.2821C19.9246 30.2821 19.8505 30.2706 19.7786 30.2474C12.573 27.844 11.7804 20.7775 11.7735 17.8479C11.7711 16.6891 11.982 15.5326 12.4015 14.4155L12.6264 13.8152C12.7283 13.5441 12.9879 13.3633 13.2776 13.3633H26.72C27.0097 13.3633 27.2693 13.5441 27.3713 13.8152L27.5961 14.4155C28.0156 15.5326 28.2265 16.6891 28.2242 17.8479Z" fill="url(#paint2_linear_16586_84544)"/>
<path fill-rule="evenodd" clip-rule="evenodd" d="M12.4015 14.4155C11.982 15.5326 11.7711 16.6891 11.7735 17.8479C11.7804 20.7775 12.573 27.844 19.7786 30.2474C19.8505 30.2706 19.9246 30.2821 19.9988 30.2821C20.073 30.2821 20.1471 30.2706 20.219 30.2474C27.4246 27.844 28.2172 20.7775 28.2242 17.8479C28.2265 16.6891 28.0156 15.5326 27.5961 14.4155L27.3713 13.8152C27.2693 13.5441 27.0097 13.3633 26.72 13.3633H13.2776C12.9879 13.3633 12.7283 13.5441 12.6264 13.8152L12.4015 14.4155ZM13 13.9555C13 13.9556 13 13.9557 13 13.9557L12.7752 14.5558C12.3723 15.6289 12.1704 16.7376 12.1726 17.847M13 13.9555C13.0439 13.8391 13.1553 13.7624 13.2776 13.7624H26.72C26.8424 13.7624 26.9538 13.8392 26.9976 13.9557C26.9976 13.9556 26.9976 13.9557 26.9976 13.9557L27.2223 14.5555L27.2224 14.5558C27.6254 15.6289 27.8272 16.7376 27.825 17.847C27.8181 20.7541 27.029 27.5537 20.0949 29.868C20.0631 29.8781 20.0308 29.883 19.9988 29.883C19.9669 29.883 19.9346 29.8781 19.9027 29.868C12.9687 27.5538 12.1795 20.7543 12.1726 17.8471" fill="#42397A"/>
<path d="M21.6197 26.3418H18.375C17.9909 26.3418 17.6797 26.0305 17.6797 25.6465C17.6797 25.2624 17.9909 24.9512 18.375 24.9512H21.6197C22.0037 24.9512 22.315 25.2624 22.315 25.6465C22.315 26.0305 22.0037 26.3418 21.6197 26.3418Z" fill="#A4EEFF"/>
<path d="M25.3331 17.7662V21.4745C25.3331 22.4966 24.501 23.3286 23.479 23.3286H16.526C15.5039 23.3286 14.6719 22.4966 14.6719 21.4745V17.7662C14.6719 16.7441 15.5039 15.9121 16.526 15.9121H23.479C24.501 15.9121 25.3331 16.7441 25.3331 17.7662Z" fill="url(#paint3_linear_16586_84544)"/>
<path d="M17.6886 20.3164C17.3048 20.3164 16.9922 20.0051 16.9922 19.6211C16.9922 19.237 17.3025 18.9258 17.6863 18.9258H17.6886C18.0727 18.9258 18.3839 19.237 18.3839 19.6211C18.3839 20.0051 18.0727 20.3164 17.6886 20.3164ZM20.0063 20.3164C19.6225 20.3164 19.3098 20.0051 19.3098 19.6211C19.3098 19.237 19.6202 18.9258 20.004 18.9258H20.0063C20.3903 18.9258 20.7016 19.237 20.7016 19.6211C20.7016 20.0051 20.3903 20.3164 20.0063 20.3164ZM22.3239 20.3164C21.9401 20.3164 21.6275 20.0051 21.6275 19.6211C21.6275 19.237 21.9378 18.9258 22.3216 18.9258H22.3239C22.708 18.9258 23.0192 19.237 23.0192 19.6211C23.0192 20.0051 22.708 20.3164 22.3239 20.3164Z" fill="#384051"/>
<path d="M14.4348 4.78709V8.95887C14.4348 9.3436 14.1242 9.65416 13.7395 9.65416H12.8124C11.6629 9.65416 10.7266 8.71783 10.7266 7.56827V6.17768C10.7266 5.02813 11.6629 4.0918 12.8124 4.0918H13.7395C14.1242 4.0918 14.4348 4.40236 14.4348 4.78709Z" fill="url(#paint4_linear_16586_84544)"/>
<path fill-rule="evenodd" clip-rule="evenodd" d="M14.0357 8.95887V4.78709C14.0357 4.62281 13.9038 4.49095 13.7395 4.49095H12.8124C11.8833 4.49095 11.1257 5.24857 11.1257 6.17768V7.56827C11.1257 8.49739 11.8833 9.25501 12.8124 9.25501H13.7395C13.9038 9.25501 14.0357 9.12315 14.0357 8.95887ZM14.4348 8.95887V4.78709C14.4348 4.40236 14.1242 4.0918 13.7395 4.0918H12.8124C11.6629 4.0918 10.7266 5.02813 10.7266 6.17768V7.56827C10.7266 8.71783 11.6629 9.65416 12.8124 9.65416H13.7395C14.1242 9.65416 14.4348 9.3436 14.4348 8.95887Z" fill="#42397A"/>
<path d="M29.5025 6.17768V7.56827C29.5025 8.71783 28.5662 9.65416 27.4166 9.65416H26.2578C25.8731 9.65416 25.5625 9.3436 25.5625 8.95887V4.78709C25.5625 4.40236 25.8731 4.0918 26.2578 4.0918H27.4166C28.5662 4.0918 29.5025 5.02813 29.5025 6.17768Z" fill="url(#paint5_linear_16586_84544)"/>
<path fill-rule="evenodd" clip-rule="evenodd" d="M29.1034 7.56827V6.17768C29.1034 5.24857 28.3457 4.49095 27.4166 4.49095H26.2578C26.0935 4.49095 25.9617 4.62281 25.9617 4.78709V8.95887C25.9617 9.12315 26.0935 9.25501 26.2578 9.25501H27.4166C28.3457 9.25501 29.1034 8.49739 29.1034 7.56827ZM29.5025 7.56827V6.17768C29.5025 5.02813 28.5662 4.0918 27.4166 4.0918H26.2578C25.8731 4.0918 25.5625 4.40236 25.5625 4.78709V8.95887C25.5625 9.3436 25.8731 9.65416 26.2578 9.65416H27.4166C28.5662 9.65416 29.5025 8.71783 29.5025 7.56827Z" fill="#42397A"/>
<path d="M24.4034 11.5089H15.5963C14.5724 11.5089 13.7422 10.6787 13.7422 9.65477V4.0924C13.7422 3.06846 14.5724 2.23828 15.5963 2.23828H24.4034C25.4273 2.23828 26.2575 3.06846 26.2575 4.0924V9.65477C26.2575 10.6787 25.4273 11.5089 24.4034 11.5089Z" fill="#A4EEFF"/>
<path d="M24.4034 11.5089H15.5963C14.5724 11.5089 13.7422 10.6787 13.7422 9.65477V4.0924C13.7422 3.06846 14.5724 2.23828 15.5963 2.23828H24.4034C25.4273 2.23828 26.2575 3.06846 26.2575 4.0924V9.65477C26.2575 10.6787 25.4273 11.5089 24.4034 11.5089Z" fill="url(#paint6_linear_16586_84544)"/>
<path d="M18.6119 7.56862C18.4339 7.56862 18.2562 7.50071 18.1203 7.3649C17.88 7.12502 17.4897 7.12502 17.2494 7.3649C16.9777 7.63653 16.5379 7.63653 16.2662 7.3649C15.9946 7.0935 15.9946 6.65315 16.2662 6.38175C17.0484 5.59931 18.3213 5.59931 19.1035 6.38175C19.3751 6.65315 19.3751 7.0935 19.1035 7.3649C18.9677 7.50071 18.7899 7.56862 18.6119 7.56862ZM23.2472 7.56862C23.0692 7.56862 22.8915 7.50071 22.7556 7.3649C22.5153 7.12502 22.125 7.12502 21.8847 7.3649C21.613 7.63653 21.1732 7.63653 20.9015 7.3649C20.6299 7.0935 20.6299 6.65315 20.9015 6.38175C21.6837 5.59931 22.9566 5.59931 23.7388 6.38175C24.0104 6.65315 24.0104 7.0935 23.7388 7.3649C23.603 7.50071 23.4252 7.56862 23.2472 7.56862Z" fill="#384051"/>
<path d="M24.4034 12.2042H15.5963C14.1906 12.2042 13.0469 11.0604 13.0469 9.65475V4.09239C13.0469 2.68673 14.1906 1.54297 15.5963 1.54297H24.4034C25.809 1.54297 26.9528 2.68673 26.9528 4.09239V9.65475C26.9528 11.0604 25.809 12.2042 24.4034 12.2042ZM15.5963 2.93356C14.9573 2.93356 14.4375 3.45341 14.4375 4.09239V9.65475C14.4375 10.2937 14.9573 10.8136 15.5963 10.8136H24.4034C25.0423 10.8136 25.5622 10.2937 25.5622 9.65475V4.09239C25.5622 3.45341 25.0423 2.93356 24.4034 2.93356H15.5963Z" fill="url(#paint7_linear_16586_84544)"/>
<path fill-rule="evenodd" clip-rule="evenodd" d="M15.5963 11.805H24.4034C25.5886 11.805 26.5536 10.84 26.5536 9.65475V4.09239C26.5536 2.90718 25.5886 1.94212 24.4034 1.94212H15.5963C14.4111 1.94212 13.446 2.90718 13.446 4.09239V9.65475C13.446 10.84 14.4111 11.805 15.5963 11.805ZM14.0383 4.09239C14.0383 3.23296 14.7369 2.53441 15.5963 2.53441H24.4034C25.2628 2.53441 25.9613 3.23296 25.9613 4.09239V9.65475C25.9613 10.5142 25.2628 11.2127 24.4034 11.2127H15.5963C14.7369 11.2127 14.0383 10.5142 14.0383 9.65475V4.09239ZM15.5963 12.2042H24.4034C25.809 12.2042 26.9528 11.0604 26.9528 9.65475V4.09239C26.9528 2.68673 25.809 1.54297 24.4034 1.54297H15.5963C14.1906 1.54297 13.0469 2.68673 13.0469 4.09239V9.65475C13.0469 11.0604 14.1906 12.2042 15.5963 12.2042ZM14.4375 4.09239C14.4375 3.45341 14.9573 2.93356 15.5963 2.93356H24.4034C25.0423 2.93356 25.5622 3.45341 25.5622 4.09239V9.65475C25.5622 10.2937 25.0423 10.8136 24.4034 10.8136H15.5963C14.9573 10.8136 14.4375 10.2937 14.4375 9.65475V4.09239Z" fill="#42397A"/>
<path d="M31.3687 16.6399L31.1312 16.7159L19.7801 19.8941L8.96316 16.7964C8.93696 16.7869 8.91068 16.7774 8.88431 16.7678L8.88222 16.7671C8.42457 16.6011 7.94295 16.4265 7.44969 16.3941C7.37335 16.4631 7.32639 16.5055 7.2973 16.5563C7.25079 16.6376 7.24996 16.7401 7.24782 17.0067L7.24902 17.1995C7.24813 17.4157 7.24753 17.632 7.24801 17.8483C7.2484 18.0073 7.24847 18.1663 7.24823 18.3253C7.2472 18.7574 7.24685 19.1896 7.24736 19.6217C7.24795 20.0815 7.24791 20.5412 7.24763 21.001C7.24717 21.7699 7.24728 22.5388 7.24809 23.3077C7.24907 24.2047 7.24939 25.1016 7.24842 25.9986C7.24757 26.7735 7.24714 27.5483 7.24747 28.3232L7.24759 28.5124V28.5141C7.24784 28.9118 7.2481 29.3095 7.24771 29.7072C7.24715 30.1489 7.24683 30.5906 7.24764 31.0322C7.24803 31.1945 7.24835 31.3568 7.24859 31.519L7.24858 31.5234C7.24802 31.749 7.24747 31.9746 7.24818 32.2002L7.24902 32.4044C7.24766 32.622 7.25403 32.8313 7.27163 33.0488L7.27171 33.0489C7.37709 33.1441 7.42008 33.183 7.4705 33.2108C7.50523 33.23 7.54348 33.244 7.60806 33.2676L7.60812 33.2677C9.88653 33.9008 12.1612 34.543 14.4295 35.2052C14.727 35.2921 15.0246 35.3788 15.3223 35.4656C15.9625 35.6522 16.6027 35.8389 17.2428 36.0257L19.7811 36.6694L22.3174 36.0257C22.7743 35.9 23.2313 35.7742 23.6883 35.6485L24.2564 35.4922C25.4266 35.1701 26.5968 34.8485 27.768 34.5295C28.1612 34.4224 28.5544 34.315 28.9475 34.2076L29.0087 34.1909C29.3173 34.1065 29.6258 34.0222 29.9345 33.9384C30.2749 33.846 30.6153 33.7534 30.9554 33.6603C31.0831 33.6253 31.2108 33.5904 31.3384 33.5554C31.4603 33.5225 31.5821 33.4896 31.7039 33.4567L32.0365 33.3652C32.211 33.3177 32.3846 33.2669 32.5556 33.2097C32.754 33.0305 32.754 33.0305 32.7567 32.5963L32.7551 32.4033C32.7556 32.1867 32.7558 31.9701 32.7549 31.7534C32.7542 31.5942 32.7539 31.4349 32.7538 31.2757C32.7541 30.8428 32.7537 30.41 32.7525 29.9772C32.7512 29.5169 32.7507 29.0566 32.7504 28.5963C32.75 27.7275 32.7489 26.8586 32.7471 25.9898C32.7451 24.9926 32.7438 23.9954 32.7429 22.9983C32.741 20.8505 32.7378 18.7028 32.7337 16.555C32.4336 16.4317 32.3247 16.3875 31.9919 16.4488L31.682 16.545L31.3687 16.6399Z" fill="#3E3578"/>
<path d="M32.0987 17.1211C32.0987 22.2704 32.0987 27.4197 32.0987 32.725C29.7715 33.4264 29.7715 33.4264 28.652 33.7177C28.2598 33.8212 27.8691 33.9293 27.4783 34.0371C27.3925 34.0607 27.3067 34.0844 27.2183 34.1087C26.4637 34.317 25.7097 34.527 24.9557 34.737C24.0687 34.984 23.181 35.2291 22.2927 35.4724C22.0392 35.5421 21.7858 35.6123 21.5325 35.6825C21.3701 35.7272 21.2077 35.772 21.0453 35.8167C20.9705 35.8375 20.8958 35.8584 20.8188 35.8799C20.7499 35.8987 20.6811 35.9176 20.6102 35.937C20.52 35.962 20.52 35.962 20.428 35.9874C20.2669 36.0228 20.2669 36.0228 20 36.0228C20 30.8469 20 25.6711 20 20.3384C20.6752 20.1526 21.3504 19.9668 22.0461 19.7754C22.4896 19.6522 22.933 19.529 23.3763 19.4053C23.6137 19.3391 23.8511 19.2729 24.0885 19.2068C24.1786 19.1816 24.1786 19.1816 24.2706 19.156C25.2797 18.8747 26.2891 18.5944 27.2985 18.314C27.6863 18.2063 28.074 18.0984 28.4617 17.9904C28.9176 17.8634 29.3737 17.737 29.8299 17.6111C29.9919 17.5663 30.1539 17.5213 30.3158 17.4761C30.536 17.4146 30.7564 17.3538 30.9769 17.2933C31.0399 17.2755 31.103 17.2577 31.1679 17.2394C31.5026 17.1484 31.7408 17.1211 32.0987 17.1211Z" fill="#D4DDFC"/>
<path d="M7.91719 17.0684C8.26881 17.1669 8.62042 17.2655 8.97203 17.3641C9.09128 17.3976 9.21052 17.431 9.32977 17.4645C11.2879 18.0134 13.2396 18.5801 15.1906 19.1495C15.4234 19.2174 15.6562 19.2853 15.889 19.3532C16.1054 19.4162 16.3217 19.4793 16.538 19.5425C17.5114 19.8262 18.4889 20.0958 19.4685 20.3615C19.4685 25.5301 19.4685 30.6987 19.4685 36.0239C19.0488 35.9697 18.7263 35.921 18.3356 35.8058C18.239 35.7776 18.1424 35.7494 18.0429 35.7203C17.8878 35.6743 17.8878 35.6743 17.7296 35.6273C17.5622 35.5783 17.3948 35.5292 17.2275 35.4802C16.9928 35.4113 16.7583 35.342 16.5238 35.2728C16.0666 35.1378 15.6092 35.0035 15.1517 34.8693C15.0374 34.8357 14.923 34.8022 14.8087 34.7686C13.8494 34.4869 12.8874 34.2144 11.9237 33.9454C11.1298 33.7238 10.3374 33.4984 9.54689 33.267C9.35201 33.21 9.15698 33.1535 8.96195 33.0969C8.83629 33.0602 8.71064 33.0235 8.585 32.9868C8.42045 32.9388 8.42045 32.9388 8.25257 32.8898C8.00605 32.8111 8.00605 32.8111 7.91719 32.7308C7.90851 32.5286 7.90564 32.3287 7.90651 32.1265C7.90643 32.0625 7.90635 31.9984 7.90628 31.9325C7.90613 31.7163 7.90662 31.5001 7.9071 31.2839C7.90713 31.1296 7.90712 30.9752 7.90707 30.8209C7.90704 30.4006 7.90756 29.9803 7.90818 29.5599C7.90874 29.1212 7.90879 28.6824 7.9089 28.2437C7.90917 27.4122 7.9099 26.5807 7.91079 25.7492C7.91178 24.8029 7.91227 23.8565 7.91272 22.9102C7.91365 20.9629 7.91521 19.0156 7.91719 17.0684Z" fill="#D4DDFC"/>
<path d="M7.91707 17.0684C9.09178 17.3867 9.09178 17.3867 10.2902 17.7114C10.2612 22.8837 10.2322 28.0561 10.2023 33.3852C9.67765 33.2786 9.17396 33.1667 8.66418 33.0185C8.60141 33.0007 8.53864 32.9829 8.47397 32.9646C8.01634 32.8329 8.01634 32.8329 7.91707 32.7422C7.90848 32.5399 7.90565 32.3398 7.9065 32.1375C7.90643 32.0734 7.90635 32.0093 7.90628 31.9433C7.90613 31.7269 7.90662 31.5106 7.9071 31.2942C7.90712 31.1398 7.90711 30.9854 7.90706 30.8309C7.90703 30.4103 7.90755 29.9897 7.90816 29.569C7.90871 29.1299 7.90876 28.6909 7.90887 28.2518C7.90914 27.4197 7.90986 26.5876 7.91074 25.7555C7.91172 24.8085 7.91221 23.8615 7.91265 22.9144C7.91357 20.9657 7.91513 19.0171 7.91707 17.0684Z" fill="#BEBEF6"/>
<path d="M32.0978 17.1211C32.0978 22.2667 32.0978 27.4122 32.0978 32.7138C30.1565 33.2764 30.1565 33.2764 29.8035 33.2764C29.8035 32.8785 29.8035 32.4807 29.8035 32.0708C30.3277 31.9116 30.3277 31.9116 30.8624 31.7493C30.8624 31.6166 30.8624 31.484 30.8624 31.3474C30.513 31.427 30.1635 31.5065 29.8035 31.5885C29.8035 31.058 29.8035 30.5276 29.8035 29.981C30.3277 29.8219 30.3277 29.8219 30.8624 29.6595C30.8624 29.58 30.8624 29.5004 30.8624 29.4184C30.513 29.4449 30.1635 29.4714 29.8035 29.4988C29.8035 28.9948 29.8035 28.4909 29.8035 27.9717C30.0656 27.8921 30.3277 27.8125 30.5977 27.7305C30.7287 27.651 30.7287 27.651 30.8624 27.5698C30.8624 27.4902 30.8624 27.4106 30.8624 27.3287C30.3382 27.3684 30.3382 27.3684 29.8035 27.409C29.8035 26.9051 29.8035 26.4011 29.8035 25.8819C30.1529 25.7758 30.5024 25.6697 30.8624 25.5604C30.8624 25.4543 30.8624 25.3482 30.8624 25.2389C30.3382 25.2787 30.3382 25.2787 29.8035 25.3193C29.7964 25.0965 29.7911 24.874 29.7869 24.6512C29.7847 24.588 29.7825 24.5249 29.7802 24.4598C29.7794 24.399 29.7785 24.3381 29.7776 24.2754C29.7763 24.2194 29.7749 24.1634 29.7734 24.1057C29.8128 23.9057 29.8968 23.8377 30.0682 23.7118C30.2678 23.6355 30.2678 23.6355 30.4819 23.5762C30.5532 23.556 30.6245 23.5358 30.698 23.515C30.7522 23.5003 30.8065 23.4857 30.8624 23.4707C30.8624 23.3381 30.8624 23.2054 30.8624 23.0688C30.513 23.1484 30.1635 23.228 29.8035 23.3099C29.8035 22.7795 29.8035 22.249 29.8035 21.7024C30.1529 21.5963 30.5024 21.4903 30.8624 21.3809C30.8624 21.3014 30.8624 21.2218 30.8624 21.1398C30.3382 21.1796 30.3382 21.1796 29.8035 21.2202C29.8035 20.7162 29.8035 20.2123 29.8035 19.6931C30.0656 19.6135 30.3277 19.5339 30.5977 19.452C30.685 19.3989 30.7724 19.3459 30.8624 19.2912C30.8624 19.2116 30.8624 19.1321 30.8624 19.0501C30.513 19.0766 30.1635 19.1031 29.8035 19.1305C29.8035 18.653 29.8035 18.1756 29.8035 17.6837C30.2363 17.5359 30.66 17.3928 31.0996 17.2668C31.242 17.2253 31.242 17.2253 31.3874 17.1829C31.6566 17.1211 31.6566 17.1211 32.0978 17.1211Z" fill="#E8E8FF"/>
<path d="M7.90307 37.8629C7.99026 37.8627 8.07744 37.8625 8.16727 37.8623C8.26528 37.8625 8.3633 37.8626 8.46131 37.8628C8.56445 37.8627 8.66758 37.8626 8.77072 37.8625C9.05549 37.8621 9.34026 37.8623 9.62503 37.8625C9.93161 37.8627 10.2382 37.8624 10.5448 37.8622C11.1459 37.8619 11.747 37.8619 12.3482 37.8622C12.8365 37.8623 13.3248 37.8624 13.8132 37.8623C13.9172 37.8623 13.9172 37.8623 14.0233 37.8623C14.1642 37.8622 14.3051 37.8622 14.446 37.8622C15.7686 37.8619 17.0913 37.8622 18.414 37.8626C19.5502 37.863 20.6865 37.8629 21.8227 37.8626C23.1405 37.8621 24.4583 37.862 25.776 37.8622C25.9164 37.8622 26.0568 37.8623 26.1972 37.8623C26.2662 37.8623 26.3353 37.8623 26.4065 37.8623C26.8945 37.8624 27.3826 37.8623 27.8706 37.8621C28.4649 37.8619 29.0592 37.8619 29.6536 37.8624C29.9571 37.8626 30.2606 37.8626 30.5642 37.8624C30.8416 37.8621 31.119 37.8623 31.3964 37.8627C31.4972 37.8628 31.598 37.8627 31.6988 37.8625C31.835 37.8623 31.9711 37.8626 32.1072 37.8629C32.1831 37.8629 32.259 37.8629 32.3372 37.863C32.5059 37.8729 32.5059 37.8729 32.5742 37.952C32.5828 38.1497 32.5828 38.1497 32.5742 38.3474C32.4523 38.4886 32.272 38.4364 32.1072 38.4365C32.0201 38.4367 31.9329 38.4369 31.843 38.4371C31.745 38.4369 31.647 38.4367 31.549 38.4366C31.4459 38.4367 31.3427 38.4368 31.2396 38.4369C30.9548 38.4373 30.67 38.4371 30.3853 38.4369C30.0787 38.4367 29.7721 38.437 29.4655 38.4372C28.8644 38.4375 28.2633 38.4374 27.6621 38.4372C27.1738 38.437 26.6855 38.437 26.1972 38.4371C26.0931 38.4371 26.0931 38.4371 25.987 38.4371C25.8461 38.4372 25.7052 38.4372 25.5643 38.4372C24.2417 38.4374 22.919 38.4372 21.5963 38.4368C20.4601 38.4364 19.3238 38.4365 18.1876 38.4368C16.8698 38.4373 15.5521 38.4374 14.2343 38.4372C14.0939 38.4372 13.9535 38.4371 13.8132 38.4371C13.7441 38.4371 13.675 38.4371 13.6038 38.4371C13.1158 38.437 12.6278 38.4371 12.1397 38.4373C11.5454 38.4375 10.9511 38.4375 10.3567 38.437C10.0532 38.4368 9.74967 38.4368 9.44613 38.437C9.16871 38.4372 8.8913 38.4371 8.61389 38.4367C8.51308 38.4366 8.41227 38.4367 8.31146 38.4368C8.17533 38.4371 8.0392 38.4368 7.90307 38.4365C7.82719 38.4365 7.7513 38.4364 7.67312 38.4364C7.5044 38.4265 7.5044 38.4265 7.43609 38.3474C7.42755 38.1497 7.42755 38.1497 7.43609 37.952C7.55804 37.8108 7.73827 37.8629 7.90307 37.8629Z" fill="#3E3679"/>
<path d="M4.42961 36.4773C4.54182 36.4773 4.65404 36.4774 4.76966 36.4775C4.89582 36.4779 5.02198 36.4784 5.14814 36.4789C5.28089 36.4791 5.41364 36.4793 5.5464 36.4794C5.91294 36.4799 6.27948 36.4809 6.64602 36.482C7.04064 36.4831 7.43526 36.4837 7.82988 36.4844C8.60363 36.4859 9.37737 36.4877 10.1511 36.4897C10.7797 36.4914 11.4082 36.4928 12.0368 36.4942C12.1707 36.4945 12.1707 36.4945 12.3073 36.4948C12.4886 36.4952 12.6699 36.4956 12.8513 36.496C14.5538 36.4997 16.2562 36.5039 17.9587 36.5082C19.4212 36.5119 20.8837 36.5152 22.3462 36.5182C24.0424 36.5217 25.7386 36.5255 27.4348 36.5296C27.6154 36.5301 27.7961 36.5305 27.9768 36.5309C28.0657 36.5312 28.1546 36.5314 28.2462 36.5316C28.8744 36.5331 29.5026 36.5344 30.1308 36.5357C30.8957 36.5373 31.6607 36.5391 32.4257 36.5413C32.8164 36.5424 33.2071 36.5433 33.5978 36.544C33.9549 36.5446 34.312 36.5455 34.669 36.5468C34.7988 36.5471 34.9285 36.5474 35.0583 36.5475C35.2335 36.5477 35.4087 36.5484 35.5839 36.5491C35.6816 36.5493 35.7793 36.5496 35.8799 36.5498C36.0971 36.5599 36.0971 36.5599 36.1848 36.6365C36.1952 36.8274 36.1952 36.8274 36.1837 37.0183C36.0263 37.1543 35.7945 37.1034 35.5824 37.1029C35.4702 37.1029 35.3579 37.1028 35.2423 37.1028C35.1162 37.1023 34.99 37.1018 34.8638 37.1014C34.7311 37.1012 34.5983 37.101 34.4656 37.1008C34.0991 37.1003 33.7325 37.0993 33.366 37.0982C32.9714 37.0971 32.5767 37.0965 32.1821 37.0958C31.4084 37.0943 30.6346 37.0925 29.8609 37.0905C29.2323 37.0889 28.6038 37.0874 27.9752 37.086C27.8413 37.0857 27.8413 37.0857 27.7047 37.0854C27.5234 37.085 27.342 37.0846 27.1607 37.0843C25.4582 37.0805 23.7557 37.0764 22.0533 37.072C20.5908 37.0683 19.1283 37.065 17.6657 37.062C15.9696 37.0585 14.2734 37.0548 12.5772 37.0506C12.3966 37.0502 12.2159 37.0497 12.0352 37.0493C11.9463 37.0491 11.8574 37.0489 11.7658 37.0486C11.1376 37.0471 10.5094 37.0458 9.88122 37.0445C9.11624 37.043 8.35126 37.0411 7.58628 37.039C7.19558 37.0379 6.80488 37.0369 6.41418 37.0362C6.05711 37.0356 5.70004 37.0347 5.34297 37.0335C5.21321 37.0331 5.08345 37.0328 4.9537 37.0327C4.77848 37.0325 4.60326 37.0319 4.42804 37.0311C4.33037 37.0309 4.23269 37.0307 4.13205 37.0304C3.91492 37.0204 3.91492 37.0204 3.82721 36.9438C3.81676 36.7528 3.81676 36.7528 3.82829 36.5619C3.98564 36.4259 4.21748 36.4768 4.42961 36.4773Z" fill="#3E3679"/>
<path d="M30.9667 19.0578C30.9388 19.2091 30.9388 19.2091 30.8773 19.3806C30.6363 19.5256 30.4911 19.5828 30.2194 19.6495C30.1425 19.6688 30.0655 19.688 29.9863 19.7078C29.8631 19.7381 29.8631 19.7381 29.7375 19.769C29.1737 19.9107 28.6148 20.0564 28.0612 20.228C27.449 20.4171 26.8298 20.5762 26.2069 20.734C25.7476 20.8511 25.2945 20.9763 24.8429 21.1157C24.0706 21.354 23.2859 21.5515 22.5 21.7495C22.3137 21.7969 22.1282 21.8463 21.9426 21.8959C21.6873 21.9587 21.4849 21.9775 21.2222 21.9631C21.1927 21.8566 21.1632 21.75 21.1328 21.6403C21.5474 21.381 21.9917 21.2696 22.4696 21.1416C22.5566 21.1178 22.6437 21.094 22.7334 21.0695C23.0117 20.9936 23.2903 20.9185 23.5689 20.8433C23.7522 20.7935 23.9354 20.7436 24.1186 20.6936C24.9085 20.4785 25.6992 20.266 26.4912 20.0571C27.2979 19.8442 28.0991 19.6158 28.9002 19.3865C29.0857 19.3335 29.2712 19.2808 29.4567 19.228C29.5645 19.1972 29.6724 19.1664 29.7835 19.1346C30.22 19.0187 30.5212 18.9544 30.9667 19.0578Z" fill="#463E7D"/>
<path d="M30.9667 27.3508C30.9388 27.5021 30.9388 27.5021 30.8773 27.6736C30.6363 27.8186 30.4911 27.8758 30.2194 27.9425C30.1425 27.9617 30.0655 27.981 29.9863 28.0008C29.8631 28.0311 29.8631 28.0311 29.7375 28.062C29.1737 28.2036 28.6148 28.3494 28.0612 28.521C27.449 28.71 26.8298 28.8691 26.2069 29.0269C25.7476 29.1441 25.2945 29.2692 24.8429 29.4087C24.0706 29.647 23.2859 29.8445 22.5 30.0425C22.3137 30.0899 22.1282 30.1393 21.9426 30.1889C21.6873 30.2516 21.4849 30.2704 21.2222 30.2561C21.1927 30.1495 21.1632 30.043 21.1328 29.9333C21.5474 29.6739 21.9917 29.5626 22.4696 29.4345C22.5566 29.4108 22.6437 29.387 22.7334 29.3625C23.0117 29.2866 23.2903 29.2114 23.5689 29.1363C23.7522 29.0864 23.9354 29.0365 24.1186 28.9866C24.9085 28.7715 25.6992 28.559 26.4912 28.3501C27.2979 28.1371 28.0991 27.9088 28.9002 27.6795C29.0857 27.6265 29.2712 27.5737 29.4567 27.521C29.5645 27.4902 29.6724 27.4594 29.7835 27.4276C30.22 27.3116 30.5212 27.2473 30.9667 27.3508Z" fill="#463E7D"/>
<path d="M30.8773 25.1544C30.9216 25.3549 30.9216 25.3549 30.9667 25.5594C29.8672 25.9538 28.7183 26.2366 27.5876 26.5477C26.8214 26.7585 26.0562 26.9721 25.2911 27.186C24.6114 27.3757 23.9306 27.5619 23.2486 27.7447C22.7553 27.8778 22.2693 28.0246 21.7865 28.1867C21.5609 28.2368 21.4389 28.2211 21.2222 28.1516C21.1927 28.0446 21.1632 27.9377 21.1328 27.8275C21.854 27.5118 22.6023 27.3088 23.3678 27.1036C23.5014 27.0673 23.635 27.0311 23.7686 26.9948C24.5335 26.7873 25.2995 26.5832 26.0662 26.3808C26.5342 26.2541 26.9991 26.1185 27.4643 25.9836C28.0278 25.8215 28.595 25.6752 29.1665 25.538C29.4858 25.4603 29.7939 25.3732 30.1024 25.2651C30.3942 25.1666 30.5723 25.1285 30.8773 25.1544Z" fill="#463E7D"/>
<path d="M30.8834 23.0996C30.9275 23.2971 30.9275 23.2971 30.9725 23.4985C30.3668 23.7256 29.7582 23.9153 29.1287 24.082C28.9473 24.1307 28.766 24.1794 28.5846 24.2281C28.4468 24.2649 28.4468 24.2649 28.3063 24.3025C27.8725 24.4187 27.4395 24.5371 27.0064 24.6554C26.8353 24.7021 26.6641 24.7487 26.4929 24.7953C26.4083 24.8184 26.3237 24.8414 26.2365 24.8652C25.9838 24.934 25.7311 25.0027 25.4784 25.0715C25.3951 25.0941 25.3118 25.1168 25.2259 25.1402C25.0583 25.1858 24.8906 25.2313 24.7228 25.2767C24.2474 25.4057 23.7733 25.5378 23.3 25.673C23.1946 25.7028 23.0892 25.7326 22.9806 25.7634C22.7752 25.8215 22.5702 25.8803 22.3653 25.9399C22.2261 25.9792 22.2261 25.9792 22.084 26.0192C22.0018 26.0428 21.9196 26.0664 21.835 26.0907C21.6046 26.1332 21.4772 26.1208 21.2578 26.0516C21.2578 25.9463 21.2578 25.841 21.2578 25.7325C21.8385 25.4847 22.4238 25.3014 23.0403 25.1391C23.1303 25.115 23.2203 25.0909 23.313 25.066C23.8984 24.9095 24.4848 24.7559 25.0714 24.6031C25.5387 24.4806 26.0024 24.3494 26.4661 24.2166C27.0812 24.0403 27.6992 23.8807 28.3228 23.7303C28.8922 23.5909 29.4502 23.4255 30.0068 23.2495C30.3192 23.1525 30.5487 23.0996 30.8834 23.0996Z" fill="#463D7D"/>
<path d="M30.8773 21.0564C30.9216 21.2169 30.9216 21.2169 30.9667 21.3807C30.5013 21.6134 30.0227 21.7469 29.514 21.8823C29.3291 21.9324 29.1443 21.9826 28.9594 22.0328C28.8153 22.0717 28.8153 22.0717 28.6684 22.1114C28.182 22.2437 27.697 22.3798 27.2119 22.5157C26.3932 22.7445 25.5741 22.9724 24.7542 23.1977C24.3124 23.3192 23.8711 23.4418 23.4303 23.5662C23.2912 23.6052 23.2912 23.6052 23.1492 23.645C22.9723 23.6946 22.7955 23.7446 22.6188 23.795C21.4542 24.1207 21.4542 24.1207 21.1328 23.975C21.1384 23.8281 21.1384 23.8281 21.2222 23.6507C21.7492 23.4135 22.3111 23.2692 22.8726 23.1142C22.9713 23.0868 23.07 23.0593 23.1717 23.031C23.4865 22.9434 23.8015 22.8562 24.1165 22.7691C24.3248 22.7111 24.533 22.6532 24.7413 22.5952C25.6628 22.339 26.585 22.085 27.5104 21.8404C27.8933 21.7389 28.2743 21.6327 28.6546 21.5235C28.7521 21.4956 28.8497 21.4676 28.9502 21.4388C29.1475 21.382 29.3447 21.3248 29.5417 21.2672C29.6862 21.226 29.6862 21.226 29.8335 21.1841C29.9184 21.1595 30.0033 21.1349 30.0908 21.1095C30.3607 21.0522 30.6011 21.0471 30.8773 21.0564Z" fill="#463D7D"/>
<path d="M30.8773 29.3494C30.9216 29.5099 30.9216 29.5099 30.9667 29.6737C30.5013 29.9064 30.0227 30.0399 29.514 30.1753C29.3291 30.2254 29.1443 30.2756 28.9594 30.3257C28.8153 30.3647 28.8153 30.3647 28.6684 30.4044C28.182 30.5366 27.697 30.6728 27.2119 30.8087C26.3932 31.0375 25.5741 31.2653 24.7542 31.4907C24.3124 31.6122 23.8711 31.7348 23.4303 31.8591C23.2912 31.8981 23.2912 31.8981 23.1492 31.938C22.9723 31.9876 22.7955 32.0376 22.6188 32.0879C21.4542 32.4137 21.4542 32.4137 21.1328 32.268C21.1562 32.1153 21.1562 32.1153 21.2222 31.9437C21.8176 31.5837 22.6874 31.4592 23.3713 31.2767C23.9886 31.1114 24.6028 30.937 25.2172 30.7631C25.9573 30.554 26.6974 30.3459 27.4424 30.1515C27.8321 30.0492 28.2192 29.9405 28.606 29.8295C28.7106 29.7997 28.8151 29.7698 28.9229 29.7391C29.1304 29.6798 29.3377 29.6199 29.5448 29.5593C29.6877 29.5186 29.6877 29.5186 29.8335 29.477C29.9184 29.4524 30.0033 29.4278 30.0908 29.4025C30.3607 29.3452 30.6011 29.3401 30.8773 29.3494Z" fill="#463D7D"/>
<path d="M30.8834 31.3926C30.9275 31.59 30.9275 31.59 30.9725 31.7914C30.3668 32.0183 29.7582 32.208 29.1287 32.3746C28.947 32.4234 28.7653 32.4722 28.5835 32.521C28.4916 32.5456 28.3998 32.5701 28.3051 32.5954C27.8773 32.7099 27.4502 32.8264 27.0231 32.9429C26.9394 32.9657 26.8556 32.9885 26.7693 33.012C26.2181 33.1621 25.6673 33.3133 25.1167 33.4651C24.9219 33.5187 24.7271 33.5723 24.5323 33.6257C24.0457 33.7594 23.5596 33.8944 23.0744 34.0324C22.9806 34.0587 22.8867 34.0851 22.79 34.1123C22.612 34.1623 22.4342 34.2129 22.2566 34.2643C22.1376 34.2975 22.1376 34.2975 22.0161 34.3314C21.9122 34.3611 21.9122 34.3611 21.8062 34.3913C21.5933 34.4269 21.4615 34.4043 21.2578 34.3436C21.2578 34.2383 21.2578 34.133 21.2578 34.0246C21.8385 33.7769 22.4238 33.5936 23.0403 33.4314C23.1303 33.4073 23.2203 33.3832 23.313 33.3583C23.8984 33.2019 24.4848 33.0483 25.0714 32.8955C25.5387 32.7731 26.0024 32.642 26.4661 32.5092C27.0812 32.333 27.6992 32.1734 28.3228 32.0231C28.8922 31.8837 29.4502 31.7184 30.0068 31.5424C30.3192 31.4455 30.5487 31.3926 30.8834 31.3926Z" fill="#463D7D"/>
<path d="M34.2138 37.8701C34.2748 37.8699 34.3358 37.8696 34.3986 37.8694C34.5278 37.869 34.6571 37.8688 34.7863 37.8688C34.9845 37.8686 35.1827 37.8672 35.3809 37.8657C35.5062 37.8655 35.6315 37.8653 35.7568 37.8652C35.8461 37.8644 35.8461 37.8644 35.9373 37.8635C36.3571 37.8654 36.3571 37.8654 36.5112 38.041C36.4742 38.3196 36.4742 38.3196 36.3729 38.4349C36.1692 38.4429 35.9672 38.4459 35.7635 38.4454C35.6718 38.4455 35.6718 38.4455 35.5783 38.4456C35.4488 38.4457 35.3192 38.4455 35.1897 38.4452C34.9908 38.4448 34.7918 38.4452 34.5928 38.4457C34.4673 38.4456 34.3418 38.4455 34.2163 38.4454C34.1563 38.4456 34.0964 38.4457 34.0347 38.4459C33.6148 38.444 33.6148 38.444 33.5377 38.3561C33.5291 38.1592 33.5291 38.1592 33.5377 37.9622C33.6842 37.7953 34.0111 37.8704 34.2138 37.8701Z" fill="#3E3578"/>
<path d="M4.05828 37.8539C4.14817 37.8541 4.14817 37.8541 4.23988 37.8544C4.30101 37.8543 4.36215 37.8542 4.42513 37.8541C4.55465 37.8541 4.68417 37.8542 4.81368 37.8546C5.01265 37.8551 5.21161 37.8546 5.41058 37.854C5.5361 37.8541 5.66162 37.8542 5.78713 37.8544C5.84706 37.8542 5.90699 37.854 5.96874 37.8539C6.38857 37.8559 6.38857 37.8559 6.46567 37.9517C6.47432 38.1665 6.47432 38.1665 6.46567 38.3813C6.31919 38.5632 5.99226 38.4813 5.78956 38.4816C5.72859 38.4819 5.66762 38.4822 5.60481 38.4825C5.47558 38.4829 5.34635 38.4831 5.21713 38.4831C5.01891 38.4833 4.82072 38.4848 4.62251 38.4865C4.49722 38.4867 4.37192 38.4869 4.24663 38.487C4.15727 38.4879 4.15727 38.4879 4.06611 38.4888C3.64631 38.4868 3.64631 38.4868 3.49219 38.2953C3.55114 37.812 3.68658 37.8557 4.05828 37.8539Z" fill="#3E3578"/>
</g>
<defs>
<linearGradient id="paint0_linear_16586_84544" x1="5.75794" y1="20.1345" x2="16.5234" y2="20.1345" gradientUnits="userSpaceOnUse">
<stop offset="0.004" stop-color="#7994D8"/>
<stop offset="0.037" stop-color="#728DD2"/>
<stop offset="0.175" stop-color="#5C75BC"/>
<stop offset="0.321" stop-color="#4C64AC"/>
<stop offset="0.48" stop-color="#425AA3"/>
<stop offset="0.677" stop-color="#3F57A0"/>
<stop offset="1" stop-color="#2A428B"/>
</linearGradient>
<linearGradient id="paint1_linear_16586_84544" x1="34.2425" y1="20.1343" x2="23.4765" y2="20.1343" gradientUnits="userSpaceOnUse">
<stop offset="0.004" stop-color="#7994D8"/>
<stop offset="0.037" stop-color="#728DD2"/>
<stop offset="0.175" stop-color="#5C75BC"/>
<stop offset="0.321" stop-color="#4C64AC"/>
<stop offset="0.48" stop-color="#425AA3"/>
<stop offset="0.677" stop-color="#3F57A0"/>
<stop offset="1" stop-color="#2A428B"/>
</linearGradient>
<linearGradient id="paint2_linear_16586_84544" x1="11.7735" y1="21.8227" x2="28.2242" y2="21.8227" gradientUnits="userSpaceOnUse">
<stop stop-color="#A4EEFF"/>
<stop offset="0.732" stop-color="#02C0FC"/>
<stop offset="1" stop-color="#27A6FF"/>
</linearGradient>
<linearGradient id="paint3_linear_16586_84544" x1="14.6719" y1="19.6204" x2="25.3331" y2="19.6204" gradientUnits="userSpaceOnUse">
<stop offset="0.239" stop-color="#E8F8FC"/>
<stop offset="0.36" stop-color="#DAF5FB"/>
<stop offset="0.586" stop-color="#B6EBF8"/>
<stop offset="0.638" stop-color="#ADE9F7"/>
<stop offset="0.973" stop-color="#80CBF7"/>
</linearGradient>
<linearGradient id="paint4_linear_16586_84544" x1="10.7266" y1="6.87298" x2="14.4348" y2="6.87298" gradientUnits="userSpaceOnUse">
<stop offset="0.004" stop-color="#7994D8"/>
<stop offset="0.037" stop-color="#728DD2"/>
<stop offset="0.175" stop-color="#5C75BC"/>
<stop offset="0.321" stop-color="#4C64AC"/>
<stop offset="0.48" stop-color="#425AA3"/>
<stop offset="0.677" stop-color="#3F57A0"/>
<stop offset="1" stop-color="#2A428B"/>
</linearGradient>
<linearGradient id="paint5_linear_16586_84544" x1="29.5025" y1="6.87298" x2="25.5625" y2="6.87298" gradientUnits="userSpaceOnUse">
<stop offset="0.004" stop-color="#7994D8"/>
<stop offset="0.037" stop-color="#728DD2"/>
<stop offset="0.175" stop-color="#5C75BC"/>
<stop offset="0.321" stop-color="#4C64AC"/>
<stop offset="0.48" stop-color="#425AA3"/>
<stop offset="0.677" stop-color="#3F57A0"/>
<stop offset="1" stop-color="#2A428B"/>
</linearGradient>
<linearGradient id="paint6_linear_16586_84544" x1="13.7422" y1="6.87359" x2="26.2575" y2="6.87359" gradientUnits="userSpaceOnUse">
<stop offset="0.184" stop-color="#E8F8FC"/>
<stop offset="0.31" stop-color="#DAF5FB"/>
<stop offset="0.547" stop-color="#B6EBF8"/>
<stop offset="0.601" stop-color="#ADE9F7"/>
<stop offset="0.723" stop-color="#A0E1F7"/>
<stop offset="0.943" stop-color="#80CBF7"/>
</linearGradient>
<linearGradient id="paint7_linear_16586_84544" x1="13.0469" y1="6.87357" x2="26.9528" y2="6.87357" gradientUnits="userSpaceOnUse">
<stop stop-color="#A4EEFF"/>
<stop offset="0.732" stop-color="#02C0FC"/>
<stop offset="1" stop-color="#27A6FF"/>
</linearGradient>
<clipPath id="clip0_16586_84544">
<rect width="40" height="40" fill="white"/>
</clipPath>
</defs>
</svg>
