<svg width="40" height="40" viewBox="0 0 40 40" fill="none" xmlns="http://www.w3.org/2000/svg">
<mask id="mask0_7101_32597" style="mask-type:alpha" maskUnits="userSpaceOnUse" x="4" y="4" width="32" height="32">
<rect x="4" y="4" width="32" height="32" fill="#4399EB"/>
</mask>
<g mask="url(#mask0_7101_32597)">
<path d="M11.0763 31.3333C10.4135 31.3333 9.84602 31.0973 9.37402 30.6253C8.90202 30.1533 8.66602 29.5859 8.66602 28.923V11.077C8.66602 10.4141 8.90202 9.84667 9.37402 9.37467C9.84602 8.90267 10.4135 8.66667 11.0763 8.66667H17.0097C17.0935 7.92644 17.4166 7.297 17.979 6.77833C18.5412 6.25944 19.2168 6 20.0057 6C20.7946 6 21.4702 6.25944 22.0327 6.77833C22.5951 7.297 22.9139 7.92644 22.989 8.66667H28.9223C29.5852 8.66667 30.1527 8.90267 30.6247 9.37467C31.0967 9.84667 31.3327 10.4141 31.3327 11.077V28.923C31.3327 29.5859 31.0967 30.1533 30.6247 30.6253C30.1527 31.0973 29.5852 31.3333 28.9223 31.3333H11.0763ZM11.0763 29.3333H28.9223C29.025 29.3333 29.119 29.2906 29.2043 29.205C29.2899 29.1197 29.3327 29.0257 29.3327 28.923V11.077C29.3327 10.9743 29.2899 10.8803 29.2043 10.795C29.119 10.7094 29.025 10.6667 28.9223 10.6667H11.0763C10.9737 10.6667 10.8797 10.7094 10.7943 10.795C10.7088 10.8803 10.666 10.9743 10.666 11.077V28.923C10.666 29.0257 10.7088 29.1197 10.7943 29.205C10.8797 29.2906 10.9737 29.3333 11.0763 29.3333ZM14.666 26.1793H21.3327C21.616 26.1793 21.8535 26.0834 22.045 25.8917C22.2368 25.7001 22.3327 25.4626 22.3327 25.179C22.3327 24.8957 22.2368 24.6582 22.045 24.4667C21.8535 24.2753 21.616 24.1797 21.3327 24.1797H14.666C14.3827 24.1797 14.1452 24.2754 13.9537 24.467C13.7619 24.6588 13.666 24.8964 13.666 25.18C13.666 25.4633 13.7619 25.7008 13.9537 25.8923C14.1452 26.0837 14.3827 26.1793 14.666 26.1793ZM14.666 21H25.3327C25.616 21 25.8535 20.9041 26.045 20.7123C26.2368 20.5206 26.3327 20.283 26.3327 19.9997C26.3327 19.7161 26.2368 19.4787 26.045 19.2873C25.8535 19.0958 25.616 19 25.3327 19H14.666C14.3827 19 14.1452 19.0959 13.9537 19.2877C13.7619 19.4794 13.666 19.717 13.666 20.0003C13.666 20.2839 13.7619 20.5213 13.9537 20.7127C14.1452 20.9042 14.3827 21 14.666 21ZM14.666 15.8203H25.3327C25.616 15.8203 25.8535 15.7246 26.045 15.533C26.2368 15.3412 26.3327 15.1036 26.3327 14.82C26.3327 14.5367 26.2368 14.2992 26.045 14.1077C25.8535 13.9163 25.616 13.8207 25.3327 13.8207H14.666C14.3827 13.8207 14.1452 13.9166 13.9537 14.1083C13.7619 14.2999 13.666 14.5374 13.666 14.821C13.666 15.1043 13.7619 15.3418 13.9537 15.5333C14.1452 15.7247 14.3827 15.8203 14.666 15.8203ZM19.9993 9.795C20.2882 9.795 20.5271 9.70056 20.716 9.51167C20.9049 9.32278 20.9993 9.08389 20.9993 8.795C20.9993 8.50611 20.9049 8.26722 20.716 8.07833C20.5271 7.88944 20.2882 7.795 19.9993 7.795C19.7105 7.795 19.4716 7.88944 19.2827 8.07833C19.0938 8.26722 18.9993 8.50611 18.9993 8.795C18.9993 9.08389 19.0938 9.32278 19.2827 9.51167C19.4716 9.70056 19.7105 9.795 19.9993 9.795Z" fill="#4399EB"/>
</g>
</svg>
