<svg width="69" height="69" viewBox="0 0 69 69" fill="none" xmlns="http://www.w3.org/2000/svg">
<path fill-rule="evenodd" clip-rule="evenodd" d="M49.2734 4.05859C50.1933 4.05859 50.939 4.8149 50.939 5.74785V14.6517H59.7182C60.6381 14.6517 61.3838 15.408 61.3838 16.3409C61.3838 17.2739 60.6381 18.0302 59.7182 18.0302H50.939V26.934C50.939 27.8669 50.1933 28.6232 49.2734 28.6232C48.3535 28.6232 47.6077 27.8669 47.6077 26.934V18.0302H38.8286C37.9087 18.0302 37.1629 17.2739 37.1629 16.3409C37.1629 15.408 37.9087 14.6517 38.8286 14.6517H47.6077V5.74785C47.6077 4.8149 48.3535 4.05859 49.2734 4.05859ZM31.5211 15.0036C22.9669 15.0036 16.0323 22.0366 16.0323 30.7122V32.6131C16.0323 34.0629 15.7764 35.5011 15.2764 36.8594C15.2764 36.8594 15.2764 36.8594 15.2764 36.8594L12.8075 43.5675C11.7579 46.4193 13.8372 49.4574 16.8387 49.4574H46.0467C49.0182 49.4574 51.0952 46.4753 50.1021 43.6351L50.0107 43.3736L47.6985 36.5638C47.399 35.6817 47.8613 34.7203 48.731 34.4165C49.6008 34.1128 50.5487 34.5816 50.8482 35.4637L53.158 42.2663L53.2418 42.5059C55.0038 47.5452 51.3186 52.836 46.0467 52.836H16.8387C11.5135 52.836 7.82438 47.4458 9.68662 42.386L12.1555 35.6779C12.5163 34.6976 12.7011 33.6596 12.7011 32.6131V30.7122C12.7011 20.1707 21.1271 11.6251 31.5211 11.6251C32.441 11.6251 33.1868 12.3814 33.1868 13.3143C33.1868 14.2473 32.441 15.0036 31.5211 15.0036ZM24.8728 57.8672C25.7455 57.5722 26.6887 58.0506 26.9796 58.9356C27.4168 60.2658 28.1477 60.8554 28.8745 61.169C29.6835 61.518 30.5856 61.5638 31.368 61.5638C32.1503 61.5638 33.0524 61.518 33.8615 61.169C34.5882 60.8554 35.3191 60.2658 35.7563 58.9356C36.0472 58.0506 36.9905 57.5722 37.8631 57.8672C38.7358 58.1623 39.2075 59.1189 38.9166 60.004C38.1601 62.3058 36.7186 63.6078 35.1655 64.2779C33.6947 64.9124 32.2094 64.9423 31.368 64.9423C30.5265 64.9423 29.0412 64.9124 27.5704 64.2779C26.0173 63.6078 24.5759 62.3058 23.8194 60.004C23.5285 59.1189 24.0001 58.1623 24.8728 57.8672Z" fill="#333333"/>
</svg>
