<svg width="24" height="25" viewBox="0 0 24 25" fill="none" xmlns="http://www.w3.org/2000/svg"><mask id="a" style="mask-type:alpha" maskUnits="userSpaceOnUse" x="0" y="0" width="24" height="25"><path fill="#fff" d="M0 .5h24v24H0z"/></mask><g mask="url(#a)"><path d="M5 19.5a.97.97 0 0 1-.712-.288A.97.97 0 0 1 4 18.5q0-.424.288-.712A.97.97 0 0 1 5 17.5h1v-7q0-2.075 1.25-3.687Q8.5 5.2 10.5 4.7V4q0-.625.438-1.062A1.45 1.45 0 0 1 12 2.5q.625 0 1.063.438.437.436.437 1.062v.7q2 .5 3.25 2.113T18 10.5v7h1q.425 0 .713.288.287.287.287.712 0 .424-.287.712A.97.97 0 0 1 19 19.5zm7 3q-.825 0-1.412-.587A1.93 1.93 0 0 1 10 20.5h4q0 .824-.587 1.413A1.93 1.93 0 0 1 12 22.5m-4-5h8v-7q0-1.65-1.175-2.825T12 6.5 9.175 7.675 8 10.5zm-5-7a.91.91 0 0 1-.712-.325.92.92 0 0 1-.238-.75A9.6 9.6 0 0 1 3.1 5.937a10.1 10.1 0 0 1 2.175-2.812 1 1 0 0 1 .738-.25.84.84 0 0 1 .662.375q.25.35.2.75t-.375.7a7.9 7.9 0 0 0-1.6 2.15 8.3 8.3 0 0 0-.825 2.65q-.05.424-.35.713A1 1 0 0 1 3 10.5m18 0a1 1 0 0 1-.725-.287q-.3-.288-.35-.713a8.3 8.3 0 0 0-.825-2.65 7.9 7.9 0 0 0-1.6-2.15 1.12 1.12 0 0 1-.375-.7 1.03 1.03 0 0 1 .2-.75.84.84 0 0 1 .663-.375q.412-.025.737.25 1.326 1.2 2.175 2.813a9.6 9.6 0 0 1 1.05 3.487.92.92 0 0 1-.237.75.91.91 0 0 1-.713.325" fill="#fff"/></g></svg>