<svg width="37" height="35" viewBox="0 0 37 35" fill="none" xmlns="http://www.w3.org/2000/svg">
<g filter="url(#filter0_i_511_2781)">
<path d="M30.525 27.6002H6.475C5.96625 27.6002 5.55 28.0164 5.55 28.5252V30.3752C5.55 30.8839 5.96625 31.3002 6.475 31.3002H30.525C31.0338 31.3002 31.45 30.8839 31.45 30.3752V28.5252C31.45 28.0164 31.0338 27.6002 30.525 27.6002ZM34.225 9.1002C32.693 9.1002 31.45 10.3432 31.45 11.8752C31.45 12.2857 31.5425 12.6672 31.7044 13.0199L27.5188 15.5289C26.6284 16.0608 25.478 15.7602 24.9634 14.8583L20.2517 6.61426C20.8703 6.10551 21.275 5.34238 21.275 4.4752C21.275 2.94316 20.032 1.7002 18.5 1.7002C16.968 1.7002 15.725 2.94316 15.725 4.4752C15.725 5.34238 16.1297 6.10551 16.7483 6.61426L12.0366 14.8583C11.522 15.7602 10.3658 16.0608 9.48125 15.5289L5.30141 13.0199C5.4575 12.673 5.55578 12.2857 5.55578 11.8752C5.55578 10.3432 4.31281 9.1002 2.78078 9.1002C1.24875 9.1002 0 10.3432 0 11.8752C0 13.4072 1.24297 14.6502 2.775 14.6502C2.92531 14.6502 3.07563 14.6271 3.22016 14.6039L7.4 25.7502H29.6L33.7798 14.6039C33.9244 14.6271 34.0747 14.6502 34.225 14.6502C35.757 14.6502 37 13.4072 37 11.8752C37 10.3432 35.757 9.1002 34.225 9.1002Z" fill="url(#paint0_linear_511_2781)"/>
</g>
<path d="M31.8329 13.2343L32.025 13.1192L31.9316 12.9156C31.7835 12.593 31.7 12.2469 31.7 11.8752C31.7 10.4812 32.831 9.3502 34.225 9.3502C35.619 9.3502 36.75 10.4812 36.75 11.8752C36.75 13.2692 35.619 14.4002 34.225 14.4002C34.0973 14.4002 33.9657 14.3805 33.8193 14.3571L33.6175 14.3248L33.5458 14.5162L29.4268 25.5002H7.57325L3.45424 14.5162L3.38248 14.3248L3.18066 14.3571C3.0343 14.3805 2.90266 14.4002 2.775 14.4002C1.38104 14.4002 0.25 13.2692 0.25 11.8752C0.25 10.4819 1.38614 9.3502 2.78078 9.3502C4.17474 9.3502 5.30578 10.4812 5.30578 11.8752C5.30578 12.2454 5.21715 12.5979 5.07343 12.9173L4.98226 13.1199L5.17274 13.2342L9.35242 15.7432C10.3574 16.3475 11.6698 16.0058 12.2537 14.9822L16.9653 6.73831L17.07 6.55516L16.9071 6.42117C16.3416 5.9561 15.975 5.26183 15.975 4.4752C15.975 3.08124 17.106 1.9502 18.5 1.9502C19.894 1.9502 21.025 3.08124 21.025 4.4752C21.025 5.26183 20.6584 5.9561 20.0929 6.42117L19.93 6.55516L20.0347 6.73831L24.7463 14.9822C25.3304 16.006 26.6367 16.3471 27.647 15.7436L27.6473 15.7434L31.8329 13.2343ZM5.8 28.5252C5.8 28.1545 6.10432 27.8502 6.475 27.8502H30.525C30.8957 27.8502 31.2 28.1545 31.2 28.5252V30.3752C31.2 30.7459 30.8957 31.0502 30.525 31.0502H6.475C6.10432 31.0502 5.8 30.7459 5.8 30.3752V28.5252Z" stroke="url(#paint1_linear_511_2781)" stroke-width="0.5"/>
<g filter="url(#filter1_f_511_2781)">
<path d="M29.5 29.5C29.5 28.9477 29.5523 28 29 28C28.4477 28 28 28.4477 28 29C28 29.5523 28.4477 30.5 29 30.5C29.5523 30.5 29.5 30.0523 29.5 29.5Z" fill="#FFF7F3"/>
</g>
<g filter="url(#filter2_f_511_2781)">
<path d="M25.5 29.5C25.5 28.9477 25.5523 28 25 28C24.4477 28 24 28.4477 24 29C24 29.5523 24.4477 30.5 25 30.5C25.5523 30.5 25.5 30.0523 25.5 29.5Z" fill="#FFF7F3"/>
</g>
<g filter="url(#filter3_f_511_2781)">
<path d="M21.5 29.5C21.5 28.9477 21.5523 28 21 28C20.4477 28 20 28.4477 20 29C20 29.5523 20.4477 30.5 21 30.5C21.5523 30.5 21.5 30.0523 21.5 29.5Z" fill="#FFF7F3"/>
</g>
<g filter="url(#filter4_f_511_2781)">
<path d="M17.5 29.5C17.5 28.9477 17.5523 28 17 28C16.4477 28 16 28.4477 16 29C16 29.5523 16.4477 30.5 17 30.5C17.5523 30.5 17.5 30.0523 17.5 29.5Z" fill="#FFF7F3"/>
</g>
<g filter="url(#filter5_f_511_2781)">
<path d="M13.5 29.5C13.5 28.9477 13.5523 28 13 28C12.4477 28 12 28.4477 12 29C12 29.5523 12.4477 30.5 13 30.5C13.5523 30.5 13.5 30.0523 13.5 29.5Z" fill="#FFF7F3"/>
</g>
<g filter="url(#filter6_f_511_2781)">
<path d="M9.5 29.5C9.5 28.9477 9.55228 28 9 28C8.44772 28 8 28.4477 8 29C8 29.5523 8.44772 30.5 9 30.5C9.55228 30.5 9.5 30.0523 9.5 29.5Z" fill="#FFF7F3"/>
</g>
<g filter="url(#filter7_i_511_2781)">
<circle cx="8.5" cy="29.5" r="1" fill="#F48927"/>
</g>
<g filter="url(#filter8_i_511_2781)">
<circle cx="12.5" cy="29.5" r="1" fill="#F48927"/>
</g>
<g filter="url(#filter9_i_511_2781)">
<circle cx="16.5" cy="29.5" r="1" fill="#F48927"/>
</g>
<g filter="url(#filter10_i_511_2781)">
<circle cx="20.5" cy="29.5" r="1" fill="#F48927"/>
</g>
<g filter="url(#filter11_i_511_2781)">
<circle cx="24.5" cy="29.5" r="1" fill="#F48927"/>
</g>
<g filter="url(#filter12_i_511_2781)">
<circle cx="28.5" cy="29.5" r="1" fill="#F48927"/>
</g>
<g filter="url(#filter13_f_511_2781)">
<path d="M18.5 4C18.5 3.44772 18.5523 2.5 18 2.5C17.4477 2.5 17 2.94772 17 3.5C17 4.05228 17.4477 5 18 5C18.5523 5 18.5 4.55228 18.5 4Z" fill="#FFF7F3"/>
</g>
<g filter="url(#filter14_f_511_2781)">
<path d="M34.5 11.5C34.5 10.9477 34.5523 10 34 10C33.4477 10 33 10.4477 33 11C33 11.5523 33.4477 12.5 34 12.5C34.5523 12.5 34.5 12.0523 34.5 11.5Z" fill="#FFF7F3"/>
</g>
<g filter="url(#filter15_f_511_2781)">
<path d="M2.5 12C2.5 11.4477 2.55228 10.5 2 10.5C1.44772 10.5 1 10.9477 1 11.5C1 12.0523 1.44772 13 2 13C2.55228 13 2.5 12.5523 2.5 12Z" fill="#FFF7F3"/>
</g>
<defs>
<filter id="filter0_i_511_2781" x="0" y="1.7002" width="39" height="31.6001" filterUnits="userSpaceOnUse" color-interpolation-filters="sRGB">
<feFlood flood-opacity="0" result="BackgroundImageFix"/>
<feBlend mode="normal" in="SourceGraphic" in2="BackgroundImageFix" result="shape"/>
<feColorMatrix in="SourceAlpha" type="matrix" values="0 0 0 0 0 0 0 0 0 0 0 0 0 0 0 0 0 0 127 0" result="hardAlpha"/>
<feOffset dx="2" dy="2"/>
<feGaussianBlur stdDeviation="1.5"/>
<feComposite in2="hardAlpha" operator="arithmetic" k2="-1" k3="1"/>
<feColorMatrix type="matrix" values="0 0 0 0 1 0 0 0 0 0.95325 0 0 0 0 0.7875 0 0 0 0.81 0"/>
<feBlend mode="normal" in2="shape" result="effect1_innerShadow_511_2781"/>
</filter>
<filter id="filter1_f_511_2781" x="27" y="27" width="3.50122" height="4.5" filterUnits="userSpaceOnUse" color-interpolation-filters="sRGB">
<feFlood flood-opacity="0" result="BackgroundImageFix"/>
<feBlend mode="normal" in="SourceGraphic" in2="BackgroundImageFix" result="shape"/>
<feGaussianBlur stdDeviation="0.5" result="effect1_foregroundBlur_511_2781"/>
</filter>
<filter id="filter2_f_511_2781" x="23" y="27" width="3.50122" height="4.5" filterUnits="userSpaceOnUse" color-interpolation-filters="sRGB">
<feFlood flood-opacity="0" result="BackgroundImageFix"/>
<feBlend mode="normal" in="SourceGraphic" in2="BackgroundImageFix" result="shape"/>
<feGaussianBlur stdDeviation="0.5" result="effect1_foregroundBlur_511_2781"/>
</filter>
<filter id="filter3_f_511_2781" x="19" y="27" width="3.50122" height="4.5" filterUnits="userSpaceOnUse" color-interpolation-filters="sRGB">
<feFlood flood-opacity="0" result="BackgroundImageFix"/>
<feBlend mode="normal" in="SourceGraphic" in2="BackgroundImageFix" result="shape"/>
<feGaussianBlur stdDeviation="0.5" result="effect1_foregroundBlur_511_2781"/>
</filter>
<filter id="filter4_f_511_2781" x="15" y="27" width="3.50122" height="4.5" filterUnits="userSpaceOnUse" color-interpolation-filters="sRGB">
<feFlood flood-opacity="0" result="BackgroundImageFix"/>
<feBlend mode="normal" in="SourceGraphic" in2="BackgroundImageFix" result="shape"/>
<feGaussianBlur stdDeviation="0.5" result="effect1_foregroundBlur_511_2781"/>
</filter>
<filter id="filter5_f_511_2781" x="11" y="27" width="3.50122" height="4.5" filterUnits="userSpaceOnUse" color-interpolation-filters="sRGB">
<feFlood flood-opacity="0" result="BackgroundImageFix"/>
<feBlend mode="normal" in="SourceGraphic" in2="BackgroundImageFix" result="shape"/>
<feGaussianBlur stdDeviation="0.5" result="effect1_foregroundBlur_511_2781"/>
</filter>
<filter id="filter6_f_511_2781" x="7" y="27" width="3.50122" height="4.5" filterUnits="userSpaceOnUse" color-interpolation-filters="sRGB">
<feFlood flood-opacity="0" result="BackgroundImageFix"/>
<feBlend mode="normal" in="SourceGraphic" in2="BackgroundImageFix" result="shape"/>
<feGaussianBlur stdDeviation="0.5" result="effect1_foregroundBlur_511_2781"/>
</filter>
<filter id="filter7_i_511_2781" x="7.5" y="28.5" width="2.01" height="2.01" filterUnits="userSpaceOnUse" color-interpolation-filters="sRGB">
<feFlood flood-opacity="0" result="BackgroundImageFix"/>
<feBlend mode="normal" in="SourceGraphic" in2="BackgroundImageFix" result="shape"/>
<feColorMatrix in="SourceAlpha" type="matrix" values="0 0 0 0 0 0 0 0 0 0 0 0 0 0 0 0 0 0 127 0" result="hardAlpha"/>
<feOffset dx="0.01" dy="0.01"/>
<feGaussianBlur stdDeviation="0.05"/>
<feComposite in2="hardAlpha" operator="arithmetic" k2="-1" k3="1"/>
<feColorMatrix type="matrix" values="0 0 0 0 1 0 0 0 0 0.852155 0 0 0 0 0.5625 0 0 0 1 0"/>
<feBlend mode="normal" in2="shape" result="effect1_innerShadow_511_2781"/>
</filter>
<filter id="filter8_i_511_2781" x="11.5" y="28.5" width="2.01" height="2.01" filterUnits="userSpaceOnUse" color-interpolation-filters="sRGB">
<feFlood flood-opacity="0" result="BackgroundImageFix"/>
<feBlend mode="normal" in="SourceGraphic" in2="BackgroundImageFix" result="shape"/>
<feColorMatrix in="SourceAlpha" type="matrix" values="0 0 0 0 0 0 0 0 0 0 0 0 0 0 0 0 0 0 127 0" result="hardAlpha"/>
<feOffset dx="0.01" dy="0.01"/>
<feGaussianBlur stdDeviation="0.05"/>
<feComposite in2="hardAlpha" operator="arithmetic" k2="-1" k3="1"/>
<feColorMatrix type="matrix" values="0 0 0 0 1 0 0 0 0 0.852155 0 0 0 0 0.5625 0 0 0 1 0"/>
<feBlend mode="normal" in2="shape" result="effect1_innerShadow_511_2781"/>
</filter>
<filter id="filter9_i_511_2781" x="15.5" y="28.5" width="2.01" height="2.01" filterUnits="userSpaceOnUse" color-interpolation-filters="sRGB">
<feFlood flood-opacity="0" result="BackgroundImageFix"/>
<feBlend mode="normal" in="SourceGraphic" in2="BackgroundImageFix" result="shape"/>
<feColorMatrix in="SourceAlpha" type="matrix" values="0 0 0 0 0 0 0 0 0 0 0 0 0 0 0 0 0 0 127 0" result="hardAlpha"/>
<feOffset dx="0.01" dy="0.01"/>
<feGaussianBlur stdDeviation="0.05"/>
<feComposite in2="hardAlpha" operator="arithmetic" k2="-1" k3="1"/>
<feColorMatrix type="matrix" values="0 0 0 0 1 0 0 0 0 0.852155 0 0 0 0 0.5625 0 0 0 1 0"/>
<feBlend mode="normal" in2="shape" result="effect1_innerShadow_511_2781"/>
</filter>
<filter id="filter10_i_511_2781" x="19.5" y="28.5" width="2.01" height="2.01" filterUnits="userSpaceOnUse" color-interpolation-filters="sRGB">
<feFlood flood-opacity="0" result="BackgroundImageFix"/>
<feBlend mode="normal" in="SourceGraphic" in2="BackgroundImageFix" result="shape"/>
<feColorMatrix in="SourceAlpha" type="matrix" values="0 0 0 0 0 0 0 0 0 0 0 0 0 0 0 0 0 0 127 0" result="hardAlpha"/>
<feOffset dx="0.01" dy="0.01"/>
<feGaussianBlur stdDeviation="0.05"/>
<feComposite in2="hardAlpha" operator="arithmetic" k2="-1" k3="1"/>
<feColorMatrix type="matrix" values="0 0 0 0 1 0 0 0 0 0.852155 0 0 0 0 0.5625 0 0 0 1 0"/>
<feBlend mode="normal" in2="shape" result="effect1_innerShadow_511_2781"/>
</filter>
<filter id="filter11_i_511_2781" x="23.5" y="28.5" width="2.01" height="2.01" filterUnits="userSpaceOnUse" color-interpolation-filters="sRGB">
<feFlood flood-opacity="0" result="BackgroundImageFix"/>
<feBlend mode="normal" in="SourceGraphic" in2="BackgroundImageFix" result="shape"/>
<feColorMatrix in="SourceAlpha" type="matrix" values="0 0 0 0 0 0 0 0 0 0 0 0 0 0 0 0 0 0 127 0" result="hardAlpha"/>
<feOffset dx="0.01" dy="0.01"/>
<feGaussianBlur stdDeviation="0.05"/>
<feComposite in2="hardAlpha" operator="arithmetic" k2="-1" k3="1"/>
<feColorMatrix type="matrix" values="0 0 0 0 1 0 0 0 0 0.852155 0 0 0 0 0.5625 0 0 0 1 0"/>
<feBlend mode="normal" in2="shape" result="effect1_innerShadow_511_2781"/>
</filter>
<filter id="filter12_i_511_2781" x="27.5" y="28.5" width="2.01" height="2.01" filterUnits="userSpaceOnUse" color-interpolation-filters="sRGB">
<feFlood flood-opacity="0" result="BackgroundImageFix"/>
<feBlend mode="normal" in="SourceGraphic" in2="BackgroundImageFix" result="shape"/>
<feColorMatrix in="SourceAlpha" type="matrix" values="0 0 0 0 0 0 0 0 0 0 0 0 0 0 0 0 0 0 127 0" result="hardAlpha"/>
<feOffset dx="0.01" dy="0.01"/>
<feGaussianBlur stdDeviation="0.05"/>
<feComposite in2="hardAlpha" operator="arithmetic" k2="-1" k3="1"/>
<feColorMatrix type="matrix" values="0 0 0 0 1 0 0 0 0 0.852155 0 0 0 0 0.5625 0 0 0 1 0"/>
<feBlend mode="normal" in2="shape" result="effect1_innerShadow_511_2781"/>
</filter>
<filter id="filter13_f_511_2781" x="16" y="1.5" width="3.50122" height="4.5" filterUnits="userSpaceOnUse" color-interpolation-filters="sRGB">
<feFlood flood-opacity="0" result="BackgroundImageFix"/>
<feBlend mode="normal" in="SourceGraphic" in2="BackgroundImageFix" result="shape"/>
<feGaussianBlur stdDeviation="0.5" result="effect1_foregroundBlur_511_2781"/>
</filter>
<filter id="filter14_f_511_2781" x="32" y="9" width="3.50122" height="4.5" filterUnits="userSpaceOnUse" color-interpolation-filters="sRGB">
<feFlood flood-opacity="0" result="BackgroundImageFix"/>
<feBlend mode="normal" in="SourceGraphic" in2="BackgroundImageFix" result="shape"/>
<feGaussianBlur stdDeviation="0.5" result="effect1_foregroundBlur_511_2781"/>
</filter>
<filter id="filter15_f_511_2781" x="0" y="9.5" width="3.50122" height="4.5" filterUnits="userSpaceOnUse" color-interpolation-filters="sRGB">
<feFlood flood-opacity="0" result="BackgroundImageFix"/>
<feBlend mode="normal" in="SourceGraphic" in2="BackgroundImageFix" result="shape"/>
<feGaussianBlur stdDeviation="0.5" result="effect1_foregroundBlur_511_2781"/>
</filter>
<linearGradient id="paint0_linear_511_2781" x1="38.5" y1="7.5" x2="5.5" y2="24.5" gradientUnits="userSpaceOnUse">
<stop stop-color="#A3581D"/>
<stop offset="0.348958" stop-color="#C68E3F"/>
<stop offset="0.65625" stop-color="#FFCE6E"/>
<stop offset="1" stop-color="#FDFE9F"/>
</linearGradient>
<linearGradient id="paint1_linear_511_2781" x1="38.5" y1="63" x2="13" y2="-35" gradientUnits="userSpaceOnUse">
<stop stop-color="#C68E3F"/>
<stop offset="0.166667" stop-color="#FEDE9F"/>
<stop offset="0.322817" stop-color="#FFCE6E"/>
<stop offset="0.489583" stop-color="#C1651D"/>
<stop offset="0.671875" stop-color="#C6703F"/>
<stop offset="0.84375" stop-color="#FEDE9F"/>
<stop offset="1" stop-color="#FFCE6E"/>
</linearGradient>
</defs>
</svg>
