<svg width="14" height="14" viewBox="0 0 14 14" fill="none" xmlns="http://www.w3.org/2000/svg">
<mask id="mask0_5196_31186" style="mask-type:alpha" maskUnits="userSpaceOnUse" x="0" y="0" width="14" height="14">
<rect x="14" width="14" height="14" transform="rotate(90 14 0)" fill="#D9D9D9"/>
</mask>
<g mask="url(#mask0_5196_31186)">
<path d="M1.75 2.33333C1.75 2.16806 1.8059 2.02951 1.91771 1.91771C2.02951 1.8059 2.16806 1.75 2.33333 1.75L5.83333 1.75C5.99861 1.75 6.13715 1.8059 6.24896 1.91771C6.36076 2.02951 6.41667 2.16806 6.41667 2.33333C6.41667 2.49861 6.36076 2.63715 6.24896 2.74896C6.13715 2.86076 5.99861 2.91667 5.83333 2.91667L3.73333 2.91667L11.0833 10.2667L11.0833 8.16667C11.0833 8.00139 11.1392 7.86285 11.251 7.75104C11.3628 7.63924 11.5014 7.58333 11.6667 7.58333C11.8319 7.58333 11.9705 7.63924 12.0823 7.75104C12.1941 7.86285 12.25 8.00139 12.25 8.16667L12.25 11.6667C12.25 11.8319 12.1941 11.9705 12.0823 12.0823C11.9705 12.1941 11.8319 12.25 11.6667 12.25L8.16667 12.25C8.00139 12.25 7.86285 12.1941 7.75104 12.0823C7.63924 11.9705 7.58333 11.8319 7.58333 11.6667C7.58333 11.5014 7.63924 11.3628 7.75104 11.251C7.86285 11.1392 8.00139 11.0833 8.16667 11.0833L10.2667 11.0833L2.91667 3.73333L2.91667 5.83333C2.91667 5.99861 2.86076 6.13715 2.74896 6.24896C2.63715 6.36076 2.49861 6.41667 2.33333 6.41667C2.16806 6.41667 2.02951 6.36076 1.91771 6.24896C1.8059 6.13715 1.75 5.99861 1.75 5.83333L1.75 2.33333Z" fill="#DDDDDD"/>
</g>
</svg>
