<svg width="24" height="24" viewBox="0 0 24 24" fill="none" xmlns="http://www.w3.org/2000/svg">
<mask id="mask0_17081_88105" style="mask-type:alpha" maskUnits="userSpaceOnUse" x="0" y="0" width="24" height="24">
<rect width="24" height="24" fill="white"/>
</mask>
<g mask="url(#mask0_17081_88105)">
<path d="M15.0961 20L16.5961 21.5H6.3077C5.80257 21.5 5.375 21.325 5.025 20.975C4.675 20.625 4.5 20.1974 4.5 19.6923V4.3077C4.5 3.80257 4.675 3.375 5.025 3.025C5.375 2.675 5.80257 2.5 6.3077 2.5H13.9307C14.2024 2.5 14.4589 2.5567 14.7003 2.6701C14.9418 2.7835 15.1455 2.94603 15.3115 3.1577L19.073 7.67115C19.2078 7.83733 19.3127 8.01862 19.3876 8.215C19.4625 8.4114 19.5 8.61665 19.5 8.83075V19.6923C19.5 19.9358 19.4435 20.1647 19.3307 20.3788C19.2179 20.5929 19.0653 20.7756 18.873 20.9269L13.8653 15.95C13.582 16.1397 13.2879 16.2788 12.9831 16.3673C12.6782 16.4557 12.3505 16.5 12 16.5C11.0375 16.5 10.2135 16.1572 9.52813 15.4718C8.84271 14.7864 8.5 13.9625 8.5 13C8.5 12.0375 8.84271 11.2135 9.52813 10.5281C10.2135 9.84271 11.0375 9.5 12 9.5C12.9625 9.5 13.7864 9.84271 14.4718 10.5281C15.1572 11.2135 15.5 12.0375 15.5 13C15.5 13.3641 15.4541 13.6984 15.3625 14.0029C15.2708 14.3073 15.1333 14.5948 14.95 14.8654L18 17.9654V8.69998L14.05 3.99998H6.3077C6.23077 3.99998 6.16024 4.03203 6.09612 4.09613C6.03202 4.16024 5.99997 4.23077 5.99997 4.3077V19.6923C5.99997 19.7692 6.03202 19.8397 6.09612 19.9038C6.16024 19.9679 6.23077 20 6.3077 20H15.0961ZM11.7645 15.4718C12.3145 15.4718 13.1501 15.257 13.5417 14.8654C13.9334 14.4737 14.7273 13.6408 14.7273 13.0908C14.7273 12.5408 14.5735 11.8461 14.1818 11.4545C13.7902 11.0628 12.55 10.5281 12 10.5281C11.45 10.5281 10.3916 10.6641 9.99997 11.0558C9.60831 11.4475 9.27273 12.5408 9.27273 13.0908C9.27273 13.6408 9.04889 14.6346 10.3636 14.8654C10.7553 15.257 11.2145 15.4718 11.7645 15.4718Z" fill="#4399EB"/>
<path fill-rule="evenodd" clip-rule="evenodd" d="M19.4921 19.6942C19.4921 19.9378 19.4357 20.1666 19.3229 20.3807C19.2101 20.5948 19.0575 20.7775 18.8652 20.9288L13.8575 15.9519C13.5742 16.1416 13.2801 16.2807 12.9753 16.3692C12.6704 16.4577 12.3427 16.5019 11.9922 16.5019C11.0297 16.5019 10.2057 16.1592 9.52031 15.4738C8.8349 14.7884 8.49219 13.9644 8.49219 13.0019C8.49219 12.0394 8.8349 11.2155 9.52031 10.5301C10.2057 9.84466 11.0297 9.50195 11.9922 9.50195C12.9546 9.50195 13.7786 9.84466 14.464 10.5301C15.1494 11.2155 15.4921 12.0394 15.4921 13.0019C15.4921 13.366 15.4463 13.7003 15.3546 14.0048C15.263 14.3093 15.1255 14.5968 14.9421 14.8673L17.9922 17.9673L19.4921 19.6942ZM11.995 15.1653C13.2 15.1653 14.1768 14.1885 14.1768 12.9835C14.1768 11.7785 13.2 10.8017 11.995 10.8017C10.79 10.8017 9.81321 11.7785 9.81321 12.9835C9.81321 14.1885 10.79 15.1653 11.995 15.1653Z" fill="#4399EB"/>
</g>
</svg>
