<svg width="80" height="80" viewBox="0 0 80 80" fill="none" xmlns="http://www.w3.org/2000/svg">
<path d="M28.5 4.50098L22.5 7.00098V16.501L15 22.501L6.5 23.501L4 28.001L11 34.501L12 43.501L4.5 51.001L6 56.001L12 57.501L19.5 59.001L23.5 65.501L22.5 73.001L27.5 75.501L34.5 70.501L44 69.001L51 75.501L56 74.501L57 70.501L58.5 61.501L66.5 57.501H73.5L75.5 51.001L69 44.501V36.001L75.5 28.501L73.5 22.501L65.5 23.501L57 15.501V6.50098L51 5.00098L45.5 10.501L37 11.501L28.5 4.50098Z" fill="white"/>
<path d="M40 62.001C52.1503 62.001 62 52.1512 62 40.001C62 27.8507 52.1503 18.001 40 18.001C27.8497 18.001 18 27.8507 18 40.001C18 52.1512 27.8497 62.001 40 62.001Z" fill="white" stroke="#5F9FFF" stroke-width="2"/>
<path d="M42 47.001C46.9706 47.001 51 42.9715 51 38.001C51 33.0304 46.9706 29.001 42 29.001C37.0294 29.001 33 33.0304 33 38.001C33 42.9715 37.0294 47.001 42 47.001Z" fill="#5F9FFF"/>
<mask id="path-4-outside-1_140_35682" maskUnits="userSpaceOnUse" x="4" y="2.00098" width="76" height="74" fill="black">
<rect fill="white" x="4" y="2.00098" width="76" height="74"/>
<path d="M78.2978 48.824C76.4011 47.9304 74.8015 46.535 73.6822 44.7977C72.5629 43.0604 71.9693 41.0514 71.9693 39.001C71.9693 36.9506 72.5629 34.9416 73.6822 33.2043C74.8015 31.467 76.4011 30.0716 78.2978 29.1779C78.567 29.0504 78.7802 28.8331 78.8984 28.5655C79.0167 28.2978 79.0322 27.9978 78.9421 27.72C78.2538 25.5947 77.3724 23.5333 76.3086 21.5601C76.1701 21.3027 75.9415 21.1021 75.664 20.9946C75.3866 20.8872 75.0788 20.88 74.7964 20.9744C72.807 21.645 70.6639 21.7572 68.612 21.2983C66.5602 20.8395 64.6825 19.828 63.1936 18.3797C61.7048 16.9313 60.6649 15.1046 60.193 13.1083C59.721 11.1119 59.836 9.02669 60.5248 7.09097C60.6218 6.81622 60.6145 6.51672 60.504 6.24679C60.3936 5.97686 60.1874 5.75436 59.9229 5.61964C57.8948 4.58455 55.7761 3.72705 53.5919 3.05727C53.3063 2.96963 52.998 2.98472 52.7229 3.09979C52.4478 3.21487 52.2244 3.42227 52.0934 3.68419C51.1802 5.53306 49.7476 7.09256 47.9613 8.18224C46.1751 9.27193 44.1083 9.84726 42 9.84167C39.8913 9.84772 37.8239 9.2726 36.0372 8.18289C34.2505 7.09318 32.8175 5.53344 31.9041 3.68419C31.7731 3.42227 31.5497 3.21487 31.2746 3.09979C30.9996 2.98472 30.6912 2.96963 30.4056 3.05727C28.2214 3.72705 26.1027 4.58455 24.0746 5.61964C23.8101 5.75436 23.6039 5.97686 23.4935 6.24679C23.383 6.51672 23.3757 6.81622 23.4727 7.09097C24.1619 9.02658 24.2772 11.1118 23.8056 13.1082C23.334 15.1046 22.2945 16.9315 20.8059 18.3801C19.3173 19.8287 17.4398 20.8405 15.388 21.2997C13.3363 21.7589 11.1931 21.647 9.20361 20.9769C8.92122 20.8825 8.61341 20.8896 8.33598 20.997C8.05855 21.1045 7.82987 21.3051 7.69141 21.5625C6.62756 23.5358 5.74624 25.5972 5.05786 27.7224C4.96778 28.0002 4.98329 28.3003 5.10156 28.5679C5.21983 28.8355 5.43299 29.0529 5.7022 29.1804C7.60242 30.0689 9.20524 31.4628 10.3252 33.2008C11.4451 34.9387 12.0365 36.9497 12.0307 39.001C12.0369 41.0527 11.4458 43.0642 10.3259 44.8026C9.20588 46.541 7.60281 47.9353 5.7022 48.824C5.43299 48.9515 5.21983 49.1689 5.10156 49.4365C4.98329 49.7041 4.96778 50.0042 5.05786 50.282C5.74624 52.4072 6.62756 54.4686 7.69141 56.4419C7.82987 56.6993 8.05855 56.8999 8.33598 57.0073C8.61341 57.1148 8.92122 57.1219 9.20361 57.0275C11.193 56.357 13.3361 56.2448 15.388 56.7036C17.4398 57.1625 19.3175 58.1739 20.8064 59.6223C22.2952 61.0706 23.3351 62.8974 23.807 64.8937C24.279 66.89 24.164 68.9753 23.4752 70.911C23.3782 71.1857 23.3855 71.4852 23.496 71.7552C23.6064 72.0251 23.8126 72.2476 24.0771 72.3823C26.1052 73.4174 28.2239 74.2749 30.4081 74.9447C30.6937 75.0323 31.0021 75.0172 31.2771 74.9022C31.5522 74.7871 31.7756 74.5797 31.9066 74.3178C32.825 72.4723 34.2592 70.9159 36.0448 69.8269C37.8304 68.7379 39.8951 68.1603 42.0025 68.1603C44.1099 68.1603 46.1746 68.7379 47.9602 69.8269C49.7458 70.9159 51.18 72.4723 52.0984 74.3178C52.2294 74.5797 52.4528 74.7871 52.7279 74.9022C53.0029 75.0172 53.3113 75.0323 53.5969 74.9447C55.7811 74.2749 57.8998 73.4174 59.9279 72.3823C60.1924 72.2476 60.3986 72.0251 60.509 71.7552C60.6195 71.4852 60.6268 71.1857 60.5298 70.911C59.8409 68.9756 59.7257 66.8907 60.1972 64.8947C60.6688 62.8986 61.708 61.0719 63.1962 59.6234C64.6844 58.175 66.5615 57.1631 68.6129 56.7036C70.6642 56.2442 72.807 56.3555 74.7964 57.0251C75.0788 57.1195 75.3866 57.1123 75.664 57.0049C75.9415 56.8975 76.1701 56.6969 76.3086 56.4395C77.3724 54.4662 78.2538 52.4048 78.9421 50.2796C79.0315 50.0021 79.0157 49.7026 78.8975 49.4355C78.7792 49.1684 78.5665 48.9515 78.2978 48.824ZM74.5604 54.4129C72.2483 53.8305 69.82 53.8456 67.5158 54.4567C65.2116 55.0679 63.1114 56.2539 61.423 57.8974C59.7346 59.5409 58.5165 61.5849 57.8894 63.8271C57.2623 66.0694 57.2479 68.432 57.8475 70.6814C56.5411 71.3036 55.1971 71.8481 53.8229 72.3118C52.6121 70.3079 50.8842 68.6466 48.8105 67.4922C46.7368 66.3379 44.3891 65.7307 42 65.7307C39.6109 65.7307 37.2632 66.3379 35.1895 67.4922C33.1158 68.6466 31.3879 70.3079 30.1771 72.3118C28.8029 71.8481 27.4589 71.3036 26.1525 70.6814C26.7509 68.4325 26.7355 66.0706 26.1078 63.8293C25.4801 61.5879 24.2619 59.5449 22.5737 57.9023C20.8854 56.2597 18.7856 55.0744 16.4821 54.4636C14.1785 53.8529 11.751 53.8379 9.43962 54.4202C8.80004 53.1491 8.24041 51.8414 7.76383 50.5043C9.82914 49.3325 11.5414 47.6528 12.7286 45.6337C13.9159 43.6146 14.5365 41.3272 14.5282 39.001C14.5365 36.6748 13.9159 34.3874 12.7286 32.3683C11.5414 30.3492 9.82914 28.6695 7.76383 27.4976C8.2402 26.1608 8.79983 24.8535 9.43962 23.583C11.751 24.165 14.1786 24.1497 16.4821 23.5388C18.7856 22.9279 20.8853 21.7425 22.5735 20.0998C24.2617 18.4571 25.4799 16.414 26.1076 14.1727C26.7353 11.9314 26.7508 9.56951 26.1525 7.3206C27.4589 6.69831 28.8029 6.15381 30.1771 5.69011C31.3815 7.6996 33.1079 9.36553 35.1831 10.5207C37.2582 11.6759 39.6092 12.2798 42 12.2716C44.3908 12.2798 46.7418 11.6759 48.8169 10.5207C50.8921 9.36553 52.6185 7.6996 53.8229 5.69011C55.1971 6.15381 56.5411 6.69831 57.8475 7.3206C57.2491 9.56948 57.2645 11.9314 57.8922 14.1727C58.5199 16.414 59.7381 18.457 61.4264 20.0997C63.1146 21.7423 65.2144 22.9276 67.5179 23.5383C69.8215 24.149 72.249 24.164 74.5604 23.5818C75.2 24.8528 75.7596 26.1605 76.2362 27.4976C74.1766 28.6757 72.4691 30.3569 71.2827 32.3745C70.0963 34.3922 69.4722 36.6764 69.4722 39.001C69.4722 41.3255 70.0963 43.6097 71.2827 45.6274C72.4691 47.6451 74.1766 49.3262 76.2362 50.5043C75.7598 51.8411 75.2002 53.1484 74.5604 54.419V54.4129Z"/>
</mask>
<path d="M78.2978 48.824C76.4011 47.9304 74.8015 46.535 73.6822 44.7977C72.5629 43.0604 71.9693 41.0514 71.9693 39.001C71.9693 36.9506 72.5629 34.9416 73.6822 33.2043C74.8015 31.467 76.4011 30.0716 78.2978 29.1779C78.567 29.0504 78.7802 28.8331 78.8984 28.5655C79.0167 28.2978 79.0322 27.9978 78.9421 27.72C78.2538 25.5947 77.3724 23.5333 76.3086 21.5601C76.1701 21.3027 75.9415 21.1021 75.664 20.9946C75.3866 20.8872 75.0788 20.88 74.7964 20.9744C72.807 21.645 70.6639 21.7572 68.612 21.2983C66.5602 20.8395 64.6825 19.828 63.1936 18.3797C61.7048 16.9313 60.6649 15.1046 60.193 13.1083C59.721 11.1119 59.836 9.02669 60.5248 7.09097C60.6218 6.81622 60.6145 6.51672 60.504 6.24679C60.3936 5.97686 60.1874 5.75436 59.9229 5.61964C57.8948 4.58455 55.7761 3.72705 53.5919 3.05727C53.3063 2.96963 52.998 2.98472 52.7229 3.09979C52.4478 3.21487 52.2244 3.42227 52.0934 3.68419C51.1802 5.53306 49.7476 7.09256 47.9613 8.18224C46.1751 9.27193 44.1083 9.84726 42 9.84167C39.8913 9.84772 37.8239 9.2726 36.0372 8.18289C34.2505 7.09318 32.8175 5.53344 31.9041 3.68419C31.7731 3.42227 31.5497 3.21487 31.2746 3.09979C30.9996 2.98472 30.6912 2.96963 30.4056 3.05727C28.2214 3.72705 26.1027 4.58455 24.0746 5.61964C23.8101 5.75436 23.6039 5.97686 23.4935 6.24679C23.383 6.51672 23.3757 6.81622 23.4727 7.09097C24.1619 9.02658 24.2772 11.1118 23.8056 13.1082C23.334 15.1046 22.2945 16.9315 20.8059 18.3801C19.3173 19.8287 17.4398 20.8405 15.388 21.2997C13.3363 21.7589 11.1931 21.647 9.20361 20.9769C8.92122 20.8825 8.61341 20.8896 8.33598 20.997C8.05855 21.1045 7.82987 21.3051 7.69141 21.5625C6.62756 23.5358 5.74624 25.5972 5.05786 27.7224C4.96778 28.0002 4.98329 28.3003 5.10156 28.5679C5.21983 28.8355 5.43299 29.0529 5.7022 29.1804C7.60242 30.0689 9.20524 31.4628 10.3252 33.2008C11.4451 34.9387 12.0365 36.9497 12.0307 39.001C12.0369 41.0527 11.4458 43.0642 10.3259 44.8026C9.20588 46.541 7.60281 47.9353 5.7022 48.824C5.43299 48.9515 5.21983 49.1689 5.10156 49.4365C4.98329 49.7041 4.96778 50.0042 5.05786 50.282C5.74624 52.4072 6.62756 54.4686 7.69141 56.4419C7.82987 56.6993 8.05855 56.8999 8.33598 57.0073C8.61341 57.1148 8.92122 57.1219 9.20361 57.0275C11.193 56.357 13.3361 56.2448 15.388 56.7036C17.4398 57.1625 19.3175 58.1739 20.8064 59.6223C22.2952 61.0706 23.3351 62.8974 23.807 64.8937C24.279 66.89 24.164 68.9753 23.4752 70.911C23.3782 71.1857 23.3855 71.4852 23.496 71.7552C23.6064 72.0251 23.8126 72.2476 24.0771 72.3823C26.1052 73.4174 28.2239 74.2749 30.4081 74.9447C30.6937 75.0323 31.0021 75.0172 31.2771 74.9022C31.5522 74.7871 31.7756 74.5797 31.9066 74.3178C32.825 72.4723 34.2592 70.9159 36.0448 69.8269C37.8304 68.7379 39.8951 68.1603 42.0025 68.1603C44.1099 68.1603 46.1746 68.7379 47.9602 69.8269C49.7458 70.9159 51.18 72.4723 52.0984 74.3178C52.2294 74.5797 52.4528 74.7871 52.7279 74.9022C53.0029 75.0172 53.3113 75.0323 53.5969 74.9447C55.7811 74.2749 57.8998 73.4174 59.9279 72.3823C60.1924 72.2476 60.3986 72.0251 60.509 71.7552C60.6195 71.4852 60.6268 71.1857 60.5298 70.911C59.8409 68.9756 59.7257 66.8907 60.1972 64.8947C60.6688 62.8986 61.708 61.0719 63.1962 59.6234C64.6844 58.175 66.5615 57.1631 68.6129 56.7036C70.6642 56.2442 72.807 56.3555 74.7964 57.0251C75.0788 57.1195 75.3866 57.1123 75.664 57.0049C75.9415 56.8975 76.1701 56.6969 76.3086 56.4395C77.3724 54.4662 78.2538 52.4048 78.9421 50.2796C79.0315 50.0021 79.0157 49.7026 78.8975 49.4355C78.7792 49.1684 78.5665 48.9515 78.2978 48.824ZM74.5604 54.4129C72.2483 53.8305 69.82 53.8456 67.5158 54.4567C65.2116 55.0679 63.1114 56.2539 61.423 57.8974C59.7346 59.5409 58.5165 61.5849 57.8894 63.8271C57.2623 66.0694 57.2479 68.432 57.8475 70.6814C56.5411 71.3036 55.1971 71.8481 53.8229 72.3118C52.6121 70.3079 50.8842 68.6466 48.8105 67.4922C46.7368 66.3379 44.3891 65.7307 42 65.7307C39.6109 65.7307 37.2632 66.3379 35.1895 67.4922C33.1158 68.6466 31.3879 70.3079 30.1771 72.3118C28.8029 71.8481 27.4589 71.3036 26.1525 70.6814C26.7509 68.4325 26.7355 66.0706 26.1078 63.8293C25.4801 61.5879 24.2619 59.5449 22.5737 57.9023C20.8854 56.2597 18.7856 55.0744 16.4821 54.4636C14.1785 53.8529 11.751 53.8379 9.43962 54.4202C8.80004 53.1491 8.24041 51.8414 7.76383 50.5043C9.82914 49.3325 11.5414 47.6528 12.7286 45.6337C13.9159 43.6146 14.5365 41.3272 14.5282 39.001C14.5365 36.6748 13.9159 34.3874 12.7286 32.3683C11.5414 30.3492 9.82914 28.6695 7.76383 27.4976C8.2402 26.1608 8.79983 24.8535 9.43962 23.583C11.751 24.165 14.1786 24.1497 16.4821 23.5388C18.7856 22.9279 20.8853 21.7425 22.5735 20.0998C24.2617 18.4571 25.4799 16.414 26.1076 14.1727C26.7353 11.9314 26.7508 9.56951 26.1525 7.3206C27.4589 6.69831 28.8029 6.15381 30.1771 5.69011C31.3815 7.6996 33.1079 9.36553 35.1831 10.5207C37.2582 11.6759 39.6092 12.2798 42 12.2716C44.3908 12.2798 46.7418 11.6759 48.8169 10.5207C50.8921 9.36553 52.6185 7.6996 53.8229 5.69011C55.1971 6.15381 56.5411 6.69831 57.8475 7.3206C57.2491 9.56948 57.2645 11.9314 57.8922 14.1727C58.5199 16.414 59.7381 18.457 61.4264 20.0997C63.1146 21.7423 65.2144 22.9276 67.5179 23.5383C69.8215 24.149 72.249 24.164 74.5604 23.5818C75.2 24.8528 75.7596 26.1605 76.2362 27.4976C74.1766 28.6757 72.4691 30.3569 71.2827 32.3745C70.0963 34.3922 69.4722 36.6764 69.4722 39.001C69.4722 41.3255 70.0963 43.6097 71.2827 45.6274C72.4691 47.6451 74.1766 49.3262 76.2362 50.5043C75.7598 51.8411 75.2002 53.1484 74.5604 54.419V54.4129Z" fill="#5F9FFF"/>
<path d="M78.2978 48.824C76.4011 47.9304 74.8015 46.535 73.6822 44.7977C72.5629 43.0604 71.9693 41.0514 71.9693 39.001C71.9693 36.9506 72.5629 34.9416 73.6822 33.2043C74.8015 31.467 76.4011 30.0716 78.2978 29.1779C78.567 29.0504 78.7802 28.8331 78.8984 28.5655C79.0167 28.2978 79.0322 27.9978 78.9421 27.72C78.2538 25.5947 77.3724 23.5333 76.3086 21.5601C76.1701 21.3027 75.9415 21.1021 75.664 20.9946C75.3866 20.8872 75.0788 20.88 74.7964 20.9744C72.807 21.645 70.6639 21.7572 68.612 21.2983C66.5602 20.8395 64.6825 19.828 63.1936 18.3797C61.7048 16.9313 60.6649 15.1046 60.193 13.1083C59.721 11.1119 59.836 9.02669 60.5248 7.09097C60.6218 6.81622 60.6145 6.51672 60.504 6.24679C60.3936 5.97686 60.1874 5.75436 59.9229 5.61964C57.8948 4.58455 55.7761 3.72705 53.5919 3.05727C53.3063 2.96963 52.998 2.98472 52.7229 3.09979C52.4478 3.21487 52.2244 3.42227 52.0934 3.68419C51.1802 5.53306 49.7476 7.09256 47.9613 8.18224C46.1751 9.27193 44.1083 9.84726 42 9.84167C39.8913 9.84772 37.8239 9.2726 36.0372 8.18289C34.2505 7.09318 32.8175 5.53344 31.9041 3.68419C31.7731 3.42227 31.5497 3.21487 31.2746 3.09979C30.9996 2.98472 30.6912 2.96963 30.4056 3.05727C28.2214 3.72705 26.1027 4.58455 24.0746 5.61964C23.8101 5.75436 23.6039 5.97686 23.4935 6.24679C23.383 6.51672 23.3757 6.81622 23.4727 7.09097C24.1619 9.02658 24.2772 11.1118 23.8056 13.1082C23.334 15.1046 22.2945 16.9315 20.8059 18.3801C19.3173 19.8287 17.4398 20.8405 15.388 21.2997C13.3363 21.7589 11.1931 21.647 9.20361 20.9769C8.92122 20.8825 8.61341 20.8896 8.33598 20.997C8.05855 21.1045 7.82987 21.3051 7.69141 21.5625C6.62756 23.5358 5.74624 25.5972 5.05786 27.7224C4.96778 28.0002 4.98329 28.3003 5.10156 28.5679C5.21983 28.8355 5.43299 29.0529 5.7022 29.1804C7.60242 30.0689 9.20524 31.4628 10.3252 33.2008C11.4451 34.9387 12.0365 36.9497 12.0307 39.001C12.0369 41.0527 11.4458 43.0642 10.3259 44.8026C9.20588 46.541 7.60281 47.9353 5.7022 48.824C5.43299 48.9515 5.21983 49.1689 5.10156 49.4365C4.98329 49.7041 4.96778 50.0042 5.05786 50.282C5.74624 52.4072 6.62756 54.4686 7.69141 56.4419C7.82987 56.6993 8.05855 56.8999 8.33598 57.0073C8.61341 57.1148 8.92122 57.1219 9.20361 57.0275C11.193 56.357 13.3361 56.2448 15.388 56.7036C17.4398 57.1625 19.3175 58.1739 20.8064 59.6223C22.2952 61.0706 23.3351 62.8974 23.807 64.8937C24.279 66.89 24.164 68.9753 23.4752 70.911C23.3782 71.1857 23.3855 71.4852 23.496 71.7552C23.6064 72.0251 23.8126 72.2476 24.0771 72.3823C26.1052 73.4174 28.2239 74.2749 30.4081 74.9447C30.6937 75.0323 31.0021 75.0172 31.2771 74.9022C31.5522 74.7871 31.7756 74.5797 31.9066 74.3178C32.825 72.4723 34.2592 70.9159 36.0448 69.8269C37.8304 68.7379 39.8951 68.1603 42.0025 68.1603C44.1099 68.1603 46.1746 68.7379 47.9602 69.8269C49.7458 70.9159 51.18 72.4723 52.0984 74.3178C52.2294 74.5797 52.4528 74.7871 52.7279 74.9022C53.0029 75.0172 53.3113 75.0323 53.5969 74.9447C55.7811 74.2749 57.8998 73.4174 59.9279 72.3823C60.1924 72.2476 60.3986 72.0251 60.509 71.7552C60.6195 71.4852 60.6268 71.1857 60.5298 70.911C59.8409 68.9756 59.7257 66.8907 60.1972 64.8947C60.6688 62.8986 61.708 61.0719 63.1962 59.6234C64.6844 58.175 66.5615 57.1631 68.6129 56.7036C70.6642 56.2442 72.807 56.3555 74.7964 57.0251C75.0788 57.1195 75.3866 57.1123 75.664 57.0049C75.9415 56.8975 76.1701 56.6969 76.3086 56.4395C77.3724 54.4662 78.2538 52.4048 78.9421 50.2796C79.0315 50.0021 79.0157 49.7026 78.8975 49.4355C78.7792 49.1684 78.5665 48.9515 78.2978 48.824ZM74.5604 54.4129C72.2483 53.8305 69.82 53.8456 67.5158 54.4567C65.2116 55.0679 63.1114 56.2539 61.423 57.8974C59.7346 59.5409 58.5165 61.5849 57.8894 63.8271C57.2623 66.0694 57.2479 68.432 57.8475 70.6814C56.5411 71.3036 55.1971 71.8481 53.8229 72.3118C52.6121 70.3079 50.8842 68.6466 48.8105 67.4922C46.7368 66.3379 44.3891 65.7307 42 65.7307C39.6109 65.7307 37.2632 66.3379 35.1895 67.4922C33.1158 68.6466 31.3879 70.3079 30.1771 72.3118C28.8029 71.8481 27.4589 71.3036 26.1525 70.6814C26.7509 68.4325 26.7355 66.0706 26.1078 63.8293C25.4801 61.5879 24.2619 59.5449 22.5737 57.9023C20.8854 56.2597 18.7856 55.0744 16.4821 54.4636C14.1785 53.8529 11.751 53.8379 9.43962 54.4202C8.80004 53.1491 8.24041 51.8414 7.76383 50.5043C9.82914 49.3325 11.5414 47.6528 12.7286 45.6337C13.9159 43.6146 14.5365 41.3272 14.5282 39.001C14.5365 36.6748 13.9159 34.3874 12.7286 32.3683C11.5414 30.3492 9.82914 28.6695 7.76383 27.4976C8.2402 26.1608 8.79983 24.8535 9.43962 23.583C11.751 24.165 14.1786 24.1497 16.4821 23.5388C18.7856 22.9279 20.8853 21.7425 22.5735 20.0998C24.2617 18.4571 25.4799 16.414 26.1076 14.1727C26.7353 11.9314 26.7508 9.56951 26.1525 7.3206C27.4589 6.69831 28.8029 6.15381 30.1771 5.69011C31.3815 7.6996 33.1079 9.36553 35.1831 10.5207C37.2582 11.6759 39.6092 12.2798 42 12.2716C44.3908 12.2798 46.7418 11.6759 48.8169 10.5207C50.8921 9.36553 52.6185 7.6996 53.8229 5.69011C55.1971 6.15381 56.5411 6.69831 57.8475 7.3206C57.2491 9.56948 57.2645 11.9314 57.8922 14.1727C58.5199 16.414 59.7381 18.457 61.4264 20.0997C63.1146 21.7423 65.2144 22.9276 67.5179 23.5383C69.8215 24.149 72.249 24.164 74.5604 23.5818C75.2 24.8528 75.7596 26.1605 76.2362 27.4976C74.1766 28.6757 72.4691 30.3569 71.2827 32.3745C70.0963 34.3922 69.4722 36.6764 69.4722 39.001C69.4722 41.3255 70.0963 43.6097 71.2827 45.6274C72.4691 47.6451 74.1766 49.3262 76.2362 50.5043C75.7598 51.8411 75.2002 53.1484 74.5604 54.419V54.4129Z" stroke="#5F9FFF" stroke-width="2" mask="url(#path-4-outside-1_140_35682)"/>
<path d="M76.3358 50.1061C74.4372 49.1867 72.8359 47.7511 71.7155 45.9637C70.595 44.1763 70.0008 42.1094 70.0008 39.9998C70.0008 37.8903 70.595 35.8234 71.7155 34.036C72.8359 32.2486 74.4372 30.813 76.3358 29.8936C76.6053 29.7624 76.8187 29.5388 76.9371 29.2634C77.0555 28.9881 77.071 28.6794 76.9808 28.3936C76.2917 26.2071 75.4095 24.0862 74.3446 22.0561C74.206 21.7913 73.9771 21.5849 73.6993 21.4743C73.4216 21.3638 73.1135 21.3564 72.8308 21.4536C70.8394 22.1434 68.6941 22.2589 66.6401 21.7868C64.5862 21.3147 62.7065 20.2741 61.2162 18.784C59.7258 17.2939 58.6849 15.4145 58.2124 13.3606C57.74 11.3067 57.8551 9.16136 58.5446 7.16983C58.6417 6.88716 58.6343 6.57903 58.5238 6.30131C58.4133 6.0236 58.2069 5.79468 57.9421 5.65608C55.9119 4.59115 53.7911 3.70892 51.6046 3.01983C51.3187 2.92966 51.01 2.94518 50.7347 3.06358C50.4594 3.18197 50.2357 3.39535 50.1046 3.66483C49.1904 5.56701 47.7563 7.17146 45.9682 8.29256C44.1802 9.41366 42.1113 10.0056 40.0008 9.99983C37.8899 10.0061 35.8205 9.41436 34.0319 8.29323C32.2434 7.1721 30.8089 5.56739 29.8946 3.66483C29.7634 3.39535 29.5398 3.18197 29.2644 3.06358C28.9891 2.94518 28.6804 2.92966 28.3946 3.01983C26.2081 3.70892 24.0872 4.59115 22.0571 5.65608C21.7922 5.79468 21.5858 6.0236 21.4753 6.30131C21.3648 6.57903 21.3574 6.88716 21.4546 7.16983C22.1444 9.16124 22.2599 11.3066 21.7878 13.3605C21.3157 15.4145 20.2751 17.2941 18.785 18.7845C17.2949 20.2748 15.4154 21.3158 13.3616 21.7882C11.3077 22.2607 9.16234 22.1456 7.17081 21.4561C6.88813 21.3589 6.58 21.3663 6.30229 21.4768C6.02457 21.5874 5.79566 21.7938 5.65706 22.0586C4.59212 24.0887 3.7099 26.2096 3.02081 28.3961C2.93064 28.6819 2.94616 28.9906 3.06455 29.2659C3.18295 29.5413 3.39633 29.7649 3.66581 29.8961C5.56798 30.8103 7.17244 32.2443 8.29354 34.0324C9.41464 35.8205 10.0066 37.8894 10.0008 39.9998C10.007 42.1107 9.41534 44.1802 8.29421 45.9687C7.17308 47.7572 5.56837 49.1917 3.66581 50.1061C3.39633 50.2373 3.18295 50.4609 3.06455 50.7362C2.94616 51.0116 2.93064 51.3203 3.02081 51.6061C3.7099 53.7926 4.59212 55.9134 5.65706 57.9436C5.79566 58.2084 6.02457 58.4148 6.30229 58.5253C6.58 58.6359 6.88813 58.6432 7.17081 58.5461C9.16222 57.8563 11.3076 57.7408 13.3615 58.2129C15.4155 58.685 17.2951 59.7256 18.7855 61.2157C20.2758 62.7058 21.3167 64.5852 21.7892 66.6391C22.2616 68.6929 22.1465 70.8383 21.4571 72.8298C21.3599 73.1125 21.3673 73.4206 21.4778 73.6984C21.5883 73.9761 21.7947 74.205 22.0596 74.3436C24.0897 75.4085 26.2106 76.2907 28.3971 76.9798C28.6829 77.07 28.9916 77.0545 29.2669 76.9361C29.5423 76.8177 29.7659 76.6043 29.8971 76.3348C30.8164 74.4362 32.2521 72.8349 34.0395 71.7145C35.8269 70.5941 37.8938 69.9998 40.0033 69.9998C42.1129 69.9998 44.1797 70.5941 45.9671 71.7145C47.7545 72.8349 49.1902 74.4362 50.1096 76.3348C50.2407 76.6043 50.4644 76.8177 50.7397 76.9361C51.015 77.0545 51.3237 77.07 51.6096 76.9798C53.7961 76.2907 55.9169 75.4085 57.9471 74.3436C58.2119 74.205 58.4183 73.9761 58.5288 73.6984C58.6393 73.4206 58.6467 73.1125 58.5496 72.8298C57.86 70.8387 57.7447 68.6937 58.2167 66.6401C58.6887 64.5865 59.729 62.7071 61.2188 61.2169C62.7085 59.7266 64.5875 58.6856 66.6409 58.2129C68.6944 57.7401 70.8394 57.8547 72.8308 58.5436C73.1135 58.6407 73.4216 58.6334 73.6993 58.5228C73.9771 58.4123 74.206 58.2059 74.3446 57.9411C75.4095 55.9109 76.2917 53.7901 76.9808 51.6036C77.0703 51.3181 77.0544 51.01 76.9361 50.7352C76.8177 50.4604 76.6047 50.2372 76.3358 50.1061ZM72.5946 55.8561C70.2801 55.2569 67.8493 55.2724 65.5428 55.9012C63.2362 56.53 61.1338 57.7502 59.4437 59.4411C57.7535 61.132 56.5343 63.2349 55.9065 65.5418C55.2788 67.8486 55.2643 70.2794 55.8646 72.5936C54.5569 73.2338 53.2115 73.794 51.8358 74.2711C50.6237 72.2094 48.8941 70.5001 46.8183 69.3125C44.7425 68.1249 42.3924 67.5002 40.0008 67.5002C37.6092 67.5002 35.2592 68.1249 33.1833 69.3125C31.1075 70.5001 29.3779 72.2094 28.1658 74.2711C26.7902 73.794 25.4448 73.2338 24.1371 72.5936C24.7361 70.2799 24.7207 67.8499 24.0923 65.5439C23.464 63.238 22.2445 61.1361 20.5546 59.4461C18.8646 57.7561 16.7626 56.5366 14.4567 55.9083C12.1508 55.28 9.72077 55.2646 7.40706 55.8636C6.76682 54.5559 6.20663 53.2105 5.72956 51.8348C7.79698 50.6292 9.51095 48.9011 10.6994 46.8237C11.888 44.7464 12.5092 42.3931 12.5008 39.9998C12.5092 37.6066 11.888 35.2532 10.6994 33.1759C9.51095 31.0986 7.79698 29.3704 5.72956 28.1648C6.20641 26.7895 6.76661 25.4445 7.40706 24.1373C9.72085 24.7361 12.1509 24.7204 14.4567 24.0919C16.7626 23.4633 18.8645 22.2437 20.5544 20.5537C22.2443 18.8636 23.4638 16.7617 24.0921 14.4558C24.7205 12.1498 24.736 9.71983 24.1371 7.40608C25.4448 6.76585 26.7902 6.20565 28.1658 5.72858C29.3714 7.796 31.0996 9.50997 33.1769 10.6985C35.2542 11.887 37.6076 12.5082 40.0008 12.4998C42.3941 12.5082 44.7474 11.887 46.8247 10.6985C48.902 9.50997 50.6302 7.796 51.8358 5.72858C53.2115 6.20565 54.5569 6.76585 55.8646 7.40608C55.2655 9.71979 55.2809 12.1498 55.9093 14.4557C56.5376 16.7617 57.7571 18.8636 59.4471 20.5536C61.1371 22.2436 63.239 23.463 65.5449 24.0914C67.8508 24.7197 70.2809 24.7351 72.5946 24.1361C73.2348 25.4438 73.795 26.7892 74.2721 28.1648C72.2104 29.3769 70.5011 31.1065 69.3135 33.1823C68.1259 35.2582 67.5011 37.6083 67.5011 39.9998C67.5011 42.3914 68.1259 44.7415 69.3135 46.8173C70.5011 48.8932 72.2104 50.6228 74.2721 51.8348C73.7952 53.2102 73.235 54.5551 72.5946 55.8623V55.8561Z" fill="#333333"/>
<path d="M40 18.75C35.7972 18.75 31.6887 19.9963 28.1941 22.3313C24.6996 24.6663 21.9759 27.985 20.3676 31.868C18.7592 35.7509 18.3384 40.0236 19.1583 44.1457C19.9783 48.2678 22.0021 52.0542 24.974 55.026C27.9459 57.9979 31.7322 60.0218 35.8543 60.8417C39.9764 61.6616 44.2491 61.2408 48.132 59.6324C52.015 58.0241 55.3338 55.3004 57.6687 51.8059C60.0037 48.3113 61.25 44.2029 61.25 40C61.2437 34.3661 59.0029 28.9647 55.0191 24.9809C51.0353 20.9971 45.6339 18.7563 40 18.75ZM40 58.75C36.2916 58.75 32.6665 57.6503 29.5831 55.5901C26.4996 53.5298 24.0964 50.6014 22.6773 47.1753C21.2581 43.7492 20.8868 39.9792 21.6103 36.3421C22.3338 32.7049 24.1195 29.364 26.7418 26.7417C29.364 24.1195 32.7049 22.3337 36.3421 21.6103C39.9792 20.8868 43.7492 21.2581 47.1753 22.6773C50.6014 24.0964 53.5298 26.4996 55.5901 29.5831C57.6503 32.6665 58.75 36.2916 58.75 40C58.7444 44.9711 56.7671 49.7369 53.252 53.252C49.737 56.7671 44.9711 58.7444 40 58.75Z" fill="#333333"/>
<path d="M38.75 27.5H41.25V30H38.75V27.5ZM32.6675 29.8L34.8325 28.55L36.0825 30.715L33.9175 31.965L32.6675 29.8ZM28.55 34.8325L29.8 32.6675L31.965 33.9175L30.715 36.0825L28.55 34.8325ZM27.5 38.75H30V41.25H27.5V38.75ZM28.55 45.1662L30.715 43.9162L31.965 46.0825L29.8 47.3325L28.55 45.1662ZM48.035 46.0825L49.285 43.9175L51.45 45.1675L50.2 47.3325L48.035 46.0825ZM50 38.75H52.5V41.25H50V38.75ZM48.035 33.9175L50.2 32.6675L51.45 34.8325L49.285 36.0825L48.035 33.9175ZM43.9175 30.715L45.1675 28.55L47.3325 29.8L46.0825 31.965L43.9175 30.715Z" fill="#333333"/>
<path d="M48.75 39.9997C48.7521 38.4333 48.3337 36.8951 47.5385 35.5456C46.7433 34.1961 45.6004 33.0848 44.2291 32.3277C42.8578 31.5706 41.3085 31.1955 39.7427 31.2416C38.177 31.2876 36.6524 31.7531 35.328 32.5895C34.0036 33.4259 32.928 34.6024 32.2134 35.9963C31.4989 37.3903 31.1716 38.9504 31.2658 40.514C31.36 42.0776 31.8722 43.5872 32.7489 44.8852C33.6257 46.1833 34.8347 47.2222 36.25 47.8935V51.2497C36.25 51.5813 36.3817 51.8992 36.6161 52.1336C36.8505 52.368 37.1685 52.4997 37.5 52.4997H42.5C42.8315 52.4997 43.1495 52.368 43.3839 52.1336C43.6183 51.8992 43.75 51.5813 43.75 51.2497V47.8935C45.2442 47.1847 46.507 46.067 47.3919 44.6699C48.2768 43.2728 48.7477 41.6535 48.75 39.9997ZM41.25 49.9997H38.75V48.6497C39.578 48.7831 40.422 48.7831 41.25 48.6497V49.9997ZM43.75 44.9672V41.2497H41.25V46.1247C40.4252 46.2931 39.5748 46.2931 38.75 46.1247V41.2497H36.25V44.9672C35.2006 44.1802 34.4254 43.0829 34.0343 41.8308C33.6432 40.5787 33.6559 39.2353 34.0707 37.9908C34.4855 36.7464 35.2814 35.664 36.3456 34.897C37.4097 34.13 38.6882 33.7172 40 33.7172C41.3118 33.7172 42.5903 34.13 43.6544 34.897C44.7186 35.664 45.5144 36.7464 45.9293 37.9908C46.3441 39.2353 46.3568 40.5787 45.9657 41.8308C45.5746 43.0829 44.7994 44.1802 43.75 44.9672Z" fill="#333333"/>
</svg>
