<svg width="26" height="26" viewBox="0 0 26 26" fill="none" xmlns="http://www.w3.org/2000/svg">
<g id="Premium" clip-path="url(#clip0_1512_988)">
<path id="Vector" d="M21.125 20.5H4.875C4.53125 20.5 4.25 20.7812 4.25 21.125V22.375C4.25 22.7188 4.53125 23 4.875 23H21.125C21.4688 23 21.75 22.7188 21.75 22.375V21.125C21.75 20.7812 21.4688 20.5 21.125 20.5ZM23.625 8C22.5898 8 21.75 8.83984 21.75 9.875C21.75 10.1523 21.8125 10.4102 21.9219 10.6484L19.0938 12.3438C18.4922 12.7031 17.7148 12.5 17.3672 11.8906L14.1836 6.32031C14.6016 5.97656 14.875 5.46094 14.875 4.875C14.875 3.83984 14.0352 3 13 3C11.9648 3 11.125 3.83984 11.125 4.875C11.125 5.46094 11.3984 5.97656 11.8164 6.32031L8.63281 11.8906C8.28516 12.5 7.50391 12.7031 6.90625 12.3438L4.08203 10.6484C4.1875 10.4141 4.25391 10.1523 4.25391 9.875C4.25391 8.83984 3.41406 8 2.37891 8C1.34375 8 0.5 8.83984 0.5 9.875C0.5 10.9102 1.33984 11.75 2.375 11.75C2.47656 11.75 2.57812 11.7344 2.67578 11.7188L5.5 19.25H20.5L23.3242 11.7188C23.4219 11.7344 23.5234 11.75 23.625 11.75C24.6602 11.75 25.5 10.9102 25.5 9.875C25.5 8.83984 24.6602 8 23.625 8Z" fill="#FFC107"/>
</g>
<defs>
<clipPath id="clip0_1512_988">
<rect width="25" height="25" fill="white" transform="translate(0.5 0.5)"/>
</clipPath>
</defs>
</svg>
