<svg width="59" height="61" viewBox="0 0 59 61" fill="none" xmlns="http://www.w3.org/2000/svg">
<path d="M21.0557 37.1335C20.5601 37.8722 19.3687 39.3304 17.8103 41.0747C16.2567 42.8189 14.3362 44.8443 12.3918 46.7172C7.15914 51.7497 4.47133 53.0983 2.86055 53.0983C2.26485 53.0983 1.81688 52.9125 1.44039 52.6599C0.0488313 51.7306 -0.8757 49.5289 2.80336 40.274C4.79539 35.2511 7.40219 30.109 8.39821 28.6316C10.7429 25.1384 15.4895 24.2091 18.9779 26.5538C20.6697 27.688 21.8182 29.4132 22.209 31.4147C22.5998 33.4115 22.1899 35.4417 21.0557 37.1335Z" fill="url(#paint0_linear_8855_24970)"/>
<path d="M57.5599 52.6606C57.1834 52.9132 56.7355 53.099 56.1398 53.099C54.529 53.099 51.8412 51.7504 46.6085 46.7179C42.715 42.9721 38.9359 38.6115 37.9446 37.1342C36.8056 35.4424 36.4005 33.4122 36.7913 31.4154C37.1821 29.4139 38.3306 27.6887 40.0224 26.5545C43.5109 24.2098 48.2574 25.1439 50.6021 28.6323C51.5981 30.1097 54.2049 35.2518 56.1969 40.2747C59.876 49.5296 58.9515 51.7313 57.5599 52.6606Z" fill="url(#paint1_linear_8855_24970)"/>
<path d="M46.4143 34.4793C46.4 40.503 44.7702 55.0334 29.9539 59.9754C29.8061 60.023 29.6536 60.0469 29.5011 60.0469C29.3486 60.0469 29.1961 60.023 29.0484 59.9754C14.2321 55.0334 12.6022 40.503 12.5879 34.4793C12.5832 32.0965 13.0168 29.7184 13.8794 27.4214L14.3417 26.1871C14.5514 25.6295 15.0851 25.2578 15.6808 25.2578H43.3214C43.9171 25.2578 44.4509 25.6295 44.6606 26.1871L45.1228 27.4214C45.9854 29.7184 46.4191 32.0965 46.4143 34.4793Z" fill="url(#paint2_linear_8855_24970)"/>
<path d="M32.8359 51.9453H26.1641C25.3744 51.9453 24.7344 51.3053 24.7344 50.5156C24.7344 49.726 25.3744 49.0859 26.1641 49.0859H32.8359C33.6256 49.0859 34.2656 49.726 34.2656 50.5156C34.2656 51.3053 33.6256 51.9453 32.8359 51.9453Z" fill="#A4EEFF"/>
<path d="M40.4609 34.3125V41.9375C40.4609 44.0391 38.7501 45.75 36.6484 45.75H22.3516C20.2499 45.75 18.5391 44.0391 18.5391 41.9375V34.3125C18.5391 32.2109 20.2499 30.5 22.3516 30.5H36.6484C38.7501 30.5 40.4609 32.2109 40.4609 34.3125Z" fill="url(#paint3_linear_8855_24970)"/>
<path d="M24.7446 39.5547C23.9554 39.5547 23.3125 38.9147 23.3125 38.125C23.3125 37.3353 23.9506 36.6953 24.7398 36.6953H24.7446C25.5342 36.6953 26.1743 37.3353 26.1743 38.125C26.1743 38.9147 25.5342 39.5547 24.7446 39.5547ZM29.5102 39.5547C28.721 39.5547 28.0781 38.9147 28.0781 38.125C28.0781 37.3353 28.7162 36.6953 29.5054 36.6953H29.5102C30.2999 36.6953 30.9399 37.3353 30.9399 38.125C30.9399 38.9147 30.2999 39.5547 29.5102 39.5547ZM34.2758 39.5547C33.4866 39.5547 32.8438 38.9147 32.8438 38.125C32.8438 37.3353 33.4819 36.6953 34.2711 36.6953H34.2758C35.0655 36.6953 35.7055 37.3353 35.7055 38.125C35.7055 38.9147 35.0655 39.5547 34.2758 39.5547Z" fill="#384051"/>
<path d="M18.0625 7.625V16.2031C18.0625 16.9942 17.4239 17.6328 16.6328 17.6328H14.7266C12.3628 17.6328 10.4375 15.7075 10.4375 13.3438V10.4844C10.4375 8.12063 12.3628 6.19531 14.7266 6.19531H16.6328C17.4239 6.19531 18.0625 6.83391 18.0625 7.625Z" fill="url(#paint4_linear_8855_24970)"/>
<path d="M49.0391 10.4844V13.3438C49.0391 15.7075 47.1137 17.6328 44.75 17.6328H42.3672C41.5761 17.6328 40.9375 16.9942 40.9375 16.2031V7.625C40.9375 6.83391 41.5761 6.19531 42.3672 6.19531H44.75C47.1137 6.19531 49.0391 8.12063 49.0391 10.4844Z" fill="url(#paint5_linear_8855_24970)"/>
<path d="M38.5547 21.4453H20.4453C18.3399 21.4453 16.6328 19.7383 16.6328 17.6328V6.19531C16.6328 4.08986 18.3399 2.38281 20.4453 2.38281H38.5547C40.6601 2.38281 42.3672 4.08986 42.3672 6.19531V17.6328C42.3672 19.7383 40.6601 21.4453 38.5547 21.4453Z" fill="#A4EEFF"/>
<path d="M38.5547 21.4453H20.4453C18.3399 21.4453 16.6328 19.7383 16.6328 17.6328V6.19531C16.6328 4.08986 18.3399 2.38281 20.4453 2.38281H38.5547C40.6601 2.38281 42.3672 4.08986 42.3672 6.19531V17.6328C42.3672 19.7383 40.6601 21.4453 38.5547 21.4453Z" fill="url(#paint6_linear_8855_24970)"/>
<path d="M26.6406 13.3444C26.2746 13.3444 25.9091 13.2048 25.6298 12.9255C25.1356 12.4323 24.3331 12.4323 23.8389 12.9255C23.2804 13.484 22.3759 13.484 21.8173 12.9255C21.2588 12.3674 21.2588 11.462 21.8173 10.9039C23.4257 9.29505 26.043 9.29505 27.6514 10.9039C28.2099 11.462 28.2099 12.3674 27.6514 12.9255C27.3721 13.2048 27.0066 13.3444 26.6406 13.3444ZM36.1719 13.3444C35.8059 13.3444 35.4403 13.2048 35.1611 12.9255C34.6669 12.4323 33.8644 12.4323 33.3702 12.9255C32.8116 13.484 31.9071 13.484 31.3486 12.9255C30.7901 12.3674 30.7901 11.462 31.3486 10.9039C32.957 9.29505 35.5743 9.29505 37.1827 10.9039C37.7412 11.462 37.7412 12.3674 37.1827 12.9255C36.9034 13.2048 36.5379 13.3444 36.1719 13.3444Z" fill="#384051"/>
<path d="M38.5547 22.875H20.4453C17.555 22.875 15.2031 20.5232 15.2031 17.6328V6.19531C15.2031 3.30496 17.555 0.953125 20.4453 0.953125H38.5547C41.445 0.953125 43.7969 3.30496 43.7969 6.19531V17.6328C43.7969 20.5232 41.445 22.875 38.5547 22.875ZM20.4453 3.8125C19.1314 3.8125 18.0625 4.88143 18.0625 6.19531V17.6328C18.0625 18.9467 19.1314 20.0156 20.4453 20.0156H38.5547C39.8686 20.0156 40.9375 18.9467 40.9375 17.6328V6.19531C40.9375 4.88143 39.8686 3.8125 38.5547 3.8125H20.4453Z" fill="url(#paint7_linear_8855_24970)"/>
<defs>
<linearGradient id="paint0_linear_8855_24970" x1="0.217058" y1="39.1789" x2="22.3534" y2="39.1789" gradientUnits="userSpaceOnUse">
<stop offset="0.004" stop-color="#7994D8"/>
<stop offset="0.037" stop-color="#728DD2"/>
<stop offset="0.175" stop-color="#5C75BC"/>
<stop offset="0.321" stop-color="#4C64AC"/>
<stop offset="0.48" stop-color="#425AA3"/>
<stop offset="0.677" stop-color="#3F57A0"/>
<stop offset="1" stop-color="#2A428B"/>
</linearGradient>
<linearGradient id="paint1_linear_8855_24970" x1="58.7837" y1="39.1806" x2="36.6465" y2="39.1806" gradientUnits="userSpaceOnUse">
<stop offset="0.004" stop-color="#7994D8"/>
<stop offset="0.037" stop-color="#728DD2"/>
<stop offset="0.175" stop-color="#5C75BC"/>
<stop offset="0.321" stop-color="#4C64AC"/>
<stop offset="0.48" stop-color="#425AA3"/>
<stop offset="0.677" stop-color="#3F57A0"/>
<stop offset="1" stop-color="#2A428B"/>
</linearGradient>
<linearGradient id="paint2_linear_8855_24970" x1="12.5879" y1="42.6523" x2="46.4143" y2="42.6523" gradientUnits="userSpaceOnUse">
<stop stop-color="#A4EEFF"/>
<stop offset="0.732" stop-color="#02C0FC"/>
<stop offset="1" stop-color="#27A6FF"/>
</linearGradient>
<linearGradient id="paint3_linear_8855_24970" x1="18.5391" y1="38.125" x2="40.4609" y2="38.125" gradientUnits="userSpaceOnUse">
<stop offset="0.239" stop-color="#E8F8FC"/>
<stop offset="0.36" stop-color="#DAF5FB"/>
<stop offset="0.586" stop-color="#B6EBF8"/>
<stop offset="0.638" stop-color="#ADE9F7"/>
<stop offset="0.973" stop-color="#80CBF7"/>
</linearGradient>
<linearGradient id="paint4_linear_8855_24970" x1="10.4375" y1="11.9141" x2="18.0625" y2="11.9141" gradientUnits="userSpaceOnUse">
<stop offset="0.004" stop-color="#7994D8"/>
<stop offset="0.037" stop-color="#728DD2"/>
<stop offset="0.175" stop-color="#5C75BC"/>
<stop offset="0.321" stop-color="#4C64AC"/>
<stop offset="0.48" stop-color="#425AA3"/>
<stop offset="0.677" stop-color="#3F57A0"/>
<stop offset="1" stop-color="#2A428B"/>
</linearGradient>
<linearGradient id="paint5_linear_8855_24970" x1="49.0391" y1="11.9141" x2="40.9375" y2="11.9141" gradientUnits="userSpaceOnUse">
<stop offset="0.004" stop-color="#7994D8"/>
<stop offset="0.037" stop-color="#728DD2"/>
<stop offset="0.175" stop-color="#5C75BC"/>
<stop offset="0.321" stop-color="#4C64AC"/>
<stop offset="0.48" stop-color="#425AA3"/>
<stop offset="0.677" stop-color="#3F57A0"/>
<stop offset="1" stop-color="#2A428B"/>
</linearGradient>
<linearGradient id="paint6_linear_8855_24970" x1="16.6328" y1="11.9141" x2="42.3672" y2="11.9141" gradientUnits="userSpaceOnUse">
<stop offset="0.184" stop-color="#E8F8FC"/>
<stop offset="0.31" stop-color="#DAF5FB"/>
<stop offset="0.547" stop-color="#B6EBF8"/>
<stop offset="0.601" stop-color="#ADE9F7"/>
<stop offset="0.723" stop-color="#A0E1F7"/>
<stop offset="0.943" stop-color="#80CBF7"/>
</linearGradient>
<linearGradient id="paint7_linear_8855_24970" x1="15.2031" y1="11.9141" x2="43.7969" y2="11.9141" gradientUnits="userSpaceOnUse">
<stop stop-color="#A4EEFF"/>
<stop offset="0.732" stop-color="#02C0FC"/>
<stop offset="1" stop-color="#27A6FF"/>
</linearGradient>
</defs>
</svg>
