<svg width="24" height="24" viewBox="0 0 24 24" fill="none" xmlns="http://www.w3.org/2000/svg">
<mask id="mask0_0_209" style="mask-type:alpha" maskUnits="userSpaceOnUse" x="0" y="0" width="24" height="24">
<rect width="24" height="24" fill="#999"/>
</mask>
<g mask="url(#mask0_0_209)">
<path d="M12.9999 11.6007V8.00072C12.9999 7.71738 12.9041 7.47988 12.7124 7.28822C12.5207 7.09655 12.2832 7.00072 11.9999 7.00072C11.7166 7.00072 11.4791 7.09655 11.2874 7.28822C11.0957 7.47988 10.9999 7.71738 10.9999 8.00072V11.9757C10.9999 12.1091 11.0249 12.2382 11.0749 12.3632C11.1249 12.4882 11.1999 12.6007 11.2999 12.7007L14.5999 16.0007C14.7832 16.1841 15.0166 16.2757 15.2999 16.2757C15.5832 16.2757 15.8166 16.1841 15.9999 16.0007C16.1832 15.8174 16.2749 15.5841 16.2749 15.3007C16.2749 15.0174 16.1832 14.7841 15.9999 14.6007L12.9999 11.6007ZM11.9999 22.0007C10.6166 22.0007 9.31658 21.7382 8.09991 21.2132C6.88324 20.6882 5.82491 19.9757 4.92491 19.0757C4.02491 18.1757 3.31241 17.1174 2.78741 15.9007C2.26241 14.6841 1.99991 13.3841 1.99991 12.0007C1.99991 10.6174 2.26241 9.31738 2.78741 8.10072C3.31241 6.88405 4.02491 5.82572 4.92491 4.92572C5.82491 4.02572 6.88324 3.31322 8.09991 2.78822C9.31658 2.26322 10.6166 2.00072 11.9999 2.00072C13.3832 2.00072 14.6832 2.26322 15.8999 2.78822C17.1166 3.31322 18.1749 4.02572 19.0749 4.92572C19.9749 5.82572 20.6874 6.88405 21.2124 8.10072C21.7374 9.31738 21.9999 10.6174 21.9999 12.0007C21.9999 13.3841 21.7374 14.6841 21.2124 15.9007C20.6874 17.1174 19.9749 18.1757 19.0749 19.0757C18.1749 19.9757 17.1166 20.6882 15.8999 21.2132C14.6832 21.7382 13.3832 22.0007 11.9999 22.0007ZM11.9999 20.0007C14.2166 20.0007 16.1041 19.2215 17.6624 17.6632C19.2207 16.1049 19.9999 14.2174 19.9999 12.0007C19.9999 9.78405 19.2207 7.89655 17.6624 6.33822C16.1041 4.77988 14.2166 4.00072 11.9999 4.00072C9.78324 4.00072 7.89574 4.77988 6.33741 6.33822C4.77908 7.89655 3.99991 9.78405 3.99991 12.0007C3.99991 14.2174 4.77908 16.1049 6.33741 17.6632C7.89574 19.2215 9.78324 20.0007 11.9999 20.0007Z" fill="#999"/>
</g>
</svg>
