<svg width="30" height="30" viewBox="0 0 30 30" fill="none" xmlns="http://www.w3.org/2000/svg">
<g clip-path="url(#clip0_16586_84944)">
<circle cx="15" cy="15" r="15" fill="#F1FFF1"/>
<path fill-rule="evenodd" clip-rule="evenodd" d="M15 0.612245C7.05386 0.612245 0.612245 7.05386 0.612245 15C0.612245 22.9461 7.05386 29.3878 15 29.3878C22.9461 29.3878 29.3878 22.9461 29.3878 15C29.3878 7.05386 22.9461 0.612245 15 0.612245ZM0 15C0 6.71573 6.71573 0 15 0C23.2843 0 30 6.71573 30 15C30 23.2843 23.2843 30 15 30C6.71573 30 0 23.2843 0 15Z" fill="#04B800"/>
<path fill-rule="evenodd" clip-rule="evenodd" d="M18.5855 21.6031C17.4952 22.1907 16.2587 22.5 15 22.5C13.7413 22.5 12.5047 22.1906 11.4144 21.603C10.3242 21.0154 9.41858 20.1701 8.78856 19.1521C8.70927 19.024 8.75617 18.8601 8.89332 18.786C9.03046 18.712 9.20592 18.7558 9.28521 18.8839C9.86485 19.8205 10.698 20.5981 11.7011 21.1388C12.7042 21.6794 13.8419 21.9641 15 21.9641C16.158 21.9641 17.2957 21.6795 18.2988 21.1388C19.3019 20.5982 20.1351 19.8206 20.7148 18.884C20.7941 18.7559 20.9695 18.7121 21.1067 18.7861C21.2438 18.8602 21.2907 19.0241 21.2114 19.1522C20.5814 20.1702 19.6758 21.0154 18.5855 21.6031Z" fill="#04B800"/>
<path d="M10 13.75C10.6904 13.75 11.25 13.1904 11.25 12.5C11.25 11.8096 10.6904 11.25 10 11.25C9.30964 11.25 8.75 11.8096 8.75 12.5C8.75 13.1904 9.30964 13.75 10 13.75Z" fill="#04B800"/>
<path d="M20 13.75C20.6904 13.75 21.25 13.1904 21.25 12.5C21.25 11.8096 20.6904 11.25 20 11.25C19.3096 11.25 18.75 11.8096 18.75 12.5C18.75 13.1904 19.3096 13.75 20 13.75Z" fill="#04B800"/>
</g>
<defs>
<clipPath id="clip0_16586_84944">
<rect width="30" height="30" fill="white"/>
</clipPath>
</defs>
</svg>
