<svg width="224" height="130" viewBox="0 0 224 130" fill="none" xmlns="http://www.w3.org/2000/svg">
<path d="M171.574 74.4951L199.574 70.4951" stroke="#FFC145" stroke-width="0.5" stroke-linecap="round"/>
<path d="M195.324 5L65.3242 23.5294V59L195.324 39.4118V5Z" fill="#333333"/>
<path d="M104.482 41.4295C103.708 41.5153 102.994 41.4603 102.339 41.2646C101.695 41.0677 101.165 40.7401 100.749 40.2818C100.333 39.8235 100.083 39.2556 99.9969 38.5783L102.382 38.3139C102.465 38.7663 102.664 39.1091 102.979 39.3424C103.305 39.5745 103.723 39.6624 104.232 39.606C104.751 39.5484 105.146 39.3813 105.416 39.1045C105.684 38.8172 105.796 38.4721 105.752 38.0692C105.715 37.7406 105.585 37.4814 105.36 37.2917C105.135 37.102 104.862 36.9658 104.542 36.8833C104.231 36.789 103.802 36.697 103.256 36.6073C102.511 36.4752 101.9 36.3337 101.422 36.1828C100.953 36.0201 100.531 35.7502 100.157 35.3732C99.7917 34.9844 99.5704 34.4401 99.4928 33.7404C99.42 33.0831 99.5209 32.4924 99.7955 31.9683C100.07 31.4441 100.49 31.022 101.056 30.7017C101.62 30.3709 102.284 30.1631 103.047 30.0785C104.192 29.9516 105.151 30.1298 105.923 30.6129C106.705 31.0843 107.189 31.8142 107.373 32.8025L104.924 33.0739C104.861 32.6946 104.662 32.4001 104.328 32.1903C104.002 31.9688 103.591 31.8856 103.093 31.9409C102.658 31.989 102.32 32.1391 102.08 32.3912C101.85 32.642 101.759 32.9795 101.806 33.4035C101.839 33.7004 101.962 33.9389 102.175 34.1192C102.397 34.2877 102.659 34.4197 102.959 34.5152C103.269 34.5989 103.698 34.6909 104.246 34.7912C104.99 34.9233 105.602 35.0701 106.081 35.2316C106.561 35.3932 106.988 35.6677 107.364 36.0554C107.739 36.443 107.965 36.9814 108.042 37.6705C108.108 38.2642 108.015 38.8325 107.764 39.3755C107.513 39.9184 107.108 40.3766 106.548 40.7498C105.987 41.1125 105.299 41.339 104.482 41.4295ZM117.573 32.1066C117.639 32.7003 117.557 33.2728 117.329 33.824C117.111 34.374 116.717 34.8416 116.148 35.2266C115.59 35.6105 114.854 35.8529 113.943 35.954L112.082 36.1602L112.554 40.4221L110.328 40.6689L109.098 29.5689L113.185 29.1159C114.043 29.0207 114.791 29.088 115.429 29.3179C116.066 29.5478 116.562 29.906 116.916 30.3926C117.281 30.878 117.5 31.4493 117.573 32.1066ZM113.648 34.1676C114.263 34.0994 114.704 33.9111 114.97 33.6025C115.235 33.2834 115.339 32.8693 115.283 32.3605C115.163 31.2791 114.499 30.8054 113.29 30.9393L111.525 31.135L111.883 34.3632L113.648 34.1676ZM121.198 30.0467L121.507 32.8297L125.244 32.4154L125.44 34.1806L121.703 34.5948L122.029 37.5368L126.243 37.0697L126.444 38.8826L120.003 39.5965L118.771 28.4806L125.212 27.7667L125.413 29.5796L121.198 30.0467ZM127.309 33.1524C127.188 32.0604 127.324 31.058 127.717 30.1452C128.118 29.2207 128.717 28.4728 129.512 27.9017C130.317 27.3189 131.249 26.9687 132.31 26.8512C133.55 26.7137 134.672 26.9113 135.675 27.444C136.679 27.9767 137.428 28.7844 137.924 29.867L135.364 30.1508C135.051 29.6489 134.646 29.2913 134.15 29.078C133.665 28.8635 133.12 28.7897 132.516 28.8567C131.869 28.9284 131.308 29.1461 130.834 29.51C130.368 29.8621 130.023 30.3296 129.798 30.9126C129.583 31.4945 129.517 32.1564 129.599 32.8986C129.68 33.6301 129.89 34.2615 130.228 34.7929C130.575 35.3124 131.015 35.6983 131.547 35.9505C132.089 36.191 132.683 36.2754 133.33 36.2037C133.934 36.1367 134.45 35.9454 134.876 35.6299C135.312 35.3025 135.628 34.8597 135.824 34.3014L138.384 34.0176C138.139 35.1931 137.585 36.1506 136.722 36.8901C135.869 37.6179 134.817 38.0511 133.566 38.1897C132.506 38.3073 131.52 38.1751 130.609 37.7932C129.707 37.3995 128.959 36.8009 128.365 35.9974C127.782 35.1927 127.43 34.2444 127.309 33.1524ZM141.67 25.9586L142.9 37.0586L140.673 37.3054L139.443 26.2054L141.67 25.9586ZM151.671 33.9454L147.25 34.4354L146.753 36.6315L144.416 36.8906L147.175 25.3323L149.767 25.045L154.991 35.7185L152.637 35.9793L151.671 33.9454ZM150.87 32.2313L148.749 27.7657L147.657 32.5873L150.87 32.2313ZM158.514 33.5411L162.171 33.1357L162.367 34.9009L156.483 35.5531L155.253 24.4531L157.479 24.2063L158.514 33.5411Z" fill="white"/>
<path d="M188.324 45L69.3242 62.0667L69.8603 93L188.324 76.4667V45Z" fill="#FFC145"/>
<path d="M111.919 76.2703C110.88 76.3855 109.899 76.2474 108.975 75.8561C108.052 75.4647 107.288 74.8679 106.684 74.0656C106.079 73.2526 105.716 72.3002 105.595 71.2082C105.475 70.1268 105.622 69.1286 106.035 68.2134C106.448 67.2877 107.062 66.5328 107.877 65.9487C108.692 65.3647 109.619 65.0151 110.658 64.8999C111.708 64.7836 112.689 64.9217 113.602 65.3142C114.525 65.7055 115.284 66.3082 115.879 67.1223C116.483 67.9247 116.845 68.8665 116.965 69.9479C117.086 71.0399 116.94 72.0488 116.528 72.9745C116.125 73.8885 115.515 74.6375 114.7 75.2215C113.885 75.8056 112.958 76.1552 111.919 76.2703ZM111.698 74.2825C112.366 74.2085 112.938 73.9948 113.414 73.6416C113.889 73.2777 114.238 72.799 114.462 72.2053C114.686 71.6117 114.757 70.9439 114.675 70.2017C114.593 69.4596 114.378 68.8288 114.03 68.3092C113.682 67.779 113.237 67.3937 112.695 67.1533C112.153 66.9128 111.548 66.8296 110.88 66.9037C110.213 66.9777 109.635 67.1919 109.149 67.5464C108.673 67.8996 108.323 68.373 108.099 68.9667C107.874 69.5497 107.802 70.2123 107.884 70.9544C107.967 71.6965 108.182 72.3326 108.531 72.8628C108.879 73.393 109.325 73.7836 109.868 74.0346C110.42 74.2739 111.03 74.3565 111.698 74.2825ZM124.864 63.4864L125.063 65.2834L120.435 65.7963L120.751 68.6429L124.297 68.2498L124.493 70.015L120.946 70.4081L121.466 75.0994L119.24 75.3461L118.01 64.2461L124.864 63.4864ZM133.296 62.5517L133.496 64.3487L128.868 64.8617L129.183 67.7082L132.73 67.3152L132.925 69.0803L129.379 69.4734L129.899 74.1647L127.673 74.4115L126.442 63.3114L133.296 62.5517ZM137.301 63.927L137.609 66.7099L141.346 66.2957L141.542 68.0609L137.805 68.4751L138.131 71.4171L142.345 70.95L142.546 72.7629L136.105 73.4768L134.873 62.3608L141.314 61.647L141.515 63.4599L137.301 63.927ZM150.294 71.9041L147.366 67.85L146.316 67.9664L146.796 72.2919L144.569 72.5386L143.339 61.4386L147.505 60.9768C148.364 60.8816 149.113 60.9543 149.751 61.1947C150.388 61.4246 150.884 61.7828 151.238 62.2694C151.602 62.7442 151.82 63.2997 151.89 63.9358C151.971 64.6673 151.833 65.3534 151.474 65.9941C151.115 66.6242 150.529 67.097 149.716 67.4125L152.87 71.6186L150.294 71.9041ZM146.131 66.2966L147.992 66.0904C148.596 66.0234 149.031 65.8303 149.296 65.5112C149.56 65.1814 149.663 64.7568 149.605 64.2373C149.549 63.7284 149.357 63.3526 149.03 63.1099C148.701 62.8565 148.235 62.7633 147.63 62.8303L145.77 63.0366L146.131 66.2966Z" fill="#333333"/>
<path d="M128.022 90.2151L125.553 90.8767L126.224 93.3804L125.238 93.6444L124.568 91.1407L122.11 91.7991L121.871 90.9066L124.328 90.2482L123.654 87.7329L124.64 87.4689L125.314 89.9842L127.783 89.3226L128.022 90.2151Z" fill="#FFC145"/>
<path d="M197.234 65.6321L194.765 66.2937L195.436 68.7974L194.45 69.0614L193.78 66.5577L191.322 67.2161L191.083 66.3236L193.54 65.6652L192.866 63.1499L193.852 62.8859L194.526 65.4012L196.995 64.7396L197.234 65.6321Z" fill="#FFC145"/>
<path d="M30.5742 91.9951L63.0742 72.9951L23.0742 71.4951L30.5742 91.9951Z" fill="#333333"/>
<path d="M57.7849 93.0139L66.2233 77.1048L49.5742 86.5625L57.7849 93.0139Z" fill="#333333"/>
<path d="M49.2927 68.2343L59.38 68.4003L50.4248 62.4951L49.2927 68.2343Z" fill="#333333"/>
<path d="M49.5078 101L116.508 92" stroke="#FFC145" stroke-linecap="round"/>
<path d="M119.506 12L199.506 1" stroke="#FFC145" stroke-linecap="round"/>
<path d="M95.5039 12L165.504 2" stroke="#FFC145" stroke-linecap="round"/>
<path d="M7.668 116.538C8.124 116.61 8.538 116.796 8.91 117.096C9.294 117.396 9.594 117.768 9.81 118.212C10.038 118.656 10.152 119.13 10.152 119.634C10.152 120.27 9.99 120.846 9.666 121.362C9.342 121.866 8.868 122.268 8.244 122.568C7.632 122.856 6.906 123 6.066 123H1.386V110.454H5.886C6.738 110.454 7.464 110.598 8.064 110.886C8.664 111.162 9.114 111.54 9.414 112.02C9.714 112.5 9.864 113.04 9.864 113.64C9.864 114.384 9.66 115.002 9.252 115.494C8.856 115.974 8.328 116.322 7.668 116.538ZM3.024 115.872H5.778C6.546 115.872 7.14 115.692 7.56 115.332C7.98 114.972 8.19 114.474 8.19 113.838C8.19 113.202 7.98 112.704 7.56 112.344C7.14 111.984 6.534 111.804 5.742 111.804H3.024V115.872ZM5.922 121.65C6.738 121.65 7.374 121.458 7.83 121.074C8.286 120.69 8.514 120.156 8.514 119.472C8.514 118.776 8.274 118.23 7.794 117.834C7.314 117.426 6.672 117.222 5.868 117.222H3.024V121.65H5.922ZM20.9211 113.136L14.9811 127.644H13.2891L15.2331 122.892L11.2551 113.136H13.0731L16.1691 121.128L19.2291 113.136H20.9211ZM35.7545 114.126C35.7545 115.17 35.3945 116.04 34.6745 116.736C33.9665 117.42 32.8805 117.762 31.4165 117.762H29.0045V123H27.3665V110.454H31.4165C32.8325 110.454 33.9065 110.796 34.6385 111.48C35.3825 112.164 35.7545 113.046 35.7545 114.126ZM31.4165 116.412C32.3285 116.412 33.0005 116.214 33.4325 115.818C33.8645 115.422 34.0805 114.858 34.0805 114.126C34.0805 112.578 33.1925 111.804 31.4165 111.804H29.0045V116.412H31.4165ZM42.0923 123.162C41.1683 123.162 40.3283 122.952 39.5723 122.532C38.8283 122.112 38.2403 121.518 37.8083 120.75C37.3883 119.97 37.1783 119.07 37.1783 118.05C37.1783 117.042 37.3943 116.154 37.8263 115.386C38.2703 114.606 38.8703 114.012 39.6263 113.604C40.3823 113.184 41.2283 112.974 42.1643 112.974C43.1003 112.974 43.9463 113.184 44.7023 113.604C45.4583 114.012 46.0523 114.6 46.4843 115.368C46.9283 116.136 47.1503 117.03 47.1503 118.05C47.1503 119.07 46.9223 119.97 46.4663 120.75C46.0223 121.518 45.4163 122.112 44.6483 122.532C43.8803 122.952 43.0283 123.162 42.0923 123.162ZM42.0923 121.722C42.6803 121.722 43.2323 121.584 43.7483 121.308C44.2643 121.032 44.6783 120.618 44.9903 120.066C45.3143 119.514 45.4763 118.842 45.4763 118.05C45.4763 117.258 45.3203 116.586 45.0083 116.034C44.6963 115.482 44.2883 115.074 43.7843 114.81C43.2803 114.534 42.7343 114.396 42.1463 114.396C41.5463 114.396 40.9943 114.534 40.4903 114.81C39.9983 115.074 39.6023 115.482 39.3023 116.034C39.0023 116.586 38.8523 117.258 38.8523 118.05C38.8523 118.854 38.9963 119.532 39.2843 120.084C39.5843 120.636 39.9803 121.05 40.4723 121.326C40.9643 121.59 41.5043 121.722 42.0923 121.722ZM50.942 114.954C51.266 114.39 51.746 113.922 52.382 113.55C53.03 113.166 53.78 112.974 54.632 112.974C55.508 112.974 56.3 113.184 57.008 113.604C57.728 114.024 58.292 114.618 58.7 115.386C59.108 116.142 59.312 117.024 59.312 118.032C59.312 119.028 59.108 119.916 58.7 120.696C58.292 121.476 57.728 122.082 57.008 122.514C56.3 122.946 55.508 123.162 54.632 123.162C53.792 123.162 53.048 122.976 52.4 122.604C51.764 122.22 51.278 121.746 50.942 121.182V127.68H49.304V113.136H50.942V114.954ZM57.638 118.032C57.638 117.288 57.488 116.64 57.188 116.088C56.888 115.536 56.48 115.116 55.964 114.828C55.46 114.54 54.902 114.396 54.29 114.396C53.69 114.396 53.132 114.546 52.616 114.846C52.112 115.134 51.704 115.56 51.392 116.124C51.092 116.676 50.942 117.318 50.942 118.05C50.942 118.794 51.092 119.448 51.392 120.012C51.704 120.564 52.112 120.99 52.616 121.29C53.132 121.578 53.69 121.722 54.29 121.722C54.902 121.722 55.46 121.578 55.964 121.29C56.48 120.99 56.888 120.564 57.188 120.012C57.488 119.448 57.638 118.788 57.638 118.032ZM70.216 113.136V123H68.578V121.542C68.266 122.046 67.828 122.442 67.264 122.73C66.712 123.006 66.1 123.144 65.428 123.144C64.66 123.144 63.97 122.988 63.358 122.676C62.746 122.352 62.26 121.872 61.9 121.236C61.552 120.6 61.378 119.826 61.378 118.914V113.136H62.998V118.698C62.998 119.67 63.244 120.42 63.736 120.948C64.228 121.464 64.9 121.722 65.752 121.722C66.628 121.722 67.318 121.452 67.822 120.912C68.326 120.372 68.578 119.586 68.578 118.554V113.136H70.216ZM74.6197 109.68V123H72.9817V109.68H74.6197ZM76.7994 118.032C76.7994 117.024 77.0034 116.142 77.4114 115.386C77.8194 114.618 78.3774 114.024 79.0854 113.604C79.8054 113.184 80.6034 112.974 81.4794 112.974C82.3434 112.974 83.0934 113.16 83.7294 113.532C84.3654 113.904 84.8394 114.372 85.1514 114.936V113.136H86.8074V123H85.1514V121.164C84.8274 121.74 84.3414 122.22 83.6934 122.604C83.0574 122.976 82.3134 123.162 81.4614 123.162C80.5854 123.162 79.7934 122.946 79.0854 122.514C78.3774 122.082 77.8194 121.476 77.4114 120.696C77.0034 119.916 76.7994 119.028 76.7994 118.032ZM85.1514 118.05C85.1514 117.306 85.0014 116.658 84.7014 116.106C84.4014 115.554 83.9934 115.134 83.4774 114.846C82.9734 114.546 82.4154 114.396 81.8034 114.396C81.1914 114.396 80.6334 114.54 80.1294 114.828C79.6254 115.116 79.2234 115.536 78.9234 116.088C78.6234 116.64 78.4734 117.288 78.4734 118.032C78.4734 118.788 78.6234 119.448 78.9234 120.012C79.2234 120.564 79.6254 120.99 80.1294 121.29C80.6334 121.578 81.1914 121.722 81.8034 121.722C82.4154 121.722 82.9734 121.578 83.4774 121.29C83.9934 120.99 84.4014 120.564 84.7014 120.012C85.0014 119.448 85.1514 118.794 85.1514 118.05ZM91.2135 114.738C91.5015 114.174 91.9095 113.736 92.4375 113.424C92.9775 113.112 93.6315 112.956 94.3995 112.956V114.648H93.9675C92.1315 114.648 91.2135 115.644 91.2135 117.636V123H89.5755V113.136H91.2135V114.738ZM105.283 123.126C104.407 123.126 103.615 122.976 102.907 122.676C102.211 122.376 101.659 121.944 101.251 121.38C100.843 120.816 100.633 120.15 100.621 119.382H103.321C103.357 119.898 103.537 120.306 103.861 120.606C104.197 120.906 104.653 121.056 105.229 121.056C105.817 121.056 106.279 120.918 106.615 120.642C106.951 120.354 107.119 119.982 107.119 119.526C107.119 119.154 107.005 118.848 106.777 118.608C106.549 118.368 106.261 118.182 105.913 118.05C105.577 117.906 105.109 117.75 104.509 117.582C103.693 117.342 103.027 117.108 102.511 116.88C102.007 116.64 101.569 116.286 101.197 115.818C100.837 115.338 100.657 114.702 100.657 113.91C100.657 113.166 100.843 112.518 101.215 111.966C101.587 111.414 102.109 110.994 102.781 110.706C103.453 110.406 104.221 110.256 105.085 110.256C106.381 110.256 107.431 110.574 108.235 111.21C109.051 111.834 109.501 112.71 109.585 113.838H106.813C106.789 113.406 106.603 113.052 106.255 112.776C105.919 112.488 105.469 112.344 104.905 112.344C104.413 112.344 104.017 112.47 103.717 112.722C103.429 112.974 103.285 113.34 103.285 113.82C103.285 114.156 103.393 114.438 103.609 114.666C103.837 114.882 104.113 115.062 104.437 115.206C104.773 115.338 105.241 115.494 105.841 115.674C106.657 115.914 107.323 116.154 107.839 116.394C108.355 116.634 108.799 116.994 109.171 117.474C109.543 117.954 109.729 118.584 109.729 119.364C109.729 120.036 109.555 120.66 109.207 121.236C108.859 121.812 108.349 122.274 107.677 122.622C107.005 122.958 106.207 123.126 105.283 123.126ZM114.848 115.098V119.922C114.848 120.258 114.926 120.504 115.082 120.66C115.25 120.804 115.526 120.876 115.91 120.876H117.08V123H115.496C113.372 123 112.31 121.968 112.31 119.904V115.098H111.122V113.028H112.31V110.562H114.848V113.028H117.08V115.098H114.848ZM123.32 123.162C122.36 123.162 121.496 122.952 120.728 122.532C119.96 122.1 119.354 121.494 118.91 120.714C118.478 119.934 118.262 119.034 118.262 118.014C118.262 116.994 118.484 116.094 118.928 115.314C119.384 114.534 120.002 113.934 120.782 113.514C121.562 113.082 122.432 112.866 123.392 112.866C124.352 112.866 125.222 113.082 126.002 113.514C126.782 113.934 127.394 114.534 127.838 115.314C128.294 116.094 128.522 116.994 128.522 118.014C128.522 119.034 128.288 119.934 127.82 120.714C127.364 121.494 126.74 122.1 125.948 122.532C125.168 122.952 124.292 123.162 123.32 123.162ZM123.32 120.966C123.776 120.966 124.202 120.858 124.598 120.642C125.006 120.414 125.33 120.078 125.57 119.634C125.81 119.19 125.93 118.65 125.93 118.014C125.93 117.066 125.678 116.34 125.174 115.836C124.682 115.32 124.076 115.062 123.356 115.062C122.636 115.062 122.03 115.32 121.538 115.836C121.058 116.34 120.818 117.066 120.818 118.014C120.818 118.962 121.052 119.694 121.52 120.21C122 120.714 122.6 120.966 123.32 120.966ZM129.723 118.014C129.723 116.982 129.933 116.082 130.353 115.314C130.773 114.534 131.355 113.934 132.099 113.514C132.843 113.082 133.695 112.866 134.655 112.866C135.891 112.866 136.911 113.178 137.715 113.802C138.531 114.414 139.077 115.278 139.353 116.394H136.635C136.491 115.962 136.245 115.626 135.897 115.386C135.561 115.134 135.141 115.008 134.637 115.008C133.917 115.008 133.347 115.272 132.927 115.8C132.507 116.316 132.297 117.054 132.297 118.014C132.297 118.962 132.507 119.7 132.927 120.228C133.347 120.744 133.917 121.002 134.637 121.002C135.657 121.002 136.323 120.546 136.635 119.634H139.353C139.077 120.714 138.531 121.572 137.715 122.208C136.899 122.844 135.879 123.162 134.655 123.162C133.695 123.162 132.843 122.952 132.099 122.532C131.355 122.1 130.773 121.5 130.353 120.732C129.933 119.952 129.723 119.046 129.723 118.014ZM147.103 123L143.719 118.752V123H141.199V109.68H143.719V117.258L147.067 113.028H150.343L145.951 118.032L150.379 123H147.103ZM163.128 116.556C163.836 116.688 164.418 117.042 164.874 117.618C165.33 118.194 165.558 118.854 165.558 119.598C165.558 120.27 165.39 120.864 165.054 121.38C164.73 121.884 164.256 122.28 163.632 122.568C163.008 122.856 162.27 123 161.418 123H156V110.436H161.184C162.036 110.436 162.768 110.574 163.38 110.85C164.004 111.126 164.472 111.51 164.784 112.002C165.108 112.494 165.27 113.052 165.27 113.676C165.27 114.408 165.072 115.02 164.676 115.512C164.292 116.004 163.776 116.352 163.128 116.556ZM158.52 115.62H160.824C161.424 115.62 161.886 115.488 162.21 115.224C162.534 114.948 162.696 114.558 162.696 114.054C162.696 113.55 162.534 113.16 162.21 112.884C161.886 112.608 161.424 112.47 160.824 112.47H158.52V115.62ZM161.058 120.948C161.67 120.948 162.144 120.804 162.48 120.516C162.828 120.228 163.002 119.82 163.002 119.292C163.002 118.752 162.822 118.332 162.462 118.032C162.102 117.72 161.616 117.564 161.004 117.564H158.52V120.948H161.058ZM170.086 114.576C170.41 114.048 170.83 113.634 171.346 113.334C171.874 113.034 172.474 112.884 173.146 112.884V115.53H172.48C171.688 115.53 171.088 115.716 170.68 116.088C170.284 116.46 170.086 117.108 170.086 118.032V123H167.566V113.028H170.086V114.576ZM179.272 123.162C178.312 123.162 177.448 122.952 176.68 122.532C175.912 122.1 175.306 121.494 174.862 120.714C174.43 119.934 174.214 119.034 174.214 118.014C174.214 116.994 174.436 116.094 174.88 115.314C175.336 114.534 175.954 113.934 176.734 113.514C177.514 113.082 178.384 112.866 179.344 112.866C180.304 112.866 181.174 113.082 181.954 113.514C182.734 113.934 183.346 114.534 183.79 115.314C184.246 116.094 184.474 116.994 184.474 118.014C184.474 119.034 184.24 119.934 183.772 120.714C183.316 121.494 182.692 122.1 181.9 122.532C181.12 122.952 180.244 123.162 179.272 123.162ZM179.272 120.966C179.728 120.966 180.154 120.858 180.55 120.642C180.958 120.414 181.282 120.078 181.522 119.634C181.762 119.19 181.882 118.65 181.882 118.014C181.882 117.066 181.63 116.34 181.126 115.836C180.634 115.32 180.028 115.062 179.308 115.062C178.588 115.062 177.982 115.32 177.49 115.836C177.01 116.34 176.77 117.066 176.77 118.014C176.77 118.962 177.004 119.694 177.472 120.21C177.952 120.714 178.552 120.966 179.272 120.966ZM192.226 123L188.842 118.752V123H186.322V109.68H188.842V117.258L192.19 113.028H195.466L191.074 118.032L195.502 123H192.226ZM206.104 117.798C206.104 118.158 206.08 118.482 206.032 118.77H198.742C198.802 119.49 199.054 120.054 199.498 120.462C199.942 120.87 200.488 121.074 201.136 121.074C202.072 121.074 202.738 120.672 203.134 119.868H205.852C205.564 120.828 205.012 121.62 204.196 122.244C203.38 122.856 202.378 123.162 201.19 123.162C200.23 123.162 199.366 122.952 198.598 122.532C197.842 122.1 197.248 121.494 196.816 120.714C196.396 119.934 196.186 119.034 196.186 118.014C196.186 116.982 196.396 116.076 196.816 115.296C197.236 114.516 197.824 113.916 198.58 113.496C199.336 113.076 200.206 112.866 201.19 112.866C202.138 112.866 202.984 113.07 203.728 113.478C204.484 113.886 205.066 114.468 205.474 115.224C205.894 115.968 206.104 116.826 206.104 117.798ZM203.494 117.078C203.482 116.43 203.248 115.914 202.792 115.53C202.336 115.134 201.778 114.936 201.118 114.936C200.494 114.936 199.966 115.128 199.534 115.512C199.114 115.884 198.856 116.406 198.76 117.078H203.494ZM210.463 114.576C210.787 114.048 211.207 113.634 211.723 113.334C212.251 113.034 212.851 112.884 213.523 112.884V115.53H212.857C212.065 115.53 211.465 115.716 211.057 116.088C210.661 116.46 210.463 117.108 210.463 118.032V123H207.943V113.028H210.463V114.576ZM219.037 123.162C218.221 123.162 217.489 123.018 216.841 122.73C216.193 122.43 215.677 122.028 215.293 121.524C214.921 121.02 214.717 120.462 214.681 119.85H217.219C217.267 120.234 217.453 120.552 217.777 120.804C218.113 121.056 218.527 121.182 219.019 121.182C219.499 121.182 219.871 121.086 220.135 120.894C220.411 120.702 220.549 120.456 220.549 120.156C220.549 119.832 220.381 119.592 220.045 119.436C219.721 119.268 219.199 119.088 218.479 118.896C217.735 118.716 217.123 118.53 216.643 118.338C216.175 118.146 215.767 117.852 215.419 117.456C215.083 117.06 214.915 116.526 214.915 115.854C214.915 115.302 215.071 114.798 215.383 114.342C215.707 113.886 216.163 113.526 216.751 113.262C217.351 112.998 218.053 112.866 218.857 112.866C220.045 112.866 220.993 113.166 221.701 113.766C222.409 114.354 222.799 115.152 222.871 116.16H220.459C220.423 115.764 220.255 115.452 219.955 115.224C219.667 114.984 219.277 114.864 218.785 114.864C218.329 114.864 217.975 114.948 217.723 115.116C217.483 115.284 217.363 115.518 217.363 115.818C217.363 116.154 217.531 116.412 217.867 116.592C218.203 116.76 218.725 116.934 219.433 117.114C220.153 117.294 220.747 117.48 221.215 117.672C221.683 117.864 222.085 118.164 222.421 118.572C222.769 118.968 222.949 119.496 222.961 120.156C222.961 120.732 222.799 121.248 222.475 121.704C222.163 122.16 221.707 122.52 221.107 122.784C220.519 123.036 219.829 123.162 219.037 123.162Z" fill="white"/>
</svg>
