<svg width="32" height="32" viewBox="0 0 32 32" fill="none" xmlns="http://www.w3.org/2000/svg">
<rect width="32" height="32" rx="16" fill="url(#paint0_linear_7970_40744)"/>
<g clip-path="url(#clip0_7970_40744)">
<mask id="mask0_7970_40744" style="mask-type:alpha" maskUnits="userSpaceOnUse" x="4" y="4" width="24" height="24">
<rect x="4" y="4" width="24" height="24" fill="#D9D9D9"/>
</mask>
<g mask="url(#mask0_7970_40744)">
<path d="M16.0504 17.375L10.1254 23.3C9.92539 23.5 9.68789 23.6 9.41289 23.6C9.13789 23.6 8.90039 23.5 8.70039 23.3C8.50039 23.1 8.40039 22.8625 8.40039 22.5875C8.40039 22.3125 8.50039 22.075 8.70039 21.875L17.6004 13H15.0004V14C15.0004 14.2833 14.9046 14.5208 14.7129 14.7125C14.5212 14.9042 14.2837 15 14.0004 15C13.7171 15 13.4796 14.9042 13.2879 14.7125C13.0962 14.5208 13.0004 14.2833 13.0004 14V12C13.0004 11.7167 13.0962 11.4792 13.2879 11.2875C13.4796 11.0958 13.7171 11 14.0004 11H18.8504C19.1171 11 19.3712 11.05 19.6129 11.15C19.8546 11.25 20.0671 11.3917 20.2504 11.575L23.2504 14.55C23.5837 14.8833 23.9712 15.1625 24.4129 15.3875C24.8546 15.6125 25.3337 15.775 25.8504 15.875C26.1337 15.925 26.3796 16.0542 26.5879 16.2625C26.7962 16.4708 26.9004 16.7167 26.9004 17C26.9004 17.2833 26.7837 17.5167 26.5504 17.7C26.3171 17.8833 26.0587 17.9583 25.7754 17.925C25.0254 17.825 24.3337 17.625 23.7004 17.325C23.0671 17.025 22.4837 16.6167 21.9504 16.1L20.9504 15.05L18.7504 17.25L20.0754 18.575C20.3087 18.8083 20.4046 19.0875 20.3629 19.4125C20.3212 19.7375 20.1587 19.9833 19.8754 20.15L15.3254 22.775C15.0921 22.9083 14.8379 22.9417 14.5629 22.875C14.2879 22.8083 14.0837 22.6583 13.9504 22.425C13.8171 22.1917 13.7879 21.9375 13.8629 21.6625C13.9379 21.3875 14.0921 21.1833 14.3254 21.05L17.7504 19.075L16.0504 17.375ZM23.4754 12C22.9254 12 22.4504 11.8042 22.0504 11.4125C21.6504 11.0208 21.4504 10.55 21.4504 10C21.4504 9.45 21.6504 8.97917 22.0504 8.5875C22.4504 8.19583 22.9254 8 23.4754 8C24.0254 8 24.5004 8.19583 24.9004 8.5875C25.3004 8.97917 25.5004 9.45 25.5004 10C25.5004 10.55 25.3004 11.0208 24.9004 11.4125C24.5004 11.8042 24.0254 12 23.4754 12Z" fill="white"/>
<path d="M8 17C7.71667 17 7.47917 16.9042 7.2875 16.7125C7.09583 16.5208 7 16.2833 7 16C7 15.7167 7.09583 15.4792 7.2875 15.2875C7.47917 15.0958 7.71667 15 8 15H11C11.2833 15 11.5208 15.0958 11.7125 15.2875C11.9042 15.4792 12 15.7167 12 16C12 16.2833 11.9042 16.5208 11.7125 16.7125C11.5208 16.9042 11.2833 17 11 17H8ZM6 14C5.71667 14 5.47917 13.9042 5.2875 13.7125C5.09583 13.5208 5 13.2833 5 13C5 12.7167 5.09583 12.4792 5.2875 12.2875C5.47917 12.0958 5.71667 12 6 12H9C9.28333 12 9.52083 12.0958 9.7125 12.2875C9.90417 12.4792 10 12.7167 10 13C10 13.2833 9.90417 13.5208 9.7125 13.7125C9.52083 13.9042 9.28333 14 9 14H6ZM8 11C7.71667 11 7.47917 10.9042 7.2875 10.7125C7.09583 10.5208 7 10.2833 7 10C7 9.71667 7.09583 9.47917 7.2875 9.2875C7.47917 9.09583 7.71667 9 8 9H11C11.2833 9 11.5208 9.09583 11.7125 9.2875C11.9042 9.47917 12 9.71667 12 10C12 10.2833 11.9042 10.5208 11.7125 10.7125C11.5208 10.9042 11.2833 11 11 11H8Z" fill="white"/>
</g>
</g>
<defs>
<linearGradient id="paint0_linear_7970_40744" x1="18.5455" y1="-9.6" x2="15.0492" y2="31.7195" gradientUnits="userSpaceOnUse">
<stop stop-color="#4399EB"/>
<stop offset="1" stop-color="#00498E"/>
</linearGradient>
<clipPath id="clip0_7970_40744">
<rect width="24" height="24" fill="white" transform="translate(4 4)"/>
</clipPath>
</defs>
</svg>
