<svg width="14" height="14" viewBox="0 0 14 14" fill="none" xmlns="http://www.w3.org/2000/svg">
<mask id="mask0_13046_62805" style="mask-type:alpha" maskUnits="userSpaceOnUse" x="0" y="0" width="14" height="14">
<rect width="14" height="14" fill="#D9D9D9"/>
</mask>
<g mask="url(#mask0_13046_62805)">
<path d="M3.90964 12.425C3.80269 12.3181 3.74922 12.1819 3.74922 12.0167C3.74922 11.8514 3.80269 11.7153 3.90964 11.6083L6.69505 8.80833C6.91866 8.58472 7.19575 8.47292 7.5263 8.47292C7.85686 8.47292 8.13394 8.58472 8.35755 8.80833L9.56797 10.0188L12.1784 7.40833C12.2951 7.29167 12.4312 7.23333 12.5867 7.23333C12.7423 7.23333 12.8784 7.29167 12.9951 7.40833C13.1117 7.525 13.1701 7.66354 13.1701 7.82396C13.1701 7.98438 13.1117 8.12292 12.9951 8.23958L10.3992 10.85C10.1756 11.0736 9.90096 11.1854 9.57526 11.1854C9.24957 11.1854 8.97491 11.0736 8.7513 10.85L7.5263 9.625L4.7263 12.425C4.61936 12.5319 4.48568 12.5878 4.32526 12.5927C4.16484 12.5976 4.0263 12.5417 3.90964 12.425ZM2.33464 12.25C2.0138 12.25 1.73915 12.1358 1.51068 11.9073C1.2822 11.6788 1.16797 11.4042 1.16797 11.0833V2.91667C1.16797 2.59583 1.2822 2.32118 1.51068 2.09271C1.73915 1.86424 2.0138 1.75 2.33464 1.75H10.5013C10.8221 1.75 11.0968 1.86424 11.3253 2.09271C11.5537 2.32118 11.668 2.59583 11.668 2.91667V5.25C11.668 5.41528 11.6121 5.55382 11.5003 5.66563C11.3885 5.77743 11.2499 5.83333 11.0846 5.83333H2.33464V12.25ZM2.33464 4.66667H10.5013V2.91667H2.33464V4.66667Z" fill="white"/>
</g>
</svg>
