<svg width="47" height="54" viewBox="0 0 47 54" fill="none" xmlns="http://www.w3.org/2000/svg">
<g filter="url(#filter0_d_3016_50543)">
<rect x="47" y="47" width="40" height="40" rx="20" transform="rotate(-180 47 47)" fill="white" shape-rendering="crispEdges"/>
<rect x="46.5" y="46.5" width="39" height="39" rx="19.5" transform="rotate(-180 46.5 46.5)" stroke="#DDDDDD" shape-rendering="crispEdges"/>
<mask id="mask0_3016_50543" style="mask-type:alpha" maskUnits="userSpaceOnUse" x="15" y="15" width="24" height="24">
<rect x="39" y="39" width="24" height="24" transform="rotate(-180 39 39)" fill="#D9D9D9"/>
</mask>
<g mask="url(#mask0_3016_50543)">
<path d="M25.4002 26.9992L29.3002 30.8992C29.4835 31.0826 29.5752 31.3159 29.5752 31.5992C29.5752 31.8826 29.4835 32.1159 29.3002 32.2992C29.1169 32.4826 28.8835 32.5742 28.6002 32.5742C28.3169 32.5742 28.0835 32.4826 27.9002 32.2992L23.3002 27.6992C23.2002 27.5992 23.1294 27.4909 23.0877 27.3742C23.046 27.2576 23.0252 27.1326 23.0252 26.9992C23.0252 26.8659 23.046 26.7409 23.0877 26.6242C23.1294 26.5076 23.2002 26.3992 23.3002 26.2992L27.9002 21.6992C28.0835 21.5159 28.3169 21.4242 28.6002 21.4242C28.8835 21.4242 29.1169 21.5159 29.3002 21.6992C29.4835 21.8826 29.5752 22.1159 29.5752 22.3992C29.5752 22.6826 29.4835 22.9159 29.3002 23.0992L25.4002 26.9992Z" fill="#333333"/>
</g>
</g>
<defs>
<filter id="filter0_d_3016_50543" x="0" y="0" width="54" height="54" filterUnits="userSpaceOnUse" color-interpolation-filters="sRGB">
<feFlood flood-opacity="0" result="BackgroundImageFix"/>
<feColorMatrix in="SourceAlpha" type="matrix" values="0 0 0 0 0 0 0 0 0 0 0 0 0 0 0 0 0 0 127 0" result="hardAlpha"/>
<feOffset/>
<feGaussianBlur stdDeviation="3.5"/>
<feComposite in2="hardAlpha" operator="out"/>
<feColorMatrix type="matrix" values="0 0 0 0 0 0 0 0 0 0 0 0 0 0 0 0 0 0 0.1 0"/>
<feBlend mode="normal" in2="BackgroundImageFix" result="effect1_dropShadow_3016_50543"/>
<feBlend mode="normal" in="SourceGraphic" in2="effect1_dropShadow_3016_50543" result="shape"/>
</filter>
</defs>
</svg>
