<svg width="47" height="54" viewBox="0 0 47 54" fill="none" xmlns="http://www.w3.org/2000/svg">
<g filter="url(#filter0_d_3016_50543)">
<rect x="7" y="7" width="40" height="40" rx="20" fill="white" shape-rendering="crispEdges"/>
<rect x="7.5" y="7.5" width="39" height="39" rx="19.5" stroke="#DDDDDD" shape-rendering="crispEdges"/>
<mask id="mask0_3016_50543" style="mask-type:alpha" maskUnits="userSpaceOnUse" x="15" y="15" width="24" height="24">
<rect x="15" y="15" width="24" height="24" fill="#D9D9D9"/>
</mask>
<g mask="url(#mask0_3016_50543)">
<path d="M28.5998 27.0008L24.6998 23.1008C24.5165 22.9174 24.4248 22.6841 24.4248 22.4008C24.4248 22.1174 24.5165 21.8841 24.6998 21.7008C24.8831 21.5174 25.1165 21.4258 25.3998 21.4258C25.6831 21.4258 25.9165 21.5174 26.0998 21.7008L30.6998 26.3008C30.7998 26.4008 30.8706 26.5091 30.9123 26.6258C30.954 26.7424 30.9748 26.8674 30.9748 27.0008C30.9748 27.1341 30.954 27.2591 30.9123 27.3758C30.8706 27.4924 30.7998 27.6008 30.6998 27.7008L26.0998 32.3008C25.9165 32.4841 25.6831 32.5758 25.3998 32.5758C25.1165 32.5758 24.8831 32.4841 24.6998 32.3008C24.5165 32.1174 24.4248 31.8841 24.4248 31.6008C24.4248 31.3174 24.5165 31.0841 24.6998 30.9008L28.5998 27.0008Z" fill="#333333"/>
</g>
</g>
<defs>
<filter id="filter0_d_3016_50543" x="0" y="0" width="54" height="54" filterUnits="userSpaceOnUse" color-interpolation-filters="sRGB">
<feFlood flood-opacity="0" result="BackgroundImageFix"/>
<feColorMatrix in="SourceAlpha" type="matrix" values="0 0 0 0 0 0 0 0 0 0 0 0 0 0 0 0 0 0 127 0" result="hardAlpha"/>
<feOffset/>
<feGaussianBlur stdDeviation="3.5"/>
<feComposite in2="hardAlpha" operator="out"/>
<feColorMatrix type="matrix" values="0 0 0 0 0 0 0 0 0 0 0 0 0 0 0 0 0 0 0.1 0"/>
<feBlend mode="normal" in2="BackgroundImageFix" result="effect1_dropShadow_3016_50543"/>
<feBlend mode="normal" in="SourceGraphic" in2="effect1_dropShadow_3016_50543" result="shape"/>
</filter>
</defs>
</svg>
