<svg width="22" height="22" viewBox="0 0 22 22" fill="none" xmlns="http://www.w3.org/2000/svg">
<path d="M18.0638 3.90863C16.1341 1.9221 13.4666 0.84375 10.7422 0.84375C4.95301 0.84375 0.298963 5.55457 0.355738 11.287C0.355738 13.1032 0.866563 14.8627 1.71789 16.4519L0.242188 21.8438L5.74764 20.4248C7.28004 21.2761 8.98276 21.6735 10.6854 21.6735C16.4179 21.6735 21.0719 16.9627 21.0719 11.2302C21.0719 8.44913 19.9936 5.83838 18.0638 3.90863ZM10.7422 19.914C9.20979 19.914 7.67731 19.5167 6.37194 18.7221L6.03136 18.5519L2.73954 19.4032L3.59086 16.168L3.36384 15.8275C0.866562 11.7978 2.05839 6.46268 6.14491 3.9654C10.2314 1.46807 15.5098 2.65995 18.0071 6.74648C20.5043 10.8329 19.3125 16.1114 15.226 18.6086C13.9206 19.4599 12.3314 19.914 10.7422 19.914ZM15.7368 13.614L15.1125 13.3302C15.1125 13.3302 14.2043 12.9329 13.6368 12.6491C13.58 12.6491 13.5233 12.5924 13.4666 12.5924C13.2962 12.5924 13.1828 12.6491 13.0692 12.7059C13.0692 12.7059 13.0125 12.7627 12.2179 13.6708C12.1611 13.7843 12.0476 13.841 11.9341 13.841H11.8773C11.8206 13.841 11.7071 13.7843 11.6503 13.7276L11.3666 13.614C10.7422 13.3302 10.1747 12.9897 9.72061 12.5356C9.60706 12.4221 9.43681 12.3086 9.32326 12.1951C8.92599 11.7978 8.52871 11.3437 8.24491 10.8329L8.18814 10.7194C8.13136 10.6627 8.13136 10.6059 8.07466 10.4924C8.07466 10.3789 8.07466 10.2654 8.13136 10.2086C8.13136 10.2086 8.35839 9.92482 8.52871 9.75457C8.64219 9.64102 8.69896 9.47078 8.81251 9.3573C8.92599 9.18698 8.98276 8.95995 8.92599 8.7897C8.86921 8.5059 8.18814 6.9735 8.01789 6.63293C7.90434 6.46268 7.79086 6.4059 7.62061 6.34912H7.45029C7.33681 6.34912 7.16656 6.34912 6.99624 6.34912C6.88276 6.34912 6.76921 6.4059 6.65574 6.4059L6.59896 6.46267C6.48541 6.51945 6.37194 6.63292 6.25839 6.6897C6.14491 6.80317 6.08814 6.91673 5.97466 7.0302C5.57731 7.54103 5.35029 8.1654 5.35029 8.7897C5.35029 9.24375 5.46384 9.6978 5.63409 10.0951L5.69086 10.2654C6.20169 11.3438 6.88276 12.3086 7.79086 13.16L8.01789 13.387C8.18814 13.5573 8.35839 13.6708 8.47194 13.841C9.66384 14.8627 11.026 15.6005 12.5584 15.9978C12.7287 16.0546 12.9557 16.0546 13.126 16.1114C13.2962 16.1114 13.5233 16.1114 13.6936 16.1114C13.9773 16.1114 14.3179 15.9978 14.5449 15.8843C14.7152 15.7708 14.8287 15.7708 14.9422 15.6573L15.0557 15.5438C15.1692 15.4302 15.2828 15.3735 15.3962 15.2599C15.5098 15.1465 15.6233 15.0329 15.68 14.9194C15.7936 14.6924 15.8503 14.4086 15.9071 14.1248C15.9071 14.0113 15.9071 13.841 15.9071 13.7276C15.9071 13.7276 15.8503 13.6708 15.7368 13.614Z" fill="white"/>
</svg>
