<svg width="33" height="32" viewBox="0 0 33 32" fill="none" xmlns="http://www.w3.org/2000/svg">
<rect x="0.5" width="32" height="32" rx="16" fill="url(#paint0_linear_7970_40850)"/>
<g clip-path="url(#clip0_7970_40850)">
<mask id="mask0_7970_40850" style="mask-type:alpha" maskUnits="userSpaceOnUse" x="4" y="4" width="25" height="24">
<rect x="4.5" y="4" width="24" height="24" fill="#D9D9D9"/>
</mask>
<g mask="url(#mask0_7970_40850)">
<path d="M19.5 20H25.5C25.7833 20 26.0208 20.0958 26.2125 20.2875C26.4042 20.4792 26.5 20.7167 26.5 21C26.5 21.2833 26.4042 21.5208 26.2125 21.7125C26.0208 21.9042 25.7833 22 25.5 22H19.5C19.2167 22 18.9792 21.9042 18.7875 21.7125C18.5958 21.5208 18.5 21.2833 18.5 21C18.5 20.7167 18.5958 20.4792 18.7875 20.2875C18.9792 20.0958 19.2167 20 19.5 20ZM19.5 14.5H25.5C25.7833 14.5 26.0208 14.5958 26.2125 14.7875C26.4042 14.9792 26.5 15.2167 26.5 15.5C26.5 15.7833 26.4042 16.0208 26.2125 16.2125C26.0208 16.4042 25.7833 16.5 25.5 16.5H19.5C19.2167 16.5 18.9792 16.4042 18.7875 16.2125C18.5958 16.0208 18.5 15.7833 18.5 15.5C18.5 15.2167 18.5958 14.9792 18.7875 14.7875C18.9792 14.5958 19.2167 14.5 19.5 14.5ZM19.5 9H25.5C25.7833 9 26.0208 9.09583 26.2125 9.2875C26.4042 9.47917 26.5 9.71667 26.5 10C26.5 10.2833 26.4042 10.5208 26.2125 10.7125C26.0208 10.9042 25.7833 11 25.5 11H19.5C19.2167 11 18.9792 10.9042 18.7875 10.7125C18.5958 10.5208 18.5 10.2833 18.5 10C18.5 9.71667 18.5958 9.47917 18.7875 9.2875C18.9792 9.09583 19.2167 9 19.5 9Z" fill="white"/>
<path d="M8.5 15.475C8.5 16.6583 8.89583 17.675 9.6875 18.525C10.4792 19.375 11.4667 19.85 12.65 19.95L11.8 19.1C11.6167 18.9167 11.525 18.6833 11.525 18.4C11.525 18.1167 11.6167 17.8833 11.8 17.7C11.9833 17.5167 12.2167 17.425 12.5 17.425C12.7833 17.425 13.0167 17.5167 13.2 17.7L15.8 20.3C16 20.5 16.1 20.7333 16.1 21C16.1 21.2667 16 21.5 15.8 21.7L13.2 24.3C13.0167 24.4833 12.7833 24.575 12.5 24.575C12.2167 24.575 11.9833 24.4833 11.8 24.3C11.6167 24.1167 11.525 23.8833 11.525 23.6C11.525 23.3167 11.6167 23.0833 11.8 22.9L12.7 22C10.95 21.9 9.47917 21.225 8.2875 19.975C7.09583 18.725 6.5 17.2333 6.5 15.5C6.5 13.6833 7.12917 12.1458 8.3875 10.8875C9.64583 9.62917 11.1833 9 13 9H15.5C15.7833 9 16.0208 9.09583 16.2125 9.2875C16.4042 9.47917 16.5 9.71667 16.5 10C16.5 10.2833 16.4042 10.5208 16.2125 10.7125C16.0208 10.9042 15.7833 11 15.5 11H13C11.75 11 10.6875 11.4333 9.8125 12.3C8.9375 13.1667 8.5 14.225 8.5 15.475Z" fill="white"/>
</g>
</g>
<defs>
<linearGradient id="paint0_linear_7970_40850" x1="19.0455" y1="-9.6" x2="15.5492" y2="31.7195" gradientUnits="userSpaceOnUse">
<stop stop-color="#4399EB"/>
<stop offset="1" stop-color="#00498E"/>
</linearGradient>
<clipPath id="clip0_7970_40850">
<rect width="24" height="24" fill="white" transform="translate(4.5 4)"/>
</clipPath>
</defs>
</svg>
