<svg width="32" height="32" viewBox="0 0 32 32" fill="none" xmlns="http://www.w3.org/2000/svg">
<rect width="32" height="32" rx="16" fill="url(#paint0_linear_7970_40897)"/>
<g clip-path="url(#clip0_7970_40897)">
<mask id="mask0_7970_40897" style="mask-type:alpha" maskUnits="userSpaceOnUse" x="4" y="4" width="24" height="24">
<rect x="4" y="4" width="24" height="24" fill="#D9D9D9"/>
</mask>
<g mask="url(#mask0_7970_40897)">
<path d="M9.075 16H12C12.1833 16 12.3583 16.0458 12.525 16.1375C12.6917 16.2292 12.8167 16.3667 12.9 16.55L14 18.75L17.1 12.55C17.2833 12.1667 17.5833 11.975 18 11.975C18.4167 11.975 18.7167 12.1667 18.9 12.55L20.625 16H22.925C22.675 14.3 21.9 12.875 20.6 11.725C19.3 10.575 17.7667 10 16 10C14.2333 10 12.7 10.575 11.4 11.725C10.1 12.875 9.325 14.3 9.075 16ZM16 24C17.7667 24 19.3 23.425 20.6 22.275C21.9 21.125 22.675 19.7 22.925 18H20C19.8167 18 19.6417 17.9542 19.475 17.8625C19.3083 17.7708 19.1833 17.6333 19.1 17.45L18 15.25L14.9 21.45C14.7167 21.8333 14.4167 22.025 14 22.025C13.5833 22.025 13.2833 21.8333 13.1 21.45L11.375 18H9.075C9.325 19.7 10.1 21.125 11.4 22.275C12.7 23.425 14.2333 24 16 24ZM16 26C14.7667 26 13.6042 25.7625 12.5125 25.2875C11.4208 24.8125 10.4667 24.1667 9.65 23.35C8.83333 22.5333 8.1875 21.5792 7.7125 20.4875C7.2375 19.3958 7 18.2333 7 17H9C9 18.9333 9.68333 20.5833 11.05 21.95C12.4167 23.3167 14.0667 24 16 24C17.9333 24 19.5833 23.3167 20.95 21.95C22.3167 20.5833 23 18.9333 23 17H25C25 18.2333 24.7625 19.3958 24.2875 20.4875C23.8125 21.5792 23.1667 22.5333 22.35 23.35C21.5333 24.1667 20.5792 24.8125 19.4875 25.2875C18.3958 25.7625 17.2333 26 16 26ZM7 17C7 15.7667 7.2375 14.6042 7.7125 13.5125C8.1875 12.4208 8.83333 11.4667 9.65 10.65C10.4667 9.83333 11.4208 9.1875 12.5125 8.7125C13.6042 8.2375 14.7667 8 16 8C17.0333 8 18.025 8.16667 18.975 8.5C19.925 8.83333 20.8167 9.31667 21.65 9.95L22.35 9.25C22.5333 9.06667 22.7667 8.975 23.05 8.975C23.3333 8.975 23.5667 9.06667 23.75 9.25C23.9333 9.43333 24.025 9.66667 24.025 9.95C24.025 10.2333 23.9333 10.4667 23.75 10.65L23.05 11.35C23.6833 12.1833 24.1667 13.075 24.5 14.025C24.8333 14.975 25 15.9667 25 17H23C23 15.0667 22.3167 13.4167 20.95 12.05C19.5833 10.6833 17.9333 10 16 10C14.0667 10 12.4167 10.6833 11.05 12.05C9.68333 13.4167 9 15.0667 9 17H7ZM14 7C13.7167 7 13.4792 6.90417 13.2875 6.7125C13.0958 6.52083 13 6.28333 13 6C13 5.71667 13.0958 5.47917 13.2875 5.2875C13.4792 5.09583 13.7167 5 14 5H18C18.2833 5 18.5208 5.09583 18.7125 5.2875C18.9042 5.47917 19 5.71667 19 6C19 6.28333 18.9042 6.52083 18.7125 6.7125C18.5208 6.90417 18.2833 7 18 7H14ZM16 24C14.0667 24 12.4167 23.3167 11.05 21.95C9.68333 20.5833 9 18.9333 9 17C9 15.0667 9.68333 13.4167 11.05 12.05C12.4167 10.6833 14.0667 10 16 10C17.9333 10 19.5833 10.6833 20.95 12.05C22.3167 13.4167 23 15.0667 23 17C23 18.9333 22.3167 20.5833 20.95 21.95C19.5833 23.3167 17.9333 24 16 24Z" fill="white"/>
<path d="M9.075 16H12C12.1833 16 12.3583 16.0458 12.525 16.1375C12.6917 16.2292 12.8167 16.3667 12.9 16.55L14 18.75L17.1 12.55C17.2833 12.1667 17.5833 11.975 18 11.975C18.4167 11.975 18.7167 12.1667 18.9 12.55L20.625 16H22.925C22.675 14.3 21.9 12.875 20.6 11.725C19.3 10.575 17.7667 10 16 10C14.2333 10 12.7 10.575 11.4 11.725C10.1 12.875 9.325 14.3 9.075 16ZM16 24C17.7667 24 19.3 23.425 20.6 22.275C21.9 21.125 22.675 19.7 22.925 18H20C19.8167 18 19.6417 17.9542 19.475 17.8625C19.3083 17.7708 19.1833 17.6333 19.1 17.45L18 15.25L14.9 21.45C14.7167 21.8333 14.4167 22.025 14 22.025C13.5833 22.025 13.2833 21.8333 13.1 21.45L11.375 18H9.075C9.325 19.7 10.1 21.125 11.4 22.275C12.7 23.425 14.2333 24 16 24ZM16 24C14.0667 24 12.4167 23.3167 11.05 21.95C9.68333 20.5833 9 18.9333 9 17C9 15.0667 9.68333 13.4167 11.05 12.05C12.4167 10.6833 14.0667 10 16 10C17.9333 10 19.5833 10.6833 20.95 12.05C22.3167 13.4167 23 15.0667 23 17C23 18.9333 22.3167 20.5833 20.95 21.95C19.5833 23.3167 17.9333 24 16 24Z" fill="white"/>
</g>
</g>
<defs>
<linearGradient id="paint0_linear_7970_40897" x1="18.5455" y1="-9.6" x2="15.0492" y2="31.7195" gradientUnits="userSpaceOnUse">
<stop stop-color="#4399EB"/>
<stop offset="1" stop-color="#00498E"/>
</linearGradient>
<clipPath id="clip0_7970_40897">
<rect width="24" height="24" fill="white" transform="translate(4 4)"/>
</clipPath>
</defs>
</svg>
