<svg width="33" height="32" viewBox="0 0 33 32" fill="none" xmlns="http://www.w3.org/2000/svg">
<rect x="0.400391" width="32" height="32" rx="16" fill="url(#paint0_linear_7970_41200)"/>
<mask id="mask0_7970_41200" style="mask-type:alpha" maskUnits="userSpaceOnUse" x="4" y="4" width="25" height="24">
<rect x="4.40039" y="4" width="24" height="24" fill="#D9D9D9"/>
</mask>
<g mask="url(#mask0_7970_41200)">
<path d="M16.2756 26C16.3423 26 16.409 25.9833 16.4756 25.95C16.5423 25.9167 16.5923 25.8833 16.6256 25.85L24.8256 17.65C25.0256 17.45 25.1715 17.225 25.2631 16.975C25.3548 16.725 25.4006 16.475 25.4006 16.225C25.4006 15.9583 25.3548 15.7042 25.2631 15.4625C25.1715 15.2208 25.0256 15.0083 24.8256 14.825L20.5756 10.575C20.3923 10.375 20.1798 10.2292 19.9381 10.1375C19.6965 10.0458 19.4423 10 19.1756 10C18.9256 10 18.6756 10.0458 18.4256 10.1375C18.1756 10.2292 17.9506 10.375 17.7506 10.575L17.4756 10.85L19.3256 12.725C19.5756 12.9583 19.759 13.225 19.8756 13.525C19.9923 13.825 20.0506 14.1417 20.0506 14.475C20.0506 15.175 19.8131 15.7625 19.3381 16.2375C18.8631 16.7125 18.2756 16.95 17.5756 16.95C17.2423 16.95 16.9215 16.8917 16.6131 16.775C16.3048 16.6583 16.034 16.4833 15.8006 16.25L13.9256 14.4L9.55062 18.775C9.50062 18.825 9.46313 18.8792 9.43813 18.9375C9.41313 18.9958 9.40062 19.0583 9.40062 19.125C9.40062 19.2583 9.45062 19.3792 9.55062 19.4875C9.65062 19.5958 9.76729 19.65 9.90062 19.65C9.96729 19.65 10.034 19.6333 10.1006 19.6C10.1673 19.5667 10.2173 19.5333 10.2506 19.5L12.9506 16.8C13.134 16.6167 13.3631 16.5208 13.6381 16.5125C13.9131 16.5042 14.1506 16.6 14.3506 16.8C14.534 16.9833 14.6256 17.2167 14.6256 17.5C14.6256 17.7833 14.534 18.0167 14.3506 18.2L11.6756 20.9C11.6256 20.95 11.5881 21.0042 11.5631 21.0625C11.5381 21.1208 11.5256 21.1833 11.5256 21.25C11.5256 21.3833 11.5756 21.5 11.6756 21.6C11.7756 21.7 11.8923 21.75 12.0256 21.75C12.0923 21.75 12.159 21.7333 12.2256 21.7C12.2923 21.6667 12.3423 21.6333 12.3756 21.6L15.0756 18.925C15.259 18.7417 15.4881 18.6458 15.7631 18.6375C16.0381 18.6292 16.2756 18.725 16.4756 18.925C16.659 19.1083 16.7506 19.3417 16.7506 19.625C16.7506 19.9083 16.659 20.1417 16.4756 20.325L13.8006 23.025C13.7506 23.0583 13.7131 23.1083 13.6881 23.175C13.6631 23.2417 13.6506 23.3083 13.6506 23.375C13.6506 23.5083 13.7006 23.625 13.8006 23.725C13.9006 23.825 14.0173 23.875 14.1506 23.875C14.2173 23.875 14.2798 23.8625 14.3381 23.8375C14.3965 23.8125 14.4506 23.775 14.5006 23.725L17.2006 21.05C17.384 20.8667 17.6131 20.7708 17.8881 20.7625C18.1631 20.7542 18.4006 20.85 18.6006 21.05C18.784 21.2333 18.8756 21.4667 18.8756 21.75C18.8756 22.0333 18.784 22.2667 18.6006 22.45L15.9006 25.15C15.8506 25.2 15.8131 25.2542 15.7881 25.3125C15.7631 25.3708 15.7506 25.4333 15.7506 25.5C15.7506 25.6333 15.8048 25.75 15.9131 25.85C16.0215 25.95 16.1423 26 16.2756 26ZM16.2506 28C15.634 28 15.0881 27.7958 14.6131 27.3875C14.1381 26.9792 13.859 26.4667 13.7756 25.85C13.209 25.7667 12.734 25.5333 12.3506 25.15C11.9673 24.7667 11.734 24.2917 11.6506 23.725C11.084 23.6417 10.6131 23.4042 10.2381 23.0125C9.86312 22.6208 9.63396 22.15 9.55062 21.6C8.91729 21.5167 8.40063 21.2417 8.00063 20.775C7.60063 20.3083 7.40062 19.7583 7.40062 19.125C7.40062 18.7917 7.46312 18.4708 7.58812 18.1625C7.71312 17.8542 7.89229 17.5833 8.12563 17.35L12.5006 12.975C12.884 12.5917 13.3548 12.4 13.9131 12.4C14.4715 12.4 14.9423 12.5917 15.3256 12.975L17.2006 14.85C17.234 14.9 17.284 14.9375 17.3506 14.9625C17.4173 14.9875 17.484 15 17.5506 15C17.7006 15 17.8256 14.9542 17.9256 14.8625C18.0256 14.7708 18.0756 14.65 18.0756 14.5C18.0756 14.4333 18.0631 14.3667 18.0381 14.3C18.0131 14.2333 17.9756 14.1833 17.9256 14.15L14.3506 10.575C14.1673 10.375 13.9548 10.2292 13.7131 10.1375C13.4715 10.0458 13.2173 10 12.9506 10C12.7006 10 12.4506 10.0458 12.2006 10.1375C11.9506 10.2292 11.7256 10.375 11.5256 10.575L8.00063 14.125C7.85063 14.275 7.72563 14.45 7.62563 14.65C7.52563 14.85 7.45896 15.05 7.42563 15.25C7.39229 15.45 7.39229 15.6542 7.42563 15.8625C7.45896 16.0708 7.52563 16.2667 7.62563 16.45L6.17563 17.9C5.89229 17.5167 5.68396 17.0958 5.55063 16.6375C5.41729 16.1792 5.36729 15.7167 5.40063 15.25C5.43396 14.7833 5.55062 14.3292 5.75062 13.8875C5.95063 13.4458 6.22563 13.05 6.57563 12.7L10.1006 9.175C10.5006 8.79167 10.9465 8.5 11.4381 8.3C11.9298 8.1 12.434 8 12.9506 8C13.4673 8 13.9715 8.1 14.4631 8.3C14.9548 8.5 15.3923 8.79167 15.7756 9.175L16.0506 9.45L16.3256 9.175C16.7256 8.79167 17.1715 8.5 17.6631 8.3C18.1548 8.1 18.659 8 19.1756 8C19.6923 8 20.1965 8.1 20.6881 8.3C21.1798 8.5 21.6173 8.79167 22.0006 9.175L26.2256 13.4C26.609 13.7833 26.9006 14.225 27.1006 14.725C27.3006 15.225 27.4006 15.7333 27.4006 16.25C27.4006 16.7667 27.3006 17.2708 27.1006 17.7625C26.9006 18.2542 26.609 18.6917 26.2256 19.075L18.0256 27.25C17.7923 27.4833 17.5215 27.6667 17.2131 27.8C16.9048 27.9333 16.584 28 16.2506 28Z" fill="white"/>
<path fill-rule="evenodd" clip-rule="evenodd" d="M8.66394 7.70225L8.66437 7.70209L8.67339 7.6988C8.68225 7.69559 8.69676 7.69039 8.71678 7.68341C8.7568 7.66944 8.81881 7.64834 8.90159 7.62173C9.06717 7.56851 9.31564 7.49332 9.6373 7.40917C10.281 7.24076 11.2155 7.03702 12.3638 6.90104C14.6628 6.62879 17.7995 6.63028 21.1711 7.71402C21.5654 7.84078 21.9879 7.62385 22.1146 7.22951C22.2414 6.83517 22.0244 6.41273 21.6301 6.28598C18.0017 5.1197 14.6384 5.12119 12.1874 5.41145C10.9607 5.55672 9.95771 5.77485 9.25764 5.95801C8.90742 6.04964 8.63245 6.13266 8.44257 6.19369C8.34761 6.22422 8.27388 6.24926 8.2226 6.26715C8.19695 6.2761 8.17692 6.28326 8.16264 6.28843L8.14557 6.29466L8.14031 6.29661L8.1385 6.29728L8.13781 6.29754C8.13752 6.29765 8.13725 6.29775 8.40056 6.99992L8.13725 6.29775C7.74941 6.44319 7.55291 6.8755 7.69835 7.26334C7.84374 7.65104 8.27579 7.84755 8.66352 7.7024L8.66394 7.70225Z" fill="white"/>
</g>
<defs>
<linearGradient id="paint0_linear_7970_41200" x1="18.9458" y1="-9.6" x2="15.4496" y2="31.7195" gradientUnits="userSpaceOnUse">
<stop stop-color="#4399EB"/>
<stop offset="1" stop-color="#00498E"/>
</linearGradient>
</defs>
</svg>
