<svg width="33" height="32" viewBox="0 0 33 32" fill="none" xmlns="http://www.w3.org/2000/svg">
<rect x="0.199219" width="32" height="32" rx="16" fill="url(#paint0_linear_7970_41211)"/>
<g clip-path="url(#clip0_7970_41211)">
<mask id="mask0_7970_41211" style="mask-type:alpha" maskUnits="userSpaceOnUse" x="4" y="4" width="25" height="24">
<rect x="4.19922" y="4" width="24" height="24" fill="#D9D9D9"/>
</mask>
<g mask="url(#mask0_7970_41211)">
<path d="M9.19922 25C8.64922 25 8.17839 24.8042 7.78672 24.4125C7.39505 24.0208 7.19922 23.55 7.19922 23V9C7.19922 8.45 7.39505 7.97917 7.78672 7.5875C8.17839 7.19583 8.64922 7 9.19922 7H23.1992C23.7492 7 24.2201 7.19583 24.6117 7.5875C25.0034 7.97917 25.1992 8.45 25.1992 9V23C25.1992 23.55 25.0034 24.0208 24.6117 24.4125C24.2201 24.8042 23.7492 25 23.1992 25H9.19922ZM9.19922 23H23.1992V9H9.19922V23Z" fill="white"/>
<path d="M12.1992 20.0008V21.2508C12.1992 21.4674 12.2701 21.6466 12.4117 21.7883C12.5534 21.9299 12.7326 22.0008 12.9492 22.0008C13.1659 22.0008 13.3451 21.9299 13.4867 21.7883C13.6284 21.6466 13.6992 21.4674 13.6992 21.2508V20.0008H14.9492C15.1659 20.0008 15.3451 19.9299 15.4867 19.7883C15.6284 19.6466 15.6992 19.4674 15.6992 19.2508C15.6992 19.0341 15.6284 18.8549 15.4867 18.7133C15.3451 18.5716 15.1659 18.5008 14.9492 18.5008H13.6992V17.2508C13.6992 17.0341 13.6284 16.8549 13.4867 16.7133C13.3451 16.5716 13.1659 16.5008 12.9492 16.5008C12.7326 16.5008 12.5534 16.5716 12.4117 16.7133C12.2701 16.8549 12.1992 17.0341 12.1992 17.2508V18.5008H10.9492C10.7326 18.5008 10.5534 18.5716 10.4117 18.7133C10.2701 18.8549 10.1992 19.0341 10.1992 19.2508C10.1992 19.4674 10.2701 19.6466 10.4117 19.7883C10.5534 19.9299 10.7326 20.0008 10.9492 20.0008H12.1992ZM17.9492 21.2508H21.4492C21.6659 21.2508 21.8451 21.1799 21.9867 21.0383C22.1284 20.8966 22.1992 20.7174 22.1992 20.5008C22.1992 20.2841 22.1284 20.1049 21.9867 19.9633C21.8451 19.8216 21.6659 19.7508 21.4492 19.7508H17.9492C17.7326 19.7508 17.5534 19.8216 17.4117 19.9633C17.2701 20.1049 17.1992 20.2841 17.1992 20.5008C17.1992 20.7174 17.2701 20.8966 17.4117 21.0383C17.5534 21.1799 17.7326 21.2508 17.9492 21.2508ZM17.9492 18.7508H21.4492C21.6659 18.7508 21.8451 18.6799 21.9867 18.5383C22.1284 18.3966 22.1992 18.2174 22.1992 18.0008C22.1992 17.7841 22.1284 17.6049 21.9867 17.4633C21.8451 17.3216 21.6659 17.2508 21.4492 17.2508H17.9492C17.7326 17.2508 17.5534 17.3216 17.4117 17.4633C17.2701 17.6049 17.1992 17.7841 17.1992 18.0008C17.1992 18.2174 17.2701 18.3966 17.4117 18.5383C17.5534 18.6799 17.7326 18.7508 17.9492 18.7508ZM19.6992 13.5508L20.5742 14.4258C20.7242 14.5758 20.8992 14.6508 21.0992 14.6508C21.2992 14.6508 21.4742 14.5758 21.6242 14.4258C21.7576 14.2924 21.8284 14.1216 21.8367 13.9133C21.8451 13.7049 21.7826 13.5258 21.6492 13.3758L20.7492 12.4508L21.6242 11.5758C21.7742 11.4258 21.8492 11.2508 21.8492 11.0508C21.8492 10.8508 21.7742 10.6758 21.6242 10.5258C21.4742 10.3758 21.2992 10.3008 21.0992 10.3008C20.8992 10.3008 20.7242 10.3758 20.5742 10.5258L19.6992 11.4008L18.8242 10.5258C18.6742 10.3758 18.4992 10.3008 18.2992 10.3008C18.0992 10.3008 17.9242 10.3758 17.7742 10.5258C17.6242 10.6758 17.5492 10.8508 17.5492 11.0508C17.5492 11.2508 17.6242 11.4258 17.7742 11.5758L18.6492 12.4508L17.7492 13.3758C17.6159 13.5258 17.5492 13.7008 17.5492 13.9008C17.5492 14.1008 17.6242 14.2758 17.7742 14.4258C17.9242 14.5758 18.0992 14.6508 18.2992 14.6508C18.4992 14.6508 18.6742 14.5758 18.8242 14.4258L19.6992 13.5508ZM11.1992 13.2008H14.6992C14.9159 13.2008 15.0951 13.1299 15.2367 12.9883C15.3784 12.8466 15.4492 12.6674 15.4492 12.4508C15.4492 12.2341 15.3784 12.0549 15.2367 11.9133C15.0951 11.7716 14.9159 11.7008 14.6992 11.7008H11.1992C10.9826 11.7008 10.8034 11.7716 10.6617 11.9133C10.5201 12.0549 10.4492 12.2341 10.4492 12.4508C10.4492 12.6674 10.5201 12.8466 10.6617 12.9883C10.8034 13.1299 10.9826 13.2008 11.1992 13.2008Z" fill="white"/>
</g>
</g>
<defs>
<linearGradient id="paint0_linear_7970_41211" x1="18.7447" y1="-9.6" x2="15.2484" y2="31.7195" gradientUnits="userSpaceOnUse">
<stop stop-color="#4399EB"/>
<stop offset="1" stop-color="#00498E"/>
</linearGradient>
<clipPath id="clip0_7970_41211">
<rect width="24" height="24" fill="white" transform="translate(4.19922 4)"/>
</clipPath>
</defs>
</svg>
