<svg width="33" height="32" viewBox="0 0 33 32" fill="none" xmlns="http://www.w3.org/2000/svg">
<rect x="0.599609" width="32" height="32" rx="16" fill="url(#paint0_linear_7970_41187)"/>
<path d="M6 6.90909C6 6.40701 6.42736 6 6.95455 6C7.48173 6 7.90909 6.40701 7.90909 6.90909V23.2727C7.90909 23.7748 8.33646 24.1818 8.86364 24.1818L26.0455 24.1818C26.5726 24.1818 27 24.5888 27 25.0909C27 25.593 26.5726 26 26.0455 26H7.90909C6.85473 26 6 25.186 6 24.1818V6.90909Z" fill="white"/>
<path d="M23.933 9.37162C24.1244 8.85885 23.8917 8.27689 23.4131 8.07179C22.9345 7.86668 22.3913 8.11609 22.1999 8.62886L19.1675 16.7513C19.0512 17.0628 18.6872 17.1656 18.4427 16.9561L15.6757 14.5844C15.0044 14.009 14.0122 14.2117 13.5857 15.0115L10.1231 21.5037C9.86739 21.9832 10.0229 22.5941 10.4704 22.8681C10.918 23.1421 11.4881 22.9755 11.7438 22.496L14.665 17.0187C14.8072 16.7521 15.1379 16.6846 15.3617 16.8764L18.259 19.3598C18.9926 19.9885 20.0845 19.6801 20.4334 18.7456L23.933 9.37162Z" fill="white"/>
<defs>
<linearGradient id="paint0_linear_7970_41187" x1="19.1451" y1="-9.6" x2="15.6488" y2="31.7195" gradientUnits="userSpaceOnUse">
<stop stop-color="#4399EB"/>
<stop offset="1" stop-color="#00498E"/>
</linearGradient>
</defs>
</svg>
