<svg width="32" height="32" viewBox="0 0 32 32" fill="none" xmlns="http://www.w3.org/2000/svg">
<rect width="32" height="32" rx="16" fill="url(#paint0_linear_17081_88058)"/>
<mask id="mask0_17081_88058" style="mask-type:alpha" maskUnits="userSpaceOnUse" x="4" y="4" width="24" height="24">
<rect x="4" y="4" width="24" height="24" fill="white"/>
</mask>
<g mask="url(#mask0_17081_88058)">
<path d="M12.077 24.5V23H14.25V20.5H8.30775C7.80908 20.5 7.38308 20.3234 7.02975 19.9703C6.67658 19.6169 6.5 19.1909 6.5 18.6923V9.30775C6.5 8.80908 6.67658 8.38308 7.02975 8.02975C7.38308 7.67658 7.80908 7.5 8.30775 7.5H21.6923C22.1909 7.5 22.6169 7.67658 22.9703 8.02975C23.3234 8.38308 23.5 8.80908 23.5 9.30775V13.127H22V9.30775C22 9.21792 21.9712 9.14417 21.9135 9.0865C21.8558 9.02883 21.7821 9 21.6923 9H8.30775C8.21792 9 8.14417 9.02883 8.0865 9.0865C8.02883 9.14417 8 9.21792 8 9.30775V18.6923C8 18.7821 8.02883 18.8558 8.0865 18.9135C8.14417 18.9712 8.21792 19 8.30775 19H17.8462V20.5H15.75V23H17.923V24.5H12.077Z" fill="white"/>
<path d="M9.39474 18C9.28289 18 9.18917 17.9662 9.11355 17.8985C9.03785 17.8308 9 17.7469 9 17.6469C9 17.5469 9.03785 17.4631 9.11355 17.3955C9.18917 17.3279 9.28289 17.2941 9.39474 17.2941H18.6053C18.7171 17.2941 18.8108 17.328 18.8864 17.3956C18.9621 17.4633 19 17.5472 19 17.6472C19 17.7473 18.9621 17.8311 18.8864 17.8986C18.8108 17.9662 18.7171 18 18.6053 18H9.39474ZM10.1849 16.6425C10.0022 16.6425 9.84684 16.5853 9.71868 16.4709C9.59044 16.3566 9.52632 16.2177 9.52632 16.0542V14.3529C9.52632 14.1896 9.59022 14.0507 9.71803 13.9362C9.84583 13.8219 10.0011 13.7647 10.1837 13.7647C10.3662 13.7647 10.5216 13.8219 10.6497 13.9362C10.778 14.0507 10.8421 14.1896 10.8421 14.3529V16.0542C10.8421 16.2177 10.7782 16.3566 10.6504 16.4709C10.5226 16.5853 10.3674 16.6425 10.1849 16.6425ZM12.7253 16.6425C12.5427 16.6425 12.3873 16.5853 12.2591 16.4709C12.1309 16.3566 12.0668 16.2177 12.0668 16.0542V12C12.0668 11.8366 12.1307 11.6977 12.2586 11.5833C12.3864 11.4689 12.5415 11.4118 12.7241 11.4118C12.9067 11.4118 13.0621 11.4689 13.1903 11.5833C13.3185 11.6977 13.3826 11.8366 13.3826 12V16.0542C13.3826 16.2177 13.3187 16.3566 13.1909 16.4709C13.0631 16.5853 12.9079 16.6425 12.7253 16.6425ZM15.2708 16.6425C15.0882 16.6425 14.9329 16.5853 14.8046 16.4709C14.6764 16.3566 14.6124 16.2177 14.6124 16.0542V13.4118C14.6124 13.2484 14.6763 13.1095 14.8041 12.9951C14.9319 12.8807 15.0871 12.8235 15.2696 12.8235C15.4522 12.8235 15.6076 12.8807 15.7358 12.9951C15.864 13.1095 15.9282 13.2484 15.9282 13.4118V16.0542C15.9282 16.2177 15.8643 16.3566 15.7364 16.4709C15.6086 16.5853 15.4534 16.6425 15.2708 16.6425ZM17.8163 16.6425C17.6338 16.6425 17.4784 16.5853 17.3503 16.4709C17.222 16.3566 17.1579 16.2177 17.1579 16.0542V10.5882C17.1579 10.4249 17.2218 10.286 17.3496 10.1715C17.4774 10.0572 17.6326 10 17.8151 10C17.9978 10 18.1532 10.0572 18.2813 10.1715C18.4096 10.286 18.4737 10.4249 18.4737 10.5882V16.0542C18.4737 16.2177 18.4098 16.3566 18.282 16.4709C18.1542 16.5853 17.9989 16.6425 17.8163 16.6425Z" fill="white"/>
<path d="M23.3494 15.0522C23.5868 15.1016 23.8077 15.1874 24.0119 15.3094C24.2162 15.4315 24.4001 15.5833 24.5637 15.765L25.0419 15.5975C25.1822 15.548 25.3215 15.5475 25.4598 15.5961C25.598 15.6448 25.7065 15.7379 25.7854 15.8752L25.9075 16.089C25.9864 16.2264 26.0148 16.3733 25.9928 16.5298C25.9708 16.6865 25.8996 16.8155 25.7792 16.917L25.3931 17.2474C25.4645 17.494 25.5003 17.7448 25.5003 18C25.5003 18.2551 25.4645 18.506 25.3931 18.7526L25.7792 19.0931C25.8996 19.1947 25.9708 19.3221 25.9928 19.4752C26.0148 19.6284 25.9864 19.7736 25.9075 19.911L25.7854 20.1248C25.7065 20.2621 25.598 20.3552 25.4598 20.4039C25.3215 20.4524 25.1822 20.452 25.0419 20.4025L24.5637 20.235C24.4001 20.4167 24.2162 20.5685 24.0119 20.6906C23.8077 20.8126 23.5868 20.8984 23.3494 20.9478L23.2472 21.483C23.2165 21.634 23.1448 21.7579 23.0319 21.8547C22.9188 21.9516 22.7855 22 22.632 22L22.368 22C22.2145 22 22.0812 21.9516 21.9681 21.8547C21.8552 21.7579 21.7835 21.634 21.7528 21.483L21.6506 20.9478C21.4132 20.8984 21.1923 20.8126 20.9881 20.6906C20.7838 20.5685 20.5999 20.4167 20.4363 20.235L19.9581 20.4025C19.8178 20.452 19.6785 20.4524 19.5402 20.4039C19.402 20.3552 19.2935 20.2621 19.2146 20.1248L19.0925 19.911C19.0136 19.7736 18.9852 19.6267 19.0072 19.4702C19.0292 19.3135 19.1004 19.1845 19.2208 19.083L19.6069 18.7526C19.5355 18.506 19.4997 18.2552 19.4997 18C19.4997 17.7448 19.5355 17.494 19.6069 17.2474L19.2208 16.9069C19.1004 16.8053 19.0292 16.6779 19.0072 16.5248C18.9852 16.3716 19.0136 16.2264 19.0925 16.089L19.2146 15.8752C19.2935 15.7379 19.402 15.6448 19.5402 15.5961C19.6785 15.5475 19.8178 15.548 19.9581 15.5975L20.4363 15.765C20.5999 15.5833 20.7838 15.4315 20.9881 15.3094C21.1923 15.1874 21.4132 15.1016 21.6506 15.0522L21.7528 14.517C21.7835 14.366 21.8552 14.2421 21.9681 14.1453C22.0811 14.0484 22.2145 14 22.368 14L22.632 14C22.7855 14 22.9188 14.0484 23.0319 14.1453C23.1448 14.2421 23.2165 14.366 23.2472 14.517L23.3494 15.0522ZM22.5 16.0032C21.9603 16.0032 21.5016 16.1973 21.1238 16.5856C20.746 16.9738 20.5571 17.4453 20.5571 18C20.5571 18.5547 20.746 19.0262 21.1238 19.4144C21.5016 19.8027 21.9603 19.9968 22.5 19.9968C23.0397 19.9968 23.4984 19.8027 23.8762 19.4144C24.254 19.0262 24.4429 18.5547 24.4429 18C24.4429 17.4453 24.254 16.9738 23.8762 16.5856C23.4984 16.1973 23.0397 16.0032 22.5 16.0032Z" fill="white"/>
</g>
<defs>
<linearGradient id="paint0_linear_17081_88058" x1="18.5455" y1="-9.6" x2="15.0492" y2="31.7195" gradientUnits="userSpaceOnUse">
<stop stop-color="#4399EB"/>
<stop offset="1" stop-color="#00498E"/>
</linearGradient>
</defs>
</svg>
