<svg width="32" height="32" viewBox="0 0 32 32" fill="none" xmlns="http://www.w3.org/2000/svg">
<rect width="32" height="32" rx="16" fill="url(#paint0_linear_7970_40712)"/>
<g clip-path="url(#clip0_7970_40712)">
<mask id="mask0_7970_40712" style="mask-type:alpha" maskUnits="userSpaceOnUse" x="4" y="4" width="24" height="24">
<rect x="4" y="4" width="24" height="24" fill="#D9D9D9"/>
</mask>
<g mask="url(#mask0_7970_40712)">
<path d="M9 26C8.45 26 7.97917 25.8042 7.5875 25.4125C7.19583 25.0208 7 24.55 7 24V10C7 9.45 7.19583 8.97917 7.5875 8.5875C7.97917 8.19583 8.45 8 9 8H10V7C10 6.71667 10.0958 6.47917 10.2875 6.2875C10.4792 6.09583 10.7167 6 11 6C11.2833 6 11.5208 6.09583 11.7125 6.2875C11.9042 6.47917 12 6.71667 12 7V8H20V7C20 6.71667 20.0958 6.47917 20.2875 6.2875C20.4792 6.09583 20.7167 6 21 6C21.2833 6 21.5208 6.09583 21.7125 6.2875C21.9042 6.47917 22 6.71667 22 7V8H23C23.55 8 24.0208 8.19583 24.4125 8.5875C24.8042 8.97917 25 9.45 25 10V24C25 24.55 24.8042 25.0208 24.4125 25.4125C24.0208 25.8042 23.55 26 23 26H9ZM9 24H23V14H9V24ZM9 12H23V10H9V12ZM12 18C11.7167 18 11.4792 17.9042 11.2875 17.7125C11.0958 17.5208 11 17.2833 11 17C11 16.7167 11.0958 16.4792 11.2875 16.2875C11.4792 16.0958 11.7167 16 12 16H20C20.2833 16 20.5208 16.0958 20.7125 16.2875C20.9042 16.4792 21 16.7167 21 17C21 17.2833 20.9042 17.5208 20.7125 17.7125C20.5208 17.9042 20.2833 18 20 18H12ZM12 22C11.7167 22 11.4792 21.9042 11.2875 21.7125C11.0958 21.5208 11 21.2833 11 21C11 20.7167 11.0958 20.4792 11.2875 20.2875C11.4792 20.0958 11.7167 20 12 20H17C17.2833 20 17.5208 20.0958 17.7125 20.2875C17.9042 20.4792 18 20.7167 18 21C18 21.2833 17.9042 21.5208 17.7125 21.7125C17.5208 21.9042 17.2833 22 17 22H12Z" fill="white"/>
<path d="M12 18C11.7167 18 11.4792 17.9042 11.2875 17.7125C11.0958 17.5208 11 17.2833 11 17C11 16.7167 11.0958 16.4792 11.2875 16.2875C11.4792 16.0958 11.7167 16 12 16H20C20.2833 16 20.5208 16.0958 20.7125 16.2875C20.9042 16.4792 21 16.7167 21 17C21 17.2833 20.9042 17.5208 20.7125 17.7125C20.5208 17.9042 20.2833 18 20 18H12ZM12 22C11.7167 22 11.4792 21.9042 11.2875 21.7125C11.0958 21.5208 11 21.2833 11 21C11 20.7167 11.0958 20.4792 11.2875 20.2875C11.4792 20.0958 11.7167 20 12 20H17C17.2833 20 17.5208 20.0958 17.7125 20.2875C17.9042 20.4792 18 20.7167 18 21C18 21.2833 17.9042 21.5208 17.7125 21.7125C17.5208 21.9042 17.2833 22 17 22H12Z" fill="white"/>
</g>
</g>
<defs>
<linearGradient id="paint0_linear_7970_40712" x1="18.5455" y1="-9.6" x2="15.0492" y2="31.7195" gradientUnits="userSpaceOnUse">
<stop stop-color="#4399EB"/>
<stop offset="1" stop-color="#00498E"/>
</linearGradient>
<clipPath id="clip0_7970_40712">
<rect width="24" height="24" fill="white" transform="translate(4 4)"/>
</clipPath>
</defs>
</svg>
