<svg width="32" height="32" viewBox="0 0 32 32" fill="none" xmlns="http://www.w3.org/2000/svg">
<rect width="32" height="32" rx="16" fill="url(#paint0_linear_7970_41068)"/>
<g clip-path="url(#clip0_7970_41068)">
<mask id="mask0_7970_41068" style="mask-type:alpha" maskUnits="userSpaceOnUse" x="4" y="4" width="24" height="24">
<rect x="4" y="4" width="24" height="24" fill="#D9D9D9"/>
</mask>
<g mask="url(#mask0_7970_41068)">
<path d="M16 24C15.45 24 14.9792 23.8042 14.5875 23.4125C14.1958 23.0208 14 22.55 14 22V10C14 9.45 14.1958 8.97917 14.5875 8.5875C14.9792 8.19583 15.45 8 16 8C16.55 8 17.0208 8.19583 17.4125 8.5875C17.8042 8.97917 18 9.45 18 10V22C18 22.55 17.8042 23.0208 17.4125 23.4125C17.0208 23.8042 16.55 24 16 24Z" fill="white"/>
<path d="M22 24C21.45 24 20.9792 23.8042 20.5875 23.4125C20.1958 23.0208 20 22.55 20 22V19C20 18.45 20.1958 17.9792 20.5875 17.5875C20.9792 17.1958 21.45 17 22 17C22.55 17 23.0208 17.1958 23.4125 17.5875C23.8042 17.9792 24 18.45 24 19V22C24 22.55 23.8042 23.0208 23.4125 23.4125C23.0208 23.8042 22.55 24 22 24ZM10 24C9.45 24 8.97917 23.8042 8.5875 23.4125C8.19583 23.0208 8 22.55 8 22V15C8 14.45 8.19583 13.9792 8.5875 13.5875C8.97917 13.1958 9.45 13 10 13C10.55 13 11.0208 13.1958 11.4125 13.5875C11.8042 13.9792 12 14.45 12 15V22C12 22.55 11.8042 23.0208 11.4125 23.4125C11.0208 23.8042 10.55 24 10 24Z" fill="white"/>
</g>
</g>
<defs>
<linearGradient id="paint0_linear_7970_41068" x1="18.5455" y1="-9.6" x2="15.0492" y2="31.7195" gradientUnits="userSpaceOnUse">
<stop stop-color="#4399EB"/>
<stop offset="1" stop-color="#00498E"/>
</linearGradient>
<clipPath id="clip0_7970_41068">
<rect width="24" height="24" fill="white" transform="translate(4 4)"/>
</clipPath>
</defs>
</svg>
