<svg width="18" height="20" viewBox="0 0 18 20" fill="none" xmlns="http://www.w3.org/2000/svg">
<path d="M8 17.4988C8 17.1155 7.87083 16.7363 7.6125 16.3613C7.35417 15.9863 7.06667 15.5947 6.75 15.1863C6.43333 14.778 6.14583 14.353 5.8875 13.9113C5.62917 13.4697 5.5 12.9988 5.5 12.4988C5.5 11.5322 5.84167 10.7072 6.525 10.0238C7.20833 9.3405 8.03333 8.99883 9 8.99883C9.96667 8.99883 10.7917 9.3405 11.475 10.0238C12.1583 10.7072 12.5 11.5322 12.5 12.4988C12.5 12.9988 12.3708 13.4697 12.1125 13.9113C11.8542 14.353 11.5667 14.778 11.25 15.1863C10.9333 15.5947 10.6458 15.9863 10.3875 16.3613C10.1292 16.7363 10 17.1155 10 17.4988H8ZM9 19.9988C8.71667 19.9988 8.47917 19.903 8.2875 19.7113C8.09583 19.5197 8 19.2822 8 18.9988V18.4988H10V18.9988C10 19.2822 9.90417 19.5197 9.7125 19.7113C9.52083 19.903 9.28333 19.9988 9 19.9988ZM15 16.9988C14.85 16.8488 14.7625 16.6572 14.7375 16.4238C14.7125 16.1905 14.7667 15.9822 14.9 15.7988C15.25 15.2488 15.5208 14.653 15.7125 14.0113C15.9042 13.3697 16 12.6988 16 11.9988C16 11.0822 15.8375 10.2197 15.5125 9.41133C15.1875 8.60299 14.7333 7.88216 14.15 7.24883C13.9667 7.03216 13.8708 6.79466 13.8625 6.53633C13.8542 6.278 13.95 6.04883 14.15 5.84883C14.35 5.64883 14.5917 5.54883 14.875 5.54883C15.1583 5.54883 15.3917 5.64883 15.575 5.84883C16.325 6.64883 16.9167 7.57383 17.35 8.62383C17.7833 9.67383 18 10.7988 18 11.9988C18 12.8988 17.875 13.7613 17.625 14.5863C17.375 15.4113 17.025 16.1738 16.575 16.8738C16.3917 17.1572 16.1417 17.3072 15.825 17.3238C15.5083 17.3405 15.2333 17.2322 15 16.9988ZM1.425 16.8738C0.975 16.1738 0.625 15.4113 0.375 14.5863C0.125 13.7613 0 12.8988 0 11.9988C0 9.49883 0.875 7.37383 2.625 5.62383C4.375 3.87383 6.5 2.99883 9 2.99883H9.2L8.3 2.09883C8.11667 1.91549 8.025 1.68216 8.025 1.39883C8.025 1.11549 8.11667 0.882161 8.3 0.698828C8.48333 0.515495 8.71667 0.423828 9 0.423828C9.28333 0.423828 9.51667 0.515495 9.7 0.698828L12.3 3.29883C12.4 3.39883 12.4708 3.50716 12.5125 3.62383C12.5542 3.74049 12.575 3.86549 12.575 3.99883C12.575 4.13216 12.5542 4.25716 12.5125 4.37383C12.4708 4.49049 12.4 4.59883 12.3 4.69883L9.7 7.29883C9.5 7.49883 9.26667 7.59466 9 7.58633C8.73333 7.57799 8.5 7.47383 8.3 7.27383C8.1 7.07383 8 6.83633 8 6.56133C8 6.28633 8.1 6.04883 8.3 5.84883L9.15 4.99883H9C7.06667 4.99883 5.41667 5.68216 4.05 7.04883C2.68333 8.41549 2 10.0655 2 11.9988C2 12.6988 2.09583 13.3697 2.2875 14.0113C2.47917 14.653 2.75 15.2488 3.1 15.7988C3.23333 15.9822 3.2875 16.1905 3.2625 16.4238C3.2375 16.6572 3.15 16.8488 3 16.9988C2.76667 17.2322 2.49167 17.3405 2.175 17.3238C1.85833 17.3072 1.60833 17.1572 1.425 16.8738Z" fill="#3E80E2"/>
</svg>
