<svg width="32" height="32" viewBox="0 0 32 32" fill="none" xmlns="http://www.w3.org/2000/svg">
<rect width="32" height="32" rx="16" fill="url(#paint0_linear_7970_41000)"/>
<g clip-path="url(#clip0_7970_41000)">
<mask id="mask0_7970_41000" style="mask-type:alpha" maskUnits="userSpaceOnUse" x="4" y="4" width="24" height="24">
<rect x="4" y="4" width="24" height="24" fill="#D9D9D9"/>
</mask>
<g mask="url(#mask0_7970_41000)">
<path d="M10.5 24C10.0833 24 9.72917 23.8542 9.4375 23.5625C9.14583 23.2708 9 22.9167 9 22.5V19.5C9 19.0833 9.14583 18.7292 9.4375 18.4375C9.72917 18.1458 10.0833 18 10.5 18C10.9167 18 11.2708 18.1458 11.5625 18.4375C11.8542 18.7292 12 19.0833 12 19.5V22.5C12 22.9167 11.8542 23.2708 11.5625 23.5625C11.2708 23.8542 10.9167 24 10.5 24ZM22.5 24C22.0833 24 21.7292 23.8542 21.4375 23.5625C21.1458 23.2708 21 22.9167 21 22.5V9.5C21 9.08333 21.1458 8.72917 21.4375 8.4375C21.7292 8.14583 22.0833 8 22.5 8C22.9167 8 23.2708 8.14583 23.5625 8.4375C23.8542 8.72917 24 9.08333 24 9.5V22.5C24 22.9167 23.8542 23.2708 23.5625 23.5625C23.2708 23.8542 22.9167 24 22.5 24Z" fill="white"/>
<path d="M16.5 24C16.0833 24 15.7292 23.8542 15.4375 23.5625C15.1458 23.2708 15 22.9167 15 22.5V14.5C15 14.0833 15.1458 13.7292 15.4375 13.4375C15.7292 13.1458 16.0833 13 16.5 13C16.9167 13 17.2708 13.1458 17.5625 13.4375C17.8542 13.7292 18 14.0833 18 14.5V22.5C18 22.9167 17.8542 23.2708 17.5625 23.5625C17.2708 23.8542 16.9167 24 16.5 24Z" fill="white"/>
</g>
</g>
<defs>
<linearGradient id="paint0_linear_7970_41000" x1="18.5455" y1="-9.6" x2="15.0492" y2="31.7195" gradientUnits="userSpaceOnUse">
<stop stop-color="#4399EB"/>
<stop offset="1" stop-color="#00498E"/>
</linearGradient>
<clipPath id="clip0_7970_41000">
<rect width="24" height="24" fill="white" transform="translate(4 4)"/>
</clipPath>
</defs>
</svg>
