<svg width="32" height="32" viewBox="0 0 32 32" fill="none" xmlns="http://www.w3.org/2000/svg">
<rect width="32" height="32" rx="16" fill="url(#paint0_linear_7970_41034)"/>
<g clip-path="url(#clip0_7970_41034)">
<mask id="mask0_7970_41034" style="mask-type:alpha" maskUnits="userSpaceOnUse" x="4" y="4" width="24" height="24">
<rect x="4" y="4" width="24" height="24" fill="#D9D9D9"/>
</mask>
<g mask="url(#mask0_7970_41034)">
<path d="M9 25C8.45 25 7.97917 24.8042 7.5875 24.4125C7.19583 24.0208 7 23.55 7 23V9C7 8.45 7.19583 7.97917 7.5875 7.5875C7.97917 7.19583 8.45 7 9 7H23C23.55 7 24.0208 7.19583 24.4125 7.5875C24.8042 7.97917 25 8.45 25 9V23C25 23.55 24.8042 24.0208 24.4125 24.4125C24.0208 24.8042 23.55 25 23 25H9ZM9 23H23V9H9V23Z" fill="white"/>
<path d="M12 16C11.7167 16 11.4792 16.0958 11.2875 16.2875C11.0958 16.4792 11 16.7167 11 17V20C11 20.2833 11.0958 20.5208 11.2875 20.7125C11.4792 20.9042 11.7167 21 12 21C12.2833 21 12.5208 20.9042 12.7125 20.7125C12.9042 20.5208 13 20.2833 13 20V17C13 16.7167 12.9042 16.4792 12.7125 16.2875C12.5208 16.0958 12.2833 16 12 16ZM20 11C19.7167 11 19.4792 11.0958 19.2875 11.2875C19.0958 11.4792 19 11.7167 19 12V20C19 20.2833 19.0958 20.5208 19.2875 20.7125C19.4792 20.9042 19.7167 21 20 21C20.2833 21 20.5208 20.9042 20.7125 20.7125C20.9042 20.5208 21 20.2833 21 20V12C21 11.7167 20.9042 11.4792 20.7125 11.2875C20.5208 11.0958 20.2833 11 20 11ZM16 18C15.7167 18 15.4792 18.0958 15.2875 18.2875C15.0958 18.4792 15 18.7167 15 19V20C15 20.2833 15.0958 20.5208 15.2875 20.7125C15.4792 20.9042 15.7167 21 16 21C16.2833 21 16.5208 20.9042 16.7125 20.7125C16.9042 20.5208 17 20.2833 17 20V19C17 18.7167 16.9042 18.4792 16.7125 18.2875C16.5208 18.0958 16.2833 18 16 18ZM16 16C16.2833 16 16.5208 15.9042 16.7125 15.7125C16.9042 15.5208 17 15.2833 17 15C17 14.7167 16.9042 14.4792 16.7125 14.2875C16.5208 14.0958 16.2833 14 16 14C15.7167 14 15.4792 14.0958 15.2875 14.2875C15.0958 14.4792 15 14.7167 15 15C15 15.2833 15.0958 15.5208 15.2875 15.7125C15.4792 15.9042 15.7167 16 16 16Z" fill="white"/>
</g>
</g>
<defs>
<linearGradient id="paint0_linear_7970_41034" x1="18.5455" y1="-9.6" x2="15.0492" y2="31.7195" gradientUnits="userSpaceOnUse">
<stop stop-color="#4399EB"/>
<stop offset="1" stop-color="#00498E"/>
</linearGradient>
<clipPath id="clip0_7970_41034">
<rect width="24" height="24" fill="white" transform="translate(4 4)"/>
</clipPath>
</defs>
</svg>
