<svg width="32" height="32" viewBox="0 0 32 32" fill="none" xmlns="http://www.w3.org/2000/svg">
<rect width="32" height="32" rx="16" fill="url(#paint0_linear_7970_40837)"/>
<g clip-path="url(#clip0_7970_40837)">
<mask id="mask0_7970_40837" style="mask-type:alpha" maskUnits="userSpaceOnUse" x="4" y="4" width="24" height="24">
<rect x="4" y="4" width="24" height="24" fill="#D9D9D9"/>
</mask>
<g mask="url(#mask0_7970_40837)">
<path d="M8 25C7.45 25 6.97917 24.8042 6.5875 24.4125C6.19583 24.0208 6 23.55 6 23V9C6 8.45 6.19583 7.97917 6.5875 7.5875C6.97917 7.19583 7.45 7 8 7H22C22.55 7 23.0208 7.19583 23.4125 7.5875C23.8042 7.97917 24 8.45 24 9V13C24 13.2833 23.9042 13.5208 23.7125 13.7125C23.5208 13.9042 23.2833 14 23 14H8V25ZM8 12H22V9H8V12Z" fill="white"/>
<path d="M10.7008 25.3004C10.5174 25.1171 10.4258 24.8837 10.4258 24.6004C10.4258 24.3171 10.5174 24.0837 10.7008 23.9004L15.4758 19.1004C15.8591 18.7171 16.3341 18.5254 16.9008 18.5254C17.4674 18.5254 17.9424 18.7171 18.3258 19.1004L20.4008 21.1754L24.8758 16.7004C25.0758 16.5004 25.3091 16.4004 25.5758 16.4004C25.8424 16.4004 26.0758 16.5004 26.2758 16.7004C26.4758 16.9004 26.5758 17.1379 26.5758 17.4129C26.5758 17.6879 26.4758 17.9254 26.2758 18.1254L21.8258 22.6004C21.4424 22.9837 20.9716 23.1754 20.4133 23.1754C19.8549 23.1754 19.3841 22.9837 19.0008 22.6004L16.9008 20.5004L12.1008 25.3004C11.9174 25.4837 11.6883 25.5796 11.4133 25.5879C11.1383 25.5962 10.9008 25.5004 10.7008 25.3004Z" fill="white"/>
</g>
</g>
<defs>
<linearGradient id="paint0_linear_7970_40837" x1="18.5455" y1="-9.6" x2="15.0492" y2="31.7195" gradientUnits="userSpaceOnUse">
<stop stop-color="#4399EB"/>
<stop offset="1" stop-color="#00498E"/>
</linearGradient>
<clipPath id="clip0_7970_40837">
<rect width="24" height="24" fill="white" transform="translate(4 4)"/>
</clipPath>
</defs>
</svg>
