<svg width="32" height="32" viewBox="0 0 32 32" fill="none" xmlns="http://www.w3.org/2000/svg">
<rect width="32" height="32" rx="16" fill="url(#paint0_linear_7970_41050)"/>
<g clip-path="url(#clip0_7970_41050)">
<mask id="mask0_7970_41050" style="mask-type:alpha" maskUnits="userSpaceOnUse" x="4" y="4" width="24" height="24">
<rect x="4" y="4" width="24" height="24" fill="#D9D9D9"/>
</mask>
<g mask="url(#mask0_7970_41050)">
<path d="M13.7254 25.725C11.4921 25.2083 9.65039 24.05 8.20039 22.25C6.75039 20.45 6.02539 18.3666 6.02539 16C6.02539 13.6333 6.75039 11.5541 8.20039 9.76246C9.65039 7.97079 11.4921 6.80829 13.7254 6.27496C14.0587 6.19162 14.3587 6.25829 14.6254 6.47496C14.8921 6.69162 15.0254 6.96662 15.0254 7.29996V13C15.0254 13.0166 14.9754 13.0833 14.8754 13.2C14.3087 13.4333 13.8587 13.8041 13.5254 14.3125C13.1921 14.8208 13.0254 15.3833 13.0254 16C13.0254 16.6166 13.1921 17.1708 13.5254 17.6625C13.8587 18.1541 14.3087 18.5166 14.8754 18.75C14.9087 18.7666 14.9587 18.8333 15.0254 18.95V24.75C15.0254 25.0833 14.8921 25.35 14.6254 25.55C14.3587 25.75 14.0587 25.8083 13.7254 25.725ZM13.0254 8.59996C11.5087 9.18329 10.2962 10.15 9.38789 11.5C8.47956 12.85 8.02539 14.35 8.02539 16C8.02539 17.65 8.47956 19.15 9.38789 20.5C10.2962 21.85 11.5087 22.8333 13.0254 23.45V20C12.3921 19.5166 11.9004 18.9291 11.5504 18.2375C11.2004 17.5458 11.0254 16.8 11.0254 16C11.0254 15.2 11.2004 14.4541 11.5504 13.7625C11.9004 13.0708 12.3921 12.4833 13.0254 12V8.59996Z" fill="white"/>
<path d="M17.0254 7.25005C17.0254 6.91671 17.1587 6.65005 17.4254 6.45005C17.6921 6.25005 17.9921 6.19171 18.3254 6.27505C20.1921 6.67505 21.8046 7.56671 23.1629 8.95005C24.5212 10.3334 25.4004 11.9834 25.8004 13.9C25.8671 14.1834 25.8046 14.4375 25.6129 14.6625C25.4212 14.8875 25.1587 15 24.8254 15H19.0504C18.9837 15 18.9254 14.9834 18.8754 14.95C18.8254 14.9167 18.7837 14.8667 18.7504 14.8C18.6004 14.45 18.3921 14.1375 18.1254 13.8625C17.8587 13.5875 17.5587 13.375 17.2254 13.225C17.1587 13.1917 17.1087 13.1542 17.0754 13.1125C17.0421 13.0709 17.0254 13.0167 17.0254 12.95V7.25005ZM19.0254 8.60005V12C19.2087 12.15 19.3837 12.3084 19.5504 12.475C19.7171 12.6417 19.8754 12.8167 20.0254 13H23.4254C23.0254 12 22.4421 11.1167 21.6754 10.35C20.9087 9.58338 20.0254 9.00005 19.0254 8.60005ZM18.3254 25.725C17.9921 25.8084 17.6921 25.75 17.4254 25.55C17.1587 25.35 17.0254 25.0834 17.0254 24.75V19.025C17.0254 18.9584 17.0421 18.9 17.0754 18.85C17.1087 18.8 17.1587 18.7584 17.2254 18.725C17.5587 18.575 17.8587 18.3667 18.1254 18.1C18.3921 17.8334 18.6004 17.5334 18.7504 17.2C18.7671 17.1667 18.8587 17.1 19.0254 17H24.8254C25.1254 17 25.3754 17.125 25.5754 17.375C25.7754 17.625 25.8421 17.9084 25.7754 18.225C25.3587 20.1417 24.4671 21.775 23.1004 23.125C21.7337 24.475 20.1421 25.3417 18.3254 25.725ZM20.0254 19C19.8921 19.1834 19.7379 19.3584 19.5629 19.525C19.3879 19.6917 19.2087 19.85 19.0254 20V23.4C20.0254 23 20.9087 22.4167 21.6754 21.65C22.4421 20.8834 23.0254 20 23.4254 19H20.0254Z" fill="white"/>
</g>
</g>
<defs>
<linearGradient id="paint0_linear_7970_41050" x1="18.5455" y1="-9.6" x2="15.0492" y2="31.7195" gradientUnits="userSpaceOnUse">
<stop stop-color="#4399EB"/>
<stop offset="1" stop-color="#00498E"/>
</linearGradient>
<clipPath id="clip0_7970_41050">
<rect width="24" height="24" fill="white" transform="translate(4 4)"/>
</clipPath>
</defs>
</svg>
